<?xml version="1.0" encoding="utf-8"?>
<!-- Generator: Adobe Illustrator 19.0.0, SVG Export Plug-In . SVG Version: 6.00 Build 0)  -->
<svg version="1.1" id="Layer_1" xmlns="http://www.w3.org/2000/svg" xmlns:xlink="http://www.w3.org/1999/xlink" x="0px" y="0px"
	 viewBox="0 0 633.8 536.2" style="enable-background:new 0 0 633.8 536.2;" xml:space="preserve">
<style type="text/css">
	.st0{fill-rule:evenodd;clip-rule:evenodd;fill:#2085E1;}
	.st1{fill-rule:evenodd;clip-rule:evenodd;}
	.st2{fill-rule:evenodd;clip-rule:evenodd;fill:#00478A;}
	.st3{fill:#FFFFFF;}
	.st4{fill-rule:evenodd;clip-rule:evenodd;fill:#A5A5A5;}
	.st5{fill-rule:evenodd;clip-rule:evenodd;fill:#FDB700;}
	.st6{fill-rule:evenodd;clip-rule:evenodd;fill:#B95700;}
	.st7{fill-rule:evenodd;clip-rule:evenodd;fill:#870005;}
	.st8{fill-rule:evenodd;clip-rule:evenodd;fill:#E62129;}
	.st9{fill-rule:evenodd;clip-rule:evenodd;fill:#FFFFFF;}
	.st10{fill-rule:evenodd;clip-rule:evenodd;fill:#0A0045;}
</style>
<path class="st0" d="M501.4,376.8c10.3,15.1,12.7,31,11.2,50.4l-1.7,22.5l-13.4-18.1c-5.5-7.5-13.4-13.6-22.7-15.1
	c-0.3,0.4-0.6,0.7-0.8,1.1c-41.2,52.9-94.6,90.9-156,117.3l-3.3,1.4l-3.3-1.4c-61.3-26.3-114.8-64.4-156-117.3
	C116,366.9,92.2,308.1,78.7,246.4L8.7,220.3L0,217.1l1.5-11.3l3.1-23.3c1.4-10.5,2.8-20.9,4.2-31.4l2.7-19.6l5.6-1.1
	c1.2-8.9,2.3-17.8,3.5-26.7c0.6-4.6,1.2-9.2,1.8-13.8L16.9,90l4.4-32.7c1.4-10.4,2.8-20.8,4.3-31.3l3.3-24l24.3,0
	c180.6,0.2,361.2,0,541.8,0h7.3l3.4,23.9c1.8,12.5,3.5,25.1,5.2,37.6l4.6,33.5L604,96.3c-0.1,8.4-0.1,16.9-0.2,25.3l0,0.4l15.4,2.8
	l2.7,19.9c1.7,12.5,3.4,25,5.1,37.5l3.2,23.5l1.5,11.3l-8.5,3.2l-72.9,27.2C540.4,292.8,524.8,336.7,501.4,376.8"/>
<path class="st1" d="M315.9,80.1L9.2,211.5l74.5,27.8c67.6-10.1,143.4-16.7,232.2-16.7c88.8,0,164.5,6.6,232.2,16.7l74.5-27.8
	L315.9,80.1z"/>
<path class="st1" d="M72.9,65.5C65.6,289.6,135.2,450,314.7,527.1C494.2,450,563.7,289.6,556.5,65.5H72.9z"/>
<path class="st0" d="M315.9,497.1c50.6-23.1,94.8-55.4,129.2-99.7c69.1-88.9,85-208.5,81.2-320.8h-421
	c-3.8,112.3,12.1,232,81.2,320.8C221.1,441.7,265.3,474,315.9,497.1"/>
<path class="st2" d="M307.9,474.7c-42.9-21.1-80.5-49.8-110-87.6c-64.8-83.3-78.7-195.7-75.1-298.2l0.6-17.4h384.8l0.6,17.4
	c3.6,102.5-10.3,214.9-75.1,298.2c-29.5,37.9-67,66.6-110,87.6l-7.9,3.9L307.9,474.7z"/>
<path class="st1" d="M315.9,458.5c40.4-19.8,75.8-46.7,103.7-82.5c61.4-79,74.8-187,71.4-286.5H140.8C137.4,189,150.8,297,212.2,376
	C240.1,411.8,275.5,438.7,315.9,458.5"/>
<path class="st1" d="M594.9,10.4l2.3,16.7c1.8,12.5,3.5,25.1,5.2,37.6l3.2,23.4l-9.9-0.6l0,4c-0.1,10-0.2,20-0.3,30.1l-0.1,7.4
	c0.9,0.2,1.7,0.3,2.6,0.5l13.8,2.5l1.9,13.9c1.7,12.5,3.4,25,5.1,37.5l3.8,28.1c-240.9-57.5-374.5-58.4-613.4,0.1l3.7-28.1
	c1.4-10.4,2.8-20.9,4.2-31.3l1.9-13.7l5.6-1.1c1.4-10.9,2.9-21.7,4.3-32.6c1-7.9,2.1-15.7,3.1-23.6l-5.4,0.2l3.1-22.8
	c1.4-10.4,2.8-20.8,4.3-31.3l2.3-16.8l16.9,0C233.9,10.6,413.8,10.4,594.9,10.4"/>
<path class="st3" d="M599.5,186c-1.7-12.5-3.4-25-5.1-37.5c-7-1.3-14-2.6-20.9-3.9c0.3,2,0.5,4,0.7,6c-3.8-0.7-7.7-1.5-11.4-2.2
	c-1.2-9.9-2.4-19.7-3.7-29.6c5.6,0.8,11.3,1.7,16.9,2.5c0.1-9.9,0.2-20,0.3-30.1c-6.9-0.7-13.8-1.4-20.7-2.1
	c-1.2-9.9-2.4-19.8-3.7-29.7c3.5,0.2,7.1,0.4,10.7,0.6c0.3,2,0.6,4,0.8,6.1c6.6,0.4,13.2,0.8,19.8,1.2c-1.7-12.5-3.4-25-5.2-37.5
	c-18.2,0-36.3,0-54.3,0c1.1,9.5,2.2,19.1,3.1,28.6c1.8,0.1,3.6,0.2,5.4,0.2c1.6,14.4,3.2,28.8,4.8,43.1c1.6,14.4,3.2,28.8,4.8,43.1
	c-1.9-0.3-3.8-0.7-5.6-1c1,9.5,2,19,3.1,28.5C559.3,176.5,579.4,181.2,599.5,186 M492.9,163.9c7.5,1.3,15.2,2.7,22.8,4
	c-1.8-18.4-3.6-36.8-5.4-55.2c-1.8-18.4-3.6-36.8-5.4-55.2c1.8,0.1,3.5,0.1,5.3,0.2c-0.9-9.3-1.9-18.6-2.8-27.9
	c-9.9,0-19.8,0-29.7,0c0.8,8.9,1.5,17.8,2.3,26.7c1.8,0.1,3.5,0.1,5.3,0.2c0.7,8.3,1.4,16.6,2.2,24.9c0.7,8.3,1.5,16.6,2.2,24.8
	c-4.8-13.1-9.6-26-14.2-38.8c-4.6-12.7-9.1-25.3-13.6-37.8c-8.7,0-17.5,0-26.2,0c0.6,8.5,1.1,17,1.6,25.5c1.8,0,3.5,0.1,5.3,0.1
	c0.9,12.8,1.7,25.6,2.6,38.4c0.9,12.8,1.6,25.6,2.5,38.4c-1.9-0.2-3.7-0.3-5.5-0.5c0.5,8.5,1,17,1.6,25.5c10.6,1.2,21.3,2.7,32,4.2
	c-0.7-8.8-1.4-17.5-2.1-26.3c-1.9-0.2-3.7-0.4-5.6-0.6c-0.6-8.1-1.3-16.1-1.9-24.2c-0.6-8-1.2-16.1-1.8-24.2
	c4.6,12.7,9.2,25.5,13.9,38.4C483.1,137.5,488,150.7,492.9,163.9z M385.1,127.4c-0.5-12.2-0.8-24.4-1.2-36.6
	c-0.4-12.2-0.9-24.4-1.4-36.6c6.2,0.1,12.4,0.2,18.6,0.3c0.6,12.4,1.1,24.7,1.7,37.1c0.6,12.3,1.1,24.7,1.7,37
	C398.1,128.3,391.6,127.8,385.1,127.4z M377.6,151.3c12.1,0.7,24.2,1.7,36.4,2.7c6.6,0.5,11.7-6.2,11.2-15.1
	c-0.9-15.5-1.6-30.9-2.5-46.4c-0.9-15.5-1.7-30.9-2.6-46.4c-0.5-9-6.1-16.3-12.4-16.3c-11.3,0-22.8,0-34.1,0
	c-6.2,0-11.1,7.1-11,15.8c0.3,14.9,0.7,29.8,1.1,44.7c0.4,14.9,0.8,29.8,1.1,44.7C365.3,143.7,371,151,377.6,151.3z M316.5,149.4
	c10.5,0.2,21.1,0.4,31.6,0.5c-0.2-8-0.3-16-0.5-24c-1.9,0-3.7-0.1-5.5-0.1c-0.2-12-0.3-24-0.5-36c-0.2-12-0.3-24-0.5-36
	c1.8,0,3.5,0,5.3,0c-0.1-8-0.2-16-0.4-24.1c-9.9,0-19.9,0-29.7,0c0.1,8,0.1,16,0.1,24c1.8,0,3.5,0,5.3,0c0.1,12,0.1,23.9,0.2,35.9
	c0.1,11.9,0.1,23.9,0.1,35.9c-1.8,0-3.7,0-5.4-0.1C316.5,133.5,316.5,141.4,316.5,149.4z M253.5,151.1c11.2-0.5,22.4-1.1,33.5-1.3
	c6.6-0.1,12-7.2,12.1-15.7c0.1-6,0.1-12,0.2-18c0-6,0-12,0.1-18c-6.8,2-13.3,4.1-20.1,6.2c-0.1,7.2-0.3,14.4-0.3,21.6
	c-5.6,0.2-11,0.4-16.6,0.6c0.3-12.1,0.6-24.2,0.9-36.3c0.3-12.1,0.6-24.2,0.9-36.3c5.3-0.1,10.6-0.1,15.9-0.2
	c-0.1,7.2-0.2,14.4-0.3,21.6c6.6-2,13.2-4.1,19.7-6.1c0.1-8,0.1-16,0.2-24c0.1-8.6-5-15.6-11.2-15.6c-10.5,0-21,0-31.5,0
	c-6.3,0-11.7,7.2-12,15.9c-0.5,15.1-1,30.1-1.5,45.2c-0.5,15-1,30.1-1.6,45.1C241.6,144.7,246.9,151.4,253.5,151.1z M179.9,157.6
	c10.7-1.2,21.3-2.5,31.9-3.5c6.7-0.6,12.4-8.2,12.8-17c0.3-5.8,0.5-11.7,0.8-17.5c0.3-5.8,0.5-11.7,0.7-17.5
	c0.3-6.4-2.4-12-6.6-14.4C210.7,82.9,202,78,193.3,73c0.4-5.9,0.7-11.8,1.1-17.7c4.7-0.1,9.4-0.2,14.2-0.4c-0.3,5-0.5,10-0.7,15
	c6.6-2.3,13.2-4.5,19.9-6.7c0.2-5.7,0.5-11.5,0.7-17.3c0.4-8.8-4.4-16.1-10.7-16.1c-9.9,0-19.8,0-29.7,0c-6.2,0-12,7.6-12.6,16.8
	c-0.4,5.5-0.7,11-1.1,16.5c-0.4,5.5-0.8,10.9-1.2,16.4c-0.5,6.7,2,12.5,6.2,14.8c8.7,4.8,17.5,9.6,26.4,14.3
	c-0.3,7.1-0.8,14.2-1.1,21.3c-5,0.5-9.9,0.9-14.8,1.4c0.3-5.1,0.6-10.2,0.9-15.2c-6.9,2.7-13.8,5.3-20.7,8.2
	c-0.5,6-0.9,12.1-1.3,18.1C168.1,151.6,173.2,158.4,179.9,157.6z M117.7,167.1c10.8-1.9,21.6-3.8,32.3-5.4c0.6-8.8,1.4-17.6,2-26.4
	c-1.9,0.2-3.7,0.4-5.6,0.7c1.1-13.3,2.2-26.6,3.2-39.8c1.1-13.3,2.2-26.6,3.2-39.8c1.8-0.1,3.5-0.1,5.3-0.2
	c0.7-8.8,1.5-17.6,2.2-26.4c-9.9,0-19.8,0-29.7,0c-0.9,9.2-1.8,18.3-2.7,27.5c1.8,0,3.5-0.1,5.3-0.2c-1.2,13.6-2.4,27.3-3.7,40.9
	c-1.2,13.6-2.6,27.3-3.8,40.9c-1.9,0.3-3.7,0.6-5.6,0.8C119.4,148.9,118.5,158,117.7,167.1z M70.2,89.6c1.2-10,2.4-19.9,3.6-29.9
	c6-0.3,11.9-0.6,17.9-0.9c-1.1,9.7-2.2,19.4-3.3,29C82.4,88.4,76.3,89,70.2,89.6z M62.9,149.4c1.1-10,2.4-19.9,3.6-29.9
	c6.2-1,12.4-1.8,18.7-2.6c-1.1,9.7-2.2,19.3-3.3,29C75.5,147,69.2,148.1,62.9,149.4z M87.3,173.1c6.9-1.5,13.2-10.9,14.3-20.9
	c1.3-11.7,2.4-23.4,3.6-35.1c0.8-7.6-1.5-13.7-5.6-16c4.5-3.3,8.2-10.1,9-17.7c1.2-11.7,2.4-23.4,3.6-35.1c1-10.1-3.2-18.3-9.4-18.3
	c-16.6,0-33.3,0-49.8,0c-1.4,10.4-2.8,20.8-4.3,31.3c1.8-0.1,3.5-0.2,5.3-0.3c-2.1,15.5-4.1,31-6.1,46.4c-2,15.4-4.1,31-6.1,46.4
	c-1.9,0.4-3.9,0.8-5.7,1.1c-1.4,10.4-2.8,20.8-4.2,31.2C50.6,181.4,69,177,87.3,173.1z"/>
<path class="st4" d="M59.8,149.1c1.1-10,2.4-19.9,3.6-29.9l0.3-2.4l2.4-0.4c6.2-1,12.5-1.8,18.7-2.6l4-0.5l-0.5,4
	c-1.1,9.7-2.2,19.3-3.3,29l-0.3,2.4l-2.4,0.4c-6.3,1.1-12.6,2.2-18.9,3.5l-4.3,0.9L59.8,149.1z M246.7,89.3c4.5-0.2,9-0.3,13.5-0.4
	l0,1.3c-0.3,12.1-0.6,24.2-0.9,36.3l-0.1,3.4l3.4-0.1c5.5-0.2,11-0.4,16.6-0.6l3-0.1l0-3c0.1-6.4,0.2-12.9,0.3-19.3
	c4.6-1.4,9.2-2.8,13.7-4.2c0,4.6,0,9.1-0.1,13.7c0,6-0.1,12-0.2,17.9c-0.1,4.7-2.5,11-7.5,12.4c-0.5,0.1-1,0.2-1.6,0.2
	c-11.2,0.2-22.4,0.8-33.6,1.3c-0.8,0-1.5-0.1-2.2-0.3c-4.5-1.6-6.2-7.3-6-11.6c0.5-15,1-30.1,1.6-45.1L246.7,89.3z M182.8,92.6
	c11.5-0.8,23.3-1.5,35.2-2.1c3.8,2.1,5.2,7.4,5,11.4c-0.2,5.8-0.5,11.7-0.7,17.5c-0.3,5.8-0.5,11.7-0.8,17.5c-0.2,3.5-1.3,7-3.4,9.8
	c-1.6,2.1-3.9,3.9-6.5,4.2c-10.7,1-21.3,2.3-32,3.5c-0.9,0.1-1.8,0-2.6-0.3c-4.2-1.7-5.3-7.6-5-11.5c0.4-5.4,0.7-10.8,1.1-16.1
	c4.7-1.9,9.4-3.8,14.2-5.6c-0.2,3.4-0.4,6.9-0.6,10.3l-0.2,3.7l3.7-0.3c4.9-0.5,9.9-0.9,14.8-1.4l2.7-0.2l0.1-2.8
	c0.3-7.1,0.8-14.2,1.1-21.3l0.1-2l-1.8-0.9C199.1,101.6,190.9,97.1,182.8,92.6z M133,96.8c4.5-0.5,9-0.9,13.6-1.3l0,0.5
	c-1.1,13.3-2.2,26.6-3.2,39.8l-0.3,3.9l3.8-0.5c0.6-0.1,1.2-0.1,1.7-0.2c-0.5,6.7-1.1,13.3-1.6,20c-8.6,1.3-17.2,2.8-25.8,4.3
	c0.6-6.9,1.3-13.9,2-20.8c1.1-0.2,2.1-0.3,3.2-0.5l2.4-0.4l0.2-2.5c1.2-13.6,2.6-27.2,3.8-40.9L133,96.8z M540.3,101.6
	c11.3,1.5,22.2,3.1,32.7,4.8c0,3.7-0.1,7.5-0.1,11.2c-4.4-0.7-8.9-1.3-13.3-2l-4.1-0.6l0.5,4.2c1.3,9.9,2.5,19.7,3.7,29.6l0.3,2.3
	l2.2,0.4c3.8,0.8,7.6,1.5,11.4,2.2l4.4,0.8l-0.6-4.4c-0.1-0.6-0.2-1.1-0.2-1.7c4.8,0.9,9.6,1.8,14.5,2.7c1.4,10.2,2.8,20.4,4.2,30.6
	c-17.8-4.2-35.6-8.3-53.5-12c-0.8-7.3-1.6-14.7-2.4-22c0.5,0.1,1,0.2,1.5,0.3l4.1,0.7l-0.5-4.2C543.4,130.2,541.9,115.9,540.3,101.6
	z M470.8,94.3c3.8,0.3,7.6,0.6,11.4,1c1.5,4.1,3,8.2,4.5,12.3l8.2,22.3l-2.1-23.7c-0.3-3.3-0.6-6.7-0.9-10c4.6,0.4,9.2,0.9,13.7,1.4
	c0.5,5.2,1,10.3,1.5,15.5c1.7,17,3.3,34,5,51c-5.6-1-11.3-2-16.9-3c-4.6-12.5-9.3-25.1-13.9-37.7C477.8,113.7,474.3,104,470.8,94.3z
	 M448.3,92.6c4.6,0.3,9.1,0.6,13.5,1c0.4,5.6,0.8,11.3,1.3,16.9c0.6,8.1,1.2,16.1,1.9,24.2l0.2,2.6l2.6,0.3c1,0.1,2,0.2,2.9,0.3
	c0.5,6.6,1,13.2,1.6,19.8c-8.5-1.2-17-2.4-25.5-3.4c-0.4-6.4-0.8-12.8-1.2-19.1c0.6,0.1,1.2,0.1,1.8,0.2l3.7,0.3l-0.2-3.7
	c-0.9-12.8-1.6-25.6-2.5-38.4L448.3,92.6z M367.1,88.8c4.5,0.1,9.1,0.2,13.6,0.4l0.1,1.8c0.4,12.2,0.8,24.4,1.2,36.6l0.1,2.8
	l2.8,0.2c6.5,0.4,12.9,0.9,19.4,1.3l3.5,0.2l-0.2-3.6c-0.6-12.3-1.1-24.7-1.7-37l-0.1-1.3c4.6,0.2,9.1,0.4,13.6,0.7l0.1,1.9
	c0.9,15.5,1.6,30.9,2.5,46.4c0.2,4-1.1,9.8-5.3,11.5c-0.8,0.3-1.6,0.4-2.5,0.3c-12.2-1-24.3-2-36.5-2.7c-0.3,0-0.5,0-0.8-0.1
	c-5.6-1-8.6-8-8.8-13.1c-0.3-14.9-0.7-29.8-1.1-44.7L367.1,88.8z M325,88.2c4.5,0,9,0.1,13.5,0.1l0,1.6c0.2,12,0.3,24,0.5,36l0,3.1
	l3.1,0c0.8,0,1.6,0,2.4,0c0.1,5.9,0.2,11.8,0.3,17.7c-8.4-0.1-16.8-0.3-25.2-0.4c0-5.9,0-11.7,0-17.6c0.8,0,1.5,0,2.3,0l3.2,0l0-3.2
	c-0.1-12,0-23.9-0.1-35.9L325,88.2z M51.2,107.6L51.2,107.6c-2,15.5-4.1,30.9-6.1,46.4l-0.3,2.2l-2.2,0.5c-1.2,0.2-2.3,0.5-3.5,0.7
	c-1.1,8.1-2.2,16.3-3.3,24.4c16.9-4.1,33.8-8.2,50.9-11.8c3-0.6,5.7-3.5,7.4-5.9c2.4-3.6,4-8,4.4-12.2c1.3-11.7,2.4-23.4,3.6-35.1
	c0.4-4-0.1-10.7-4-13l-4.2-2.4C79.1,103.2,64.8,105.3,51.2,107.6z"/>
<path class="st1" d="M196.6,327.7c-13-12.4-12.1-32.2-2.2-46.4c2.4,5.8,10.4,12.4,13.4,11.6c0.2-0.9,0-2.4-0.2-3.6
	c-2.7-3.1-5.3-6.5-7.6-9.7c-5.6-7.9-10.7-16.7-14-25.9c-2.6-7.1-4.1-14.7-3.6-22.3c0.8-12.3,5.7-23.7,13.3-33.3
	c2.9-3.7,6.7-7.8,10.5-10.8c8.8-21.1,26.1-33.1,48.6-36.5c9.7-1.5,22.1-1.4,32,0.7c14.7-2.6,30.2-4.5,45-5.4
	c8.5-0.5,17.3-0.8,25.8-0.1c16.2,1.3,32.7,3.3,47.4,10.7c19.9,10,30.5,27,34.2,48.7c3.6,21.6,1.1,43.7-5.8,64.4
	c-2,5.9-4.6,12.6-7.6,18.7c3.8,0.7,7.5,1.7,10.7,2.8c12.5,4.2,24.1,11.9,28.4,25c4,11.9,2.8,24.8-1,36.6c-0.7,2.3-1.6,4.7-2.6,7.2
	c0.8,0.1,1.5,0.2,2.2,0.3c10.1,1.7,18.9,6.7,25.7,14.4c14.1,16,16.7,31.9,15.1,51.8c-7.5-10.2-17.7-16.9-28.7-18.5
	c-6.4-0.9-13.2,1-19.1,3.3c-10.3,4-20.8,9.7-30.6,14.9c-12.2,6.4-25.5,11.1-39.1,13.5c-4.7,0.8-10.3,1.6-15.4,1.7
	c-23.9,15-51.3,26.8-79.1,31.5c-25.9,4.4-53.3,2.6-76.6-10.6c-18.2-10.4-33-25.9-37.3-47c-3.3-16.6,0.6-33.9,9.9-47.9
	c5.7-8.7,13-16.6,20.9-23.7c-8.3,1-13.2-0.1-21-1.9C191.9,336.6,194,334.7,196.6,327.7"/>
<path class="st0" d="M243,336.2c0,0,1.1,8.1-1.1,20.7c-2.2,12.6-2,14.6-1,17c1,2.4,1.6,2.6,1.6,2.6s-3.2-1-6.9-6.7
	c-3.7-5.7-3.7-8.2-3.7-8.2s-7.3,22.3,24.3,29c31.6,6.7,68-13.7,96.7-33.2c28.7-19.5,45-35.6,45-35.6l-29.5,19
	c0,0,23.9-30.8,41.3-36.7c15.8-5.4,31.9,0.2,40.1,14.1c0.9,1.2,1.6,2.7,2.2,4.5c0.2,0.4,0.3,0.8,0.4,1.2c7.2,23.4-13,41.6-13,41.6
	s1.4-3.7,2.4-12.3c0.1-1,0.2-1.8,0.3-2.6c-15.3,21.5-44.5,47.7-71,60.4c-40.9,19.5-102.5,39.1-151.7,2.1
	C170.4,375.8,243,336.2,243,336.2"/>
<path class="st5" d="M442.2,350.4L442.2,350.4 M442.2,350.4L442.2,350.4L442.2,350.4L442.2,350.4L442.2,350.4z M444.9,311.5
	c1.9,1.9,3.5,4.1,5,6.5c0.9,1.2,1.6,2.7,2.2,4.5c0.2,0.4,0.3,0.8,0.4,1.2c0.6,2,1,3.9,1.3,5.7l0,0c2,15.1-6.6,27.3-11.3,32.8
	l-0.1,0.1c-0.3,0.3-0.6,0.6-0.8,0.9l-0.2,0.3l0,0l-0.2,0.3l0,0l-0.2,0.2l-0.4,0.4l0,0l-0.1,0.1l-0.1,0.1l-0.1,0.1l-0.1,0.1l-0.1,0.1
	l-0.1,0.1l-0.1,0.1l-0.1,0.1l-0.1,0.1l0,0l-0.1,0.1l0,0l0,0l0,0l0,0l0,0l0,0c0,0,1.4-3.7,2.4-12.3l0,0l0,0l0,0l0,0l0,0l0,0l0,0l0,0
	l0,0l0,0v0l0,0l0,0l0,0l0,0l0,0l0,0l0,0l0,0l0,0l0,0l0,0l0,0l0,0c0.3-2.8,0.2-1.8,0.2-1.7v0l0,0l0,0c-2.3,3.1-4.7,6.3-7.3,9.3
	c-16.2,19.3-41,40.2-63.7,51c-39,18.5-96.8,37.3-144.7,6.9l0,0c-0.8-0.5-1.6-1-2.3-1.5h0c-0.8-0.5-1.6-1.1-2.3-1.6
	c-0.8-0.6-1.5-1.1-2.3-1.7c-0.8-0.6-1.5-1.1-2.2-1.7l-0.1-0.1c-0.7-0.5-1.3-1.1-1.9-1.6l-0.1-0.1c-0.6-0.5-1.2-1.1-1.8-1.6l-0.1-0.1
	c-0.6-0.6-1.1-1.1-1.6-1.7l-0.1-0.1c-0.5-0.6-1-1.1-1.5-1.7l-0.1-0.1c-0.4-0.5-0.9-1.1-1.3-1.6l-0.1-0.2c-0.4-0.5-0.8-1-1.1-1.5
	l-0.1-0.2c-0.3-0.5-0.7-1-1-1.5l-0.2-0.3c-0.3-0.5-0.6-1-0.8-1.5l-0.1-0.3c-0.2-0.5-0.5-0.9-0.7-1.4l-0.1-0.3
	c-0.2-0.4-0.4-0.9-0.5-1.3l-0.1-0.4c-0.1-0.4-0.3-0.8-0.4-1.3l-0.2-0.5c-0.1-0.4-0.2-0.8-0.3-1.2L203,390c-0.1-0.4-0.1-0.8-0.2-1.2
	c0-0.2-0.1-0.4-0.1-0.5c0-0.4-0.1-0.7-0.1-1.1c0-0.2,0-0.5-0.1-0.7c0-0.3,0-0.6,0-0.9c0-0.3,0-0.5,0-0.8c0-0.3,0-0.5,0-0.8
	c0-0.3,0-0.6,0-0.9c0-0.2,0-0.4,0.1-0.7c0-0.4,0.1-0.7,0.1-1.1l0.1-0.5c0.1-0.4,0.1-0.8,0.2-1.2l0,0l0.1-0.5
	c-0.1,14.6,19.5,27.2,19.5,27.2s-7.5-5.8-8.6-16.4c-1.1-10.6-0.6-14-0.6-14C254.5,481.1,427.5,386.8,444.9,311.5z M231.3,369.1
	L231.3,369.1L231.3,369.1L231.3,369.1L231.3,369.1L231.3,369.1L231.3,369.1L231.3,369.1L231.3,369.1L231.3,369.1l0,0.1l0,0l0,0l0,0
	l0,0l0,0l0,0l0,0l0,0.2l0,0l0,0l0,0l0,0l0,0l0,0l0,0l0,0l0,0l0,0l0,0l0,0l0,0l0,0l0,0l0,0.1l0,0l0,0l0,0l0,0l0,0l0,0l0,0
	C231.4,369.6,231.4,369.4,231.3,369.1L231.3,369.1z M243,336.2L243,336.2L243,336.2L243,336.2L243,336.2l0,0.1l0,0.1l0,0.1l0,0.1
	l0,0.1l0,0.1l0,0.1l0,0.1l0,0.1l0,0.2l0,0.2l0,0.2l0,0.2l0,0.2l0,0.2l0,0.2l0,0.2l0,0.2l0,0.2l0,0.3l0,0.3v0l0,0.3l0,0.3v0l0,0.3
	l0,0.3l0,0.3l0,0.3l0,0.3l0,0.3l0,0.4l0,0.4l0,0.4l0,0.4l0,0.4l0,0.4l0,0.4l0,0.4l0,0.4l0,0.4l0,0.4l0,0.4v0l0,0.5l0,0.5l0,0.5
	l0,0.5v0l0,0.5l0,0.5l-0.1,0.5l-0.1,0.5v0l-0.1,0.5v0l-0.1,0.5l-0.1,0.5l-0.1,0.5v0l-0.1,0.5l-0.1,0.6l-0.1,0.6v0l-0.1,0.6v0
	l-0.1,0.6v0l-0.1,0.6v0l-0.1,0.6v0l-0.1,0.6v0l-0.1,0.6v0l-0.1,0.6v0l-0.1,0.5l-0.1,0.5v0l-0.1,0.5l-0.1,0.5v0l-0.1,0.5l-0.1,0.5v0
	L241,362l-0.1,0.4v0l-0.1,0.4v0l-0.1,0.4v0l-0.1,0.4v0l-0.1,0.4l-0.1,0.4v0l0,0.4v0l0,0.4l0,0.3l0,0.3l0,0.3l0,0.3l0,0.3l0,0.3
	l0,0.3v0l0,0.3l0,0.3l0,0.3l0,0.3l0,0.2l0,0.2v0l0,0.2l0,0.2l0,0.2l0,0.2l0,0.2l0,0.2l0,0.2v0l0,0.2v0l0,0.2v0l0,0.2l0,0.2l0,0.2
	l0,0.2l0,0.1l0,0.1l0,0.1l0,0.1l0,0.1l0,0.1l0,0.1l0,0.1l0,0.1l0,0.1l0,0.1l0,0.1l0,0.1l0,0.1l0,0.1l0,0.1l0,0.1l0,0.1l0,0.1l0,0.1
	c1,2.2,1.5,2.5,1.6,2.6l0,0l0,0l0,0l0,0h0l0,0h0h0l0,0h0l0,0l0,0l0,0l0,0c-0.2-0.1-3.3-1.2-6.9-6.7c-3.7-5.7-3.7-8.2-3.7-8.2l0,0
	l0,0l0,0l0,0l0,0l0,0l0,0l0,0l0,0l0,0l0,0l0,0l0,0l0,0l0,0l0,0l0,0l0,0l0,0l0,0l0,0l0,0l0,0.1l0,0.1l0,0l0,0l0,0.1l0,0.1l0,0l0,0
	l0,0.1l0,0.1l0,0.1l0,0l0,0.1l0,0.1l0,0.1l0,0.1l0,0.1l0,0.1l0,0l0,0.1l0,0.1l0,0.1l0,0l0,0.1l0,0.2l0,0.1l0,0l0,0.2l0,0.1l0,0
	l0,0.1l0,0.1l0,0.1l0,0l0,0.1l0,0.1l0,0.1l0,0l0,0.1l0,0.2l0,0l0,0.1l0,0.1l0,0.3l0,0.1l0,0l0,0.1l0,0.2l0,0.1v0l0,0l0,0.2l0,0.1
	l0,0v0l0,0.4c-0.1-6.1,0.6-11.2-4.8-13.4c-2.9-1.2-8.4,2.6-13.4,7c0.2-0.2,0.4-0.5,0.6-0.7c0.2-0.3,0.5-0.6,0.7-0.8l0.4-0.5
	c0.3-0.3,0.6-0.7,0.9-1l0.2-0.3c0.3-0.3,0.6-0.7,1-1l0.3-0.3l0.6-0.6l0.6-0.6l0,0c0.4-0.4,0.8-0.8,1.2-1.1l0.1-0.1
	c0.8-0.8,1.6-1.5,2.4-2.2l0.1-0.1c0.4-0.3,0.8-0.7,1.2-1l0.1-0.1c0.4-0.3,0.8-0.7,1.2-1l0.1-0.1c0.4-0.3,0.7-0.6,1.1-0.9l0.2-0.1
	c0.4-0.3,0.8-0.6,1.1-0.9l0.1-0.1c0.8-0.6,1.6-1.2,2.4-1.8l0,0c1.1-0.8,2.2-1.6,3.3-2.4l0.2-0.2l0.5-0.3l0.5-0.4l0,0
	c0.7-0.5,1.3-0.9,2-1.3l0.1-0.1l0.8-0.5l0.1-0.1l0.8-0.5l0.4-0.2l0.1,0l0.1-0.1l0.5-0.3l0.1-0.1l0,0l0.4-0.2l0.1-0.1l0.4-0.2
	l0.4-0.2l0.1-0.1l0,0l0.3-0.2l0.1,0l0.5-0.3l0.1,0l0.2-0.1l0.2-0.1l0.2-0.1l0,0l0.2-0.1l0.2-0.1l0,0l0.1-0.1l0.1-0.1l0,0l0.1,0
	L243,336.2L243,336.2L243,336.2L243,336.2z"/>
<path class="st2" d="M231.3,369.1c0,0.2,0.1,0.5,0.1,0.7C231.4,369.6,231.4,369.4,231.3,369.1L231.3,369.1z M393.8,325.5
	c2.7-2.5,4.2-3.9,4.2-3.9l-14.1,9.1l-12.8,6.7c6.7-8.1,24.8-28.7,38.7-33.5c13-4.4,26.3-1.4,35.1,7.6v0c0,0,8.3,7.4,8.9,17.9
	c2,15.1-6.6,27.3-11.3,32.8l-0.1,0.1c-0.3,0.3-0.6,0.6-0.8,0.9l-0.2,0.3l0,0l-0.2,0.3l0,0l-0.2,0.2l-0.4,0.4l0,0l-0.1,0.1l-0.1,0.1
	l-0.1,0.1l-0.1,0.1l-0.1,0.1l-0.1,0.1l-0.1,0.1l-0.1,0.1l-0.1,0.1l0,0l-0.1,0.1l0,0l0,0l0,0l0,0l0,0l0,0c0,0,1.9-7.8,2.4-12.3l0,0
	l0,0l0,0l0,0l0,0l0,0l0,0l0,0l0,0l0,0v0l0,0l0,0l0,0l0,0l0,0l0,0l0,0l0,0l0,0l0,0l0,0l0,0l0,0l0.2-1.7v0l0,0l0,0l0,0l0,0l0,0
	c-2.2,3-4.6,6.2-7.2,9.3c-17.3,20.9-40.1,39.8-63.8,51c-40.9,19.4-102.5,39.1-151.7,2.1c-15.1-11.4-18.7-23-16.4-33.7
	c-0.1,14.6,19.5,27.2,19.5,27.2s-7.5-5.8-8.6-16.4c-1.1-10.6-0.6-14-0.6-14c21.2,54.1,77.2,55.5,129,33.8
	C380.2,392.5,404,356,393.8,325.5z M243,336.2c0,0,1.1,8.1-1.1,20.7c-2.2,12.6-2,14.6-1,17c1,2.4,1.6,2.6,1.6,2.6s-3.2-1-6.9-6.7
	c-3.7-5.7-3.7-8.2-3.7-8.2s-0.7,2.2-0.7,5.3c-0.1-6.1,0.6-11.2-4.8-13.4c-2.9-1.2-8.4,2.6-13.4,7C225.1,345.9,243,336.2,243,336.2z"
	/>
<path class="st2" d="M417.6,394.6l19.8-15.6c0,0,15.6-7,31-1.8c15.3,5.3,19.3,20.4,19.3,20.4s-10.9-11.8-28.3-11.7
	C442.1,386.1,430.7,398.3,417.6,394.6"/>
<path class="st5" d="M440.5,394.5c0,0-7.4,3.7-11.8,5.3c-4.4,1.7-6.2,5.1-7.4,9.1c-1.2,4-2.3,6.9-2.3,6.9s8.9-3.1,15.5-6.5
	C440.9,405.9,443.7,399.5,440.5,394.5 M407.6,403.1c0,0,6.8-0.6,7.2,2.8c0.4,3.4-1.9,10-7.8,13.5c-5.9,3.5-16,6.5-18.9,5.2
	c-2.9-1.3,0.4-4.9,0.4-4.9S402.7,408.6,407.6,403.1z M452.8,390c0,0-3.9,1.7-5.3,5.4c-1.4,3.8-0.6,7.8-0.6,7.8s7.3-4.7,14.6-7.6
	c7.3-2.9,9.6-3,9.6-3S466.7,388.7,452.8,390z"/>
<path class="st6" d="M421.1,409.3c0.7,0.5,1.6,0.9,3.1,1c6.3,0.2,14.2-5.8,15.2-11.3l0.8-4.4l0.1-0.1c3.3,5,0.5,11.4-6.1,14.8
	c-6.5,3.4-15.5,6.5-15.5,6.5S420,413.1,421.1,409.3 M395,414.4c-0.1,1.1,0.3,2.1,1.4,3c5.7,4.9,15-2.3,17.7-6.8
	c-1.1,3.1-3.4,6.5-7.1,8.7c-5.9,3.5-16,6.5-18.9,5.2c-2.9-1.3,0.4-4.9,0.4-4.9S391.4,417.4,395,414.4z M447,397.4
	c-0.6,3,0,5.8,0,5.8s7.3-4.7,14.6-7.6c7.3-2.9,9.6-3,9.6-3s-0.2-0.2-0.6-0.4c-10.4-1.3-20.2,8.3-22.7,6.3
	C447.5,398.3,447.2,397.9,447,397.4z"/>
<path class="st5" d="M319.1,434.4c0,0,0.7,4.9,4.2,7.7c3.5,2.9,9.5,1.1,13.7-1c4.2-2.2,6.7-3.4,6.7-3.4s-3-5.7-6.9-6.8
	C332.9,429.9,323,434.6,319.1,434.4 M295.8,437.9c0,0-1.1,2.6,0.3,7.3c1.4,4.7,3.9,6.9,9.2,7.3c5.3,0.3,14-3.7,14-3.7
	s-3.3-2.8-6.2-7.1C310.1,437.4,306.3,435.8,295.8,437.9z M268.4,437c0,0-3.8,1.3-3.2,7c0.6,5.7,1.7,10.6,8.8,12.9
	c7.1,2.2,17.6,0.3,17.6,0.3s-1-1.8-3.4-9.7C285.9,439.5,285.3,437.3,268.4,437z M236,430c0,0-1.1,5.4-0.1,12.4
	c1,6.9,2.6,11.1,11,13.1c8.4,2,13.2,3.1,13.2,3.1s1-11.5-4.7-18.4C249.7,433.4,240.9,433.1,236,430z M210.6,414.8
	c0,0-3,7.3-2.2,15.6c0.8,8.3,8.9,14.2,14.2,17.4c5.3,3.2,6.1,4,6.1,4s0.6-9.8-1.2-17.9C225.7,425.9,217.6,422.2,210.6,414.8z
	 M196.1,385.2c0,0-1.4,3.4,1.8,12.9c3.1,9.5,6,12.5,6,12.5l-3.8,17C200,427.6,184.5,412.5,196.1,385.2z M344.2,427.8
	c0,0,0.4,2.9,2.9,4.2c2.5,1.3,4.9-2.2,6.7-4.7c1.8-2.5,2.6-4.2,2.6-4.2S349.1,426.6,344.2,427.8z"/>
<path class="st6" d="M326.1,432.9c8.9-0.3,11.2,3,10.6,6.4c-0.2,0.9-0.4,1.7-0.6,2.2c0.3-0.1,0.6-0.3,0.9-0.4
	c4.2-2.2,6.7-3.4,6.7-3.4s-3-5.7-6.9-6.8C334.5,430.3,330.1,431.7,326.1,432.9 M301.4,437.1c8.2,1.2,12,8.5,10.2,12.4
	c-0.4,1-0.9,1.8-1.5,2.4c4.5-1,9.1-3.1,9.1-3.1s-3.3-2.8-6.2-7.1C310.7,438.2,307.8,436.5,301.4,437.1z M272.7,437.1
	c4.5,1.7,9.1,4.9,10.7,10.3c2.5,8.9-3.4,10.4-3.5,10.4c5.9,0.4,11.7-0.7,11.7-0.7s-1-1.8-3.4-9.7
	C286.1,440.3,285.4,437.8,272.7,437.1z M243.3,433L243.3,433c4.2,1.4,8.7,3.1,12.1,7.3c5.7,6.9,4.7,18.4,4.7,18.4s-4.8-1.1-13.2-3.1
	c-0.2,0-0.3-0.1-0.5-0.1c1.5-0.3,3.3-0.9,5.5-2C259.4,449.5,251.8,437,243.3,433 M216.6,420.4c8,9.6,7.5,21.3,2.3,22.4
	c-1.2,0.2-2.4,0.2-3.4,0c2.4,2.1,4.9,3.8,7,5.1c5.3,3.2,6.1,4,6.1,4s0.6-9.8-1.2-17.9C226.2,428.2,221.7,424.6,216.6,420.4z
	 M210.4,415.1c0.2,0,0.4,0.1,0.7,0.2c-0.2-0.2-0.4-0.4-0.6-0.6C210.6,414.8,210.5,414.9,210.4,415.1z M200.7,405.5
	c-0.1,3.4-0.6,6.5-2,8.6c-2.2,3.3-3.8,3.6-4.9,3c2.4,7,6.2,10.6,6.2,10.6l3.8-17C203.8,410.6,202.5,409.3,200.7,405.5z M346.9,427
	c-0.2,0.1-0.5,0.2-0.7,0.2C346.4,427.2,346.6,427.1,346.9,427L346.9,427z M352.6,429c0.4-0.6,0.8-1.1,1.2-1.6
	c1.8-2.5,2.6-4.2,2.6-4.2s-4.5,2.2-8.8,3.7C350.7,425.8,352.9,426.4,352.6,429L352.6,429z"/>
<path class="st2" d="M259,204.8c0,0,0.3-3.4-0.4-7.8c-0.7-4.5-0.8-5.9-0.3-7.8c0.5-1.9,0.5-1.9,0.5-1.9s-0.2,2,1,3.9
	c1.3,1.9,2.7,2,2.7,2s-1.8-3.8,2.2-8.1c4.1-4.2,16.1-5.9,16.1-5.9s-0.3,4.7-2.2,8.3c-1.9,3.6-2.5,4.2-2.5,4.2s0.7-1.7,0.7-4.5
	c0-2.8,0-3.4,0-3.4s-7.6,1.2-9.5,4.5c-2,3.4-0.7,7.9-0.7,7.9s0.7,0.3,2.9-0.3c2.2-0.6,2.9-1,2.9-1s-2.1,2.7-4.9,4
	c-2.9,1.3-5.7,1.7-5.7,1.7S261.3,202.9,259,204.8 M219,197c0,0-5.3,10.7-6.4,18.4c-1.1,7.7,4.2,12.8,9,12.4c4.9-0.4,4.4-3.4,4.4-3.4
	s-0.4-2.5,0-4.6c0.4-2.1,0.4-2.6,0.4-2.6s2.1,6.5,12.8,9.3c10.7,2.7,16.7,0.6,20.2-2.5c3.5-3.1,6.6-6.1,6.6-6.1l-3.9-4.6
	c0,0,6.8,3.1,12.5,1.7c5.7-1.4,12.5-10.5,12.5-10.5s3,0.6,8.2-0.3c5.2-1,6.5-1.9,6.5-1.9s-1.1,2.2-3.3,4.4s-2.2,2.2-2.2,2.2
	s0.8,2.6,0.2,6c-0.6,3.4-0.6,3.4-0.6,3.4s-0.5-2.9-2.4-4.9c-1.9-2.1-2.5-2.5-2.5-2.5s1.8,2.6-2.3,10.6c-4.1,8-6.7,10.3-6.7,10.3
	s0.9-3.4,1-8.5c0.1-5.2,0.1-7,0.1-7s-4.6,8.9-9.6,23.5c-4.9,14.7-8.8,20.4-15.2,22.5c-6.4,2.2-13.2-1.1-13.2-1.1l-2.6,3.7
	c0,0,3.1,7.1,13.2,8.5c10.1,1.4,13.3-3,19.4-13.1c6.1-10.1,10.1-16.4,16.9-21.2c6.9-4.7,13.2-6.5,13.6-7.9
	c0.3-1.4-3.8-15.4-2.9-18.7c1-3.3,7.2-8.5,8.5-9.7c1.4-1.1,1.4-1.1,1.4-1.1s-3.4-4.3-3.9-8.5c-0.6-4.2,1.2-7.5,1.2-7.5
	s0,8.7,17.1,11.3c17.1,2.6,39,11.2,34.2,47.3c-4.8,36.1-36.7,81.7-52,100.3C294,362.7,280,379,280,379s6.5,1.9,20.9-9.1
	c19.3-14.8,64.7-93.9,68.6-107.9c0,0,5.9-20.8,1.8-41.8c-4.2-21.1-15.9-24.2-22.3-26.2c-6.4-2-7.7-2.4-7.7-2.4
	c14.3-3.2,47.2-12.1,66.4,7.3c12.3,12.5,14.8,27.1,15.6,40.2c0.8,13.1-0.6,16-0.6,16s11.1-37-4-64.5c-15.1-27.5-45.3-29.9-64.3-30.3
	c-19-0.5-58.4,4.9-58.4,4.9l16.9,8.5c0,0-30.3-8.9-53-7.8c-22.7,1.1-36.9,17.6-38,20.1c-1.1,2.6-0.8,15-0.8,15L219,197z"/>
<path class="st0" d="M277.2,229.8c-1.1,2.9-2.3,6.1-3.5,9.7c-4.9,14.7-8.8,20.4-15.2,22.5c-6.4,2.2-13.2-1.1-13.2-1.1
	c-1.2,6.8,12.3,9.6,20.8,4.4C272.3,261.5,275,243.6,277.2,229.8"/>
<path class="st0" d="M261.1,200.7c0,0-0.5,0.2,0.8-0.1c1.3-0.2,11-1.3,10.2,1.8c-0.8,3.1-14.8,5.3-14.8,5.3s1.4-0.8,1.7-3.5
	C259.3,201.5,261.1,200.7,261.1,200.7"/>
<path class="st0" d="M327.2,196.7c17.1,2.6,39,11.2,34.2,47.3c-1.6,12.1-6.3,25.3-12.3,38.1c6.8-7.5,23.9-28.6,23.6-50
	c-0.2-3.9-0.6-7.9-1.4-12c-4.2-21.1-15.9-24.2-22.3-26.2c-6.4-2-7.7-2.4-7.7-2.4c17.5-11.6,53.9-5.1,57.7-10.8
	c3.4-5.1-5.8-14.9-26.6-19.2c-6.5-0.9-12.7-1.2-18-1.3c-19-0.5-58.4,4.9-58.4,4.9l16.9,8.5c0,0,0,0-2.7-0.5c-2.7-0.5-6.6,0-6.6,0
	s0.9,1.4,0.1,3.5c-0.8,2.2-8,6.3-8,6.3s1.9-4.5,0.3-8.9c-1.6-4.3-18.1-7.4-18.6-7.5c-2.7-0.3-5.4-0.5-8.1-0.7
	c-8.7-0.3-22.1,0.4-29,7c-10.7,10.2-10.3,17.6-10.3,17.6s0-9.3-2-10c-0.5-0.2-1.1-0.1-1.6,0.2c-2.6,2.5-4.1,4.5-4.5,5.3
	c-0.9,2.1-0.9,10.8-0.8,13.9c0,0.1,0,0.3,0,0.4c0,0.5,0,0.7,0,0.7l-0.1-0.1c-0.5,3.5-5.3,7-4.2,10.7c1.1,3.9,6.4,2.7,10.7,3.9
	c4.2,1.2,6.1,1.5,9.7,0.2c3.7-1.3,8.1-5.6,10.5-7.8c2.4-2.2,1.6-4.9,5.1-8.9c3.5-4,5.3-8.5,5.3-8.5v0c0.1-0.5,0.1-0.9,0.3-1.4
	l0.6-1.8c2.2-7.6,17.8-8.8,22-8.2c0,0,1.1,2.8-0.7,8.7c-1.8,5.8-4.5,7.9-4.5,7.9s3,0.8,14.4-1.3c11.3-2.1,20.1-9,20.1-9
	C310.2,187.7,311.5,194.3,327.2,196.7"/>
<path class="st2" d="M413.7,264.5c7.5-27.1,2.7-46.9-7.8-59c-13.1-15-34.2-10.9-34.2-10.9s6.4,5.7,7.3,21.7
	c0.8,13.3-6.4,36.1-8.8,43.3l0,0c13.9-20.1,22.2-49.8,22.2-49.8C407.2,220.9,414.3,239.1,413.7,264.5"/>
<path class="st7" d="M276.3,191.3c-0.9,1.3-2.1,2.5-3.8,3.6l0,0c0,0-0.7,0.4-2.9,1c-2.2,0.6-2.9,0.3-2.9,0.3s-1.2-4.5,0.7-7.9
	c2-3.4,9.5-4.5,9.5-4.5s0,0.6,0,3.4C276.9,189.2,276.5,190.7,276.3,191.3"/>
<path class="st8" d="M276,191.7c-0.9,1.2-2,2.3-3.6,3.3c-0.2,0.2-0.5,0.3-0.7,0.5h0c-2.4,1-4.3-0.7-2.8-4.5c1.5-3.8,7.4-6.2,7.9-4.2
	C277.2,187.8,276.6,190,276,191.7"/>
<path class="st0" d="M208.4,256.9c0.1,0.1,0.1,0.3,0.2,0.4L208.4,256.9z M211.1,202.8c0,0-11.8,12.1-13.9,27.3
	c-2.1,15.2,4.4,24.6,10.3,33.7c4,6.1,6.1,9,7.1,10.3c-1.8-4.4-3.8-9.8-5.5-15.4c-1.5-1.5-4.9-5.7-6-14.3
	c-1.5-11.3,6.3-16.5,6.3-16.5S202.8,219.8,211.1,202.8z"/>
<path class="st2" d="M208.4,256.9c0.1,0.1,0.1,0.3,0.2,0.4L208.4,256.9z M197.2,230.7c-1.8,14.8,4.6,24.1,10.4,33.1
	c3.9,6,6.1,9,7.1,10.3h0c-1.8-4.4-3.8-9.8-5.5-15.3c-1.5-1.5-4.9-5.7-6-14.3c-0.1-1-0.2-2-0.2-3C199.3,244.9,197.7,240,197.2,230.7z
	"/>
<path class="st2" d="M218.9,238.9c-2-1.8-3.5-3.8-4.2-5.9c-7.2,5.3-8.6,15.4-5.2,23.5C208.4,244.3,216.5,240.1,218.9,238.9"/>
<path class="st8" d="M201.2,305.5c0,0,4.7,5.8,13.9,1.9c9.2-3.9,3-20.3,5.7-33.5c2.7-13.2,9.5-16.8,19.6-22.3
	c10.1-5.5,13.6-11.5,13.6-11.5l3,2.3c0,0-6.8,7.5-13.9,13.8c-7.1,6.3-10,17.4-8.2,31c1.8,13.6,1.8,22.8-5.7,31.9
	c-7.5,9.1-16.9,9.4-16.9,9.4s1.6-1.6,3.2-5.3c1.6-3.7,1.6-3.7,1.6-3.7S203.8,325.2,201.2,305.5"/>
<path class="st7" d="M212.3,328.4c0,0,1.6-1.6,3.2-5.3c1.6-3.7,1.6-3.7,1.6-3.7s-13.3,5.7-15.9-14c0,0,4,10.1,13.5,8.8
	c9.6-1.4,12.9-10.1,12.9-10.1s-0.1,6.2-4.6,13.6C218.5,325.2,212.3,328.4,212.3,328.4 M240.3,259.2c-3.6,4.8-5.6,11.2-5.8,18.8
	c-0.3-3.5-0.4-6.6,0.2-9.1C235.6,265.4,237.8,262.1,240.3,259.2z M248.6,246c3.9-3.4,5.4-6,5.4-6l3,2.3c0,0-6.5,7.2-13.4,13.4
	c3.8-3.7,7.3-6.7,7.5-8.8C251.3,245.9,250.3,245.7,248.6,246z"/>
<path class="st2" d="M249.9,306.5c0,0,1.9,9.6,1.1,16.8c-0.8,7.2-0.8,7.2-0.8,7.2s-0.5-5.6-2.7-11.2c-2.2-5.6-4-8-4-8
	s1.4-6,1.6-12.3C247,301.5,248.7,304,249.9,306.5"/>
<path class="st2" d="M251.8,280.7c1.4,0.2,3.1,0.4,4.9,0.4c10.1,0.1,15.6-3,15.6-3s2.6,9.9-3.1,29.5c-5.7,19.6-11.8,30.3-11.8,30.3
	c12.1-29.7,9.6-50.7,9.6-50.7S264.7,288.2,251.8,280.7"/>
<path class="st9" d="M219.2,231c0,0,0.5-0.7,1.8-0.8c1.4-0.1,2,0.4,2,0.4s-0.2,1,0.7,4.9c0.8,3.8,1.8,5.1,1.8,5.1
	S220.3,237.5,219.2,231"/>
<path class="st9" d="M253.1,230.5c0,0,0.7,2.4,2.9,5.4c2.2,3,4.5,4.1,4.5,4.1s-0.6-2.4-1.5-6.4c-0.9-4-0.8-4.9-0.8-4.9
	S254.1,228.2,253.1,230.5"/>
<path class="st10" d="M216.7,211.6c0,0,0.8,1.4,2.5,2.4c1.7,1,2.9,4.4,1.9,5.1C220.2,219.8,214.9,217.5,216.7,211.6 M243.1,211.7
	c0,0-1.7,1.7-3.9,3.2c-2.2,1.5-1.6,3.6,0.7,4.2C242.2,219.6,245.4,215.6,243.1,211.7z"/>
<path class="st5" d="M294.5,351.2c0,0-8.7,0.2-15.9-2.9c-7.2-3-8.2-5.8-10.5-5.3c-2.2,0.6-4.9,4-4.8,8.4c0.2,4.4,7.4,11.3,13.6,13
	C283.1,366.2,290.6,356.4,294.5,351.2 M281.7,320.1c0,0,3,4.2,11.3,6.4c8.4,2.2,12.4,2.2,16.5,1.3c4.2-1,4.2-1,4.2-1
	s-10.9,18.1-19.6,20.3c-8.7,2.2-18.6-7.3-20-10.1C272.8,334.1,270.7,324.8,281.7,320.1z M296.4,295.2c0,0,4.6,3.6,14,4.8
	c9.3,1.2,17.1-2,17.1-2s0.2,7.7-4.8,15.1c-4.9,7.3-13.6,10.3-24.1,7.7c-10.5-2.6-12.4-8.1-12.4-8.1S282.4,299.5,296.4,295.2z
	 M298.2,268.1c0,0,7.8,5.9,24.3,1.4c16.4-4.5,25.7-15.8,25.7-15.8s0.2,11.7-5.1,23c-5.3,11.3-18.5,18.8-30,18
	c-11.5-0.8-17.7-9.4-18.4-12.3C294,279.6,294.6,271.8,298.2,268.1z M339,205.2c0,0,13.6,5.7,13.8,22.5c0.2,16.8-12.1,28.7-23.3,32.7
	c-11.2,4-20.4,0-20.4,0L308,253C315.2,249.8,337.5,238.9,339,205.2z M259,359.1c0,0,3.5,6.4,8.8,9.1c5.3,2.7,10.5,1.5,10.5,2.8
	c0.1,1.3-6.9,9-6.9,9s-13.3,0.6-17.6-0.9c-4.3-1.5-5.2-7.3-5-10.5C248.9,365.6,254.4,359.2,259,359.1z"/>
<path class="st6" d="M274.7,346.4c1.9,4.1,4.3,6.7,7.1,8.3c-5.5,5.5-11.2,5.2-17.1,0.4c2.4,3.9,7.6,8,12.2,9.3
	c6.1,1.8,13.6-8.1,17.6-13.3c0,0-8.7,0.2-15.9-2.9C277,347.7,275.7,347,274.7,346.4 M289.1,325.2c2.3,3.3,6,6.2,10.4,7.8
	c-5.1,8-14,11.1-21.8,8.1c4,3.5,10.4,7.4,16.4,6c8.7-2.2,19.6-20.3,19.6-20.3s0,0-4.2,1c-4.2,1-8.1,0.9-16.5-1.3
	C291.6,326.1,290.3,325.7,289.1,325.2z M303.1,298.4L303.1,298.4c2.9,4.5,7.1,6.7,11.8,8.1c-4.7,11.6-12.6,12.9-20.9,12.7
	c1.3,0.6,2.8,1.1,4.6,1.5c10.5,2.6,19.2-0.3,24.1-7.7c4.9-7.3,4.8-15.1,4.8-15.1s-7.7,3.2-17.1,2C307.5,299.6,305.1,299,303.1,298.4
	z M316.4,270.8L316.4,270.8c6,1.3,11.9,0.9,17.9-1.4c-4.9,14.5-15.3,21.4-29.3,23.3c2.3,1.1,5,1.8,8,2c11.5,0.8,24.7-6.7,30-18
	c5.3-11.3,5.1-23,5.1-23s-9.3,11.3-25.7,15.8C320.3,270.2,318.3,270.6,316.4,270.8z M338,214.5c11.8,31.9-8.5,45.9-28.9,45.9
	c0,0,9.3,4,20.4,0c11.2-4,23.5-16,23.3-32.7c-0.2-16.8-13.8-22.5-13.8-22.5C338.9,208.5,338.5,211.6,338,214.5L338,214.5z
	 M262.8,364.3c1.4,1.5,3.1,3,5,4c5.3,2.7,10.5,1.5,10.5,2.8c0.1,1.3-6.9,9-6.9,9s-13.3,0.6-17.6-0.9c-2.5-0.9-3.8-3.1-4.5-5.5
	c5.4,2.8,11,4,17.3,0.1C264.2,371.4,262.9,368.3,262.8,364.3z"/>
<path class="st9" d="M255.8,259.2c0,0-1.1-2.3-1.6-6c-0.4-3.7,0.6-6.1,0.6-6.1s1.2,2.2,3.3,5.7c2.1,3.5,2.8,4.2,2.8,4.2
	S258.1,260.2,255.8,259.2"/>
<polygon class="st9" points="546.6,210.5 599.5,186 593.4,182 "/>
<polygon class="st9" points="85,210.5 32.1,186 38.2,182 "/>
</svg>
