<?xml version="1.0" encoding="utf-8"?>
<!-- Generator: Adobe Illustrator 19.0.0, SVG Export Plug-In . SVG Version: 6.00 Build 0)  -->
<svg version="1.1" id="Layer_1" xmlns="http://www.w3.org/2000/svg" xmlns:xlink="http://www.w3.org/1999/xlink" x="0px" y="0px"
	 viewBox="0 0 538.3 556.4" style="enable-background:new 0 0 538.3 556.4;" xml:space="preserve">
<style type="text/css">
	.st0{fill-rule:evenodd;clip-rule:evenodd;fill:#04ACF3;}
	.st1{fill-rule:evenodd;clip-rule:evenodd;fill:#012B3B;}
	.st2{fill-rule:evenodd;clip-rule:evenodd;fill:#FFFFFF;}
	.st3{fill-rule:evenodd;clip-rule:evenodd;fill:#B3B3B3;}
	.st4{fill-rule:evenodd;clip-rule:evenodd;fill:#006B92;}
	.st5{fill:#FFFFFF;}
</style>
<path class="st0" d="M517.9,418l1.4,13l-9.6,4.3l-74,33l-4-1.7c-10.6-4.5-21.2-8.5-31.9-12.1c-37.2,40.7-83.3,73.3-135.8,99.6
	l-4.4,2.2l-4.4-2.2c-52.5-26.3-98.7-58.9-135.9-99.6c-10.7,3.6-21.3,7.6-31.8,12.1l-4,1.7l-74-33L0,431l1.4-13l16.1-147.5h8.9h2.7
	c-7.4-39.4-9.6-79.7-8.3-119.8l0.3-7.7l7.6-1.6c2.5-0.5,5-1.1,7.4-1.6c1.8-9.5,4.3-18.6,8.9-27l-12.7,7.8l20.9-34.7
	C76.5,47.1,108,28,153.1,21.9l0.8-0.1l0.8,0c3.7,0.1,7.5,0.7,11.5,1.8l-7.7-8.5L194,26.9c10,3.3,23,8.6,34.3,15.9
	c8.3-8.9,16.1-18.5,23.3-29L259.7,2l8.1,11.8c42.7,61.7,104.6,94.7,173.2,115.1c20.1-2.1,39.1,3,55.1,13.7l2.2,0.5l0,1.1
	c7.5,5.3,14.2,11.9,19.9,19.6c15.9,21.2,24.2,51.6,12.9,76.7c-1.6,3.5-3.5,6.8-5.7,9.8l-1,1.4l-1.5,1c-10.1,6.7-20.7,10.6-31.7,12.6
	c-0.3,1.8-0.6,3.6-1,5.3h2.7h8.9L517.9,418z"/>
<path class="st1" d="M259.1,322.8L10.6,424.9l73,32.6c61.3-26.2,108.3-31.5,176.1-31.5c65.7,0,115,5.4,176.1,31.5l73-32.6
	L260.3,322.8H259.1z"/>
<path class="st1" d="M259.7,19.4C206.1,96.9,123.3,131.2,30.8,151c-5.2,157.8,44.5,301.9,228.9,394.3
	C444.1,452.9,493.8,308.9,488.6,151C396,131.2,313.2,96.9,259.7,19.4"/>
<path class="st2" d="M142.8,429c31.7,36.4,71.4,65.5,116.8,89.2c45.4-23.7,85.1-52.9,116.8-89.2c-5.6-1.9-11.5-3.6-17.7-5.2
	c-27.6,30.1-61.1,54.8-99.1,75.5c-38-20.7-71.5-45.5-99.1-75.5C154.3,425.4,148.4,427.1,142.8,429"/>
<path class="st2" d="M259.7,65.1c-50.8,60.5-121.3,90.6-197.9,108.6C61.4,213.2,65.1,253,75,291.3l17.3,0
	C83,257.3,79,222,78.5,186.7c68.4-17.5,132-45.5,181.1-96.7c49.1,51.2,112.8,79.2,181.1,96.7c-0.5,35.2-4.5,70.6-13.8,104.6l17.3,0
	c10-38.3,13.6-78.1,13.2-117.6C381,155.7,310.4,125.5,259.7,65.1"/>
<path class="st3" d="M367.8,426.2c-28.6,32.1-63.9,58.5-104.1,80.4l-4,2.2l-4-2.2c-40.2-21.9-75.5-48.3-104.1-80.4
	c2.9-0.9,5.9-1.7,9-2.5c27.6,30.1,61.1,54.8,99.1,75.5c38-20.7,71.5-45.5,99.1-75.5C361.8,424.6,364.8,425.4,367.8,426.2"/>
<path class="st3" d="M83.7,291.3l8.6,0C83,257.3,79,222,78.5,186.7c68.4-17.5,132-45.5,181.1-96.7c49.1,51.2,112.8,79.2,181.1,96.7
	c-0.5,35.2-4.5,70.6-13.8,104.6l8.6,0c9.1-34,13-69.3,13.5-104.4l0.1-6.6l-6.4-1.6c-66.4-16.9-129-44.2-177.2-94.4l-6-6.3l-6,6.3
	c-48.2,50.1-110.8,77.4-177.2,94.4l-6.4,1.6l0.1,6.6C70.7,222,74.6,257.3,83.7,291.3"/>
<path class="st4" d="M177.1,420c23.5,24.3,51.4,44.9,82.5,62.5c31.2-17.7,59-38.2,82.5-62.5c-24.5-4.8-52.6-7.6-82.5-7.6
	S201.6,415.2,177.1,420"/>
<path class="st4" d="M184.8,427.6c21.8,21,47,39.1,74.9,54.9c27.8-15.8,53-33.9,74.9-54.9c-8.8-5.4-19.2-9.9-30.7-13.1
	c-14.1-1.3-28.9-2.1-44.2-2.1c-15.3,0-30.1,0.7-44.2,2.1C204,417.8,193.6,422.2,184.8,427.6"/>
<path class="st4" d="M259.7,110.6c-46.8,44.1-104.6,70.3-166.2,87.3c1,27.9,4.4,55.8,11.3,82.9c55.5,0,104.9,0,155-0.1
	c50.1,0,99.5,0,155,0.1c6.8-27.1,10.2-55,11.3-82.9C364.2,180.9,306.5,154.7,259.7,110.6"/>
<path class="st1" d="M54.6,376c39.6,0,15.5,0,55,0c11.6-7.4,23.1-14.9,34.7-22.3c11.8,7.4,23.5,14.9,35.3,22.3
	c109.2,0,174.6,0,283.8,0l-6.2-67.5c-4.3-21.6-6.8-33-17.3-53.5c30.7,3.7,55.7,3.8,77.5-10.7c28.1-38.2-13-114.2-77.9-105.4
	c2.9,1.1,5.4,2.8,7.3,5.1c-3.7,0-6.2,0.2-9.7,1.3c-4.6,2.8-8.8,12-13.8,15.7c-3.8,2.8-10.8-0.3-16.4-3.3c3.8,8.2,7.7,16,13.4,19.7
	c13.7,0.3,27.5-1.3,41.4-2.9c-5.2,3.4-11.2,5-17.4,6.2c14,3.3,32.9-1.8,43-9c26.2,23.8,21.9,46.8,11.2,54.6
	c-24.9,4.2-50.6,1.9-76.7-4.7c-4.6-4.7-10.1-9.1-17-12.9c-25.4,2-50.8,6.6-76.2,12.9c-16.1-6.4-32.5-12.4-49.8-16.5
	c-1.3-11.6-2.6-25.8-7.4-37c-2.5,3.7-4.4,5.6-6.8,8.5c-0.1-6.3,1.2-11.3,3.4-15.8c1.5,0,2.9,0,4.8-0.1c1.3,2.9,2.3,7.7,3.3,10.8
	c6.1-4.9,17.2-17.8,20.5-25.3c3-5.3,5.2-11.8,5.4-19.1c1.1-1.1,1.9-2.4,1.1-4.2C293,111.1,276,102,261.9,98.4
	c-0.6-2.8-1.4-5.6-2.7-8.4c-3.9-4-11.4-8.9-16.3-12.4c-0.5-20.9-34.8-35.7-52-41.4c4.7,5.2,8.3,10.7,9.7,16.5
	c-13.2-10.4-32.6-20.7-46.2-21C105.9,38.3,80,60.3,61.7,90.9c12.7-7.8,25.5-13.6,38.6-14.8c-15.2,7.4-32,21.6-41.9,34.4
	C49.9,121.3,46.9,134.2,45,147c6.6-6.5,13.4-12.9,21.8-17.7c-5.2,5.9-13.9,17.2-14.8,20.4c-3.1,10.9-3.3,19.2-2.2,29.8
	c5.7-9,10.9-18.1,20.4-26.9c-13.5,25.8-24.1,50.9-31.8,75.5c1.3,23.7,7,45,14.1,65.5L54.6,376z"/>
<path class="st2" d="M429.5,229.9c1.6,2.8,3.2,5.5,4.8,8.3c16.2,0.5,31.8-0.3,46.7-2.8C463.7,236.2,446.5,235.2,429.5,229.9
	 M276,220.3c1.1-1.7,2.1-3.4,3.2-5.1c14.5,4.9,28.9,10.2,43.1,16.2c25.5-3.3,51.3-5.9,77.6-6.5c18.9,15.3,25,37.7,32.3,59.3
	c5.2,8.3,9.5,17.1,13.2,26.2c-12.7-14-28.6-24.5-46.7-32.6c-3.7,17.8-6.2,35.5-7.4,53.1c-8.7-1.7-16.9-4.4-24.7-8.3
	c-3.6-9.4-5.5-18.1-7.1-28c10.3-1.5,18.4-4.8,25.7-7.8c-14.6,0.4-39.5-7.8-71.9-22.5c11,13,23.1,23.9,36.8,31c1.8,0,3.7-0.1,5.6-0.3
	c-0.8,22.4,3.2,43.6,12.4,64.1c-11-4.5-21.7-10.6-31.9-19.7c-1-13.1-0.5-26.1,0.6-39.2c-21-4.9-59.8-6.2-87.7-2
	c-10.4,1.6-20.3,7.5-28,10.4c9.5-9.3,18.9-18.6,28.4-27.8c3.9-5.5,6.7-12.9,9.3-20.6c0.7,8.1,0.3,15.9-1.7,23.2
	c10.9-10.2,19-22.4,26.4-35.1C281,239,278.5,229.7,276,220.3z M284.1,133.1c2.9-0.7,5.2-1.6,7.5-2.5c-1.4,5-4.4,8.1-9.1,9.4
	C283.6,137.9,284.4,135.7,284.1,133.1z M184.9,96.9c3.8-3.3,9.5-5.6,19.3-6.2c8.4,3,16.2,7,23.8,11.2c1.4-3.6,0.7-7.6-1.6-12
	c7.7,4.5,8.6,10.5,8.6,16.8c3.4,3.1,6.8,6.2,10.2,9.3c-4.8-2.1-9.5-4.1-14.3-6.2c-9.2,4-16.5,1.6-23.8-1c-3.8-3.7-7.6-7.5-11.5-11.2
	C192.2,96.7,188.6,96.6,184.9,96.9z M266.7,128.2c3,3,6.5,4.3,10.2,4.7c1,2.9,0.6,5.7-0.7,8.3c-11.5,0.5-31.9-0.7-31.1-12.8
	c3.4,1.2,6.8,1.8,10.1,1.7c-3.7-2.9-7.3-5.9-10.6-9.1c-24.3,31.4-27.3,50.5-27,64.2c0.2,6.7,2,11.1,5.5,11.5
	c13.6,5.4,28,6.8,43.4,3.9c1,6.5,0.1,12.7-1.3,18.9c-0.8-3.9-1.7-7.7-3.9-11.2c-6.7,12.5-15.4,22.6-25.5,31
	c1.6-5.9,3.2-11.7,2.9-20.2c-5.9-10-19.5-13-29-25.8c-0.9-20.7,4.8-43.1,21-67.7c-13.7,11.2-21.7,24.5-29,38
	c0.1-7.5,1.1-15.1,5.2-22.6c-6.6,3.1-10.8,8-15.1,13.1c-0.2-8.7,1.8-17.9,7.3-28.1c4.2-2.4,9.1-3.4,14.5-3.5
	c-12-6.8-24.7-11.4-37.9-13.9c4.7-1,9.6-1.6,14.6-1.6c-8-6.4-16.9-10.7-27.4-11.7c9.7-9.9,20.8-18.1,37.7-19.7
	c10,3.8,19.9,7.9,29.6,12.3c-2-3.2-4.6-6.3-7.7-9.4c9.7,4.1,19,9.7,27.5,18.1c0.6,1.3,1.3,2.6,1.9,3.9c-1,1.8-2.8,2.4-4.8,2.7
	c-2.3-2.8-5.3-4.8-8.8-5.8c1.6,3.1,2.5,6.1,2.5,9.1c15,0.1,30.4,2.8,46.8,15.3c-10.2,0.8-20.4-0.3-30.7-3.1c1,8,5.4,12.7,11.6,15.3
	C266.9,132.2,266.7,130.2,266.7,128.2z M134,58.5c10.7,4.8,19.4,11.8,26.4,20.5c-2.1,0.9-10.4,6.9-11.8,8.4
	c-4-7.9-6.6-14.1-12.7-18.6c-6.1,9.5-7.7,20.5-8,25.2c2.5-1.4,5.7-1.8,8.2-2.2c-4.1,2-8.2,4.3-12.1,7.1
	C123.7,86.5,125.4,69.7,134,58.5z M110.6,235.8c0.2,8.7,1.2,17.1,3.2,25.2c-3.2-3.2-7.3-6.6-11.6-11.3c1.2,25.2,8.8,48.4,16,71.6
	c14.2,10,26.2,13.9,37.7,16.5c-12.9-14.1-25.2-28.9-35.4-46.1c-1-9.7-0.7-19.5,1.7-29.6C118.3,253.4,114.5,244.6,110.6,235.8z
	 M31.6,358.7c15.4-10.5,29.6-23.6,41.8-41.2c3.4,4.5,5.9,9.4,8.1,14.5c0.5-16.4,0.6-33-0.9-50.2c-3.9-10.4-9.4-20.9-19.7-31.3
	c3.7,18.9,5.5,37.1,4.9,54.5C55.3,324,43.5,341.5,31.6,358.7z"/>
<path class="st3" d="M133.2,330.2c-8-11.7-14.7-24.7-19.9-39.2c-0.9-8.4-1.4-16.8-1.2-25.2c-3.4-3.8-6.7-8.2-9.8-12.8
	c-0.1-1.1-0.1-2.2-0.2-3.3c4.3,4.7,8.4,8.1,11.6,11.3c-2-8.1-3-16.5-3.2-25.2c3.9,8.8,7.7,17.6,11.6,26.4
	c-2.5,10.1-2.7,19.9-1.7,29.6c10.2,17.2,22.5,32,35.4,46.1C148.6,336.2,141.2,334.1,133.2,330.2 M237.5,292.7
	c21.6-4.9,44.1-7.8,66.5-8.9c-2.7-10.9-3.8-23.9-3.5-34.8c26.5,17.9,56.9,26.8,85.4,36.6l8.9-19.7c15,8,29.6,17.1,42.3,30.2l3.1,2.3
	c1.9,4,3.7,8.1,5.4,12.2c-12.7-14-28.6-24.5-46.7-32.6c-3.7,17.8-6.2,35.5-7.4,53.1c-8.7-1.7-16.9-4.4-24.7-8.3
	c-3.6-9.4-5.5-18.1-7.1-28c10.3-1.5,18.4-4.8,25.7-7.8c-14.6,0.4-39.5-7.8-71.9-22.5c11,13,23.1,23.9,36.8,31c1.8,0,3.7-0.1,5.6-0.3
	c-0.8,22.4,3.2,43.6,12.4,64.1c-11-4.5-21.7-10.6-31.9-19.7c-1-13.1-0.5-26.1,0.6-39.2c-21-4.9-59.8-6.2-87.7-2
	c-10.4,1.6-20.3,7.5-28,10.4L237.5,292.7z M284.1,133.1c2.9-0.7,5.2-1.6,7.5-2.5c-1.4,5-4.4,8.1-9.1,9.4
	C283.6,137.9,284.4,135.7,284.1,133.1z M230.7,125.6c-8.2,5-15.3,10.8-20.9,17.5c0.7-4.1,2.3-7.9,4.4-11.6
	c-7.7,3.4-14.4,7.6-19.4,12.9c0.5-5.8,1.9-12,4.3-18.5c-5.4,10.2-7.4,19.5-7.3,28.1c4.2-5,8.5-10,15.1-13.1
	c-4.1,7.5-5.2,15.1-5.2,22.6C209,150.1,216.9,136.8,230.7,125.6z M245,116.1c-4.7-1.3-9.4-2.7-14.1-4c-7.9,3.5-16.5,2.7-25.6-0.4
	c-4.5-3.6-8.4-7.6-10.9-12.4c-3-1.2-6.2-1.9-9.5-2.4c3.8-0.4,7.4-0.3,10.7,0.7c3.8,3.7,7.6,7.5,11.5,11.2c7.2,2.6,14.6,5,23.8,1
	C235.5,112,240.3,114,245,116.1z M224.8,100.3c1.4-2.2,1.6-6,1.5-10.3c2.2,4.3,3,8.4,1.6,12C226.9,101.4,225.9,100.9,224.8,100.3z
	 M190.4,106.9c-3,0.7-5.9,1.6-8.5,2.9c-2-0.5-4.1-0.9-6.1-1.3C180.4,107.5,185.3,106.9,190.4,106.9z M181,81.2
	c-3.6,4.2-7.2,8.3-8.5,12.9c6.8,3.7,13.2,7.8,17.9,12.9c-8-6.4-16.9-10.7-27.4-11.7C168.3,89.7,174.1,84.8,181,81.2z M130.9,63.3
	l3.1-4.8c8.4,7.4,15.8,15.1,21.9,23.3c-3,2.1-6.5,4.7-7.4,5.6c-4-7.9-6.6-14.1-12.7-18.6c-6.1,9.5-7.7,20.5-8,25.2
	c2.5-1.4,5.7-1.8,8.2-2.2c-4.1,2-8.2,4.3-12.1,7.1C123.8,88.1,125,74.1,130.9,63.3z M251.9,100.4c-4.1,0.2-8.9-3.5-13.6-3.1
	c3.6,1,6.5,3,8.8,5.8C249.1,102.9,250.9,102.2,251.9,100.4z M256.8,118.6c-5-0.2-6.2,4.4-12.3,2.4c-24.3,31.4-27.3,50.5-27,64.2
	c0.2,6.7,2,11.1,5.5,11.5c3.8,1.5,7.6,2.7,11.5,3.6l0,0c6.9,3.8,14.5,5.4,22.3,6.3c-5.4,11.7-12.7,22.5-21.2,32.7
	c1.6-5.9,3.2-11.7,2.9-20.2c-5.9-10-19.5-13-29-25.8c-0.5-11.8,1.1-24.1,5.6-37.1c8.3-12.5,18.2-24.1,29.3-35.2
	c3.3,3.3,6.9,6.3,10.6,9.1c-3.3,0.1-6.7-0.4-10.1-1.7c-0.8,12.1,19.6,13.3,31.1,12.8c1.4-2.7,1.7-5.5,0.7-8.3
	c-3.8-0.4-7.2-1.8-10.2-4.7c0,2.1,0.2,4.1,1.7,5.7C262.2,131.3,257.9,126.7,256.8,118.6z M31.6,358.7c15.4-10.5,29.6-23.6,41.8-41.2
	c3.4,4.5,5.9,9.4,8.1,14.5c0.5-16.4,0.6-33-0.9-50.2c-3.9-10.4-9.4-20.9-19.7-31.3c0.3,1.6,0.6,3.2,0.9,4.8
	c10.9,18.5,15.2,28.2,10.4,53.1c-10.3,17.7-23.9,32.8-38.4,47.1L31.6,358.7z"/>
<path class="st2" d="M227.2,190.1c3.1-2.6,6.4-4.9,10.2-6.7c0.3,3,0.6,6,1.8,8.7c7.8-1.3,15.7-1.1,23.6-0.4
	c2.7-3.5,4.6-7.5,6.5-11.5c0.8,4.8,1.4,9.6,1.2,14.3C254.8,197.6,240.2,196.7,227.2,190.1"/>
<path class="st0" d="M225,184.7c4.9-3.5,10.2-6.2,16-8.1c0.4,4,0.9,7.3,1.5,10.3c4.9,0.2,9.9,0.3,14.8,0.5
	c-4.4-12.6-11.3-24.4-22.1-34.8c-1.3,2.6-2.6,5.2-3.9,7.8c4.7,3.3,8.1,8.1,11.2,13.1c-4-3.2-7.8-6.6-12.6-8.3
	C226.5,172,225.5,178.4,225,184.7"/>
<path class="st4" d="M225,184.7c4.9-3.5,10.2-6.2,16-8.1c0.4,4,0.9,7.3,1.5,10.3l10.2,0.3c-4.1-11.9-10.7-22.3-19-31.5l-2.4,4.7
	c4.7,3.3,8.1,8.1,11.2,13.1c-4-3.2-7.8-6.6-12.6-8.3C226.5,172,225.5,178.4,225,184.7"/>
<path class="st2" d="M238.6,139.4c13.7,6.3,29,8.9,46.2,6.9c-1.2,4.3-3.3,7.9-6.1,11c0-1.8,0-3.6-0.7-5.4
	c-10.2,1.8-20.3,1.1-30.3-2.3c-0.6,3.1-0.3,5.7,0.1,8.3C243.3,153.5,239.5,148.1,238.6,139.4"/>
<path class="st0" d="M202.4,99c7,1.7,13.9,4,20.4,7c-3.5,1.5-7.4,1.7-11.7,1.1C208.2,104.5,205.3,101.7,202.4,99"/>
<path class="st3" d="M238.6,139.4c13.7,6.3,29,8.9,46.2,6.9c-11.9,3.1-23.8,2.4-35.6-0.5c0,1.6,0.2,3.1,0.5,4.5
	c-0.7-0.2-1.3-0.4-2-0.6c-0.6,3.1-0.3,5.7,0.1,8.3C243.3,153.5,239.5,148.1,238.6,139.4"/>
<path class="st3" d="M227.2,190.1c3.1-2.6,6.4-4.9,10.2-6.7c-1.1,3.6-0.9,6.9,0.3,9.9c11.1,1.5,22.1,1.6,32.8,0.1c0,0.3,0,0.7,0,1
	C254.8,197.6,240.2,196.7,227.2,190.1"/>
<path class="st4" d="M202.4,99c7,1.7,13.9,4,20.4,7c-4.6-1.5-9.2-2.9-13.7-3.7c0.2,1.7,1.1,3.3,2,4.8
	C208.2,104.5,205.3,101.7,202.4,99"/>
<path class="st4" d="M141.4,45.3c5.5-1.6,11.3-2.9,17.8-3.6c14.3,7.1,23.9,16.3,30.7,26.8c-10.1-4.4-20.4-8-30.9-11.1
	c5.8,0.1,11.7,0.6,17.5,1.4C165.9,49.8,154,45.9,141.4,45.3 M75.2,166c-3.6,10-5.8,19.9-7.1,29.9c5.4,15.1,15,23.7,26.2,29.9
	C83.1,211.1,73.6,194.5,75.2,166z M117.3,110.5c-11.4,12.7-21.5,26.8-29.9,42.6c-0.8-9.2-1-18.8,0.1-29
	C96.6,118.1,106.5,113.6,117.3,110.5z M122.8,138.8c5-7.1,10.6-14.1,17.5-21c8-2.5,16.3-2.6,24.9,0.3c-9.7,6.4-17.4,13.4-24.4,20.6
	c-8.8,18.9-10.7,42.6-10.2,68c-5.2-15.7-8.6-31.7-10-48.1c4.9-9.6,10.9-18.7,17.5-27.6C132.8,133.5,127.7,136.1,122.8,138.8z
	 M155,215.2c-1.6,8.3-3,16.3-3.9,24.2c3.1,14.7,7.1,25.3,11.7,33.4c-0.3-10.5-0.2-21.2,1.5-32.3c5.3,10,9.9,20.3,13.5,31
	c0.2,16.3-1.5,32-3.6,47.6c6.3-13.6,10.8-30,13.6-49C179.1,249.6,168.6,230.9,155,215.2z M169.8,143.1c1.1,10.5,3,20.2,6.1,28.4
	c22.2,21.9,31.9,44.3,35.5,67c3.5-6.7,5.2-14.4,6.4-22.3c5.4,16.4,5.5,32.4,1.6,48c14.2-7.3,26.9-16.6,39-26.8
	c-0.2,5.7-1.4,11.2-3.5,16.7c-14.2,13.5-29.4,24.6-46.7,31.5c1.3-9,1-18.5-2.3-29c-8.8-28.2-21.2-56.5-40-84.7
	C165.9,162.3,167.5,152.7,169.8,143.1z M437.9,164.5c15.4-3.5,27.3,1.9,39.6,0.1c-2.3-5.2-7.7-10.3-14.6-15.5c0,2.1,0.1,4.3,0.1,6.4
	C455.1,155.7,444.7,160.2,437.9,164.5z M209.5,53c8.6,5.6,15.6,12.1,20.9,19.5c-2.9-1-5.8-2.1-8.8-3.1C218.2,63.7,214,58.3,209.5,53
	z"/>
<path class="st1" d="M259.7,394.6c-78.4,0-156.4,10.1-249,30.3l15.8-144.5c96.1,0,156.1-0.1,233.3-0.1c77.2,0,137.2,0.1,233.3,0.1
	l15.8,144.5C416.1,404.7,338.1,394.6,259.7,394.6"/>
<path class="st4" d="M438.1,437.6l30.4-11.8c-32.6-10.6-69.6-17.9-106.8-23.6c33.1,6.9,65.4,13.9,93.2,24.9L438.1,437.6z
	 M81.3,437.6l-30.4-11.8c32.6-10.6,69.6-17.9,106.8-23.6c-33.1,6.9-65.4,13.9-93.2,24.9L81.3,437.6z"/>
<path class="st5" d="M453.3,404.8c19.9,4.5,25.9,1.6,24.4-11.1c-0.8-6.3-1.5-12.6-2.3-18.9c-0.8-6.3-1.5-12.6-2.3-19
	c-1.1-8.6-7.3-12.4-17.8-13.5c-6.9-0.7-13.7-1.4-20.5-2c-3.4-0.3-5-1-5.2-3.2c-0.6-6.4-1.2-12.7-1.8-19.1c-0.1-1.6,1.1-2.2,3.7-2.1
	c12,0.5,24.1,1.1,36.2,1.7c-2.7-7.2-5.4-14.3-8-21.4c-14.5,0-29,0-43.5,0c-14.8,0-20.8,5-20.2,12.8c0.4,5.6,0.9,11.2,1.3,16.8
	c0.4,5.6,0.9,11.2,1.4,16.8c0.8,9.8,9.5,12.1,19.3,13.1c5.7,0.6,11.4,1.4,17.1,2.1c4.6,0.6,6.2,0.9,6.5,3.9c0.6,6.5,1.4,13,2,19.5
	c0.2,1.6-0.7,2-3.6,1.5c-12.1-2.1-24.2-3.9-36.1-5.7c2.5,6.5,5.1,13,7.6,19.5C425.2,398.9,439.3,401.6,453.3,404.8 M320.3,385.2
	c21.1,1.7,42.3,4,63.7,6.9c1.5-5.7,3-11.4,4.5-17.2c-11.7-1.4-23.3-2.7-34.8-3.7c-0.4-6.7-0.7-13.4-1.1-20.1c9,0.6,18,1.3,27.1,2.1
	c-0.4-5.5-0.7-11-1.1-16.5c-9-0.6-17.9-1-26.8-1.5c-0.4-7.3-0.8-14.6-1.2-21.8c11.6,0.3,23.2,0.6,34.7,0.9
	c-2.2-6.1-4.5-12.1-6.8-18.1c-20.4,0-40.8,0-61.3,0c0.5,14.8,1,29.7,1.5,44.5C319.3,355.5,319.8,370.4,320.3,385.2z M280.7,383.4
	c19,0.6,25.8-2.9,25.5-12.6c-0.3-12.4-0.7-24.8-1-37.3c-0.3-12.4-0.7-24.8-1.1-37.3c-10.7,0-21.5,0-32.2,0
	c0.1,11.6,0.3,23.3,0.4,34.9c0.1,11.6,0.1,23.3,0.2,34.9c0,1.3-0.4,1.9-3.2,1.9c-3.8-0.1-7.7-0.1-11.6-0.1c-2.7,0-3.1-0.6-3.1-1.9
	c0.1-11.6,0-23.3,0.1-34.9c0-11.6,0-23.3,0.1-34.9c-10.8,0-21.5,0-32.1,0c-0.3,12.4-0.6,24.8-0.8,37.2c-0.3,12.4-0.5,24.7-0.8,37.1
	c-0.2,9.7,6.5,13.2,25.5,12.8C258,383,269.4,383,280.7,383.4z M142.6,391.2c20.8-2.6,41.5-4.7,62.2-6.3c2.1-5.6,4.1-11.2,6.2-16.7
	c-11,0.6-22.1,1.3-33.2,2.1c0.6-12.3,1.1-24.6,1.7-37c0.5-12.3,1.2-24.7,1.8-37c-10.8,0-21.6,0-32.4,0c-1.1,15.8-2.1,31.7-3.2,47.5
	C144.6,359.5,143.6,375.4,142.6,391.2z M133.4,308c0.5-7.1-5.4-11.8-17.8-11.8c-20.5,0-41,0-61.5,0c-2.3,19.2-4.7,38.3-7,57.5
	c-2.3,19.2-4.7,38.3-7,57.5c20.8-5,41.5-9.7,62.2-13.6c19.3-3.6,26.7-8.7,27.5-19.4c0.3-4.2,0.6-8.4,0.9-12.6
	c0.3-4.2,0.5-8.4,0.9-12.6c0.4-4.3-3.3-8-12.2-7.5c8.7-2.1,11.7-6,12-10.9c0.3-4.4,0.6-8.9,1-13.3C132.7,316.9,133,312.5,133.4,308z
	 M96.9,378.8c-0.1,1.6-0.9,2.2-3.7,2.7c-5.7,1-11.3,2-17,3c0.9-8.4,1.8-16.8,2.6-25.2c5.1-0.6,10.1-1.3,15-1.9c3-0.4,5,0.1,4.7,2.3
	C98,366.1,97.4,372.4,96.9,378.8z M99.5,314.3c2.2-0.1,2.8,0.6,2.7,1.9c-0.7,7.4-1.3,14.8-2,22.3c-0.2,1.8-2.1,2.9-4.4,3.1
	c-5.1,0.5-10.2,1-15.3,1.5c0.5-4.7,1-9.3,1.5-14c0.5-4.7,1-9.3,1.5-14C88.8,314.8,94.1,314.6,99.5,314.3z"/>
<path class="st3" d="M101.8,379.2c-0.4,4.5-3.6,6.4-7.8,7.2c-5.7,1-11.3,2-17,3l-6.5,1.1l0.7-6.5c0.9-8.4,1.8-16.8,2.6-25.2l0.4-3.9
	l3.9-0.5c5-0.6,10-1.3,15-1.9c3.2-0.4,6.6-0.2,8.8,2.5c1.2,1.5,1.7,3.4,1.5,5.3C103,366.5,102.4,372.9,101.8,379.2 M150.6,343.9
	c7.7-0.5,15.5-0.9,23.4-1.3c-0.4,9.1-0.8,18.2-1.2,27.3l-0.3,5.5l5.5-0.4c8.5-0.6,17-1.1,25.6-1.6c-0.8,2.2-1.6,4.5-2.5,6.7
	c-17.8,1.5-35.6,3.3-53.3,5.4c0.9-13.8,1.8-27.7,2.7-41.5L150.6,343.9z M405.3,346.5c21.8,1.8,42.5,4.1,62,6.7
	c0.5,1,0.8,2.1,0.9,3.2c0.8,6.3,1.6,12.6,2.3,19c0.8,6.3,1.5,12.6,2.3,18.9c0.2,1.5,0.5,5.2-0.6,6.4c-2.4,2.6-14.9-0.1-17.8-0.8
	c-13.1-3-26.3-5.6-39.6-7.9c-1.2-3-2.3-6-3.5-9c9.2,1.4,18.4,2.8,27.6,4.4c2.9,0.5,6.1,0.5,8.1-2.1c1.1-1.4,1.5-3.1,1.3-4.9
	c-0.7-6.5-1.4-13-2-19.5c-0.2-1.9-0.7-3.6-2-5c-2.2-2.6-5.6-2.9-8.8-3.3c-5.7-0.7-11.4-1.5-17.1-2.1
	C414.6,350.3,408.1,349.5,405.3,346.5L405.3,346.5z M323.8,341.7c17.2,0.6,34,1.4,50.4,2.5l0.2,3.6c-7.1-0.6-14.3-1.1-21.4-1.6
	l-5.6-0.4l0.3,5.6c0.4,6.7,0.7,13.4,1.1,20.1l0.2,4.3l4.3,0.4c9.7,0.9,19.4,1.9,29.1,3.1c-0.6,2.5-1.3,5-2,7.4
	c-18.4-2.4-36.8-4.4-55.2-6C324.6,367.7,324.2,354.7,323.8,341.7z M277.4,340.7c7.8,0.1,15.5,0.2,23.1,0.4
	c0.2,9.9,0.5,19.9,0.8,29.8c0,1.3-0.1,2.9-0.8,4c-2.6,4-15.6,3.6-19.6,3.5c-11.5-0.3-22.9-0.3-34.4-0.1c-4,0.1-17,0.3-19.6-3.7
	c-0.7-1.1-0.9-2.7-0.8-4c0.2-9.9,0.4-19.8,0.6-29.6c7.6-0.1,15.4-0.2,23.1-0.3c0,8.4,0,16.9-0.1,25.3c0,5,3.6,6.9,8.1,6.9
	c3.8,0,7.6,0,11.4,0.1c4.5,0.1,8.3-1.9,8.2-6.9C277.5,357.6,277.5,349.2,277.4,340.7z M52.2,353.2l-0.1,1.1
	c-2,16.8-4.1,33.6-6.1,50.4c18.4-4.4,36.9-8.5,55.5-12c6.2-1.2,18.6-3.6,22.1-9.7c0.9-1.6,1.3-3.4,1.4-5.2c0.3-4.2,0.6-8.4,0.9-12.6
	c0.3-4.2,0.5-8.4,0.9-12.6c0.2-2.3-5.8-2.2-6.9-2.1l-4.5,0.3l-0.6-4.3C92.6,348.3,71.7,350.6,52.2,353.2z"/>
</svg>
