<?xml version="1.0" encoding="utf-8"?>
<!-- Generator: Adobe Illustrator 19.0.0, SVG Export Plug-In . SVG Version: 6.00 Build 0)  -->
<svg version="1.1" id="Layer_1" xmlns="http://www.w3.org/2000/svg" xmlns:xlink="http://www.w3.org/1999/xlink" x="0px" y="0px"
	 viewBox="0 0 600.2 550.5" style="enable-background:new 0 0 600.2 550.5;" xml:space="preserve">
<style type="text/css">
	.st0{fill-rule:evenodd;clip-rule:evenodd;fill:#6CAEDF;}
	.st1{fill-rule:evenodd;clip-rule:evenodd;fill:#00275D;}
	.st2{fill-rule:evenodd;clip-rule:evenodd;fill:#FEC658;}
	.st3{fill-rule:evenodd;clip-rule:evenodd;fill:#D6A21B;}
	.st4{fill-rule:evenodd;clip-rule:evenodd;fill:#FFFFFF;}
	.st5{fill-rule:evenodd;clip-rule:evenodd;fill:#A9B5C1;}
	.st6{fill:#FFFFFF;}
</style>
<path class="st0" d="M542.5,247.1c-12,84.9-41.1,159.4-106.1,218.2c-38.7,35-85.2,60.3-132,82.7l-5.3,2.5l-5.3-2.5
	c-46.8-22.4-93.3-47.7-132-82.7C96.8,406.5,67.7,332,55.7,247.1L0,216.6l0.6-7.9c4.2-51.5,8.3-103,12.5-154.5l0.6-7.9l7.5-2.7
	c40.6-14.4,83.7-24,126.2-30.5C197.6,5.4,248.5,2,299.1,2c50.6,0,101.5,3.4,151.6,11.1c42.6,6.5,85.6,16.1,126.2,30.5l7.5,2.7
	l0.6,7.9c4.2,51.5,8.3,103,12.5,154.5l0.6,7.9L542.5,247.1z"/>
<path class="st1" d="M67,239.3c23.1,176.5,112.2,240.3,232.1,297.6C418.9,479.6,508,415.8,531.2,239.3l54.2-29.6
	c-4.2-51.5-8.3-103-12.5-154.5C501.3,29.8,405,14.3,299.1,14.3c-105.9,0-202.2,15.5-273.7,40.9c-4.2,51.5-8.3,103-12.5,154.5
	L67,239.3z"/>
<path class="st0" d="M483,242c-47.7-41.7-119.6-59.8-183.9-59.8c-64.2,0-136.2,18.1-183.9,59.8c9.4,71.4,34.2,138.5,94.2,188
	c26.7,22,57.9,39.5,89.7,55c31.7-15.5,62.9-32.9,89.7-55C448.7,380.5,473.6,313.5,483,242 M96,235.8c9,77.7,34.8,152.1,101.2,206.8
	c30.2,24.9,65.8,44.3,101.9,61.5c36.1-17.2,71.7-36.5,101.9-61.5c66.4-54.7,92.3-129.1,101.2-206.8
	c-44.4-42.6-118.8-70.5-203.1-70.5C214.8,165.3,140.4,193.2,96,235.8z"/>
<path class="st1" d="M107.1,317c4.2-43.5,25.6-83.6,79.3-117.5c-9.4,1.2-18.8,2.8-28.2,4.7c63.3-64.7,219-54.7,295.3-3.1
	c10.3,6.3,32.1,25,24.4,39.2c-1.2,2.3-3.6,5.1-6,7.2c10,9.7,17.3,21.7,18.9,35.9c1.9,17.7-5.9,34.4-16.5,48
	c-14.7,18.8-36.2,34.1-56.7,45.8c-2.1,1.2-4.2,2.4-6.4,3.6c0.6-2.4,1.3-4.7,1.9-7.1c0.6-2.2,1.3-4.5,1.9-6.7c2-7,4.2-16.7,5-24
	c-11.9-9.1-41.9-6.7-49.7,8c-9.3,17.7,1.8,65.4,52.8,91.8l-24,33.6c-25.7,2.9-51.7-2.9-77.9-15c5.7,15,16,27.4,30.7,37.2l-29.5,20.9
	c-36.7-1.1-71.6-18.9-92.1-53.5c1.4,13.2,4.1,25.6,7.6,37.4c-60.5-33.2-130.7-122.9-110.4-199C119.9,307.8,113.3,312.2,107.1,317"/>
<path class="st2" d="M391.1,244.7c-1-1.3-2.2-2.5-3.5-3.7c-2.8,2.2-7.4,3.2-12.3,2.5c-7.5-1.1-12.8-5.9-12-10.7
	c0.2-1.2,0.8-2.2,1.6-3.1c-5.1-1.2-10.6-2-16.6-2.3C347.8,245.6,376.2,251.9,391.1,244.7"/>
<path class="st3" d="M363.5,232.1c0.3-0.9,0.8-1.7,1.4-2.5c-5.1-1.2-10.6-2-16.6-2.3c-0.3,10.3,8.5,16.7,19,19.2
	c-6.2-3.2-11.9-6.9-13.4-15.2C357.4,231.3,360.6,231.6,363.5,232.1"/>
<path class="st4" d="M329.4,223.9c-13.9-2.2-37.3-2.3-48.3-0.7c6.7-3.7,31.4-6.3,41.8-7.3c-19.6-4.6-48.2-0.9-66.3,1
	c105.2-45.2,141,45.8,165.9,13.1c-0.5,7.2-4.4,14.1-16.1,15C378.1,268.2,334.4,252,329.4,223.9 M155.3,397.5
	c2.5-32.9,12.6-63.2,39.2-88.1c-22.6,59.4-16.3,110.2,18.1,152.6c-5.3-34.7,0-66.2,25.6-91.6c-21.7,71.2,29.3,130.1,95.1,134.5
	c-39.7-27.3-49.1-61-36.8-99.2c23.1,37.6,60.1,52.3,108.2,48.4c-30.3-14.5-77.1-39.1-69.4-107c-19.5,1.6-35.9,3.2-47.9,17.2
	c9.1-39.2,42.3-23.9,61.8-39.3c-36.6-4.8-76.2-11.7-70.7-46.2c2.5-15.5,15.4-29.1,33.2-25.3c22.8,4.9,41.3,16.1,82.9,18.8
	c9.3-35.7,56.9-26,46.2-43.3c4.3,3.4,7.1,5.6,6.9,10c9.6-2,16.3-2,15.2-6.3c-1.8-7-8.7-17.3-29.2-24.4c6.7,4.1,7.3,10.4,6.7,17.3
	c-28.8-53.1-148.7-62-227-37.1c5.6,1.1,10.8,2.8,15.2,5.7c-52.2,25.7-81.2,57.6-96.8,93.2c7.8-2.8,15.8-4.4,24.2-4.3
	C132.2,328,137,364.6,155.3,397.5z"/>
<path class="st5" d="M256.6,216.9c8-0.1,15.9-0.1,23.6,1.5c-6.4,2.5-11,5.8-15,9.3c19.3-2.1,38.2-2.1,55.7,3.3
	c8.5,21.6,36.6,37,68.4,23.1l0,0c-26.2,7.8-55.9-7.2-60-30.1c-13.9-2.2-37.3-2.3-48.3-0.7c6.7-3.7,31.4-6.3,41.8-7.3
	C303.2,211.3,274.7,215,256.6,216.9"/>
<path class="st5" d="M155.3,397.5c2.5-32.9,12.6-63.2,39.2-88.1c-22.6,59.4-16.3,110.2,18.1,152.6c-5.3-34.7,0-66.2,25.6-91.6
	c-21.7,71.2,29.3,130.1,95.1,134.5c-39.7-27.3-49.1-61-36.8-99.2c23.1,37.6,60.1,52.3,108.2,48.4c-30.3-14.5-77.1-39.1-69.4-107
	c-19.5,1.6-35.9,3.2-47.9,17.2c9.1-39.2,42.3-23.9,61.8-39.3c-36.6-4.8-76.2-11.7-70.7-46.2c-7.4,21,6.2,44.1,19.9,49.3
	c-37.3,37.1-29.3,83.7-22.1,125c-27-29.2-35.2-65.8-24.3-110c-25.2,16.8-34.7,35.5-43.8,54.3c-8.6-29.9-17.2-59.8,3.6-109.9
	c-26.6,7.7-38.8,23-50.3,38.8c-1.2-25.6,7.4-49.1,33.2-68.7c-15.7,1.7-27,6.7-35.7,13.6c14.8-27.9,35.9-54.1,69.8-76.9
	c-52.2,25.7-81.2,57.6-96.8,93.2c7.8-2.8,15.8-4.4,24.2-4.3C132.2,328,137,364.6,155.3,397.5"/>
<path class="st2" d="M451.2,265.6c-4.6-5-24.5-4.4-17.6,2.5c1.2,1.1,3,2.1,5.1,2.3c2.1,0.2,1.7-2.7,1.5-4
	C439.9,264.2,447.2,264.8,451.2,265.6 M299.1,301.6c-11.5-9.3-10.8-14.3-8.1-25c3.9-15.5,18.7-13.5,27.7-10.4
	c19.7,6.6,38.4,13.2,86,18.2c-3.2-23.7,27.2-39.8,46.9-33.6c26.2,8.2,47.4,55.4-18.5,99.2c15.3-64.6-100.6-37.5-118.5-67.6
	c3.5-0.7,6.9,0.2,10.3,0.8c-10.4-5.3-18-4.4-22.2,3.9c2.1-1.5,4.1-3,7-4c9.6,31.3,101.6,16.1,111.4,46.6
	C393.7,312.6,319.1,317.7,299.1,301.6z"/>
<path class="st3" d="M436.6,347.7c-1.1,0.8-2.3,1.6-3.4,2.4c15.3-64.6-100.6-37.5-118.5-67.6c3.5-0.7,6.9,0.2,10.3,0.8
	c-2.2,0.1-4.1,0.4-5.2,1.1C349.9,301.3,464.4,288.3,436.6,347.7 M299.1,301.6c-11.5-9.3-10.8-14.3-8.1-25
	c1.8,18.9,19.9,27.4,47,30.1c-15.5-5.4-28.4-11.7-29.7-21.6c-2.2,0.3-3.5,1-5.5,2c2.1-1.5,4.1-3,7-4c9.6,31.3,101.6,16.1,111.4,46.6
	C393.7,312.6,319.1,317.7,299.1,301.6z"/>
<path class="st4" d="M458.2,258.4c17.8,26.5,9.1,53.4-16,80.7C465,321.4,491.7,286.3,458.2,258.4"/>
<path class="st4" d="M363.3,235.7c-3.1,0.5-5.4,1.8-5.3,2.9c0.2,1.1,2.8,1.7,5.9,1.2c3.1-0.5,5.4-1.8,5.3-2.9
	C369,235.7,366.4,235.2,363.3,235.7"/>
<polygon class="st4" points="85.9,215.6 42.9,191.7 45.5,187.9 "/>
<path class="st6" d="M110.1,148.2c10.9-2.2,21.7-4.3,32.6-6.2c-1.7-5.9-3.3-11.8-4.8-17.7c0.4-7.6,0.7-15.2,1.1-22.8
	c0.4-7.6,0.9-15.2,1.3-22.9c0.3-5.7-4.1-9.4-9.9-8.3c3.4-0.7,6.8-1.3,10.3-1.9c2.2-6.5,4.4-13,6.5-19.6c-10.5,1.8-21,3.8-31.6,5.8
	c1.5,5.9,3,11.8,4.5,17.7c-0.5,9.4-1,18.7-1.6,28.1c-0.6,9.4-1,18.7-1.6,28C114.6,135,112.3,141.6,110.1,148.2 M169.9,137.6
	c10.7-1.4,21.5-2.7,32.2-4c-1.7-6-3.5-11.9-5-17.9c0.2-7.6,0.4-15.1,0.6-22.7c0.3-7.6,0.5-15.2,0.8-22.7c0.2-5.7-4.2-9.6-9.9-8.9
	c4.6-0.6,9.2-1.1,13.9-1.7c0.1,1.2,0,2.5-0.1,3.7c6.8-0.6,13.6-1.2,20.4-1.8c0.2-7.4,0.4-14.8,0.5-22.2c-22.7,2-45.4,4.8-68.2,8.2
	c-0.3,7.5-0.7,14.9-0.9,22.4c6.8-1.1,13.6-2.2,20.4-3.1c0.1-1.2,0.1-2.5,0.1-3.7c1.2-0.1,2.5-0.3,3.8-0.5c-0.3,9.3-0.7,18.6-1,27.9
	c-0.3,9.3-0.7,18.6-1.1,27.9C174.2,124.7,172,131.1,169.9,137.6z M229.1,131.1c10.7-0.7,21.5-1.3,32.2-1.9
	c-1.9-6.1-3.7-12.1-5.4-18.2c0.1-7.6,0.1-15.1,0.3-22.6c0.1-7.5,0.2-15.1,0.3-22.6c0.1-5.7-4.4-9.9-10.1-9.6
	c3.4-0.2,6.8-0.4,10.2-0.5c1.9-6.2,3.8-12.5,5.8-18.8c-10.4,0.5-20.8,1.1-31.2,1.7c1.7,6,3.5,12.1,5.1,18.1
	c-0.2,9.3-0.3,18.5-0.5,27.7c-0.2,9.2-0.4,18.5-0.5,27.7C233.1,118.4,231.1,124.8,229.1,131.1z M272,128.8
	c19.8-0.4,39.7-0.3,59.5,0.1c-0.1-8.6-0.2-17.2-0.3-25.8c-6.9-1.7-13.8-3.4-20.6-5c0,4,0,8,0.1,12c-5.4-0.1-10.7-0.2-16.1-0.1
	c6-9.1,11.9-18,17.7-26.9c5.8-8.9,11.6-17.9,17.4-26.8c-0.1-6.5-0.1-13-0.2-19.5c-18.6-0.4-37.3-0.6-55.8-0.2
	c-0.1,8.3-0.1,16.6-0.2,24.9c6.7,1.4,13.5,2.8,20.3,4.2c0-3.7,0-7.4,0-11.1c4.6,0,9.2,0.1,13.9,0.1c-5.9,8.9-11.8,17.9-17.7,27
	c-5.9,9.1-11.9,18.3-17.8,27.5C272.1,115.9,272.1,122.3,272,128.8z M400.8,134.2c-0.3-7.4-0.5-14.8-0.7-22.2
	c-6.9-0.8-13.8-1.4-20.7-2c0.1,1.2,0.1,2.5,0.2,3.7c-3.8-0.3-7.5-0.7-11.3-1c-0.2-6.1-0.3-12.3-0.4-18.4c5.7,0.5,11.3,1,17,1.5
	c1.3-6,2.5-12.1,3.7-18.1c-7-0.6-14.1-1.2-21-1.9c-0.1-2.8-0.1-5.5-0.2-8.3c-0.1-5.7-4.7-10.5-10.4-10.9c7,0.5,14.1,1.1,21.3,1.7
	c0.1,1.2,0.1,2.5,0.1,3.7c6.8,0.6,13.5,1.2,20.3,2c-0.2-7.4-0.4-14.8-0.7-22.2c-19-1.8-38-3.5-56.9-4.5c1.9,6.3,3.9,12.5,5.8,18.7
	c0.2,9.2,0.3,18.4,0.5,27.7c0.1,9.2,0.3,18.4,0.4,27.6c-1.9,6.1-3.6,12.1-5.4,18.1C361.8,130.6,381.3,132.3,400.8,134.2z M461.2,143
	c7.7,1.5,15.4,3,23,4.5c-0.7-12.4-1.4-24.9-2.1-37.3c-0.7-12.4-1.5-24.9-2.2-37.3c1.5-5.9,2.9-11.7,4.5-17.6
	c-10.7-2-21.2-4-31.7-5.9c2.2,6.5,4.4,13,6.6,19.6c0.3,5.7,0.6,11.5,0.9,17.2c0.3,5.7,0.5,11.4,0.8,17.2c-4.3-9.5-8.4-19-12.5-28.3
	c-4.2-9.4-8.3-18.8-12.4-28.2c-9.3-1.4-18.5-2.7-27.7-3.8c2,6.4,4.1,12.8,6.2,19.2c0.3,9.3,0.7,18.5,1,27.8c0.3,9.2,0.7,18.5,1,27.7
	c-1.7,5.9-3.4,11.9-5,17.8c10.7,1.3,21.5,2.9,32.3,4.6c-2.2-6.5-4.4-13-6.5-19.5c-0.3-5.7-0.5-11.4-0.8-17.1
	c-0.3-5.7-0.5-11.4-0.7-17.1c4.1,9.4,8.2,18.8,12.4,28.2C452.6,124.1,456.9,133.6,461.2,143z M515.5,183.7c11,2.6,22.1,5.6,33.2,8.6
	c7,1.9,12.2-3.8,11.5-12.7c-0.5-5.9-0.9-11.8-1.4-17.7c-0.5-5.9-1-11.8-1.5-17.7c-0.5-6.4-4-13-8.9-16.8
	c-10-7.7-19.9-15.6-29.9-23.2c-0.1-1.2-0.1-2.5-0.2-3.7c-0.5-7.6-5.6-14.6-11.3-15.9c8.5,1.9,17,3.9,25.6,6.1
	c0.3,5,0.7,9.9,1.1,14.9c6.8-0.2,13.6-0.5,20.5-0.7c-0.5-5.8-1-11.6-1.4-17.5c-0.7-8.9-6.9-17.6-13.6-19.3
	c-10.7-2.7-21.4-5.4-32-7.8c-6.7-1.5-11.7,4.5-11.2,13.3c0.3,5.2,0.7,10.5,1,15.7c0.3,5.2,0.6,10.4,0.9,15.6
	c0.4,6.3,3.8,12.8,8.6,16.3c9.9,7.4,19.8,14.9,29.9,22.8c0.5,7,1,14.1,1.6,21.1c-5.2-1.4-10.4-2.8-15.5-4c-0.3-4.9-0.6-9.9-1-14.8
	c-6.9,0.4-13.9,0.8-20.8,1.2c0.4,5.7,0.7,11.5,1,17.2C502.3,173.5,508.5,182.1,515.5,183.7z M49.5,192.4c11.8-3.2,23.5-6.3,35.2-9.1
	c7-1.7,13.2-10.2,13.7-19.1c0.4-6.2,0.8-12.4,1.1-18.5c0.3-6.2,0.8-12.4,1.2-18.5c-7.2,3.7-14.5,7.4-21.5,11.1
	c-0.5,7.4-1.1,14.9-1.5,22.3c-5.8,1.4-11.6,2.9-17.5,4.5c0.7-10.1,1.5-20.3,2.3-30.4c0.7-10.1,1.5-20.3,2.2-30.5
	c0.6-7.6-3.6-12.5-9.4-10.9c9.2-2.4,18.4-4.9,27.5-7.1c-0.5,7.4-1,14.9-1.5,22.3c7-3.7,14.2-7.4,21.3-11c0.6-8.2,1.1-16.5,1.6-24.7
	c0.5-8.8-4.6-14.8-11.3-13.3c-11.2,2.6-22.5,5.4-33.8,8.4c-6.7,1.8-12.7,10.5-13.4,19.4c-1.2,15.4-2.5,30.8-3.7,46.1
	c-1.3,15.4-2.5,30.7-3.7,46.1C37.3,188.6,42.4,194.3,49.5,192.4z"/>
<path class="st5" d="M420.3,97.7c0.2,7.1,0.5,14.2,0.8,21.3c-1.2,4.4-2.5,8.7-3.7,13.1c6.8,0.9,13.6,1.8,20.6,2.9
	c-1.6-4.8-3.2-9.5-4.8-14.3c-0.4-7.1-0.7-14.2-0.9-21.3C428.2,98.8,424.3,98.2,420.3,97.7 M463.9,139.3c5.2,1,10.4,2.1,15.6,3.1
	c-0.3-5.8-0.6-11.7-1-17.6c-0.4-5.8-0.7-11.7-0.9-17.6c-4.1-0.8-8.1-1.6-12.1-2.3c0.3,6.8,0.7,13.7,1,20.6
	c-3.3-7.4-6.7-14.9-9.9-22.2c-3.1-0.5-6.3-1-9.6-1.5c2.8,6.2,5.6,12.4,8.4,18.7C458.3,126.7,461,132.9,463.9,139.3z M396.4,129.4
	c-0.2-4.5-0.3-9.1-0.4-13.6c-4.1-0.4-8.1-0.8-12.1-1.1c0.1,1.2,0.1,2.5,0.1,3.7c-6.7-0.6-13.3-1.2-19.9-1.8
	c-0.2-8.3-0.4-16.5-0.6-24.8c-3.9-0.3-7.9-0.5-11.9-0.7c0.1,7.1,0.3,14.1,0.4,21.2c-1.3,4.4-2.6,8.9-3.9,13.3
	C364.2,126.5,380.2,128,396.4,129.4z M276.4,124.5c16.8-0.3,33.8-0.2,50.6,0.1c-0.1-6.1-0.1-12.1-0.2-18.2c-4-1-8-1.9-11.9-2.9
	c0,3.6,0,7.3,0.1,10.9c-9.4-0.2-18.9-0.3-28.3-0.1c5.5-8.4,10.9-16.7,16.4-24.9c-4.4-0.1-8.7,0-13,0c-4.5,7-9.1,14-13.6,21
	C276.5,115.2,276.4,119.9,276.4,124.5z M235.1,126.4c6.8-0.4,13.5-0.8,20.4-1.1c-1.4-4.5-2.7-8.9-3.9-13.4
	c0.1-7.1,0.2-14.2,0.2-21.2c-3.9,0.2-7.9,0.4-11.9,0.6c-0.1,7.1-0.2,14.2-0.4,21.2C238.1,117.2,236.5,121.8,235.1,126.4z
	 M175.9,132.6c6.8-0.9,13.6-1.7,20.5-2.6c-1.3-4.4-2.5-8.7-3.7-13.1c0.3-7.1,0.5-14.2,0.7-21.3c-4,0.5-8.1,1-12,1.5
	c-0.3,7.1-0.5,14.2-0.8,21.4C179,123.1,177.5,127.8,175.9,132.6z M116.3,142.7c6.9-1.4,13.7-2.7,20.6-4.1c-1.2-4.3-2.3-8.6-3.5-12.9
	c0.4-7.2,0.8-14.3,1.2-21.5c-4,0.8-8.1,1.6-12.1,2.4c-0.4,7.2-0.8,14.3-1.2,21.5C119.6,133,118,137.8,116.3,142.7z M95.8,134
	c-4.1,2.2-8.3,4.3-12.5,6.5c-0.5,7.8-1.1,15.6-1.6,23.4c-8.8,2.1-17.6,4.4-26.4,6.8c0.7-8.2,1.3-16.4,1.9-24.7
	c0.6-8.2,1.2-16.4,1.8-24.7c-4.2,1.1-8.2,2.2-12.3,3.3c-0.7,9-1.4,18-2.1,26.9c-0.7,9-1.4,17.9-2.2,26.9c-0.3,4.2,1.3,9.9,6,9.8
	c0.4,0,0.8-0.1,1.4-0.2c11.8-3.2,23.5-6.3,35.1-9.1c0.5-0.1,0.9-0.3,1.3-0.5c4.9-2.3,7.4-9,7.6-13.2c0.4-5.2,0.7-10.4,1-15.6
	C95.1,144.5,95.5,139.2,95.8,134z M504.4,112.9c1,2,2.3,3.8,4.1,5.1c10.7,8,21.4,16.2,32.2,24.7c0.7,9.3,1.4,18.7,2.2,28
	c-8.2-2.2-16.4-4.4-24.6-6.3c-0.3-4.5-0.6-8.9-0.9-13.3c-4,0.3-8,0.5-12.1,0.7c0.4,4.7,0.6,9.4,0.9,14c0.3,4.2,2.8,10.8,7.7,13.2
	c0.4,0.2,0.8,0.4,1.3,0.5c11,2.6,22,5.6,33.2,8.6c0.5,0.1,0.9,0.2,1.4,0.2c4.7,0.1,6.3-5.6,5.9-9.8c-0.4-5.9-0.9-11.8-1.4-17.7
	c-0.4-5.9-0.9-11.8-1.4-17.7c-0.3-3.9-2.3-9.4-6.2-12.4c-4.7-3.7-9.4-7.3-14.1-11C523.1,117.2,513.7,115,504.4,112.9z"/>
<polygon class="st4" points="512.2,215.6 555.3,191.7 552.6,187.9 "/>
</svg>
