<?xml version="1.0" encoding="utf-8"?>
<!-- Generator: Adobe Illustrator 19.0.0, SVG Export Plug-In . SVG Version: 6.00 Build 0)  -->
<svg version="1.1" id="Layer_1" xmlns="http://www.w3.org/2000/svg" xmlns:xlink="http://www.w3.org/1999/xlink" x="0px" y="0px"
	 viewBox="0 0 538.5 559.7" style="enable-background:new 0 0 538.5 559.7;" xml:space="preserve">
<style type="text/css">
	.st0{fill-rule:evenodd;clip-rule:evenodd;fill:#C9CBD8;}
	.st1{fill-rule:evenodd;clip-rule:evenodd;fill:#262F61;}
	.st2{fill-rule:evenodd;clip-rule:evenodd;fill:#CB3524;}
	.st3{fill-rule:evenodd;clip-rule:evenodd;fill:#913339;}
	.st4{fill-rule:evenodd;clip-rule:evenodd;fill:#FFFFFF;}
	.st5{fill-rule:evenodd;clip-rule:evenodd;fill:#B3B6C8;}
	.st6{fill:#FFFFFF;}
	.st7{fill:#B3B6C8;}
</style>
<path class="st0" d="M150.1,100.6c0.2-1.8,0.5-3.7,0.8-5.8l1.9-12.7l7.4,5.8c1-3.5,2.1-7,3.4-10.4c-1.2-5.6-1.3-12.1-0.8-17.5
	c0.8-8.8,4.4-19.2,10.1-26l7.1-8.5l9.3,5.5c1.2,0.6,2.9,1,4.1,1.4c1.8,0.6,3.7,1.3,5.5,2.1c0.8-0.6,1.5-1.2,2.3-1.9
	c11.5-29.8,56.7-39.5,81.8-21.7c40.3-11.6,83.5-0.2,113,30.4c22.1,22.8,32.9,52.8,30.7,83.6c14.8,9.9,29.2,20.7,42.9,32.4l2.3,1.9
	l17,162.9c7.1,1.6,14.1,3.3,21.1,5.1l4.7,1.2l20.2,122.7l1.6,9.5l-7.5,4l-43.7,23.2l-3-0.9c-25.4-7.9-52.1-13.3-78.6-17.2
	c-41.1,33-86.3,61.3-131.7,87.8l-3.8,2.2l-3.8-2.2c-45.5-26.6-90.7-54.8-131.7-87.8c-26.5,3.9-53.3,9.4-78.7,17.3l-3,0.9L7.5,464.6
	l-7.5-4l1.6-9.5l20.3-123l4.7-1.2c7-1.8,14.1-3.5,21.2-5.1l17-162.6l2.3-1.9C92.8,135.4,120.7,116.6,150.1,100.6"/>
<path class="st1" d="M267.8,355.3l260.5,101.3l-43.7,23.2c-53.3-16.6-130.5-27-216.3-27c-85.9,0-163,10.4-216.4,27L8.2,456.6
	L267.8,355.3z"/>
<path class="st1" d="M268.3,58.7C194.8,82.4,127.9,115.3,71.8,163L49.7,374.6C106,450,185.2,502.5,268.3,551
	c83.1-48.6,162.3-101.1,218.6-176.5L464.8,163C408.7,115.3,341.8,82.4,268.3,58.7"/>
<path class="st2" d="M268.3,80.9c-63.6,21.1-124.4,50.3-176.4,92.8L71.5,368.4c52.2,67,124.2,115.3,196.7,158.1
	c72.5-42.9,144.6-91.2,196.7-158.1l-20.3-194.7C392.7,131.2,331.9,102,268.3,80.9"/>
<path class="st3" d="M75.4,331l-3.9,37.4c20.1,25.8,43.1,48.8,68,69.8c39.9-4.4,83.3-6.9,128.8-6.9c45.5,0,88.9,2.4,128.8,6.9
	c24.9-21,47.9-44,68-69.8l-3.9-37.2c-57.2-10.8-123.2-17-193.4-17C197.9,314.2,132.4,320.3,75.4,331"/>
<path class="st3" d="M271.7,93.2c57,19.5,111.9,46,159.5,83.2l3.5,2.8l19.4,186.2l-2.8,3.4C403,428,338.7,472.1,273.7,511.1
	l-5.4,3.3l-5.4-3.3c-65-39-129.3-83.1-177.6-142.4l-2.8-3.4l19.4-186.2l3.5-2.8c47.6-37.3,102.5-63.7,159.5-83.2l3.4-1.2L271.7,93.2
	z"/>
<path class="st1" d="M268.3,103.1c-56,19.1-109.7,45-156.4,81.5L93.4,362.1c47.4,58.1,110.9,101.6,174.9,140
	c64-38.4,127.5-81.9,174.9-140l-18.5-177.4C378,148.2,324.2,122.3,268.3,103.1"/>
<path class="st4" d="M124,377.6c41.8,43.7,92.9,78.6,144.3,109.7c51.5-31.2,102.6-66,144.3-109.7H124z"/>
<path class="st5" d="M124,377.6c19.6,20.6,41.4,39.2,64.2,56.3c25.7-1.7,52.6-2.6,80.1-2.6c27.6,0,54.4,0.9,80.1,2.6
	c22.8-17.2,44.6-35.8,64.2-56.3H124z"/>
<path class="st2" d="M124,377.6c1.8,1.8,3.5,3.7,5.3,5.5v-5.5H124z"/>
<path class="st2" d="M154.5,377.6v29.2c8.2,7.2,16.7,14.1,25.3,20.8v-50H154.5z"/>
<path class="st2" d="M205.1,377.6v68.7c8.3,5.9,16.8,11.6,25.3,17.2v-85.9H205.1z"/>
<path class="st2" d="M255.7,377.6v102c4.2,2.6,8.4,5.2,12.6,7.7c4.2-2.6,8.4-5.1,12.6-7.7v-102H255.7z"/>
<path class="st2" d="M306.2,463.5c8.5-5.6,17-11.3,25.3-17.2v-68.7h-25.3V463.5z"/>
<path class="st2" d="M356.8,427.5c8.6-6.7,17.1-13.6,25.3-20.8v-29.2h-25.3V427.5z"/>
<path class="st2" d="M407.3,383c1.8-1.8,3.5-3.6,5.3-5.4h-5.3V383z"/>
<path class="st2" d="M124,377.6c1.8,1.8,3.5,3.7,5.3,5.5v-5.5H124z"/>
<path class="st2" d="M154.5,377.6v29.2c8.2,7.2,16.7,14.1,25.3,20.8v-50H154.5z"/>
<path class="st3" d="M205.1,377.6v55.4c8.3-0.4,16.8-0.8,25.3-1v-54.3H205.1z"/>
<path class="st3" d="M255.7,377.6v53.8c4.2,0,8.4-0.1,12.6-0.1c4.2,0,8.5,0,12.6,0.1v-53.8H255.7z"/>
<path class="st3" d="M331.5,432.9v-55.4h-25.3v54.3C314.7,432.2,323.2,432.5,331.5,432.9"/>
<path class="st2" d="M356.8,427.5c8.6-6.7,17.1-13.6,25.3-20.8v-29.2h-25.3V427.5z"/>
<path class="st2" d="M407.3,383c1.8-1.8,3.5-3.6,5.3-5.4h-5.3V383z"/>
<path class="st1" d="M319.7,326.9l2-1.6c0-0.2,0-0.3,0-0.5C321.1,325.5,320.4,326.2,319.7,326.9 M198.3,171.8
	c-2.6-0.1-5.1-0.7-7.3-1.8c-2.8-1.5-5-4.3-6.6-7.5l-2.8,9.2c-7.1-11.2-11.8-14.7-11.8-29.1c-4-4-7.2-11-8.8-15.3
	c-5.1-13.3-4.5-18.4-2.6-31.5l6.4,5.1c0-0.2,0.1-0.3,0.1-0.5c0.6-3.2,1.4-6.5,2.3-9.7c1.1-4.1,2.6-8.7,4.3-12.8
	c-1.6-5.3-1.7-12.6-1.2-17.4c0.6-7.2,3.6-16.2,8.3-21.9l3.1-3.6l4,2.4c1.5,0.8,3.9,1.5,5.5,2c2.8,0.9,5.8,2.3,8.6,3.9
	c0.3-0.3,0.6-0.5,0.8-0.7c2.3-1.9,4.6-3.7,6.9-5.6c1.1-4.3,4.3-8.8,6.9-11.7c11.7-13.1,19.5-13.9,35.4-16.5L240,20.1c0,0,0,0,0,0
	c8.3-4.1,17.9-3.5,27-3.8l-9.7,9.7c-0.1,0.1-0.1,0.3-0.2,0.4l5.9,0.3c4.2-2,8.6-3.9,13-5.5c40.1-15.4,84.7-5.4,114.6,25.4
	c24.5,25.4,34.1,60,26.2,94.4c-3.7,16.3-11.5,31.5-25.3,41.4c-5,3.6-12.5,7.5-18.7,8.4l-10.2,1.6l4.3-9.4c2.3-5,3.8-12.3,4.5-17.6
	c1.7-12.7-0.2-26.2-11.6-33.9c-5.3-3.5-11.3-4.2-17.4-2.8c-2.2,0.5-5.1,1.4-7.4,2.5c-2.9,5.8-7.3,12.2-12,16.7
	c-0.5,3.4-0.5,7.4-0.4,10.9c5,3,10,6.2,14.8,9.5c3.7,2.5,7.4,5.2,10.8,8.1c7.8,6.8,13.3,24.5,15.7,35.3c2.3,2.3,4.5,4.9,6.6,7.3
	c6.5,7.6,12.5,15.7,18,24c2.6,4,4.9,8.2,6.7,12.5c8.2,19.3,9.5,45.6-8.9,59.7c-8.9,6.8-19.7,9.7-30.8,9.3c-3.5-0.1-7.7-0.7-11.5-1.6
	c-6.2,6.1-16.7,11.6-24.4,15.5l0-11.4c-3,2.9-6.8,5.9-10.3,8.2c-7,4.5-15.2,6.8-23.5,7.4c-10.1,0.7-13.4-0.9-22.7-3.9
	c4.1-3.3,8.2-6.1,11.6-10.1c-6.3-0.2-12.6-1-18.8-2c-8.7-1.5-17.3-3.7-25.7-6.5c-2.9-1-5.9-2-8.8-3.1c-2.6,1.1-5.2,2.1-7.8,3
	l4.6,2.1l-6.8,5.7c-2.2,1.8-5.1,3.5-7.6,4.7c-6.2,3-12.9,4.7-19.8,5.1c-0.8,0-1.6,0.1-2.4,0.1l0.2,0.3l-9.8,1.6
	c-2.8,0.4-6.2,0.4-9,0.2c-6.5-0.5-12.8-2.3-18.4-5.7c-1.6-0.9-3.1-2.1-4.7-3.3l0.6,7.3c-6.9-6.7-13.5-11.9-18-20.6
	c-4.4-8.3-6.3-17.7-5.5-27.1c0.8-8.8,3.7-17.3,9.4-24.2c1.8-2.1,4.2-4.6,6.8-6.3c3.8-8.2,7.5-16.4,11.2-24.6c1.8-4,3.4-8.1,5-12.1
	c2-5,4.1-9.9,6.5-14.7c3.6-7.2,8-14.5,13.9-20C176.8,182.1,187.9,176.1,198.3,171.8z"/>
<path class="st1" d="M267.7,307c90.5,0,173.8,10.2,240.5,27.5l20.1,122.1c-64.1-19.9-156.8-32.5-260-32.5
	c-103.2,0-196,12.5-260.1,32.5l20.2-122.4C94.8,317.1,177.8,307,267.7,307"/>
<path class="st6" d="M493.6,427.1c9.5,2.1,12.1-0.5,10.7-9.2c-0.7-4.4-1.5-8.7-2.1-13.1c-0.7-4.4-1.4-8.7-2.1-13.1
	c-1-5.9-4.3-8.7-9.3-9.8c-3.4-0.7-6.7-1.4-10-2.1c-1.6-0.3-2.5-0.9-2.8-2.6c-0.7-4.8-1.5-9.5-2.1-14.3c-0.2-1.2,0.4-1.6,1.7-1.3
	c5.9,1.2,11.9,2.4,17.9,3.7c-1.7-5.1-3.4-10.2-5.1-15.3c-7.2-1.4-14.4-2.9-21.5-4.3c-7.2-1.4-9.9,2.1-9,8.2
	c0.6,4.4,1.3,8.9,1.9,13.3c0.6,4.4,1.2,8.8,1.8,13.3c1.1,7.8,5.4,9.6,10.2,10.5c2.7,0.5,5.5,1.2,8.3,1.8c2.2,0.5,3.1,0.7,3.4,2.9
	c0.7,4.8,1.4,9.6,2.1,14.3c0.2,1.2-0.2,1.5-1.7,1.2c-5.9-1.3-11.7-2.5-17.5-3.6c1.7,5,3.3,10.1,5,15.1
	C480.1,424.1,486.9,425.6,493.6,427.1 M453.4,352.8c-0.8-6.1-4.6-10.7-11.8-11.9c-6.3-1.1-12.7-2-19-2.9c-7.1-1-9.8,2.4-9.2,8.5
	c1,9.4,2,18.7,3,28.1c1,9.3,1.9,18.7,3,28c0.7,5.8,3.8,11.4,12.7,12.8c6.2,1,12.5,2,18.8,3.2c9,1.7,11-3,10.1-8.9
	c-1.3-9.5-2.5-19-3.8-28.4C455.9,371.7,454.7,362.2,453.4,352.8z M436.7,353.4c1,0.2,1.5,0.7,1.6,1.7c1,7.9,1.9,15.8,2.9,23.7
	c1,7.9,2,15.8,2.9,23.7c0.1,1.2,0,1.6-1.3,1.4c-2-0.3-4-0.6-6.1-1c-1.3-0.2-1.6-0.7-1.7-1.9c-0.9-7.9-1.8-15.7-2.7-23.6
	c-0.9-7.9-1.9-15.7-2.8-23.6c-0.1-0.9,0.1-1.4,1.2-1.3C432.7,352.8,434.7,353.1,436.7,353.4z M406.9,345.5
	c-0.6-6-4.1-10.3-11.3-11.2c-9.5-1.1-19-2.2-28.6-3.1c1,12.7,1.9,25.4,2.9,38.1c1,12.7,1.9,25.4,2.8,38.1c5.2,0.5,10.6,1.1,15.9,1.7
	c-0.4-4.1-0.7-8.1-1-12.2c-0.4-4.1-0.7-8.1-1-12.2c0.7,0.1,1.3,0.2,2,0.3c1.6,4.2,3.2,8.5,4.9,12.7c1.6,4.2,3.3,8.5,5,12.7
	c5.5,0.7,11,1.4,16.5,2.2c-1.9-4.3-3.7-8.5-5.4-12.8c-1.8-4.3-3.6-8.5-5.3-12.8c4.6,0.6,6.7-2.5,6.4-5.9c-0.6-5.9-1.2-11.9-1.9-17.8
	C408.1,357.4,407.5,351.5,406.9,345.5z M390.7,347c1,0.1,1.5,0.8,1.6,1.8c0.4,3.9,0.7,7.8,1,11.6c0.4,3.9,0.8,7.8,1,11.6
	c0.1,1.2-0.1,1.5-1.3,1.4c-2.6-0.3-5.1-0.6-7.6-1c-0.4-4.4-0.8-8.8-1.2-13.2c-0.4-4.4-0.7-8.8-1.1-13.2
	C385.7,346.4,388.2,346.7,390.7,347z M333.9,404.1c10,0.7,20,1.5,30.1,2.4c0.6-4.6,1.1-9.2,1.7-13.9c-5.5-0.5-10.9-1.1-16.3-1.5
	c-0.4-5.5-0.7-11-1-16.5c4.2,0.3,8.4,0.7,12.8,1.1c-0.3-4.4-0.6-8.7-0.9-13.1c-4.2-0.4-8.5-0.8-12.7-1.1c-0.3-6-0.7-12-1.1-18
	c5.5,0.4,11,0.9,16.5,1.4c-1.2-4.8-2.4-9.6-3.6-14.4c-9.7-0.8-19.4-1.5-29-2.1c0.6,12.6,1.3,25.3,1.9,37.9
	C332.6,378.8,333.3,391.5,333.9,404.1z M288.2,402.1c4.9,0.1,9.7,0.2,14.5,0.4c-0.1-5.2-0.4-10.5-0.5-15.8
	c-0.1-5.3-0.2-10.5-0.4-15.8c1.5,5.3,3,10.6,4.6,15.9c1.6,5.3,3.2,10.6,4.7,16c5.4,0.2,10.8,0.5,16.1,0.8c-0.5-12.6-1-25.2-1.6-37.8
	c-0.6-12.6-1.1-25.2-1.7-37.8c-5.1-0.2-10.2-0.4-15.4-0.6c0.2,5.1,0.4,10.1,0.5,15.2c0.2,5,0.3,10.1,0.5,15.2
	c-1.5-5.1-3-10.2-4.4-15.3c-1.4-5.1-2.9-10.2-4.2-15.3c-4.7-0.2-9.5-0.3-14.1-0.3c0.2,12.6,0.4,25.1,0.7,37.7
	C287.9,377,288.1,389.5,288.2,402.1z M281,336.4c-0.1-5.9-3.2-9.9-10.2-9.9c-6.2-0.1-12.4,0.1-18.5,0.1c-7,0.1-10.1,4-10.2,9.9
	c-0.1,9.2-0.3,18.3-0.4,27.5c-0.1,9.2-0.3,18.3-0.4,27.5c-0.1,5.7,2.3,10.7,11.1,10.5c6-0.1,12.1-0.2,18.1-0.2
	c8.8,0.1,11.2-4.8,11.1-10.5c-0.1-9.1-0.2-18.3-0.3-27.4C281.2,354.7,281.1,345.5,281,336.4z M264.4,339.7c1,0,1.4,0.5,1.4,1.4
	c0,7.7,0,15.3,0,23c0,7.7,0,15.3,0,23c0,1.1-0.3,1.6-1.5,1.6c-2,0-4,0.1-6,0.1c-1.2,0-1.4-0.4-1.4-1.5c0-7.7,0-15.3,0-23
	c0-7.7,0.1-15.3,0.1-23c0-0.9,0.2-1.5,1.3-1.5C260.4,339.7,262.4,339.7,264.4,339.7z M236,326.9c-5,0.2-10.1,0.4-15.2,0.6
	c-0.1,5.4-0.3,10.8-0.4,16.2c-0.1,5.4-0.4,10.8-0.5,16.1c-2.8,0.1-5.5,0.2-8.3,0.4c0.2-5.4,0.4-10.8,0.6-16.2
	c0.2-5.4,0.4-10.8,0.6-16.2c-5.1,0.3-10.1,0.6-15.2,1c-0.6,12.6-1.1,25.3-1.7,37.9c-0.6,12.6-1.2,25.2-1.9,37.8
	c5.4-0.4,10.7-0.8,16-1.1c0.2-5,0.4-10.1,0.6-15.1c0.2-5,0.4-10.1,0.5-15.1c2.9-0.1,5.7-0.2,8.4-0.4c-0.1,5-0.3,10.1-0.5,15.1
	c-0.2,5-0.3,10.1-0.5,15.1c5.4-0.2,10.7-0.5,16-0.7c0.2-12.6,0.5-25.1,0.8-37.7C235.6,352.1,235.8,339.5,236,326.9z M185.7,405.2
	c1.2-4.8,2.4-9.5,3.5-14.3c-5,0.4-10,0.7-15,1.2c-1.1,0.1-1.4-0.4-1.3-1.3c0.5-7.5,1-14.9,1.4-22.4c0.5-7.4,0.9-14.9,1.4-22.4
	c0.1-0.9,0.4-1.5,1.4-1.6c4.8-0.5,9.6-0.8,14.5-1.1c-0.7-4.7-1.2-9.3-1.9-14c-6.6,0.4-13.2,1.1-19.8,1.7c-5,0.5-9,4.2-9.5,10.2
	c-0.7,9.2-1.3,18.4-2,27.5c-0.7,9.2-1.4,18.4-2,27.5c-0.6,8.4,2.4,11.4,11.5,10.5C173.9,406.1,179.8,405.6,185.7,405.2z
	 M118.3,412.8c9.9-1.3,19.8-2.7,29.7-4c1.3-4.8,2.5-9.6,3.9-14.5c-5.3,0.6-10.6,1.3-15.9,2c0.9-10.4,1.8-20.8,2.7-31.1
	c0.9-10.4,1.8-20.8,2.7-31.2c-5.2,0.6-10.3,1.3-15.5,1.9c-1.2,12.8-2.5,25.6-3.8,38.4C120.8,387.2,119.6,400,118.3,412.8z
	 M118.6,346.9c0.6-6-2.1-9.5-9.4-8.5c-6.3,0.9-12.6,1.9-18.9,3c-7.2,1.3-10.8,5.8-11.7,11.9c-1.3,9.5-2.5,19-3.7,28.4
	c-1.2,9.5-2.6,18.9-3.8,28.4c-0.8,5.9,1.1,10.6,10.2,8.8c6.2-1.2,12.5-2.3,18.7-3.3c9-1.5,12.1-7,12.7-12.8c0.9-9.3,1.9-18.7,2.9-28
	C116.6,365.6,117.7,356.3,118.6,346.9z M101.2,353c1-0.2,1.4,0.3,1.3,1.3c-0.9,7.9-1.8,15.7-2.7,23.6c-0.9,7.9-1.8,15.7-2.7,23.6
	c-0.1,1.2-0.5,1.6-1.8,1.9c-2,0.3-4,0.6-6,1c-1.4,0.3-1.5-0.1-1.3-1.3c1-7.9,1.9-15.8,2.9-23.6c1-7.9,1.9-15.8,2.8-23.7
	c0.1-1,0.5-1.6,1.6-1.7C97.2,353.6,99.2,353.3,101.2,353z M61.4,423c1.7-5,3.3-10.1,4.9-15.1c-5.2,1-10.4,2.2-15.6,3.3
	c-1.1,0.2-1.4-0.2-1.2-1.2c1.1-7.7,2.2-15.5,3.3-23.2c1.2-7.7,2.3-15.5,3.4-23.2c0.1-1,0.5-1.6,1.6-1.8c5-1,10-2.1,15-3
	c-0.2-4.7-0.4-9.4-0.7-14.1c-6.8,1.3-13.6,2.7-20.4,4.1c-5.1,1-9.6,5.3-10.6,11.6c-1.5,9.5-3,19.1-4.5,28.7
	c-1.5,9.5-3,19.1-4.5,28.6c-1.4,8.8,1.4,11.5,10.9,9.4C49.2,425.6,55.3,424.3,61.4,423z"/>
<path class="st5" d="M330.3,330.3c0.7-0.5,1.6-1.1,2.6-1.7l-2.7-0.2L330.3,330.3z M308.9,332.9c2.6-1.7,4.8-3.5,6.7-5.3l-6.9-0.3
	C308.7,329.2,308.8,331,308.9,332.9z M287.2,340.2c4.8-0.4,10.7-1.5,16.4-4.2c-0.8-3-1.7-5.9-2.5-8.9c-4.7-0.2-9.5-0.3-14.1-0.3
	C287,331.2,287.1,335.7,287.2,340.2z M280.9,334.7l-0.5,0.6c-4,4.7-4.1,4.7-4.1,4.7s1.8,0.3,4.8,0.4l0-4
	C281,335.8,280.9,335.3,280.9,334.7z M197.3,332.9c4.5-1.5,7.9-3.5,9.9-4.8c-3.2,0.2-6.5,0.4-9.7,0.6L197.3,332.9z M168.2,331.4
	c2.8,2,8.1,4.4,17,3.9c1.9-0.1,3.7-0.3,5.4-0.6c-0.2-1.8-0.5-3.6-0.7-5.3c-6.6,0.4-13.2,1.1-19.8,1.7
	C169.4,331.1,168.8,331.2,168.2,331.4z M161.6,337.1c6.2,1,11,0.2,11,0.2l-4.8-5.8C165.1,332.4,162.8,334.3,161.6,337.1z"/>
<path class="st1" d="M162.4,105.2c0,0-1,6.7,3.7,19.1c4.7,12.4,9.3,14.7,9.3,14.7s-0.6,9,1.6,14c2.2,5,2.2,5,2.2,5s0.6-2.8,3.6-5.8
	c3-3,3.3-3.3,3.3-3.3s1.9,12.2,7.4,15.1c5.5,2.9,12.7-0.4,12.7-0.4s1.1,2.4,3.1,5.3c2.1,2.8,2.2,2.9,2.2,2.9s-25.6,8.4-37.7,19.8
	c-12.1,11.4-18.7,33-24.1,45c-5.4,12-12,26.2-12,26.2s-13.1,6.8-14.9,27.1C121,310,134,322.5,134,322.5l-0.9-10.8
	c0,0,3.6,9.7,14.7,16.4c11.1,6.7,23.6,4.7,23.6,4.7l-7.1-8.5c0,0,4.7,7.4,19.6,6.5c14.9-0.9,24.1-8.5,24.1-8.5l-11.1-5.1
	c0,0,6.3-0.6,13-3c6.7-2.4,11.7-4.6,11.7-4.6s16.2,6.8,35.5,10.1c19.2,3.3,29.3,1.6,29.3,1.6s-3.1,4.8-7.1,9.5
	c-4,4.7-4.1,4.7-4.1,4.7s17.2,2.7,31.3-6.3c14.1-9,18.5-20.2,18.5-20.2s1.9,4.8,2.3,11.2c0.4,6.4-0.3,7-0.3,7s5-3.3,9.4-6.4
	c4.4-3.1,5.8-5.6,5.8-5.6s22.6,8.3,40.9-5.7c18.2-14,14.5-44.1,0.9-64.6c-13.7-20.5-25.1-31.6-25.1-31.6s-5.4-26.2-14.2-33.9
	c-8.8-7.7-27.3-18.5-27.3-18.5s-0.7-10.1,0.6-17.1c0,0,7.9-6.8,12.9-17.9c0,0,17.1-10.4,32.2-0.3c15.1,10.1,15.7,27.6,14.1,39.3
	c-1.6,11.7-5,19.2-5,19.2s29.9-4.6,39.3-45.6C429.1,60.9,351.5-3,278,25.3c-7.4,2.8-13.8,6-13.8,6l-14.8-0.7c0,0,1.5-5.6,2.4-7.3
	c0.9-1.7,1-1.8,1-1.8s-7,0.3-12.5,3.8c-5.4,3.6-6.1,6.3-6.1,6.3s-1.8-4.1-0.6-9.8c1.1-5.7,1.6-6.1,1.6-6.1s-10.8,5.8-16.7,12.5
	c-5.9,6.6-5.9,11-5.9,11s-5.3,4.1-8.5,6.8c-3.1,2.6-3.6,3.6-3.6,3.6s-6.1-4.1-11.1-5.7c-5.1-1.6-6.6-2.5-6.6-2.5s-6.1,7.2-7,18.7
	c-1,11.5,1.7,17.1,1.7,17.1s-2.5,5.3-4.9,14.1c-2.4,8.8-2.6,11.8-2.6,11.8s1.8,4,4.3,6.9c2.6,2.9,2.8,3,2.8,3S169.8,111,162.4,105.2
	"/>
<path class="st2" d="M182.7,106.9c0,0-4-4.4-4.1-7.8c-0.1-3.4,3.8-13.7,7.1-22.4c3.3-8.7,3.8-10.4,3.8-10.4s-4.1-4.9-5-7.3
	c-0.9-2.4,0.9-9,0.9-9l11.1,5.3c0,0-1.1,2.1-1.9,6.3C194,65.7,194,66,194,66s2.3-4.3,8.3-9.4c6-5.1,10.3-8,10.3-8s3.3,2.3,6.6,2.8
	c3.3,0.5,3.3,0.5,3.3,0.5s-4-2.7-2.1-11c1.9-8.3,8.8-13.2,8.8-13.2s-0.7,2.8,1.6,7.7c2.3,4.9,7.1,6.2,7.1,6.2s-1.4-2.3,0-5.7
	c1.4-3.4,5.1-6.4,5.1-6.4s-1.2,6.5,2.1,8.9c3.3,2.4,3.8-0.1,15.7,0.5c11.9,0.6,15.7,1.6,15.7,1.6s-2,1.6-3.1,5.2
	c-1.1,3.6-1.1,3.8-1.1,3.8s7.2-6.1,20.7-10.4c13.5-4.3,14.7-2.4,16.5-1.4c1.9,1.1,5.7,15.8,5.7,15.8s-8.8-12.2-11.8-12.5
	c-3.1-0.3-12.4,9.1-12.4,9.1s-0.1,9.4,12.6,19.9c12.7,10.5,23.1,9.1,23.1,9.1s0.3,6.1-7.3,16.9c-7.5,10.8-13.4,11.4-13.4,11.4
	s6.1,1.7,15.2,0.7c9.1-1,12.5-3.8,12.5-3.8s-10.1,28.5-29,42.7c-18.9,14.2-40.7,8.4-40.7,8.4s7.5-8.4,7.1-12.7
	c-0.4-4.3-11.8-10.3-11.8-10.3s6.4,11,1.4,15.9c-5,5-12.7,3.3-24.9,2.1c-12.2-1.2-16.2,1.9-17.9,0.1c-1.7-1.7-3.5-8.5-3.5-8.5
	s13.2-10.7,12.7-14.8c-0.6-4.1-2.7-4.6-10.1-3.5c-7.4,1.1-11.5-1.2-11.5-1.2s9.9-10.8,14.5-11.3c4.6-0.5,24.2,11.1,24.2,11.1
	s0.1-4.9-0.6-7.1c-0.7-2.2-0.7-2.3-0.7-2.3s6.1,4.2,16.7,8c10.6,3.8,18.8,1.7,18.8,1.7s-3.6-1.4-7.2-3.3c-3.6-2-3.6-2-3.6-2
	s2.6,1.8,15.4-4.4c12.8-6.2,20.1-14,20.1-14s-11.3-2.6-20.9-10.5c-9.5-7.8-11.1-14.7-11.1-14.7l1.2-6.9c0,0-10.3,11.5-18.8,17.1
	c-8.5,5.6-10,6.1-10,6.1s0.8-4.5-0.1-7.4c-0.9-2.9-1.4-3.7-1.4-3.7s-2.2,5.8-5.9,9.8c-3.7,3.9-4.5,4.3-4.5,4.3s-3.3-4.1-5.7-12.3
	c-2.4-8.3-1.7-12.5-1.7-12.5s-3.3,7.4-4.6,15.2c-1.3,7.8-0.9,12.5-0.9,12.5s-3.5-0.6-8-5.4c-4.5-4.8-4.5-4.8-4.5-4.8
	s-0.8,4.6-0.8,7.5c0,2.8,0.2,3.2,0.2,3.2s-2.4-0.6-6.8-6.3c-4.3-5.8-5.1-8.9-5.1-8.9s-10.1,15.2-10.7,17.5
	C182.5,101.1,182.7,106.9,182.7,106.9"/>
<path class="st3" d="M326.5,79.1c0,0,0.3,6.1-7.3,16.9c-7.5,10.8-13.4,11.4-13.4,11.4s6.1,1.7,15.2,0.7c9.1-1,12.5-3.8,12.5-3.8
	s-10.1,28.5-29,42.7c-18.9,14.2-40.7,8.4-40.7,8.4s7.5-8.4,7.1-12.7c-0.4-4.3-11.8-10.3-11.8-10.3s6.4,11,1.4,15.9
	c-5,5-12.7,3.3-24.9,2.1c-12.2-1.2-16.2,1.9-17.9,0.1c-1.7-1.7-3.5-8.5-3.5-8.5s13.2-10.7,12.7-14.8c-0.6-4.1-2.7-4.6-10.1-3.5
	c-7.4,1.1-11.5-1.2-11.5-1.2s4.7-5.1,9.1-8.5c4.7,1.3,9.3,1.1,13.8-0.1c7.1,3.3,15.7,8.4,15.7,8.4s0.1-4.9-0.6-7.1
	c-0.7-2.2-0.7-2.3-0.7-2.3s6.1,4.2,16.7,8c10.6,3.8,18.8,1.7,18.8,1.7s-3.6-1.4-7.2-3.3c-3.6-2-3.6-2-3.6-2s2.6,1.8,15.4-4.4
	c12.8-6.2,20.1-14,20.1-14s-11.3-2.6-20.9-10.5c-9.5-7.8-11.1-14.7-11.1-14.7s7.7,11.9,25.5,14.9C314.2,91.8,322,84,326.5,79.1
	 M182.7,106.9c0,0-4-4.4-4.1-7.8c-0.1-3.4,3.8-13.7,7.1-22.4c3-8,3.7-10.1,3.8-10.4c-0.3,1-9.2,27.4-7.2,28.5
	c1.4,0.8,6.3-6,9.2-10.3c-3,4.6-8.1,12.5-8.5,14.1C182.5,101.1,182.7,106.9,182.7,106.9z"/>
<path class="st3" d="M246.5,39.2c2.2,0.7,4.3-0.9,14.1-0.4c11.9,0.6,15.7,1.6,15.7,1.6s-2,1.6-3.1,5.2c-1.1,3.6-1.1,3.8-1.1,3.8
	C261.7,42.1,248.2,40.3,246.5,39.2L246.5,39.2z M229.1,27.7c0,0-0.7,2.8,1.6,7.7c2.3,4.9,7.1,6.2,7.1,6.2s-1.4-2.3,0-5.7
	c1.4-3.4,5.1-6.4,5.1-6.4c-7.3,15.2,2,20.5,2,20.5s-0.4,0.2-3.8-0.4c-3.4-0.6-10.5-2.8-12.6-10.7C226.4,31,229.1,27.7,229.1,27.7z
	 M222.1,51.5c-0.6-0.6-1.7-2.1-2.1-4.8C220.5,48.4,221.2,50,222.1,51.5z M206.5,53.1c3.7-2.9,6-4.5,6-4.5s3.3,2.3,6.6,2.8l3.1,0.5
	c3,4.6,7.3,7.3,7.3,7.3s-3.3,1-11-0.5C210.8,57.1,206.5,53.1,206.5,53.1z"/>
<path class="st4" d="M206.2,85.8c0,0-0.8,4.6-0.8,7.5c0,2.8,0.2,3.2,0.2,3.2s-2.4-0.6-6.8-6.3c-4.3-5.8-5.1-8.9-5.1-8.9
	S201.3,80.6,206.2,85.8 M272.1,67c0,0-10.3,11.5-18.8,17.1c-8.5,5.6-10,6.1-10,6.1s0.8-4.5-0.1-7.4c-0.9-2.9-1.4-3.7-1.4-3.7
	S252.8,66.7,272.1,67z"/>
<path class="st4" d="M308.8,143.5c-1.3,1.2-2.7,2.4-4.2,3.5c-7.7,5.8-15.8,8.2-22.7,9.1c-5.3,0.5-11.3,0.4-18-0.7
	c0,0,7.5-8.4,7.1-12.7c-0.4-4.3-11.8-10.3-11.8-10.3s6.4,11,1.4,15.9c-5,5-12.7,3.3-24.9,2.1c-12.2-1.2-16.2,1.9-17.9,0.1
	c-1.7-1.7-3.5-8.5-3.5-8.5s13.2-10.7,12.7-14.8c-0.6-4.1-2.7-4.6-10.1-3.5c-7.4,1.1-11.5-1.2-11.5-1.2s9.9-10.8,14.5-11.3
	c4.6-0.5,24.2,11.1,24.2,11.1s0.1-4.9-0.6-7.1c-0.7-2.2-0.7-2.3-0.7-2.3s6.1,4.2,16.7,8c10.6,3.8,18.8,1.7,18.8,1.7
	s-3.6-1.4-7.2-3.3l-3.6-2h0c0,0,0.2,0.1,0.7,0.2c11.7,3.1,25.4,1.4,36.9-1c11.8-2.4,18.7-7.1,18.7-7.1s-5.6,17.8-16.1,24.6
	c-10.5,6.8-20.5,2.8-20.5,2.8s11,11,23.8,4.1C310.2,141.9,309.5,142.7,308.8,143.5"/>
<path class="st0" d="M308.8,143.5c-1.3,1.2-2.7,2.4-4.2,3.5c-7.7,5.8-15.8,8.2-22.7,9.1c-5.3,0.5-11.3,0.4-18-0.7
	c0,0,7.5-8.4,7.1-12.7c-0.4-4.3-11.8-10.3-11.8-10.3s6.4,11,1.4,15.9c-5,5-12.7,3.3-24.9,2.1c-12.2-1.2-16.2,1.9-17.9,0.1
	c-1.7-1.7-3.5-8.5-3.5-8.5s13.2-10.7,12.7-14.8c6.2,9-4.6,16.9,11.4,18.6c8.9,1,21.9,0.5,13-8.7c3.5,0.2,5.8,2.2,7.5,5.9
	c-1.4-12.2-7-22.2-16.1-30.2c0,0,6.1,4.2,16.7,8c10.6,3.8,18.8,1.7,18.8,1.7s-3.6-1.4-7.2-3.3l-3.6-2c0,0,0.2,0.1,0.7,0.2
	c11.7,3.1,25.4,1.4,36.9-1c11.8-2.4,18.7-7.1,18.7-7.1s-5.6,17.8-16.1,24.6c-10.5,6.8-20.5,2.8-20.5,2.8s11,11,23.8,4.1
	C310.2,141.9,309.5,142.7,308.8,143.5"/>
<path class="st4" d="M216.7,159.4c0,0,2.3-1.7,9.3-1.9c7-0.1,23.1,4.2,23.1,4.2s-11.8,5.1-20.4,4.3
	C220.2,165.4,216.4,160.7,216.7,159.4"/>
<path class="st0" d="M224.5,157.7c0.5,0,1,0,1.5-0.1c7-0.1,23.1,4.2,23.1,4.2s-11.8,5.1-20.4,4.3c-0.3,0-0.6-0.1-0.9-0.1
	c5.6-0.1,10-1.6,10.4-3.7C238.7,160.3,232.6,157.6,224.5,157.7"/>
<path class="st4" d="M183.5,114c0,0,1.8,2.4,7.8,4.7c6.1,2.3,7.2,2.5,7.2,2.5s-6.3,3.2-6.3,4.8s2.4,7.3,7.8,10.9
	c5.3,3.6,5.4,3.6,5.4,3.6s4.9,9.8,4.6,11.5c-0.3,1.7-7,5.7-9.3,5.9c-2.3,0.2-6.6-4.8-7.3-8.7c-0.7-3.8,0.5-7.5,0.5-7.5
	s-2.5,0.6-6.5,0.8c-4.1,0.1-4.9,0.1-4.9,0.1s1.4-1.4,2.6-2.7c1.1-1.4,1.6-2.1,1.6-2.1s-12.5-7.2-15.8-20.1c0,0,4.6,3.1,10.3,3.6
	c5.7,0.5,6.8,0.3,6.8,0.3S184.6,118,183.5,114"/>
<path class="st0" d="M193.7,124.2c-0.8,0.7-1.4,1.3-1.4,1.8c0,1.6,2.4,7.3,7.8,10.9c5.3,3.6,5.4,3.6,5.4,3.6s4.9,9.8,4.6,11.5
	c-0.3,1.7-7,5.7-9.3,5.9c3.5-1.6,7.3-6.6,6.7-8.5c-0.6-1.9-7.4-2.2-8.8-5.1c-1.4-2.8-1.1-7.8-1.1-7.8s-0.3,0.8-3.3,1.9
	c-3.1,1.1-4.5,0.2-4.5,0.2s0.4-0.1,1.4-1.5c0.9-1.4,2-3.4,2-3.4s-1.4-0.2-4.3-2.1c-2.8-1.9-4.6-4.8-4.6-4.8s1.9,0.6,5.6-0.8
	C191.1,125.5,192.4,124.9,193.7,124.2"/>
<path class="st4" d="M200.2,98.1c0,0,3.2,3.5,7,5.8c3.8,2.3,6,2.8,6,2.8s-5.3,2-9.9,0.1C198.7,104.9,200.2,98.1,200.2,98.1"/>
<path class="st4" d="M263.3,86.8c0,0-4.8,5.3-9.9,9c-5.1,3.7-5.6,3.9-5.6,3.9S265.9,104.4,263.3,86.8"/>
<path class="st2" d="M224.6,182.1c0,0-8.5-2.3-12.5-2.3c-4,0-25.2,10.7-35.3,21.5c-10.1,10.8-31.7,64.6-31.7,64.6
	s-11.1,6.3-14.9,15.4c-3.8,9.1-2.1,15.2-2.1,15.2s1.9-7,6.8-11.2c5-4.3,5-4.3,5-4.3s-5.1,8.1-0.7,24.1c4.4,15.9,16.8,18.2,16.8,18.2
	s-5.1-4.8-6-12.8c-0.9-8,0.7-13.7,0.7-13.7s2.6,10.1,14.9,18.9c12.4,8.8,24.5,7,24.5,7s-7.4-4.7-10.4-11.2c-3-6.5-3-6.5-3-6.5
	s9.7,8,34.6-3.1c24.9-11.1,40.3-29.6,53.8-33.2c13.5-3.6,14.7-2.6,14.7-2.6s-10.3-12.5-24.8-13.2c-14.5-0.7-34,5.8-52.7,19.6
	c-18.7,13.8-24.2,12.1-24.2,12.1s-4.3,0.9-8.6,5.4c-4.3,4.5-4.3,5.5-4.3,5.5s-5.3-6.5-2.4-17.2c2.8-10.7,9.8-12.4,9.8-12.4
	s-6.3-2-9.8-1c-3.6,1-3.6,2-3.6,2s5.1-14,15.4-16.9c10.3-3,13.8-1.4,13.8-1.4s-5.1-2.9-9.2-4.3c-4.1-1.4-4.1-1.4-4.1-1.4l9.3-5.1
	c0,0,4.1-14.9,7.9-22.5c3.8-7.5,3.8-7.5,3.8-7.5s-1.3,4.9,0.4,12.2c1.6,7.3,1.7,7.3,1.7,7.3s1.2-5.9,5.6-14.9
	c4.4-9,7.8-13.2,7.8-13.2s-3.3,11-3.4,23.3c-0.1,12.4,2.1,15.2,2.1,15.2s2.3-9.8,5.6-15.9c3.3-6.1,3.3-6.1,3.3-6.1s0.6,5.3,4,11.7
	c3.4,6.4,6.7,8.7,6.7,8.7S219.1,215.5,224.6,182.1"/>
<path class="st3" d="M159.7,265.5c1.6-3.6,6.5-13.1,14.8-15.5c10.3-3,13.8-1.4,13.8-1.4s-5.1-2.9-9.2-4.3c-4.1-1.4-4.1-1.4-4.1-1.4
	l9.3-5.1c0,0,4.1-14.9,7.9-22.5c3.8-7.5,3.8-7.5,3.8-7.5s-1.3,4.9,0.4,12.2c1.6,7.3,1.7,7.3,1.7,7.3s1.2-5.9,5.6-14.9
	c4.4-9,7.8-13.2,7.8-13.2s-3.3,11-3.4,23.3c-0.1,12.4,2.1,15.2,2.1,15.2s2.3-9.8,5.6-15.9c3.3-6.1,3.3-6.1,3.3-6.1s0.6,5.3,4,11.7
	c3.4,6.4,6.7,8.7,6.7,8.7s-10.7-20.4-5.2-53.8c0,0-3.9,6.8-6.4,14.9c-2.4,8.1-2.4,8.8-2.4,8.8s0.6-8.3,0.6-14.5
	c0-6.3,1.9-8.7,1.9-8.7s-9.8,6-13.7,13.4c-3.8,7.4-4.1,10.5-4.1,10.5s-0.6-2.4,0-7.8c0.6-5.4,1.9-8.4,1.9-8.4s-6.1,5.1-13.7,16.4
	c-7.5,11.2-16.8,36.3-16.8,36.3S159.9,251.3,159.7,265.5L159.7,265.5z M165.1,295.5c0,0-5.3-6.5-2.4-17.2
	c2.8-10.7,9.8-12.4,9.8-12.4s-4.9-1.6-8.5-1.2c2.2,0,2.7,0.6,2.7,0.6S150.5,279.5,165.1,295.5z M190.1,280.5c-9,5-12,4.1-12,4.1
	s-4.3,0.9-8.6,5.4c-4.3,4.5-4.3,5.5-4.3,5.5S177.9,288.5,190.1,280.5L190.1,280.5z"/>
<path class="st3" d="M201.8,305.4c2.8-0.9,6-2,9.4-3.5c24.9-11.1,40.3-29.6,53.8-33.2c13.5-3.6,14.7-2.6,14.7-2.6
	s-10.3-12.5-24.8-13.2c13.1,3.8,8.3,10.2-8,22.3C230.5,287.2,219.4,298.9,201.8,305.4 M156.7,307.7c2.2,2.6,5,5.4,8.7,8.1
	c12.4,8.8,24.5,7,24.5,7s-7.4-4.7-10.4-11.2c-3-6.5-3-6.5-3-6.5s-1.3,3.3-1.4,7.5c-0.1,4.2,0.1,4.8,0.1,4.8S164.5,316,156.7,307.7z
	 M150.5,296.8c0,0,0.1,0.4,0.4,1.1C150.8,297.6,150.7,297.2,150.5,296.8z M139.7,281c0,0-5.1,8.1-0.7,24.1
	c4.4,15.9,16.8,18.2,16.8,18.2s-5.1-4.8-6-12.8c-0.9-8,0.7-13.7,0.7-13.7s-2.5,3.6-4.1,8.9c-1.6,5.3-1.6,5.3-1.6,5.3
	S133.2,299.2,139.7,281z M139.1,270.1c-3.3,2.7-7.1,6.6-9,11.2c-3.8,9.1-2.1,15.2-2.1,15.2s1.9-7,6.8-11.2c5-4.3,5-4.3,5-4.3
	s-3,0.3-5.7,1.9c-2.7,1.5-2.8,2-2.8,2S132,276.7,139.1,270.1z"/>
<path class="st2" d="M297.5,163.7c0,0-8.3,1.9-17.4,18.8c-9.1,16.9-11.2,41.3-11.2,41.3s1.6-4.7,5.8-11.5c4.3-6.8,6.3-8.8,6.3-8.8
	s-0.6-0.6-0.7,18.2c-0.1,18.8,4.6,30,4.6,30s0-12.8,6.1-27.9c6.1-15.1,9.3-18.1,9.3-18.1s-2.4,8.5-1.7,22.1
	c0.7,13.5,0.9,17.4,0.9,17.4s1.9-5,3.8-10.8c2-5.8,3.3-8.3,3.3-8.3s-1.1,12.5-0.6,25.6c0.6,13.1,9.7,23.1,9.7,23.1
	s-1.3,2.6-17.2,2.4c-15.9-0.1-26.3-3.4-26.3-3.4s-8.7,4.3-14.5,8.7c-5.8,4.4-8.4,6.3-8.4,6.3s5.5,1.6,13.4,3.6
	c7.9,2.1,10.1,2.1,10.1,2.1s-4.6,2.6-8.8,3.7c-4.2,1.1-4.4,1.1-4.4,1.1s7.1,3.5,20.5,4.6c13.4,1.1,17.9-1.6,17.9-1.6
	s2.1,1.9-0.3,11.2c-2.4,9.4-5.8,11.5-5.8,11.5s6.3-0.7,14.9-11.1c8.7-10.4,8.8-22.9,8.8-22.9s8,1.4,13.7,7.1
	c5.7,5.7,5.7,8.4,5.7,8.4s6.1-9.3,5-20.6c-1.1-11.4-8.5-16.4-8.5-16.4s6.7-0.4,14.9,3.1c8.3,3.6,10.7,6.8,10.7,6.8s0.1-10-5.7-20.9
	c-5.8-11-12.4-14.9-12.4-14.9l13.2,4.1c0,0,0.4-31-5-47c-5.4-15.9-17.7-21.8-27.5-26.2C309.8,170.2,297.5,163.7,297.5,163.7"/>
<path class="st3" d="M283,177.7c-0.9,1.5-1.9,3.1-2.8,4.8c-9.1,16.9-11.2,41.3-11.2,41.3s1.6-4.7,5.8-11.5c4.3-6.8,6.3-8.8,6.3-8.8
	s-0.6-0.6-0.7,18.2c-0.1,18.8,4.6,30,4.6,30s0-12.8,6.1-27.9c6.1-15.1,9.3-18.1,9.3-18.1s-2.4,8.5-1.7,22.1
	c0.7,13.5,0.9,17.4,0.9,17.4s1.9-5,3.8-10.8c2-5.8,3.3-8.3,3.3-8.3s-1.1,12.5-0.6,25.6c0.6,13.1,9.7,23.1,9.7,23.1
	s-5.7-11.2-3.1-33.4c2.6-22.2,8.8-45.6,8.8-45.6s-5.3,4.4-9.5,11.5c-4.3,7.1-4.3,7.1-4.3,7.1s-0.1-11.4,1.4-21.9
	c1.6-10.5,3.1-12.1,3.1-12.1s-6.8,3.4-13.7,11.7c-6.8,8.3-7.5,14.4-7.5,14.4s-1.4-4.6-0.1-16.1c1.3-11.5,5.6-16.9,5.6-16.9
	s-10.7,9.3-14.9,16.1c-4.3,6.8-4.3,6.8-4.3,6.8S278,186.8,283,177.7 M297.5,163.7c0,0-1.9,0.4-4.9,2.8
	C294.1,165.4,295.7,164.5,297.5,163.7z"/>
<path class="st3" d="M312.3,171.2L312.3,171.2L312.3,171.2L312.3,171.2z M340.9,244.3l11.1,3.5c0,0,0.4-31-5-47
	c-4.8-14.2-15.1-20.4-24.2-24.7c6.9,3.8,14.9,9.6,16.7,18.1C342.5,207.1,341.2,238.6,340.9,244.3z M333.5,269.6
	c2.6,0.2,7.3,0.8,12.7,3.1c8.3,3.6,10.7,6.8,10.7,6.8s0.1-10-5.7-20.9c-3.8-7.2-7.9-11.3-10.3-13.4c10.2,10.2,10.1,24.4,10.1,24.4
	s0,0-6.7-1.1C339.7,267.7,335.6,268.8,333.5,269.6z M315.5,291.1c0,0,8,1.4,13.7,7.1c5.7,5.7,5.7,8.4,5.7,8.4s6.1-9.3,5-20.6
	c-0.9-9.1-5.8-14.1-7.7-15.7c12.8,14.2,4.3,24.6,4.3,24.6s-0.6-3.8-7.3-5.7C322.4,287.3,315.5,291.1,315.5,291.1z M271.2,274.2
	c-2.3,1.2-8.9,4.7-13.7,8.3c-5.8,4.4-8.4,6.3-8.4,6.3s5.5,1.6,13.4,3.6c7.9,2.1,10.1,2.1,10.1,2.1s-4.6,2.6-8.8,3.7
	c-4.2,1.1-4.4,1.1-4.4,1.1s7.1,3.5,20.5,4.6c13.4,1.1,17.9-1.6,17.9-1.6s2.1,1.9-0.3,11.2c-2.3,9.1-5.6,11.4-5.8,11.5
	c16.6-10.4,12.2-33.9,12.2-33.9s-4.8,4.3-12.2,5.3c-7.4,1-11.8,0.7-11.8,0.7s0.3,0,3.7-1.7c3.4-1.7,7-4.4,7-4.4s-7.5-0.4-15.4-3.8
	C267.3,283.7,265.2,279.2,271.2,274.2z"/>
<path class="st2" d="M213.7,255.8c0,0-4.1-7.8-12-9.8c-7.8-2.1-11.3-1.7-11.3-1.7s3.6,2.7,4.9,6.7c1.4,4,1.3,4.8,1.3,4.8
	s-2.8-4.1-13.2-2c-10.5,2.1-12.7,5.6-12.7,5.6s3.3-1.4,8.5,0.7c5.2,2.1,6.3,4.1,6.3,4.1s-9.3,3.4-13.4,8.3c-4.1,4.9-4.6,9.8-4.6,9.8
	s1.1-2.9,6.4-5.3c5.3-2.4,12.2-2.8,12.2-2.8S197.3,264,213.7,255.8"/>
<path class="st3" d="M171.6,259c1.3-0.3,4-0.5,7.5,1c5.2,2.1,6.3,4.1,6.3,4.1s-9.3,3.4-13.4,8.3c-4.1,4.9-4.6,9.8-4.6,9.8
	s1.1-2.9,6.4-5.3c5.3-2.4,12.2-2.8,12.2-2.8s11.2-10.1,27.5-18.4c-6.4,1.5-15.9,7.2-15.9,7.2s-6.1-3.3-14.2-4.3
	C177.6,257.8,173.4,258.6,171.6,259"/>
<path class="st2" d="M359.9,225.2l1.3,20.6c0,0,4.1,4.3,4.6,22.8c0.4,18.5-3.3,26.8-3.3,26.8s-1.8-3.6-4.4-6.7
	c-2.6-3.1-5.3-5.1-5.3-5.1s0.3,5-0.8,10.1c-1.1,5.1-1.8,7.2-1.8,7.2s14.1,6.5,26.8-4.6C389.6,285.2,391.2,254.7,359.9,225.2"/>
<path class="st3" d="M362.5,248.1c1.3,2.8,3,8.9,3.3,20.5c0.4,18.5-3.3,26.8-3.3,26.8s-1.8-3.6-4.4-6.7c-2.6-3.1-5.3-5.1-5.3-5.1
	s0.3,5-0.8,10.1c-1.1,5.1-1.8,7.2-1.8,7.2c16.1,1.5,22.5-7.7,22.3-22.2C372.4,267.3,365.4,253.4,362.5,248.1"/>
<path class="st4" d="M359.9,225.2l0.6,9.4c7,7.3,19.9,22.2,21.4,33.8c2.2,16.1-1.7,25.9-12,32.3c2.3-1,4.7-2.5,7.1-4.5
	C389.6,285.2,391.2,254.7,359.9,225.2"/>
<path class="st2" d="M309.7,27c0,0,4.3-0.6,12.5-0.4c8.3,0.3,13.2,1.9,13.2,1.9s11.2,8.2,12,30.4c0.9,22.2-3.7,31.9-3.7,31.9
	s-1.4,1.7-5.4,3.6c-4.1,1.9-6.5,2.8-6.5,2.8S344.4,64.8,309.7,27"/>
<path class="st4" d="M323.9,26.7c7.2,0.4,11.6,1.8,11.6,1.8s11.2,8.2,12,30.4c0.1,2.7,0.1,5.2,0.1,7.5
	C346.9,43.3,332.1,31.5,323.9,26.7"/>
<path class="st4" d="M309.7,27c0,0,4.3-0.6,12.5-0.4c8.3,0.3,13.2,1.9,13.2,1.9s4.9,3.6,8.5,12.5c-9.7-3.1-19.3-5-27.6-6.1
	C314.3,32.3,312.1,29.6,309.7,27"/>
<path class="st3" d="M347.6,66.4c-0.3,16.9-3.8,24.4-3.8,24.4s-1.4,1.7-5.4,3.6c-4.1,1.9-6.5,2.8-6.5,2.8s12.6-32.4-22.1-70.3
	c7.4,3.9,24.3,33.5,24.3,33.5S339.8,62.6,347.6,66.4"/>
<path class="st2" d="M378.8,52.7c0,0,5.1,9.5-0.7,29.8c-5.8,20.2-21.6,30.5-21.6,30.5s4.4,1.8,8.3,4.8c3.8,3.1,3.8,3.1,3.8,3.1
	s14.2-2.1,21.1-12.7c7-10.7,9-26.3,9-26.3S395.8,66.5,378.8,52.7"/>
<path class="st4" d="M391.6,104.7c5.4-10.3,7-22.9,7-22.9s-2.8-15.2-19.9-29C378.8,52.7,400.8,75.5,391.6,104.7"/>
<path class="st4" d="M378.8,52.7c0,0,1.6,3.1,2,9.4c7.3,7.3,13.1,16.3,16.3,27.7c1.2-4.7,1.6-8,1.6-8S395.8,66.5,378.8,52.7"/>
<path class="st3" d="M377.2,85.2c-6.4,18.4-20.8,27.7-20.8,27.7s4.4,1.8,8.3,4.8c3.8,3.1,3.8,3.1,3.8,3.1s8.2-1.2,15.2-6.5
	c-3.6-9.6-7.7-14.6-7.7-14.6s2.8,1,10.4,6.7c1,0.8,1.9,1.5,2.8,2.3c0.1-0.2,0.3-0.4,0.4-0.6c0.7-1.1,1.4-2.2,2-3.4
	c-2.1-3.9-5.1-8.4-9.1-13.6C381,89.1,379.2,87.1,377.2,85.2"/>
<path class="st2" d="M382.5,139.3c0,0,5.1,1.3,12.2-2.7c7.1-4,11.5-15.5,11.5-15.5s-0.3,11.5-5.8,25.2
	c-5.6,13.7-14.8,22.1-14.8,22.1S388.2,152.7,382.5,139.3"/>
<path class="st4" d="M396.7,135.3c6-4.8,9.6-14.2,9.6-14.2s-0.3,11.5-5.8,25.2c-5.6,13.7-14.8,22.1-14.8,22.1
	C390.9,156.3,394.5,145.3,396.7,135.3"/>
<path class="st3" d="M382.5,139.3c0,0,2.3,0.6,6.1-0.3c0.4,8.5-0.3,18.3-2.9,29.3C385.7,168.3,388.2,152.7,382.5,139.3"/>
<path class="st7" d="M199.6,367.3c11.7-0.7,23.7-1.2,35.7-1.5c-0.2,12.2-0.6,24.4-0.7,36.5c-4.1,0.2-8.2,0.4-12.3,0.6
	c0.1-3.9,0.2-7.9,0.4-11.8c0.2-5,0.3-10.1,0.5-15.1l-3.8,0.2l0.1-3.3c-2.8,0.1-5.6,0.2-8.4,0.4c-0.1,5-0.3,10.1-0.5,15.1
	c-0.2,5-0.4,10.1-0.6,15.1c-4.1,0.2-8.1,0.5-12.2,0.8c0.6-11.5,1.1-22.9,1.7-34.4L199.6,367.3z M162.4,370.1c3.9-0.4,7.9-0.7,11.9-1
	c-0.5,7.2-0.9,14.4-1.4,21.6c-0.1,0.9,0.2,1.4,1.3,1.3c0.8-0.1,1.7-0.2,2.5-0.2l-0.1,2.1c-0.1,0.9,0.2,1.4,1.3,1.3
	c3.5-0.3,7-0.6,10.5-0.9c-0.9,3.6-1.8,7.2-2.7,10.8c-5.9,0.4-11.8,1-17.7,1.6c-3,0.3-5.3,0.2-7-0.4c-0.8-1.7-1-4-0.8-6.9
	c0.7-9.2,1.4-18.3,2-27.5L162.4,370.1z M126.1,374.2c3.9-0.5,7.9-1,11.9-1.5c-0.7,7.9-1.4,15.8-2.1,23.7l4-0.5l-0.3,3.7
	c3.7-0.5,7.4-1,11.2-1.4c-1,3.6-1.9,7.2-2.8,10.8c-8.5,1.1-17.1,2.3-25.6,3.4c1.1-11.6,2.3-23.1,3.4-34.7L126.1,374.2z M79.1,381.5
	c3.9-0.7,7.8-1.4,11.7-2.1L87.9,403c-0.1,1.2,0,1.6,1.3,1.3c0.9-0.2,1.7-0.3,2.6-0.5l-0.3,2.3c-0.1,1.2,0,1.6,1.3,1.3
	c1.9-0.4,4-0.7,6-1c1.3-0.2,1.7-0.7,1.8-1.9c0.9-7.9,1.8-15.7,2.7-23.6l0.4-3.7c3.9-0.6,7.8-1.2,11.7-1.7
	c-0.9,9.1-1.9,18.3-2.8,27.4c-0.6,5.8-3.7,11.3-12.7,12.8c-6.2,1-12.5,2.1-18.7,3.3c-2.6,0.5-4.6,0.5-6.1,0.1
	c-0.7-1.6-0.7-3.6-0.5-5.7c1.2-9.5,2.5-18.9,3.8-28.4L79.1,381.5z M467.2,383.5c11.3,2.2,22.2,4.6,32.8,7.2c0.1,0.3,0.1,0.6,0.2,1
	c0.7,4.4,1.4,8.7,2.1,13.1c0.7,4.3,1.4,8.7,2.1,13.1c1.4,8.8-1.2,11.3-10.7,9.2c-5.8-1.3-11.6-2.6-17.4-3.8l-4.2-12.6
	c5.8,1.1,11.6,2.3,17.5,3.6c1.5,0.3,1.8,0,1.7-1.2c-0.7-4.8-1.4-9.6-2.1-14.3c-0.3-2.2-1.2-2.5-3.4-2.9l-0.3-0.1l0-0.2
	c-0.3-2.2-1.2-2.5-3.4-2.9c-2.8-0.6-5.6-1.2-8.3-1.8c-1.6-0.3-3.1-0.7-4.4-1.4C468.3,388.1,467.5,386.2,467.2,383.5L467.2,383.5z
	 M419.9,375.6c4.2,0.6,8.3,1.2,12.4,1.8c0.9,7.8,1.8,15.7,2.7,23.5c0.1,1.2,0.4,1.6,1.7,1.9l1.9,0.3l0.1,1c0.1,1.2,0.4,1.6,1.7,1.9
	c2,0.3,4,0.6,6.1,1c1.3,0.2,1.5-0.2,1.3-1.4c-0.9-7.9-1.9-15.8-2.9-23.7l-0.3-2.5c4.3,0.7,8.5,1.5,12.7,2.2c1.3,9.3,2.4,18.7,3.7,28
	c0.8,5.9-1.1,10.6-10.1,8.9c-6.3-1.2-12.5-2.2-18.8-3.2c-2.5-0.4-4.5-1.1-6.2-2.1c-1.7-2.2-2.6-4.9-2.9-7.6c-1.1-9.3-2-18.7-3-28
	L419.9,375.6z M373.4,370.2c4,0.4,8,0.8,12,1.2l0.1,1.1c1.1,0.1,2.3,0.3,3.4,0.4c0.1,0.9,0.2,1.8,0.3,2.7c2.5,0.3,5,0.6,7.6,1
	c1.1,0.1,1.4-0.2,1.3-1.4c-0.1-0.8-0.1-1.6-0.2-2.4c4,0.5,8,1,11.9,1.5c0.2,2.3,0.5,4.6,0.7,6.9c0.3,3.4-1.8,6.5-6.4,5.9
	c1.8,4.3,3.6,8.5,5.3,12.8c1.8,4.3,3.6,8.5,5.4,12.8c-4.7-0.6-9.3-1.2-13.9-1.8c-1.3-3.3-2.6-6.6-3.8-9.9c-1.6-4.2-3.3-8.4-4.9-12.7
	c-0.7-0.1-1.4-0.2-2-0.3l0.1,1.8c-0.6-1.6-1.2-3.1-1.8-4.7c-0.7-0.1-1.4-0.2-2-0.3c0.3,4.1,0.6,8.1,1,12.2c0.4,4.1,0.7,8.1,1,12.2
	c-4.1-0.5-8.3-0.9-12.4-1.4c-0.9-11.8-1.7-23.5-2.6-35.3L373.4,370.2z M335.6,367.3c8.4,0.5,16.7,1.1,25,1.7
	c0.2,2.2,0.3,4.4,0.5,6.6c-4.3-0.4-8.6-0.8-12.8-1.1c0.3,5.5,0.6,11,1,16.5c1.2,0.1,2.3,0.2,3.5,0.3c0.1,1,0.1,1.9,0.2,2.9
	c4.1,0.3,8.2,0.7,12.3,1.1c-0.4,3.7-0.9,7.4-1.4,11.1c-8.9-0.9-17.7-1.5-26.5-2.2c-0.5-11.6-1.1-23.3-1.7-35L335.6,367.3z
	 M291.3,365.6c11.6,0.2,23.1,0.6,34.5,1.2c0.6,12.3,1.1,24.6,1.6,36.8c-4.4-0.2-8.9-0.4-13.3-0.6c-1.3-4.3-2.6-8.6-3.8-12.9
	c-1.5-5.3-3-10.6-4.6-15.9c0.1,3.5,0.2,7.1,0.3,10.6c-1.3-4.6-2.6-9.2-3.9-13.8c0.1,5.3,0.3,10.5,0.4,15.8
	c0.1,5.2,0.3,10.5,0.5,15.8c-3.6-0.2-7.3-0.3-10.9-0.3c-0.2-11.5-0.4-23.1-0.6-34.6L291.3,365.6z M269.5,365.4c3.9,0,7.9,0,11.8,0.1
	c0.1,8.6,0.2,17.2,0.3,25.9c0.1,5.7-2.3,10.6-11.1,10.5c-6-0.1-12.1,0.1-18.1,0.2c-2.5,0-4.4-0.3-6-1c-1.1-1.8-1.5-4-1.4-6.4
	c0.1-9.1,0.3-18.3,0.4-27.5l0-1.6c3.9-0.1,7.7-0.1,11.6-0.2c0,7.3,0,14.5,0,21.8c0,1.1,0.1,1.6,1.4,1.5c0.8,0,1.5,0,2.3,0l0,1.6
	c0,1.1,0.1,1.6,1.4,1.5c2,0,4-0.1,6-0.1c1.2,0,1.5-0.4,1.5-1.6c0-7.6-0.1-15.3,0-23L269.5,365.4z M61.4,423c1.2-3.7,2.4-7.3,3.6-11
	c-3.5,0.7-7,1.5-10.5,2.3c-1.1,0.3-1.4-0.2-1.2-1.2c0.1-0.9,0.3-1.7,0.4-2.6l-2.8,0.6c-1.1,0.2-1.4-0.2-1.2-1.2
	c1.1-7.7,2.2-15.5,3.3-23.2c-4.1,0.9-8.1,1.8-12.1,2.7l-0.4,2.7c-1.5,9.5-3,19.1-4.5,28.6c-0.4,2.9-0.4,5.1,0.1,6.7
	c1.7,0.4,4.1,0.2,7.1-0.5C49.2,425.6,55.3,424.3,61.4,423z"/>
</svg>
