<?xml version="1.0" encoding="utf-8"?>
<!-- Generator: Adobe Illustrator 19.0.0, SVG Export Plug-In . SVG Version: 6.00 Build 0)  -->
<svg version="1.1" id="Layer_1" xmlns="http://www.w3.org/2000/svg" xmlns:xlink="http://www.w3.org/1999/xlink" x="0px" y="0px"
	 viewBox="0 0 564.3 542.5" style="enable-background:new 0 0 564.3 542.5;" xml:space="preserve">
<style type="text/css">
	.st0{fill-rule:evenodd;clip-rule:evenodd;fill:#ADB0B8;}
	.st1{fill-rule:evenodd;clip-rule:evenodd;}
	.st2{fill-rule:evenodd;clip-rule:evenodd;fill:#DB0030;}
	.st3{fill-rule:evenodd;clip-rule:evenodd;fill:#990021;}
	.st4{fill-rule:evenodd;clip-rule:evenodd;fill:#004D98;}
	.st5{fill-rule:evenodd;clip-rule:evenodd;fill:#00356A;}
	.st6{fill-rule:evenodd;clip-rule:evenodd;fill:#EDBB00;}
	.st7{fill-rule:evenodd;clip-rule:evenodd;fill:#FFFFFF;}
	.st8{fill-rule:evenodd;clip-rule:evenodd;fill:#B08A02;}
	.st9{fill:#FFFFFF;}
</style>
<path class="st0" d="M546.3,414.4L546.3,414.4L546.3,414.4c-2,1.6-4.1,3.1-6.3,4.4l-56.5,39.1c-0.3,0.2-0.6,0.4-0.9,0.6l-0.2,0.1
	c-8.8,5.7-19.5,7.7-29.8,5.8c-116.4-20.8-226.8-20.7-343.1,0c-7.3,1.3-14.8,0.7-21.7-1.8l-70.4-46.8l0.1-0.1
	c-12.6-9.5-20-25.2-16.8-43.7c2.6-14.9,5.2-29.9,7.8-44.8c2.6-15,5.2-29.9,7.8-44.9c4.3-24.9,26.5-44.1,51.7-45.1
	c142.4-5.7,285.1-5.5,427.5,0c25.3,1,47.7,20.4,51.7,45.5c4.8,29.9,9.8,59.8,14.5,89.7C564.5,389.9,557.9,404.9,546.3,414.4"/>
<path class="st1" d="M444.8,326.7c15.6,0.6,29.6,12.6,32,28.1c2.2,14,4.3,26.4,6.4,39.2l41.9,3.8l12,10.6l-59.6,41
	c-0.2,0.2-0.5,0.3-0.7,0.5l-0.1,0.1l0,0c-6.1,4-14,5.7-22.2,4.2c-120.4-21.5-230.8-20.7-346.7,0c-8.3,1.5-16.2-0.3-22.3-4.3
	l-60.5-41.5l12-10.6l42.6-3.8l0.9-5c2-11.5,4-22.9,5.9-34.4c2.7-15.3,16.5-27.3,32-27.9C227.2,322.3,336.4,322.4,444.8,326.7"/>
<path class="st0" d="M45.5,126c69.8-47.2,152.1-65,234.8-71.7l0.8-0.1l0.8,0.1C364.7,61,447,78.8,516.8,126l4.2,2.8l0.4,5
	c7.2,96.8-11.3,189.7-66.2,266.5l-15.7,3.3l-23.8,44.2c-34.7,41-81.6,69.2-130,92.4l-4.5,2.2l-4.5-2.2
	c-48.4-23.3-92.7-53.6-129.9-92.4l-23.8-44.2l-12.8,0.1c-55.8-78.5-76.4-171.7-69.2-270l0.4-5L45.5,126z"/>
<path class="st1" d="M281.1,64.7c-82.2,6.6-162.3,24.2-229.9,69.9c-14.5,195.7,86,327.2,229.9,396.4
	C424.9,461.8,525.5,330.3,511,134.6C443.4,88.9,363.3,71.3,281.1,64.7"/>
<path class="st2" d="M74.7,151.6c-5,98,21.8,189.5,90.8,263.1c32.8,35,72.5,63,115.6,84.6c43.1-21.6,82.8-49.6,115.6-84.6
	c69.1-73.7,95.8-165.2,90.8-263.1c-61.9-37.6-134.5-52.1-206.4-58C209.2,99.4,136.6,114,74.7,151.6"/>
<path class="st3" d="M474.1,159.7c-58.4-33.6-126.4-46.7-192.9-52.2c-66.5,5.5-134.5,18.6-192.9,52.2
	c-3.1,92.2,23.3,177.2,87.4,245.6c30.2,32.2,66.4,58.2,105.5,78.5c39.1-20.3,75.3-46.3,105.5-78.5
	C450.8,336.9,477.2,251.8,474.1,159.7"/>
<path class="st1" d="M460.4,167.9c-54.7-29.6-117.8-41.4-179.3-46.5c-61.5,5.1-124.6,17-179.3,46.5c-0.6,41.5,5,82.8,19,122
	c14.1,39.7,36.1,75.1,64.9,105.9c27.5,29.3,60.2,53.3,95.4,72.3c35.3-19.1,68-43,95.4-72.3c28.8-30.7,50.7-66.2,64.9-105.9
	C455.4,250.7,461.1,209.4,460.4,167.9"/>
<path class="st4" d="M128.9,284.4c0.3,0.8,0.5,1.6,0.8,2.4c13.7,38.4,35,72.8,62.9,102.6c25.6,27.3,55.9,49.9,88.5,68
	c32.6-18.2,62.9-40.7,88.5-68c27.9-29.8,49.2-64.1,62.9-102.6c0.3-0.8,0.6-1.6,0.8-2.4H128.9z"/>
<path class="st5" d="M120.2,254.1c2.6,11,5.8,21.9,9.6,32.6c13.7,38.4,35,72.8,62.9,102.6c4.8,5.1,9.7,10,14.7,14.7
	c49-3,97.9-3,147.6,0c5.1-4.7,10-9.7,14.7-14.7c27.9-29.8,49.2-64.1,62.9-102.6c3.8-10.7,7-21.6,9.6-32.6
	C335.1,251,227.6,250.9,120.2,254.1"/>
<path class="st2" d="M424.9,306c2.8-6.3,5.3-12.7,7.6-19.2c0.3-0.8,0.6-1.6,0.8-2.4h-8.5V306z M372.6,386.1
	c9.5-10.5,18.3-21.5,26.1-33v-68.7h-26.1V386.1z M320.3,432.5c9-6.5,17.8-13.4,26.1-20.8V284.4h-26.1V432.5z M268,449.8
	c4.3,2.6,8.7,5.1,13.1,7.6c4.4-2.4,8.8-5,13.1-7.6V284.4H268V449.8z M215.8,411.7c8.4,7.3,17.1,14.3,26.1,20.8V284.4h-26.1V411.7z
	 M163.5,353.1c7.9,11.5,16.6,22.6,26.1,33V284.4h-26.1V353.1z M128.9,284.4c0.3,0.8,0.5,1.6,0.8,2.4c2.3,6.5,4.9,12.9,7.6,19.2
	v-21.6H128.9z"/>
<path class="st3" d="M424.9,253.7c5.7,0.2,11.5,0.3,17.2,0.5c-2.6,11-5.8,21.9-9.6,32.6c-2.3,6.5-4.9,12.9-7.6,19.2V253.7z
	 M372.6,252.5c8.7,0.1,17.4,0.3,26.1,0.5v100.1c-7.9,11.5-16.6,22.6-26.1,33V252.5z M163.5,253c8.7-0.2,17.4-0.4,26.1-0.5v133.6
	c-9.5-10.5-18.3-21.5-26.1-33V253z M241.9,402.5c-8.7,0.3-17.4,0.7-26.1,1.1V252.1c8.7-0.1,17.4-0.2,26.1-0.2V402.5z M294.2,401.9
	c-8.7-0.1-17.4-0.1-26.1,0V251.8c8.7,0,17.4,0,26.1,0V401.9z M346.5,403.6c-8.7-0.5-17.4-0.8-26.1-1.1V251.9
	c8.7,0.1,17.4,0.2,26.1,0.3V403.6z M120.2,254.1c2.6,11,5.8,21.9,9.6,32.6c2.3,6.5,4.9,12.9,7.6,19.2v-52.3
	C131.6,253.8,125.9,254,120.2,254.1z"/>
<path class="st0" d="M281.1,2c87.5,0,158.4,66.6,158.4,148.7s-70.9,148.7-158.4,148.7s-158.4-66.6-158.4-148.7
	C122.7,68.6,193.7,2,281.1,2"/>
<path class="st1" d="M281.1,12.4c84.8,0,153.5,68.7,153.5,153.5c0,84.8-68.7,153.5-153.5,153.5s-153.5-68.7-153.5-153.5
	C127.6,81.1,196.3,12.4,281.1,12.4"/>
<path class="st6" d="M207.1,54.7c9.5-6.3,19.9-11.5,30.9-15.3c7.6,2.9,14.2,7.4,19.9,13.1c6.3,6.3,11.6,14.2,16.2,23.2
	c-5.1,2-8.8,3.6-11.6,4.8c-4.1,1.7-6.2,2.6-8.1,3c-2.1,0.4-4.5,0.5-9.4,0.6c-3.9,0.1-9.3,0.2-17,0.5c-3.9,0.2-7.8,0.5-11.7,1
	c-2.5,0.3-5,0.7-7.6,1.2c-1.5-4.9-2.3-10.1-2.6-15.5C205.9,66,206.2,60.5,207.1,54.7 M224.3,286.8c-45.4-21.3-76.8-67.5-76.8-121
	c0-41.9,19.3-79.3,49.5-103.8c-0.2,3.3-0.2,6.5-0.1,9.7c0.3,6.7,1.4,13.1,3.4,19.2c-7.1,7.1-12.9,14.8-17.6,23
	c-5.2,8.9-9.1,18.3-12.1,28.2l-0.3,1l0.1,1c0.6,4.5,1.4,9,2.5,13.2l0,0c1.1,3.9,2.4,7.7,4.2,11.1c-0.1,6.9,0.1,13.6,1,20.1
	c0.9,6.6,2.5,13,4.9,19.2c-0.5,3.6-1,7.3-1.2,10.8c-0.2,4.2-0.1,8.3,0.7,12.5l0.2,0.9l0.5,0.7c6.3,10,13.1,19,20.5,26.6
	c6.6,6.9,13.8,12.6,21.6,16.9C224.7,279.7,224.4,283.3,224.3,286.8z M283.4,299.4c-0.8,0-1.5,0-2.3,0c-16.8,0-32.8-3.1-47.6-8.7
	c0-0.7,0-1.4-0.1-2.1c0-3.4,0.2-7,0.9-10.6c5-0.2,10-0.6,14.9-1.1c6.2-0.7,12.3-1.7,18.5-3c15.3-3.2,16.4-3,22.6-1.8
	c2.1,0.4,4.7,0.9,8.3,1.4c-1.9,6.5-4.5,12.2-7.8,17.2C288.7,294,286.2,296.9,283.4,299.4z M339.3,286.2
	c-13.2,6.4-27.6,10.7-42.8,12.4c0.7-0.9,1.4-1.9,2-2.8c4-6.1,7.1-13.2,9.4-21.2c5.7,0.4,11.4,0.3,17.1-0.5
	c5.3-0.7,10.6-1.9,15.9-3.8c0.3,3.4,0.1,6.7-0.4,10C340.2,282.3,339.8,284.2,339.3,286.2z M382.7,252.7c-9.4,11-20.5,20.4-33,27.9
	c0.6-4.6,0.7-9.2,0-13.9c5.1-2.5,8.3-4.8,11.1-6.8c4.6-3.3,7.9-5.7,19.2-6.8C380.9,252.8,381.8,252.8,382.7,252.7z M413.2,185.8
	c-3.1,20.8-11,40-22.6,56.5c-3.8,0.6-7.7,1.1-11.5,1.5c-13.8,1.4-18,4.4-23.7,8.5c-3,2.1-6.4,4.6-12.7,7.4
	c-6.4,2.8-12.7,4.5-18.9,5.3c-6.3,0.8-12.6,0.8-18.9,0c-6.3-0.7-10.1-1.4-12.9-2c-7.7-1.4-9.1-1.7-26.2,1.8
	c-5.8,1.2-11.7,2.2-17.7,2.9c-5.6,0.6-11.2,1-16.8,1.2c-7.6-3.9-14.6-9.5-21.1-16.2c-6.7-6.9-13-15.2-18.9-24.4
	c-0.5-3.1-0.6-6.2-0.4-9.5c0.1-2.2,0.3-4.4,0.6-6.6c42.6,7.2,84.2,9,124.5,3.4C349.6,211.2,382,201.6,413.2,185.8z M411.4,136.1
	c2.2,9.6,3.3,19.5,3.3,29.8c0,3-0.1,6-0.3,9c-31.9,16.9-65.1,27.1-99.4,31.8c-39.9,5.5-81.3,3.6-123.8-3.8c-1.9-5-3.1-10.3-3.9-15.7
	c-0.7-5.4-1-11-1-16.8c35-12.1,72.3-21.5,112.3-27.4C334,137.9,371.4,135.4,411.4,136.1z M380.4,76.4c12.9,14.3,22.8,31.5,28.6,50.5
	c-39.6-0.6-76.6,1.9-111.6,7.1c-40.3,5.9-77.9,15.4-113.2,27.6c-0.9-2.1-1.6-4.3-2.3-6.7v0c-0.9-3.5-1.6-7.3-2.2-11.1
	c2.8-8.8,6.3-17.3,10.9-25.3c4.6-7.9,10.2-15.3,17.2-22.2c3.2-0.7,6.3-1.2,9.5-1.6c3.6-0.5,7.2-0.8,10.8-0.9
	c7.8-0.3,13-0.4,16.8-0.5c5.6-0.1,8.3-0.2,11.2-0.7c2.8-0.6,5.2-1.6,9.8-3.6c3.5-1.5,8.4-3.6,16-6.5c6-2.4,12.1-4,18.2-4.9
	c6.2-0.9,12.4-1.2,18.5-0.7c6.7,0.5,11.1,1.9,15,3.1c7.4,2.3,12.9,4.1,25-0.1c4.6-1.6,9.1-2.7,14-3.2
	C375.2,76.4,377.7,76.3,380.4,76.4z M310.8,35.6c23.1,5.2,44,16.5,60.8,32c-5.5,0.6-10.7,1.8-15.9,3.6c-9.3,3.2-13.6,1.9-19.3,0
	c-3.6-1.1-7.6-2.4-13.3-3.1c-1.1-8.2-3.1-16.1-6.5-23.1C315.1,41.6,313.1,38.5,310.8,35.6z M281.1,32.3c4.4,0,8.7,0.2,12.9,0.6
	c6.8,4.2,11.3,9.7,14.4,16.1c2.7,5.5,4.3,11.8,5.4,18.5c-5-0.1-10,0.3-14.9,1c-5.4,0.8-10.8,2.2-16.2,4
	c-5.1-10.2-11.1-19.1-18.3-26.4c-4-4-8.4-7.5-13.2-10.4C260.8,33.4,270.8,32.3,281.1,32.3z"/>
<path class="st7" d="M210.6,56.9c-0.1,0.8-0.2,1.7-0.3,2.5c8.1-5.1,16.8-9.3,25.9-12.5c6.6,2.7,12.3,6.7,17.3,11.8
	c4.8,4.8,8.8,10.5,12.3,16.4c1-0.4,2-0.8,3-1.2c-3.7-6.7-8.2-13.2-13.6-18.6c-5-5-10.7-9.1-17.3-11.8
	C228.3,46.8,219.1,51.3,210.6,56.9 M194,92.1c0.7-0.8,1.4-1.5,2.1-2.2c-1.7-5.9-2.6-11.9-2.9-18c0-0.5,0-1-0.1-1.5
	c-12.2,11.2-22,24.5-29,39.1c6.9-13.2,16.1-25.3,27.3-35.6c0,0.5,0,1,0.1,1.5C191.7,81,192.5,86.6,194,92.1z M220.9,280.9
	c0.1-0.9,0.2-1.9,0.3-2.8c-7.4-4.5-14.1-10-20.1-16.3c-8-8.2-14.9-17.6-21-27.2l-0.9-1.3l-0.3-1.6c-0.8-4.4-1-8.9-0.7-13.4
	c0.2-3.4,0.6-6.8,1.1-10.2c-2.4-6.1-3.9-12.6-4.8-19.1c-0.9-6.5-1.2-13.2-1.1-19.7c-1.2-2.4-2.2-4.9-3-7.4l-0.1,0l-1-3.7
	c-1.2-4.5-2-9.1-2.6-13.6l-0.3-1.8l0.5-1.8c2.2-7,4.8-13.9,7.9-20.5c-4,7.7-7.1,15.7-9.7,24l-0.5,1.8l0.3,1.8
	c0.6,4.6,1.4,9.2,2.6,13.6l1,3.7l0.1,0c0.8,2.5,1.8,5,3,7.4c-0.1,6.6,0.2,13.2,1.1,19.7c0.9,6.5,2.4,13,4.8,19.1
	c-0.5,3.4-0.9,6.8-1.1,10.2c-0.2,4.5-0.1,8.9,0.7,13.4l0.3,1.6l0.9,1.3c6.1,9.7,13,19,21,27.2c2.4,2.5,5,4.9,7.6,7.2
	C211.4,275.5,216,278.4,220.9,280.9z M293.7,276.5c-1.3-0.2-2.7-0.5-4-0.7c-1.3-0.2-2.6-0.5-4-0.6c-1.8-0.2-3.6,0-5.4,0.2
	c-3.9,0.5-7.9,1.4-11.7,2.2c-6.2,1.3-12.5,2.3-18.8,3c-4,0.5-8,0.8-12.1,1c-0.1,1.1-0.2,2.3-0.3,3.4c3.6-0.2,7.1-0.5,10.6-0.9
	c6.3-0.7,12.6-1.7,18.8-3c3.9-0.8,7.8-1.7,11.7-2.2c1.8-0.3,3.6-0.4,5.4-0.2c1.3,0.1,2.7,0.4,4,0.6c1.3,0.3,2.7,0.5,4,0.7
	c-0.6,1.7-1.3,3.3-2,4.9C291.4,282.2,292.6,279.4,293.7,276.5z M304.9,292.4c-0.2,0.4-0.4,0.8-0.7,1.2l0.1,0
	C304.5,293.2,304.7,292.8,304.9,292.4z M337.2,275.4c-3.8,1.1-7.7,1.9-11.7,2.4c-4.9,0.6-9.9,0.8-14.9,0.6c-0.4,1.2-0.8,2.3-1.2,3.5
	c4.8,0.2,9.5,0,14.3-0.7c4-0.5,7.9-1.3,11.7-2.4c-0.1,1.4-0.2,2.9-0.4,4.3c0,0.3-0.1,0.5-0.1,0.8c0.4-0.2,0.8-0.4,1.2-0.5
	c0.3-1.2,0.5-2.5,0.7-3.8C337,278.3,337.1,276.9,337.2,275.4z M367.9,262.4c1.6-1.4,3.2-2.9,4.7-4.4c-2.4,0.6-4.8,1.6-7.1,3.1
	c-0.9,0.6-1.7,1.2-2.5,1.8c-3.1,2.2-6,4.1-9.2,5.9c0.1,0.8,0.1,1.6,0.2,2.4c2.5-1.5,4.9-3.1,7.4-4.8c0.8-0.6,1.7-1.2,2.5-1.8
	C365.1,263.7,366.5,263,367.9,262.4z M408.2,192.5c-29,13.8-59.6,22.7-91.5,27.1c-40.5,5.6-81.5,3.7-121.7-2.8
	c-0.1,0.8-0.1,1.6-0.2,2.4c0,0.4,0,0.9-0.1,1.3c39.7,6.3,80.2,8.1,120.2,2.6c31.8-4.4,62.5-13.3,91.5-27.1
	c-2.1,10.3-5.5,20.2-10.1,29.6C401.8,215.1,405.8,204,408.2,192.5z M408.3,139.8c-36.5-0.5-73,1.6-109.1,7
	c-37.1,5.5-73.6,14.3-109.1,26.4c0,1,0,1.9,0.1,2.9c34.9-11.8,70.8-20.4,107.3-25.8c36.1-5.3,72.6-7.5,109.1-7
	c1.7,8.6,2.6,17.3,2.6,26.1c0,1.4,0,2.7-0.1,4.1c0.5-0.3,1.1-0.6,1.6-0.8c0.1-2.2,0.2-4.4,0.2-6.7
	C410.9,157.1,410.1,148.4,408.3,139.8z M378.6,80.2c-1.9,0-3.7,0.1-5.6,0.3c-4.5,0.5-8.8,1.5-13.1,3c-7.2,2.5-13.7,3.7-21.2,1.9
	c-2.1-0.5-4.1-1.1-6.2-1.8c-4.9-1.5-9-2.6-14.2-3c-5.9-0.5-11.8-0.2-17.6,0.6c-6,0.9-11.8,2.5-17.4,4.7c-5.3,2.1-10.6,4.2-15.9,6.5
	c-3.4,1.4-6.9,3-10.5,3.8c-3.8,0.8-8,0.8-11.9,0.8c-5.6,0.1-11.1,0.3-16.7,0.5c-3.5,0.1-7,0.4-10.5,0.9c-2.7,0.4-5.5,0.8-8.2,1.4
	c-6.2,6.2-11.5,13-15.8,20.6c-1.4,2.5-2.8,5-4,7.6c0.7-1.4,1.5-2.8,2.3-4.1c4.4-7.5,9.7-14.4,15.8-20.6c2.7-0.5,5.4-1,8.2-1.4
	c3.5-0.5,7-0.8,10.5-0.9c5.6-0.2,11.1-0.4,16.7-0.5c3.9-0.1,8.1,0,11.9-0.8c3.6-0.8,7.1-2.3,10.5-3.8c5.3-2.2,10.6-4.4,15.9-6.5
	c5.6-2.2,11.5-3.8,17.4-4.7c5.8-0.9,11.8-1.1,17.6-0.6c5.1,0.4,9.3,1.5,14.2,3c2,0.6,4.1,1.3,6.2,1.8c7.5,1.7,14,0.6,21.2-1.9
	c4.3-1.5,8.6-2.5,13.1-3c1.8-0.2,3.7-0.3,5.6-0.3c10.2,11.6,18.3,25,23.8,39.4c1,0,2,0,3,0C398.2,107.3,389.7,92.7,378.6,80.2z
	 M358.5,66.4c1.5-0.4,3.1-0.8,4.6-1.2c-13-10.6-27.8-18.5-43.8-23.4c0.3,0.5,0.5,1,0.8,1.6c0.5,1,1,2.1,1.4,3.2
	C334.8,51.1,347.3,57.8,358.5,66.4z M292.8,36.6c-3.9-0.3-7.8-0.5-11.7-0.5c-6.9,0-13.7,0.5-20.5,1.6c1.1,0.9,2.2,1.8,3.3,2.8
	c5.1-0.6,10.3-0.9,15.5-0.9c3.9,0,7.8,0.2,11.7,0.5c5.4,3.5,9.4,8.2,12.2,14c1.5,3.1,2.6,6.4,3.5,9.8c0.8,0,1.7-0.1,2.5-0.1
	c-0.9-4.5-2.3-9-4.2-13.1C302.2,44.7,298.2,40.1,292.8,36.6z"/>
<path class="st8" d="M224.3,286.8c-45.4-21.3-76.8-67.5-76.8-121c0-9.7,1-19.1,3-28.2c5.7,20.6,15.5,39.5,28.6,55.7
	c0.9,4.9,2.3,9.7,4.1,14.3c-0.5,3.6-1,7.3-1.2,10.8c-0.2,4.2-0.1,8.3,0.7,12.5l0.2,0.9l0.5,0.7c6.3,10,13.1,19,20.5,26.6
	c6.6,6.9,13.8,12.6,21.6,16.9C224.7,279.7,224.4,283.3,224.3,286.8 M283.4,299.4c-0.8,0-1.5,0-2.3,0c-16.8,0-32.8-3.1-47.6-8.7
	c0-0.7,0-1.4-0.1-2.1c0-3.4,0.2-7,0.9-10.6c5-0.2,10-0.6,14.9-1.1c6.2-0.7,12.3-1.7,18.5-3c15.3-3.2,16.4-3,22.6-1.8
	c2.1,0.4,4.7,0.9,8.3,1.4c-1.9,6.5-4.5,12.2-7.8,17.2C288.7,294,286.2,296.9,283.4,299.4z M339.3,286.2
	c-13.2,6.4-27.6,10.7-42.8,12.4c0.7-0.9,1.4-1.9,2-2.8c4-6.1,7.1-13.2,9.4-21.2c5.7,0.4,11.4,0.3,17.1-0.5
	c5.3-0.7,10.6-1.9,15.9-3.8c0.3,3.4,0.1,6.7-0.4,10C340.2,282.3,339.8,284.2,339.3,286.2z M382.7,252.7c-9.4,11-20.5,20.4-33,27.9
	c0.6-4.6,0.7-9.2,0-13.9c5.1-2.5,8.3-4.8,11.1-6.8c4.6-3.3,7.9-5.7,19.2-6.8C380.9,252.8,381.8,252.8,382.7,252.7z M409.5,203
	c-4.1,14.2-10.5,27.5-18.8,39.3c-3.8,0.6-7.7,1.1-11.5,1.5c-13.8,1.4-18,4.4-23.7,8.5c-3,2.1-6.4,4.6-12.7,7.4
	c-6.4,2.8-12.7,4.5-18.9,5.3c-6.3,0.8-12.6,0.8-18.9,0c-6.3-0.7-10.1-1.4-12.9-2c-7.7-1.4-9.1-1.7-26.2,1.8
	c-5.8,1.2-11.7,2.2-17.7,2.9c-5.6,0.6-11.2,1-16.8,1.2c-7.6-3.9-14.6-9.5-21.1-16.2c-6.7-6.9-13-15.2-18.9-24.4
	c-0.5-3.1-0.6-6.2-0.4-9.5c0.1-2.2,0.3-4.4,0.6-6.6c2.3,0.4,4.6,0.8,6.9,1.1c26.8,23,61.7,37,99.9,37
	C342.2,250.5,381.5,232.2,409.5,203z"/>
<path class="st8" d="M207.1,54.7c1.3-0.9,2.6-1.7,4-2.5c-0.6,5-0.9,9.8-0.6,14.4c0.2,5.4,1.1,10.6,2.6,15.5c2.5-0.5,5-0.9,7.6-1.2
	c3.9-0.5,7.8-0.8,11.7-1c7.6-0.3,13-0.4,17-0.5c4.9-0.1,7.4-0.1,9.4-0.6c1.9-0.4,4-1.3,8.1-3c1.7-0.7,3.6-1.6,6-2.5
	c0.4,0.8,0.9,1.7,1.3,2.5c-5.1,2-8.8,3.6-11.6,4.8c-4.1,1.7-6.2,2.6-8.1,3c-2.1,0.4-4.5,0.5-9.4,0.6c-3.9,0.1-9.3,0.2-17,0.5
	c-3.9,0.2-7.8,0.5-11.7,1c-2.5,0.3-5,0.7-7.6,1.2c-1.5-4.9-2.3-10.1-2.6-15.5C205.9,66,206.2,60.5,207.1,54.7 M200.3,90.7l0.1,0.2
	c-0.8,0.8-1.5,1.5-2.2,2.3C198.8,92.4,199.5,91.5,200.3,90.7z M224.3,286.8c-45.4-21.3-76.8-67.5-76.8-121
	c0-35.2,13.6-67.2,35.9-91.1c-19.7,23.3-31.6,53.4-31.6,86.3c0,52,29.7,97,73,119.1C224.5,282.4,224.4,284.6,224.3,286.8z
	 M283.4,299.4c-0.8,0-1.5,0-2.3,0c-16.8,0-32.8-3.1-47.6-8.7c0-0.7,0-1.4-0.1-2.1c0-3.4,0.2-7,0.9-10.6c1.2,0,2.4-0.1,3.6-0.2
	c-0.2,2-0.3,4-0.2,5.9c0,0.7,0,1.4,0.1,2.1c14.8,5.6,30.8,8.7,47.6,8.7c0.8,0,1.5,0,2.3,0c0.4-0.4,0.8-0.7,1.1-1.1
	C287.2,295.7,285.4,297.7,283.4,299.4z M339.3,286.2c-13.2,6.4-27.6,10.7-42.8,12.4c0.7-0.9,1.4-1.9,2-2.8c4-6.1,7.1-13.2,9.4-21.2
	c0.9,0.1,1.8,0.1,2.7,0.2c-2,6-4.6,11.4-7.8,16.2c-0.6,1-1.3,1.9-2,2.8c13.8-1.6,27-5.3,39.3-10.8
	C339.8,284.1,339.6,285.1,339.3,286.2z M382.7,252.7c-9.4,11-20.5,20.4-33,27.9c0.6-4.6,0.7-9.2,0-13.9c1.7-0.8,3.2-1.7,4.5-2.5
	c0.3,3.9,0.2,7.8-0.3,11.6C364.6,269.4,374.2,261.6,382.7,252.7L382.7,252.7z M393.8,237.7c-1,1.6-2,3.1-3.1,4.6
	c-3.8,0.6-7.7,1.1-11.5,1.5c-13.8,1.4-18,4.4-23.7,8.5c-3,2.1-6.4,4.6-12.7,7.4c-6.4,2.8-12.7,4.5-18.9,5.3
	c-6.3,0.8-12.6,0.8-18.9,0c-6.3-0.7-10.1-1.4-12.9-2c-7.7-1.4-9.1-1.7-26.2,1.8c-5.8,1.2-11.7,2.2-17.7,2.9
	c-5.6,0.6-11.2,1-16.8,1.2c-7.6-3.9-14.6-9.5-21.1-16.2c-6.7-6.9-13-15.2-18.9-24.4c-0.5-3.1-0.6-6.2-0.4-9.5
	c0.1-2.2,0.3-4.4,0.6-6.6c1.2,0.2,2.5,0.4,3.7,0.6c0,0.4-0.1,0.8-0.1,1.2c-0.2,3.2-0.1,6.4,0.4,9.5c5.9,9.2,12.1,17.5,18.9,24.4
	c6.5,6.7,13.5,12.3,21.1,16.2c5.5-0.2,11.1-0.6,16.8-1.2c6-0.7,11.9-1.6,17.7-2.9c17-3.6,18.5-3.3,26.2-1.8c2.8,0.5,6.6,1.2,12.9,2
	c6.3,0.7,12.6,0.8,18.9,0c6.3-0.8,12.6-2.5,18.9-5.3c6.3-2.8,9.7-5.2,12.7-7.4c5.7-4.1,9.9-7.1,23.7-8.5
	C386.9,238.7,390.3,238.2,393.8,237.7z M414.6,172.2c0,0.9-0.1,1.8-0.2,2.7c-31.9,16.9-65.1,27.1-99.4,31.8
	c-39.9,5.5-81.3,3.6-123.8-3.8c-1.9-5-3.1-10.3-3.9-15.7c-0.7-5.4-1-11-1-16.8c1.4-0.5,2.9-1,4.3-1.5c0.1,4.6,0.4,9.1,1,13.4
	c0.7,5.4,2,10.7,3.9,15.7c42.5,7.3,83.9,9.2,123.8,3.8C352.1,197.4,383.9,187.9,414.6,172.2z M407.4,122c0.6,1.6,1.1,3.2,1.6,4.9
	c-39.6-0.6-76.6,1.9-111.6,7.1c-40.3,5.9-77.9,15.4-113.2,27.6c-0.9-2.1-1.6-4.3-2.3-6.7v0c-0.9-3.5-1.6-7.3-2.2-11.1
	c2.8-8.8,6.3-17.3,10.9-25.3c3.9-6.8,8.6-13.2,14.3-19.2c-3.8,4.6-7.2,9.4-10,14.4c-4.6,8-8.2,16.5-10.9,25.3
	c0.6,3.8,1.2,7.6,2.2,11.1v0c0.6,2.3,1.4,4.6,2.3,6.7c35.3-12.2,72.9-21.6,113.2-27.6C334.8,124.3,370,121.8,407.4,122z M310.8,35.6
	c3,0.7,6,1.5,9,2.4c0.4,0.7,0.8,1.5,1.1,2.2c3.4,7.1,5.3,14.9,6.5,23.1c5.7,0.7,9.7,2,13.3,3.1c5.8,1.8,10.1,3.2,19.3,0
	c2.6-0.9,5.1-1.6,7.7-2.2c1.3,1.1,2.6,2.3,3.9,3.4c-5.5,0.6-10.7,1.8-15.9,3.6c-9.3,3.2-13.6,1.9-19.3,0c-3.6-1.1-7.6-2.4-13.3-3.1
	c-1.1-8.2-3.1-16.1-6.5-23.1C315.1,41.6,313.1,38.5,310.8,35.6z M312.9,62.7c0.3,1.6,0.6,3.1,0.9,4.7c-5-0.1-10,0.3-14.9,1
	c-5.4,0.8-10.8,2.2-16.2,4c-5.1-10.2-11.1-19.1-18.3-26.4c-4-4-8.4-7.5-13.2-10.4c2.9-0.7,5.9-1.2,8.9-1.7c3,2.2,5.9,4.7,8.5,7.4
	c7.2,7.3,13.2,16.2,18.3,26.4c5.4-1.8,10.8-3.2,16.2-4C306.4,63.2,309.6,62.8,312.9,62.7z"/>
<path class="st1" d="M495,247.6c20.3,0.8,38.6,16.5,41.9,36.8c5.1,31.8,9.4,57.5,14.5,89.7c4.2,26.3-18.6,44.6-43.8,40.1
	c-157.4-28.1-301.6-27-453.1,0c-25.3,4.5-48.1-14-43.5-40.4c2.6-14.9,5.2-29.9,7.8-44.8c2.6-15,5.2-29.9,7.8-44.9
	c3.5-20.1,21.6-35.7,41.9-36.5C210.7,241.9,353.4,242.1,495,247.6"/>
<path class="st9" d="M464.9,382.7c15.6,2.3,31.2,4.8,47,7.6c10,1.8,17-3.8,15.6-12.4c-0.9-5.7-1.8-11.5-2.8-17.2
	c-0.9-5.7-1.9-11.5-2.8-17.2c-1-6.2-6.1-12.4-12.9-15.5c-13.9-6.4-27.7-12.6-41.3-18.5c-0.7-5.3-1.4-10.6-2-15.9
	c6.8,0.4,13.6,0.8,20.5,1.3c0.6,4.7,1.3,9.3,1.9,14c9.2-1.1,18.4-2.3,27.6-3.5c-0.9-5.7-1.8-11.3-2.7-17c-1.4-8.7-9.9-16-18.9-16.4
	c-14.2-0.6-28.4-1.1-42.6-1.5c-8.9-0.3-15.5,6-14.6,13.9c0.5,4.7,0.9,9.4,1.4,14.1c0.5,4.7,1,9.4,1.5,14c0.6,5.7,5.3,11.2,11.9,14
	c13.7,5.9,27.6,12.2,41.5,18.6c1,6.6,1.9,13.2,2.8,19.8c-7.2-1-14.5-2-21.7-2.9c-0.5-4.6-1.1-9.1-1.7-13.7
	c-9.6,0.7-19.2,1.6-28.7,2.4c0.5,5.2,1.1,10.3,1.6,15.5C446.4,373.9,455.2,381.3,464.9,382.7 M431.6,378.4
	c-0.8-8.7-1.8-17.4-2.6-26.1c-9.8-0.9-19.5-1.8-29.2-2.6c0.1,1.4,0.2,2.8,0.3,4.2c-5.3-0.4-10.6-0.8-15.9-1.1
	c-0.4-7-0.9-14-1.3-21.1c7.9,0.5,15.7,0.9,23.7,1.5c1.3-7,2.7-14,4.1-21c-9.8-0.6-19.5-1-29.2-1.5c-0.5-7-0.9-14-1.4-21.1
	c5.1,0.2,10.1,0.3,15.1,0.5c0.1,1.4,0.2,2.8,0.3,4.2c9.4,0.4,18.7,0.8,28,1.2c-0.8-8.7-1.6-17.4-2.5-26.2
	c-25.8-0.6-51.5-1.1-77.2-1.4c2.8,6.9,5.6,13.9,8.5,20.8c0.4,10.4,0.9,20.8,1.4,31.1c0.5,10.4,0.9,20.7,1.4,31.1
	c-2.4,6.8-4.7,13.5-7.1,20.2C375.7,373,403.6,375.3,431.6,378.4z M332.7,370.6c-0.2-8.4-0.5-16.7-0.8-25.1
	c-9.6-0.3-19.3-0.6-28.9-0.7c0,1.5,0,3,0,4.5c-5.3-0.1-10.6-0.1-15.8-0.2c0-10.2,0-20.4,0-30.6c0-10.2,0-20.4,0-30.6
	c2.5-6.8,5-13.6,7.5-20.4c-14.1-0.1-28.2,0-42.3,0c2.3,6.8,4.6,13.6,7,20.4c-0.2,10.2-0.4,20.4-0.6,30.7
	c-0.2,10.2-0.4,20.4-0.6,30.6c-2.8,6.8-5.6,13.7-8.4,20.5C277.4,369.5,305,369.8,332.7,370.6z M159.2,375.3
	c16.6-1.5,33.2-2.7,49.8-3.7c9.6-0.6,17.6-6.9,17.9-14.2c0.5-11.5,1-23,1.5-34.5c0.5-11.5,0.9-23,1.5-34.5
	c2.7-6.9,5.5-13.8,8.3-20.7c-14.1,0.1-28.2,0.3-42.3,0.5c2,6.9,4.1,13.9,6.2,20.8c-0.7,10.4-1.3,20.9-1.9,31.3
	c-0.6,10.4-1.3,20.8-2,31.3c-8.4,0.4-16.8,1-25.2,1.6c0.8-10.6,1.7-21.1,2.5-31.7c0.8-10.6,1.6-21.2,2.5-31.7
	c3-7.1,6.1-14.2,9.2-21.3c-14.1,0.3-28.3,0.6-42.4,0.9c1.7,7.2,3.5,14.3,5.3,21.4c-1.2,12.1-2.4,24.2-3.6,36.2
	c-1.2,12.1-2.5,24.1-3.6,36.2C142.2,370.9,149.5,376.2,159.2,375.3z M50.3,390.4c16.7-3,33.2-5.7,49.8-8c9.7-1.4,18.4-8.8,19.4-16.7
	c0.7-5.5,1.3-11,1.9-16.5c0.6-5.5,1.3-11,1.9-16.5c-9.9,2.7-19.8,5.5-29.7,8.4c-0.9,6.8-1.9,13.6-2.8,20.4
	c-8.2,1.1-16.3,2.2-24.4,3.3c1.7-11.7,3.6-23.3,5.3-35c1.8-11.7,3.5-23.4,5.4-35c7.6-0.5,15.3-1,23-1.4c-0.9,6.8-1.9,13.6-2.8,20.4
	c9.7-2.6,19.5-5.1,29.1-7.6c0.9-7.4,1.7-14.7,2.6-22.1c0.9-7.9-5.7-14.1-14.6-13.9c-15.1,0.5-30.1,1-45.1,1.6
	c-9,0.4-17.5,7.8-19,16.4c-2.6,15-5.2,29.9-7.8,44.9C40,348,37.4,363,34.8,377.9C33.3,386.6,40.2,392.2,50.3,390.4z"/>
<path class="st0" d="M469.6,351.8c-7.3,0.6-14.6,1.2-21.9,1.8c0.4,4,0.9,8,1.3,12c0.3,3.3,2.7,6.4,5.1,8.5c3.1,2.7,7.2,4.5,11.3,5.1
	c15.7,2.3,31.4,4.9,47.1,7.7c6.2,1.1,12.8-1.1,11.6-8.5c-0.9-5.7-1.8-11.5-2.8-17.2c-0.9-5.7-1.9-11.5-2.8-17.2
	c-0.8-4.9-4.5-9.2-8.8-11.8c-16.3-2.1-32.5-4-48.7-5.7c11.3,4.9,22.4,10.1,33.6,15.2l1.7,0.8l0.3,1.8c1,6.6,1.9,13.3,2.8,19.9
	l0.6,4.5l-4.5-0.6c-7.2-1-14.5-2-21.7-2.9l-2.7-0.4l-0.3-2.7C470.5,358.7,470.1,355.3,469.6,351.8 M357.1,318.8l0,0.9
	c0.5,10.4,0.9,20.7,1.4,31.1l0,0.7l-0.2,0.6c-1.9,5.3-3.7,10.6-5.6,15.9c25,1.6,50.1,3.7,75,6.4c-0.6-6.4-1.3-12.7-1.9-19.1
	c-7.4-0.7-14.9-1.3-22.3-2c0,0.1,0,0.2,0,0.3l0.1,3.8l-3.8-0.3c-5.3-0.4-10.6-0.8-15.9-1.1l-3-0.2l-0.2-3c-0.4-7-0.9-14-1.3-21.1
	l-0.2-3.9l3.9,0.2c6.9,0.4,13.8,0.8,20.7,1.3c0.5-2.6,1-5.3,1.5-7.9C389.1,320.5,373.1,319.5,357.1,318.8z M329.1,367
	c-0.2-6.1-0.4-12.1-0.6-18.2c-7.4-0.2-14.7-0.4-22.1-0.5c0,0.3,0,0.7,0,1v3.5l-3.5,0c-5.3-0.1-10.6-0.1-15.8-0.2l-3.4,0v-3.4
	c0-10.2,0-20.4,0-30.6l0-1.4c-7.2,0-14.3,0-21.4,0.1l0,1.6c-0.2,10.2-0.4,20.4-0.6,30.6l0,0.7l-0.3,0.6c-2.2,5.2-4.3,10.5-6.4,15.7
	C279.7,366.1,304.4,366.3,329.1,367z M203.7,318.9l-0.1,1.6c-0.6,10.4-1.3,20.8-2,31.3l-0.2,3.1l-3.1,0.2c-8.4,0.4-16.8,1-25.1,1.6
	l-4,0.3l0.3-4c0.8-10.6,1.7-21.2,2.5-31.7l0-0.5c-7.2,0.5-14.4,1-21.6,1.5c-0.2,1.7-0.3,3.5-0.5,5.2c-1.2,12.1-2.4,24.1-3.6,36.2
	c-0.1,1.3,0.1,2.6,0.7,3.7c2.1,4,7.7,5,11.8,4.6c16.6-1.5,33.3-2.7,49.9-3.7c3.5-0.2,7.1-1.4,9.9-3.4c2.2-1.6,4.1-3.8,4.6-6.5
	c0.1-0.3,0.1-0.7,0.1-1c0.5-11.5,1-23,1.5-34.5l0.2-4.7C218.1,318.3,210.9,318.6,203.7,318.9z M46.1,333.1l-0.1,0.6
	c-2.6,15-5.2,29.9-7.8,44.9c-1.3,7.3,5.3,9.5,11.4,8.5c16.6-3,33.3-5.7,50-8.1c4.1-0.6,8.1-2.4,11.2-5.1c2.5-2.1,4.8-5.2,5.2-8.6
	c0.7-5.5,1.3-11,1.9-16.5c0.4-3.8,0.9-7.6,1.3-11.4c-7.5,2.1-15.1,4.2-22.6,6.4c-0.8,6.1-1.7,12.1-2.5,18.2l-0.4,2.6l-2.6,0.4
	c-8.1,1.1-16.3,2.2-24.4,3.3l-4.6,0.6l0.7-4.5c1.6-11.3,3.4-22.6,5.2-34C60.8,331.2,53.4,332.1,46.1,333.1z"/>
</svg>
