<?xml version="1.0" encoding="utf-8"?>
<!-- Generator: Adobe Illustrator 19.0.0, SVG Export Plug-In . SVG Version: 6.00 Build 0)  -->
<svg version="1.1" id="Layer_1" xmlns="http://www.w3.org/2000/svg" xmlns:xlink="http://www.w3.org/1999/xlink" x="0px" y="0px"
	 viewBox="0 0 603.1 544.7" style="enable-background:new 0 0 603.1 544.7;" xml:space="preserve">
<style type="text/css">
	.st0{fill-rule:evenodd;clip-rule:evenodd;fill:#CE171F;}
	.st1{fill-rule:evenodd;clip-rule:evenodd;fill:#DB0030;}
	.st2{fill-rule:evenodd;clip-rule:evenodd;}
	.st3{fill-rule:evenodd;clip-rule:evenodd;fill:#820505;}
	.st4{fill-rule:evenodd;clip-rule:evenodd;fill:#450101;}
	.st5{fill-rule:evenodd;clip-rule:evenodd;fill:#FFFFFF;}
	.st6{fill-rule:evenodd;clip-rule:evenodd;fill:#B3B3B3;}
	.st7{fill-rule:evenodd;clip-rule:evenodd;fill:#666666;}
	.st8{fill-rule:evenodd;clip-rule:evenodd;fill:#FF4C4C;}
	.st9{fill:#FFFFFF;}
	.st10{fill-rule:evenodd;clip-rule:evenodd;fill:#ADB0B8;}
</style>
<path class="st0" d="M266.8,12.7c3.7-2.8,8.3-5.2,11.8-6.6c6.4-2.6,15.2-4.3,22.2-4.2l0.5,0c0.8,0,1.6,0,2.5,0.1l1.9,0.1v0.1
	c5.8,0.5,11.9,1.9,16.9,4c3.5,1.4,8.2,3.8,11.8,6.6c1.4-1,2.8-2,4.1-2.7c6.4-3.5,13.4-4.7,20.5-2.8c7.9,2.1,12.8,7.8,14,15.8
	c0.7,4.8,0,11.4-2.5,15.6c-1.8,3-4.8,6-7.9,8c2-0.1,4,0,5.4,0.3l8.8,1.9l-6.3,6.5c-2.1,2.2-9.2,9.8-10,12.4c-0.8,2.3-0.6,5-1.2,7.4
	c-0.5,2.1-1.4,3.9-2.8,5.5c-1,1.1-2.2,2.2-3.6,3.1c0.8,2,1.2,4.1,1,6c-0.2,1.7-0.9,3.6-1.8,5.4c4.3,2.4,8.8,4.8,13.1,6.6
	c2.1,0.9,4.7,2,7,2.9c2.1-1.2,4.7-2.1,6.7-2.7c2-0.6,4.5-1.1,6.9-1.4c2-3.5,4-7.3,5.5-10.9c0.7-1.7,1.9-4.7,2.1-6.6l0.3-9.4l7.6,5.6
	c4.6,3.4,9.4,8.5,12.5,13.2c2.7,4.2,5.3,9.6,7,14.6c2.4,1.1,4.9,2.5,6.9,4c0.4,0.3,0.9,0.7,1.4,1c0.7-1,1.4-2.1,2-3.1
	c0.8-1.3,1.8-3.3,2.2-4.8l2-9.6l6.6,7.3c4,4.5,6.3,12.4,7,18.1c0.6,5.2,0,11.9-2.2,17.1c2,3.2,4.2,6.3,6.4,9.3
	c1.8,2.6,4,5.4,6.2,7.7c1.4,1.4,3.1,2.7,4.7,4c2.2,1.7,4.3,3.4,6.4,5.1c5.2,4.4,9.9,9.2,13.5,15.1c4.2,7,8.3,15,11.3,22.6
	c5.6,5.4,11,11.1,16.1,16.9c4,4.5,8.5,9.8,11.6,15c6.8,11.7,10.2,30.3,3.2,42.5c-7.8,13.7-22.9,20.9-38.3,21.5
	c-7.9,0.3-15.9-0.5-23.6-1.9c-2.8-0.5-5.8-1.1-8.6-1.9c-4.6,2.1-10.3,3.4-15,3.6c-3.3,0.2-6.8-0.1-10.2-0.4c-4.6-0.5-9.4-1.1-13.9-2
	c-5.7,0.7-11.8,1-17.6,0.9c-3.1,0-6.3-0.2-9.3-0.7c-2.4-0.4-5.7-1-8.8-1.8c-0.4,1.4-0.9,2.8-1.6,3.9c-1.1,1.8-3.8,4.1-5.3,5.6
	c-3.4,3.2-7.1,6.2-10.8,9.1c-10.3,8.1-21.8,15.6-33.8,21.1c-8.9,4.1-18.5,7.3-28.3,8.3l-5.5,0.5V340c-8.2-1.4-16.2-4.2-23.6-7.6
	c-12-5.5-23.4-13-33.8-21.1c-3.7-2.9-7.3-5.9-10.8-9.1c-1.5-1.4-4.2-3.8-5.3-5.6c-0.7-1.1-1.3-2.5-1.6-3.9c-3.2,0.8-6.5,1.4-8.8,1.8
	c-3.1,0.5-6.2,0.6-9.3,0.7c-5.7,0.1-11.8-0.3-17.6-0.9c-4.6,0.9-9.3,1.5-13.9,2c-3.3,0.3-6.8,0.6-10.2,0.4c-4.7-0.3-10.4-1.6-15-3.6
	c-2.8,0.8-5.8,1.4-8.6,1.9c-7.7,1.4-15.8,2.2-23.6,1.9c-15.4-0.5-30.5-7.8-38.3-21.5c-6.9-12.2-3.6-30.8,3.2-42.5
	c3.1-5.2,7.5-10.5,11.6-15c5.1-5.8,10.6-11.5,16.1-16.9c3.1-7.7,7.1-15.7,11.3-22.6c3.6-5.9,8.2-10.7,13.5-15.1
	c2.1-1.8,4.3-3.4,6.4-5.1c1.6-1.3,3.2-2.6,4.7-4c2.2-2.2,4.3-5.1,6.2-7.7c2.2-3,4.3-6.2,6.4-9.3c-2.2-5.2-2.8-11.9-2.2-17.1
	c0.6-5.8,3-13.7,7-18.1l6.6-7.3l2,9.6c0.4,1.5,1.4,3.5,2.2,4.8c0.6,1,1.3,2.1,2,3.1c0.5-0.4,0.9-0.7,1.4-1c2-1.5,4.5-2.8,6.9-4
	c1.7-5,4.2-10.4,7-14.6c3.1-4.7,7.9-9.9,12.5-13.2l7.6-5.6l0.3,9.4c0.2,1.9,1.4,4.9,2.1,6.6c1.5,3.6,3.5,7.4,5.5,10.9
	c2.4,0.2,4.9,0.8,6.9,1.4c2,0.6,4.5,1.5,6.7,2.7c2.4-0.8,4.9-2,7-2.9c4.3-1.9,8.8-4.2,13.1-6.6c-0.9-1.8-1.5-3.7-1.8-5.4
	c-0.2-1.9,0.2-4,1-6c-1.4-0.9-2.6-2-3.6-3.1c-1.4-1.6-2.3-3.4-2.8-5.5c-0.6-2.4-0.5-5.1-1.2-7.4c-0.9-2.6-7.9-10.2-10-12.4l-6.3-6.5
	l8.8-1.9c1.4-0.3,3.4-0.4,5.4-0.3c-3.1-2-6.1-5-7.9-8c-2.5-4.2-3.2-10.8-2.5-15.6c1.2-8,6.2-13.7,14-15.8c7.1-1.9,14.2-0.7,20.5,2.8
	C264,10.8,265.4,11.7,266.8,12.7"/>
<path class="st1" d="M469,448.4c-16.9,18.6-37.9,35-56.7,47.7c-18.3,12.3-37.8,23.3-57.9,32.1c-16.4,7.2-35,13.9-52.8,16.3l-1,0.1
	l-1-0.1c-17.8-2.4-36.4-9.1-52.8-16.3c-20.1-8.9-39.7-19.9-57.9-32.1c-18.8-12.6-39.8-29.1-56.7-47.7c-18.2,6-36.1,13.2-54.2,21.4
	l-4.1,1.9L0,414.2l29.7-153.9l7.1,1.1c7.6,1.1,15.2,2.2,22.8,3.2c11.1-123.3,114.7-220,240.9-220c126.2,0,229.8,96.7,240.9,220
	c7.6-1,15.2-2,22.8-3.2l7.1-1.1l29.7,153.9l-73.8,57.5l-4.1-1.9C505.1,461.7,487.2,454.4,469,448.4"/>
<path class="st2" d="M300.6,369l-185.4,43.2c29.6,57.1,129.9,117.5,185.4,124.9c55.4-7.5,155.8-67.9,185.4-124.9L300.6,369z"/>
<path class="st1" d="M390.9,440.7c9.2-4.4,17.9-8.9,25.8-13.3v-26.6l-25.8-5.7V440.7z M339.3,461.5c8.6-2.8,17.3-5.9,25.8-9.4v-62.8
	l-25.8-5.7V461.5z M210.2,395l-25.8,5.7v26.6c7.9,4.4,16.6,8.9,25.8,13.3V395z M261.8,383.6l-25.8,5.7v62.8
	c8.5,3.4,17.2,6.6,25.8,9.4V383.6z M300.6,375l-12.9,2.9v90.5c4.4,0.9,8.7,1.6,12.9,2.1c4.2-0.5,8.5-1.2,12.9-2.1v-90.5L300.6,375z"
	/>
<path class="st1" d="M165.8,440c37.8,35.8,97.5,68.4,134.7,74.8v-15c37.2-6.3,84.7-21,134.7-59.8c-45.3,24.3-98.2,43.5-134.7,48.2
	C264.1,483.5,211.1,464.2,165.8,440"/>
<path class="st2" d="M300.6,52.1C430,52.1,534.9,157,534.9,286.5c0,23.9-3.6,47-10.3,68.7H76.4c-6.7-21.7-10.3-44.8-10.3-68.7
	C66.2,157,171.1,52.1,300.6,52.1"/>
<path class="st2" d="M300.6,8.4c0,0-10-0.3-19.9,3.7c-9.9,4-13.5,8.6-13.5,8.6s-9.7-10.9-23.2-7.4c-13.5,3.6-11,19.3-8.4,23.7
	c2.6,4.4,7.5,7,7.5,7s-1-9.1,0.7-12c1.8-2.9,3.4,0,6.5,6.3c3.1,6.3,4.6,6.8,4.6,6.8s-0.2,3.5,0.1,6.5c0.3,3,0.6,3.9,0.6,3.9
	s-4.4-2.1-11.5-2.8c-7.1-0.7-9.2-0.2-9.2-0.2s9.7,9.9,11.1,14.1c1.4,4.2,0.2,7.8,3,11c2.8,3.2,6.6,4.1,6.6,4.1s-3.2,4.5-2.9,7.6
	c0.4,3.1,3.6,7.7,3.6,7.7s-10.9,6.4-17.8,9.3c-6.9,2.9-9.7,3.7-9.7,3.7s-2-1.8-7.2-3.4c-5.2-1.5-8.3-1.2-8.3-1.2s-4.8-8.3-7.2-13.8
	c-2.3-5.5-2.4-8.2-2.4-8.2s-6.6,4.9-11.1,11.8c-4.5,6.9-7,15.3-7,15.3s-4.7,2-8,4.3c-3.2,2.3-5,4.4-5,4.4s-3.2-4.1-5.5-7.9
	c-2.2-3.8-2.8-6.2-2.8-6.2s-4.5,5.1-5.7,15.2c-1.1,10.1,3,16.7,3,16.7s-9.1,14.5-14.6,20c-5.5,5.5-16.7,11.7-23.6,23
	c-6.8,11.3-11.2,22.6-11.2,22.6s-20.8,20-27.3,31.2c-6.5,11.2-8.6,27.5-3.2,37c5.4,9.5,17,18.1,33.7,18.7
	c16.7,0.6,32.2-4.1,32.2-4.1s6.4,3.5,14.6,3.9c8.2,0.5,23.4-2.4,23.4-2.4s15.7,2,26,0.4c10.3-1.6,13.9-3.8,13.9-3.8
	s-0.6,5.2,1.3,8.1c1.9,2.9,38.9,37.8,73.4,41.2v0c34.5-3.4,71.7-38.4,73.5-41.3c1.9-2.9,1.3-8.1,1.3-8.1s3.6,2.2,13.9,3.8
	c10.3,1.6,26-0.4,26-0.4s15.2,2.9,23.4,2.4c8.2-0.5,14.6-3.9,14.6-3.9s15.5,4.7,32.2,4.1c16.7-0.6,28.2-9.2,33.7-18.7
	c5.4-9.5,3.4-25.8-3.2-37c-6.5-11.2-27.3-31.2-27.3-31.2s-4.4-11.3-11.2-22.6c-6.8-11.3-18.1-17.5-23.6-23c-5.5-5.5-14.6-20-14.6-20
	s4.1-6.5,3-16.7c-1.1-10.1-5.7-15.2-5.7-15.2s-0.5,2.4-2.8,6.2c-2.2,3.8-5.5,7.9-5.5,7.9s-1.8-2.1-5-4.4c-3.2-2.3-8-4.3-8-4.3
	s-2.5-8.4-7-15.3c-4.5-6.9-11.1-11.8-11.1-11.8s-0.1,2.7-2.4,8.2c-2.3,5.5-7.2,13.8-7.2,13.8s-3-0.4-8.3,1.2
	c-5.2,1.5-7.2,3.4-7.2,3.4s-2.8-0.8-9.7-3.7c-6.9-2.9-17.8-9.3-17.8-9.3s3.2-4.6,3.6-7.7c0.4-3.1-2.9-7.6-2.9-7.6s3.8-0.9,6.6-4.1
	s1.6-6.8,3-11c1.4-4.2,11.1-14.1,11.1-14.1s-2.1-0.5-9.2,0.2c-7.1,0.7-11.5,2.8-11.5,2.8s0.3-0.8,0.6-3.9c0.3-3,0.1-6.5,0.1-6.5
	s1.5-0.6,4.6-6.8c3.1-6.3,4.7-9.2,6.5-6.3c1.8,2.9,0.7,12,0.7,12s4.9-2.6,7.5-7s5.1-20.1-8.4-23.7c-13.5-3.6-23.2,7.4-23.2,7.4
	s-3.6-4.6-13.5-8.6C311.2,8.5,301.8,8.5,300.6,8.4L300.6,8.4z"/>
<path class="st3" d="M240.2,223c0,0,3.7-0.7,6.5,3.1c2.7,3.7,5.1,34.4,3.4,38.8c-1.8,4.4-5.7,3.6-7.7,3.4c-2-0.2-4.7-1.9-4.7-1.9
	s2.2-4.3,2.6-13.9C240.7,242.8,240.2,223,240.2,223 M230.2,209c0,0,6.4,6,7.4,10.3c1,4.3-0.7,11-1.1,21.1c-0.5,10.1-1,21.3-3.9,27.1
	c-2.9,5.8-8.1,6.4-12.7,5.6c-4.6-0.7-7.2-4.3-7.2-4.3s7.4-18.8,9.8-27.7c2.4-8.9,1.9-15.1,4.1-21.3
	C228.8,213.6,230.1,211.7,230.2,209z M213.9,199.7c0,0,5.4,0.1,8.7,3.9c3.3,3.8,2.6,6.9,1.1,10c-1.5,3.1-3.9,18.5-7.8,32.8
	c-3.8,14.3-7.8,21-15.6,22c-7.9,1-15.9-3.5-16.9-10.9c-1-7.5,2.2-11.9,9.3-21.5C199.8,226.3,212.1,205.8,213.9,199.7z M209,186.9
	c0,0-8.7-8.5-16.7-4.9c-8,3.6-10.6,14.3-18.7,26.1c-8.1,11.8-16.3,17.3-17.8,22.7s1.1,12,8.7,15.7c7.6,3.7,14.2,1.2,17.9-5.3
	c3.6-6.5,17.5-25.9,22.8-35.2C210.6,196.9,213.6,193.6,209,186.9z M184.1,184.4c0,0-13.1-2.8-16.1-1.4c-3,1.4-7.7,8-14.9,12.6
	c-7.2,4.6-7.7,4.2-8.3,8.6c-0.7,4.4,0.9,18.2,2.7,19.5c1.8,1.2,2.1-1.4,7.6-5.1c5.5-3.7,6.8-9.4,6.8-9.4s-0.2-1.7-4.1-2.1
	c-3.9-0.4-4.5,0-4.5,0s1.4-1.8,6.6-2.3C165.2,204.2,179,193.1,184.1,184.4z M151.1,236.6c0,0,5.1,21.2,13.4,31.4
	c8.3,10.2,19.8,12.3,33.7,11.7c13.8-0.7,27.5-2.5,27.5-2.5s-6.3,0.2-10.3-0.6c-4-0.7-8-4.3-8-4.3s-13.6,2.2-20.5,0.2
	c-6.9-2.1-11.6-17.6-11.6-17.6S157.4,258.7,151.1,236.6z M450.1,236.7c0,0-5.1,21.2-13.4,31.4c-8.3,10.2-19.8,12.3-33.7,11.7
	c-13.8-0.7-27.5-2.5-27.5-2.5s6.3,0.2,10.3-0.6c4-0.7,8-4.3,8-4.3s13.6,2.2,20.5,0.2c6.9-2.1,11.6-17.6,11.6-17.6
	S443.7,258.7,450.1,236.7z M417,184.4c0,0,13.1-2.8,16.1-1.4c3,1.4,7.7,8,14.9,12.6c7.2,4.6,7.7,4.2,8.3,8.6
	c0.7,4.4-0.9,18.2-2.7,19.5c-1.8,1.2-2.1-1.4-7.6-5.1c-5.5-3.7-6.8-9.4-6.8-9.4s0.2-1.7,4.1-2.1c3.9-0.4,4.5,0,4.5,0
	s-1.4-1.8-6.6-2.3C435.9,204.2,422.1,193.1,417,184.4z M392.1,187c0,0,8.7-8.5,16.7-4.9c8,3.6,10.6,14.3,18.7,26.1
	c8.1,11.8,16.3,17.3,17.8,22.7c1.5,5.4-1.1,12-8.7,15.7c-7.6,3.7-14.2,1.2-17.9-5.3c-3.6-6.5-17.5-25.9-22.8-35.2
	C390.5,196.9,387.5,193.6,392.1,187z M387.2,199.7c0,0-5.4,0.1-8.7,3.9c-3.3,3.8-2.6,6.9-1.1,10c1.5,3.1,3.9,18.5,7.8,32.8
	c3.8,14.3,7.8,21,15.6,22c7.9,1,15.9-3.5,16.9-10.9c1-7.5-2.2-11.9-9.3-21.5C401.3,226.3,389,205.9,387.2,199.7z M370.9,209
	c0,0-6.4,6-7.4,10.3c-1,4.3,0.7,11,1.1,21.1c0.5,10.1,1,21.3,3.9,27.1c2.9,5.8,8.1,6.4,12.7,5.6c4.6-0.7,7.2-4.3,7.2-4.3
	s-7.4-18.8-9.8-27.7c-2.4-8.9-1.9-15.1-4.1-21.3C372.3,213.6,371,211.8,370.9,209z M360.9,223c0,0-3.7-0.7-6.5,3.1
	c-2.7,3.7-5.1,34.4-3.4,38.8c1.8,4.4,5.7,3.6,7.7,3.4c2-0.2,4.7-1.9,4.7-1.9s-2.2-4.3-2.6-13.9C360.4,242.8,360.9,223,360.9,223z
	 M240.3,114.4c0,0,3.8,4.4,6.4,9.2c2.5,4.8,2.5,4.9,2.5,4.9s-10.5-7.4-19.3-11.7c-8.8-4.3-15.9-4.3-15.9-4.3s0.9,10.7-9.9,14.3
	c-10.9,3.6-18.1-5.3-18.1-5.3l-3.2,1.9c0,0,2.5,7.5-2.7,15.2c-5.2,7.8-15.1,7.8-15.1,7.8s-2.1,6.3-7.3,16.7
	c-5.2,10.4-7.3,12.9-7.3,12.9s2.4-5.3,3.6-11.7c1.2-6.4,1.2-6.4,1.2-6.4s-10.4,7.9-19.4,16.9c-9,9.1-10.8,22.1-14.7,33.1
	c-3.9,11-5.8,13.8-5.8,13.8s1.1-8.5,0.8-12.2c-0.3-3.6-0.3-3.6-0.3-3.6s-12,15.8-19.6,23.7c-7.7,7.9-11.8,21.5-10.7,27.9
	c1.1,6.4,7.8,8,18.4,8c10.7,0,17.3-0.2,17.3-0.2l-13.2,5.9c0,0,1.9,3.8,11.1,4.1c9.3,0.3,15.2-2.6,15.2-2.6s-7.7-9.3-7.3-23.5
	c0.4-14.2,5.8-21.9,5.8-21.9s-5.3-0.5-9.5-1.2c-4.2-0.7-4.2-0.7-4.2-0.7s8.4-4.3,13.5-9.3c5.1-5,5.2-5.5,5.2-5.5s-0.2-12.6,1.9-14.6
	c2.1-2.1,5.6-1.6,13.9-9.9c8.3-8.3,12.5-10.7,19.9-9.8c7.4,0.8,14.5,3.4,14.5,3.4s8.6-0.8,16.8-10.9c8.2-10.1,6.4-16.7,6.4-16.7
	s-1.8,3.8-6.6,7.9c-4.9,4-4.9,4-4.9,4s6.4-5.9,10.2-16.7c3.8-10.9,2.8-15.3,2.8-15.3s2.4,7.9,3.7,21.9c1.3,14,13.7,30.6,19.8,37.4
	c6.2,6.8,9.2,8.8,9.2,8.8s-6.9-2.1-13.3-5.7c-6.4-3.6-9.2-5.3-9.2-5.3s4.7,12.2,15.1,20.7c10.4,8.5,26.8,17.6,26.8,17.6
	s-5.1-0.4-8.8-0.8c-3.7-0.4-4.3-0.7-4.3-0.7s0.9,3,1.2,8.8c0.3,5.8,0.3,5.9,0.3,5.9s2.1,3.4,5.9,5.2c3.8,1.8,4.3,1.8,4.3,1.8
	s-2.9,0.8-5.7,1.4c-2.8,0.6-3.7,0.5-3.7,0.5s-0.4,8.7,0.2,11.2c0.6,2.5,2.3,5.8,4.8,8.3c2.5,2.5,3.8,3,3.8,3s-3.3-0.6-6.3-1.6
	c-2.9-1.1-3.5-1.6-3.5-1.6s-4.2,3.1-3.2,6.7c0.9,3.6,14.6,14.7,24.6,18.7c10,4,15.3,3.8,17.9-2.8c2.5-6.6,2.5-10.9,2.5-10.9
	s-4.7,0.6-14.2-3.5c-9.5-4-12.2-7.1-12.2-7.1s5.2,2.7,13.1,0.3c7.9-2.4,12.4-6.9,10.7-14.1c-1.8-7.2-21-13-21-13s16.5,2.3,20.7-1.6
	c4.2-3.9,5.5-11.5-0.9-19.3c-6.5-7.8-17.7-11.1-25.6-16c-8-4.9-10-7.2-10-7.2s16.9,7.1,27.6,8.3c10,1.1,16.6-11.3,17.4-12.8
	c0.7,1.4,7.3,13.9,17.4,12.8c10.7-1.2,27.6-8.3,27.6-8.3s-2.1,2.3-10,7.2c-8,4.9-19.2,8.2-25.6,16c-6.5,7.8-5.1,15.3-0.9,19.3
	c4.2,3.9,20.7,1.6,20.7,1.6s-19.2,5.8-21,13c-1.8,7.2,2.8,11.7,10.7,14.1c7.9,2.4,13.1-0.3,13.1-0.3s-2.6,3.1-12.2,7.1
	c-9.5,4-14.2,3.5-14.2,3.5s0,4.2,2.5,10.9c2.5,6.6,7.9,6.8,17.9,2.8c10-4,23.7-15.1,24.6-18.7c0.9-3.6-3.2-6.7-3.2-6.7
	s-0.5,0.5-3.5,1.6c-2.9,1.1-6.3,1.6-6.3,1.6s1.3-0.5,3.8-3c2.5-2.5,4.3-5.8,4.8-8.3c0.6-2.5,0.2-11.2,0.2-11.2s-0.9,0.1-3.7-0.5
	c-2.8-0.6-5.7-1.4-5.7-1.4s0.4,0,4.3-1.8c3.8-1.8,5.9-5.2,5.9-5.2s0-0.1,0.3-5.9c0.3-5.8,1.2-8.8,1.2-8.8s-0.6,0.3-4.3,0.7
	c-3.7,0.4-8.8,0.8-8.8,0.8s16.5-9.1,26.8-17.6c10.4-8.5,15.1-20.7,15.1-20.7s-2.8,1.7-9.2,5.3c-6.4,3.6-13.3,5.7-13.3,5.7
	s3-2,9.2-8.8c6.2-6.8,18.5-23.4,19.8-37.4c1.3-14,3.7-21.9,3.7-21.9s-1,4.5,2.8,15.3c3.8,10.9,10.2,16.7,10.2,16.7s0,0-4.9-4
	c-4.9-4-6.6-7.9-6.6-7.9s-1.9,6.5,6.4,16.7c8.2,10.1,16.8,10.9,16.8,10.9s7.1-2.5,14.5-3.4c7.4-0.8,11.6,1.5,19.9,9.8
	c8.3,8.3,11.9,7.9,13.9,9.9c2.1,2.1,1.9,14.6,1.9,14.6s0.1,0.5,5.2,5.5c5.1,5,13.5,9.3,13.5,9.3s0,0-4.2,0.7
	c-4.2,0.7-9.5,1.2-9.5,1.2s5.4,7.7,5.8,21.9c0.4,14.2-7.3,23.5-7.3,23.5s6,2.9,15.2,2.6c9.3-0.3,11.1-4.1,11.1-4.1l-13.2-5.9
	c0,0,6.6,0.2,17.3,0.2c10.7,0,17.3-1.7,18.4-8c1.1-6.4-3-20-10.7-27.9c-7.7-7.9-19.6-23.7-19.6-23.7s0,0-0.3,3.6
	c-0.3,3.6,0.8,12.2,0.8,12.2s-1.9-2.8-5.8-13.8c-3.9-11-5.7-24-14.7-33.1c-9-9.1-19.4-16.9-19.4-16.9s0,0,1.2,6.4
	c1.2,6.4,3.6,11.7,3.6,11.7s-2.1-2.5-7.3-12.9c-5.2-10.4-7.3-16.7-7.3-16.7s-9.8,0-15.1-7.8c-5.2-7.8-2.7-15.2-2.7-15.2l-3.2-1.9
	c0,0-7.3,9-18.1,5.3c-10.9-3.6-9.9-14.3-9.9-14.3s-7.1,0-15.9,4.3c-8.8,4.3-19.3,11.7-19.3,11.7s0-0.1,2.5-4.9
	c2.5-4.8,6.4-9.2,6.4-9.2c-4.5-4-21.1-13-23.1-10.5c-2,2.4-1.3,5.2,0.9,9c2.2,3.7,5.7,6.6,5.7,6.6s0,0-5.1-1c-5.1-1-6-1-6-1
	s-0.3,8.2-2.5,14.7c-2.2,6.5-6.1,8.6-6.1,8.6s0.7,0,7.8-1.6c7.1-1.6,13.3-5.1,14-5.6c0.7-0.5-2.5,2.7-13.5,11.9
	c-10.9,9.2-14.7,6.9-20.8,9.4c-5.7,2.4-11,10-11.6,11c-0.6-0.9-5.9-8.7-11.7-11c-6.1-2.5-9.8-0.3-20.8-9.4
	c-10.9-9.2-14.2-12.3-13.5-11.9c0.7,0.5,6.9,4,14,5.6c7.1,1.6,7.8,1.6,7.8,1.6s-3.8-2.2-6.1-8.6c-2.2-6.5-2.5-14.7-2.5-14.7
	s-0.8,0-6,1c-5.1,1-5.1,1-5.1,1s3.5-2.9,5.7-6.6c2.2-3.7,2.9-6.5,0.9-9C261.4,101.4,244.8,110.4,240.3,114.4z"/>
<path class="st1" d="M103.4,221.6c-2.4,2.9-4.9,5.7-7,7.9c-7.7,7.9-11.8,21.5-10.7,27.9c1.1,6.4,7.8,8,18.4,8
	c8.4,0,14.3-0.1,16.4-0.2l-18.4-2.8c0,0,0.3-7.7-2.7-12.6c-3-5-5.5-6.5-5.5-6.5s-2.7-6.3,6-17.1C101,224.8,102.2,223.2,103.4,221.6
	 M152.5,170.1c0.5-1.8,1.1-3.8,1.5-5.9c1.2-6.4,1.2-6.4,1.2-6.4s-10.4,7.9-19.4,16.9c-9,9.1-10.8,22.1-14.7,33.1
	c-1.8,5.1-3.2,8.4-4.1,10.5c2.8-5.4,9-16.2,16.9-24.9C144.9,181.4,147.4,177.3,152.5,170.1z M225,114.7c-6.4-2.3-11-2.3-11-2.3
	s0.9,10.7-9.9,14.3c-10.9,3.6-18.1-5.3-18.1-5.3l-3.2,1.9c0,0,2.5,7.5-2.7,15.2c-1.2,1.7-2.6,3.1-4.1,4.2c1.1-0.4,2.2-0.9,3.5-1.5
	c9-3.9,12-8.2,12-8.2s-3.4,9.7-7.9,14c-4.5,4.3-5.1,4.5-5.1,4.5s10.3-1.9,21.3-8.8c11-6.9,13.2-10.5,13.2-10.5l0,0
	c0-0.3-0.1-0.5-0.1-0.5s0.1,0.2,0.2,0.7c1.4,2,13.6,18.5,31.7,20.9C264.2,156,249.5,123.6,225,114.7z M497.8,221.7
	c2.4,2.9,4.9,5.7,7,7.9c7.7,7.9,11.8,21.5,10.7,27.9c-1.1,6.4-7.8,8-18.4,8c-8.4,0-14.3-0.1-16.4-0.2l18.4-2.8c0,0-0.3-7.7,2.7-12.6
	c3-5,5.5-6.5,5.5-6.5s2.7-6.3-6-17.1C500.1,224.8,498.9,223.3,497.8,221.7z M448.6,170.1c-0.5-1.8-1.1-3.8-1.5-5.9
	c-1.2-6.4-1.2-6.4-1.2-6.4s10.4,7.9,19.4,16.9c9,9.1,10.8,22.1,14.7,33.1c1.8,5.1,3.2,8.4,4.1,10.5c-2.8-5.4-9-16.2-16.9-24.9
	C456.2,181.4,453.8,177.3,448.6,170.1z M376.1,114.7c6.4-2.3,11-2.3,11-2.3s-0.9,10.7,9.9,14.3c10.9,3.6,18.1-5.3,18.1-5.3l3.2,1.9
	c0,0-2.5,7.5,2.7,15.2c1.2,1.7,2.6,3.1,4.1,4.2c-1.1-0.4-2.2-0.9-3.5-1.5c-9-3.9-12-8.2-12-8.2s3.4,9.7,7.9,14
	c4.5,4.3,5.1,4.5,5.1,4.5s-10.3-1.9-21.3-8.8c-11-6.9-13.2-10.5-13.2-10.5l0,0c0-0.3,0.1-0.5,0.1-0.5s-0.1,0.2-0.2,0.7
	c-1.4,2-13.6,18.5-31.7,20.9C336.9,156,351.6,123.6,376.1,114.7z M240.3,114.4c0,0,0,0.1,0.1,0.2c2.7,0.6,5.9,4.6,5.9,4.6
	s6.1-5.6,11.7-9.5c3.2-2.3,5.3-3.3,6.4-3.8c-0.2-0.7-0.5-1.3-1-2C261.4,101.4,244.8,110.4,240.3,114.4z M360.8,114.4
	c0,0,0,0.1-0.1,0.2c-2.7,0.6-5.9,4.6-5.9,4.6s-6.1-5.6-11.7-9.5c-3.2-2.3-5.3-3.3-6.4-3.8c0.2-0.7,0.5-1.3,1-2
	C339.7,101.4,356.4,110.4,360.8,114.4z M273,243c4.1,0.5,15.8,1.4,19.2-1.8c2.6-2.4,4.1-6.3,3.3-10.7c-1.7-1.7-5.4-1.6-12,2.5
	c-10.7,6.5-17.5,3-16.3,6.3C267.7,240.6,269.9,242,273,243z M269.8,270.7c-0.8-0.7-1.1-1-1.1-1s5.2,2.7,13.1,0.3
	c7.3-2.3,11.8-6.3,10.9-12.7c-5.8-1.2-6.5,1-13.1,4.7c-6.5,3.6-16.7-2.3-16.5,2.6C263.3,267.2,266,269.2,269.8,270.7z M267.9,290.5
	c2.3,1.4,4.7,2.6,6.8,3.4c10,4,15.3,3.8,17.9-2.8c2.2-5.8,2.5-9.7,2.5-10.7c-3.9,0.5-7.2,6.1-12,5.7c-5.5-0.5-17.9-5.9-18-0.7
	C265.1,287.1,266.1,288.8,267.9,290.5z M328.1,243.1c-4.1,0.5-15.8,1.4-19.2-1.8c-2.6-2.4-4.1-6.3-3.3-10.7c1.7-1.7,5.4-1.6,12,2.5
	c10.7,6.5,17.5,3,16.3,6.3C333.4,240.6,331.2,242,328.1,243.1z M331.3,270.8c0.8-0.7,1.1-1,1.1-1s-5.2,2.7-13.1,0.3
	c-7.3-2.3-11.8-6.3-10.9-12.7c5.8-1.2,6.5,1,13.1,4.7c6.5,3.6,16.7-2.3,16.5,2.6C337.8,267.2,335.1,269.3,331.3,270.8z M333.3,290.5
	c-2.3,1.4-4.7,2.6-6.8,3.4c-10,4-15.3,3.8-17.9-2.8c-2.2-5.8-2.5-9.7-2.5-10.7c3.9,0.5,7.2,6.1,12,5.7c5.5-0.5,17.9-5.9,18-0.7
	C336,287.1,335,288.8,333.3,290.5z M360.9,223c0,0-3-0.5-5.5,2c1.3,0,2.6,0.3,3.3,1.7c1.4,3-1,11.2-0.1,23.4
	c0.9,12.2,0.9,15.7-2.7,16.2c-2.1,0.3-4-3-5.3-5.9c0.1,2.1,0.3,3.8,0.6,4.5c1.8,4.4,5.7,3.6,7.7,3.4c2-0.2,4.7-1.9,4.7-1.9
	s-2.2-4.3-2.6-13.9C360.4,242.8,360.9,223,360.9,223z M370.9,209c0,0-2.5,2.3-4.6,5.1c2.2,0.4,5,2.2,6.2,8.5
	c1.8,9.8-0.9,15.4,3.1,26.6c4,11.1,8.1,19,3.4,21c-3.7,1.6-8.5-1.4-10.4-2.8l0.1,0.1c2.9,5.8,8.1,6.4,12.7,5.6
	c4.6-0.7,7.2-4.3,7.2-4.3s-7.4-18.8-9.8-27.7c-2.4-8.9-1.9-15.1-4.1-21.3C372.3,213.6,371,211.8,370.9,209z M387.2,199.7
	c0,0-2.3,0-4.7,1.1c7.7-0.4,4.4,9.2,9.5,20.5c5.1,11.3,12.8,20.5,17.3,26.8c4.5,6.3,3.5,15.1-3,20.1c-0.1,0.1-0.1,0.1-0.2,0.2
	c5.9-1,10.8-5,11.6-10.8c1-7.5-2.2-11.9-9.3-21.5C401.3,226.3,389,205.9,387.2,199.7z M395.8,184.2L395.8,184.2L395.8,184.2
	c3.3-2.1,8.3-4.2,13-2.1c8,3.6,10.6,14.3,18.7,26.1c8.1,11.8,16.3,17.3,17.8,22.7c1.5,5.4-1.1,12-8.7,15.7c-1.2,0.6-2.4,1-3.6,1.3
	c4.5-2.2,8.7-5,6.9-13.9c-1.8-9-12.6-10.7-19.6-21.8c-6.9-11.1-8-19.9-11.9-25.8C404.5,180.5,395.8,184.2,395.8,184.2L395.8,184.2z
	 M417,184.4c0,0,13.1-2.8,16.1-1.4c3,1.4,7.7,8,14.9,12.6c7.2,4.6,7.7,4.2,8.3,8.6c0.7,4.4-0.9,18.2-2.7,19.5
	c-1.3,0.9-1.8-0.3-4.2-2.5c0.8-2.9,2.2-9.2,1.7-13.2c-0.7-5.4,0-6.9-6.4-10.2c-6.5-3.3-11.5-9.6-11.5-9.6s-4.3,4.1-12,1.8
	C419.5,188.2,418.1,186.2,417,184.4z M380.3,167.6c-3.1,6.8-7.5,13.3-11.3,18.2c-5.1,4.3-12.6,8.8-23.5,13c-1.9,0.8-3.8,1.5-5.5,2.1
	c-5.9,2.2-15.3,5.4-22.1,6.2c-10.1,1.1-16.7-11.4-17.4-12.8c-0.7,1.5-7.3,13.9-17.4,12.8c-6.8-0.8-16.3-4-22.1-6.2
	c-1.7-0.7-3.5-1.4-5.5-2.1c-10.9-4.2-18.3-8.7-23.5-13c-3.8-4.9-8.2-11.4-11.3-18.2c0.1,0.2,10.9,14.4,28.2,20.2
	c17.4,5.8,23.9,3.6,34.4-5.1c10-8.2,16.5-5,17.1-4.7c0.8-0.4,7.3-3.3,17.1,4.7c10.5,8.6,17,10.9,34.4,5.1
	C369.4,182.1,380.1,167.8,380.3,167.6z"/>
<path class="st3" d="M88.3,242.5c-0.4,1.1-0.8,2.1-1.1,3.2C87.5,244.6,87.8,243.6,88.3,242.5 M115.7,221.1c-0.2,0.4-0.3,0.5-0.3,0.5
	s1.1-8.5,0.8-12.2c-0.3-3.6-0.3-3.6-0.3-3.6s-12,15.8-19.6,23.7c-2.7,2.7-4.9,6.2-6.7,9.8c7-14.2,21.3-20.7,21.3-20.7s0,0-0.5,5.4
	c-0.5,5.4-2.5,10.3-2.5,10.3s0,0,3.8-5.4C113.9,226,114.7,224.1,115.7,221.1z M131.9,179.7c-0.6,1-1.2,2-1.8,3
	C130.7,181.7,131.2,180.7,131.9,179.7z M151,174.3c0.8-2,2.2-5.9,3-10.2c1.2-6.4,1.2-6.4,1.2-6.4s-9.1,6.9-17.7,15.2
	c5.6-4.9,11.4-6.3,11.4-6.3s-0.2,0.8-1.6,5.8c-1.4,5-4.6,10.9-4.6,10.9S144.9,181.9,151,174.3z"/>
<path class="st3" d="M330.4,28.3l-1.4,1.1c0,0-1.6-1.7-6.3-3.6c-4.6-2-5.1-1.8-5.1-1.8s1.9,1.7,3.3,6c1.4,4.3,1.4,5.7,1.4,5.7
	s-3.5,6.1-0.2,12.1c3.3,6,7.2,7.2,11.4,7c4.1-0.3,6.3-2.7,6.3-2.7s-0.5,5.8-0.9,8.5c-0.4,2.7-0.4,2.7-0.4,2.7s4.2-3.3,8.9-4.5
	c4.7-1.3,7.2-1.7,7.2-1.7s-4.5,5.1-4.7,6.8s-0.2,6.9-1.8,9.8c-1.6,2.9-3.6,3.2-3.6,3.2s-3.6-3.5-2.7-4.5c1-1.1,2.6-2.1,3.5-4.4
	c0.9-2.3,1.1-2.7,1.1-2.7s-2.1,1.1-5.2,2.5c-3.2,1.5-2.5,8.4-0.5,12.8c2.1,4.4,1.9,7.9,0.1,12.2c-1.8,4.3-6.1,5.5-9.9,10.1
	c-3.8,4.6-6.3,12-6.3,12s0.7-1.8,3.2-4.3c2.5-2.5,3.2-3.2,3.2-3.2s-2.1,8.6-4.1,13.6c-2.1,5.1-4.3,5.6-4.3,5.6l-2.6-3.4l1.3-1.9
	c0,0-4.7-0.6-8.2,1.9c-3.6,2.5-5,7.5-5,7.5l2.3-2.3c0,0,0.4,1.2,2,3c1.6,1.8,2.2,1.8,2.2,1.8s-8.8,10.5-14.2,10v0
	c-5.5,0.4-14.1-10-14.1-10s0.5,0,2.2-1.8c1.6-1.8,2-3,2-3l2.3,2.3c0,0-1.4-5.1-5-7.5c-3.6-2.5-8.2-1.9-8.2-1.9l1.3,1.9l-2.6,3.4
	c0,0-2.2-0.6-4.3-5.6c-2.1-5.1-4.1-13.6-4.1-13.6s0.7,0.7,3.2,3.2c2.5,2.5,3.2,4.3,3.2,4.3s-2.4-7.4-6.3-12
	c-3.8-4.6-8.1-5.8-9.9-10.1c-1.8-4.3-2-7.8,0.1-12.2c2.1-4.4,2.7-11.3-0.5-12.8c-3.2-1.4-5.2-2.5-5.2-2.5s0.2,0.4,1.1,2.7
	c0.9,2.3,2.5,3.3,3.5,4.4c1,1.1-2.7,4.5-2.7,4.5s-2-0.3-3.6-3.2c-1.6-2.9-1.6-8.1-1.8-9.8c-0.2-1.7-4.7-6.8-4.7-6.8s2.5,0.4,7.2,1.7
	c4.7,1.3,8.9,4.5,8.9,4.5s0,0-0.4-2.7c-0.4-2.7-0.9-8.5-0.9-8.5s2.2,2.4,6.3,2.7c4.1,0.3,8.1-1,11.4-7c3.3-6-0.2-12.1-0.2-12.1
	s0-1.4,1.4-5.7c1.4-4.3,3.3-6,3.3-6s-0.5-0.2-5.1,1.8c-4.6,2-6.3,3.6-6.3,3.6l-1.4-1.1c10.6-12.8,30-12.4,30-12.4v0
	C302.3,15.9,320.3,16.1,330.4,28.3"/>
<path class="st1" d="M325.2,113.8L325.2,113.8L325.2,113.8z M307.5,73.8c0-0.1,0.1-0.5,0.2-1c0.4-1.6,1.8-5.1,5-9.1
	c4.2-5.1,10-7.7,13.4-7.3c3.5,0.5,7.1,5.8,7.1,5.8l-0.2-0.1c1.1,1,2,1.8,2.5,1.9c1.6,0.4,1.8-0.1,2.9-0.8l0,0l0,0l0,0l0,0l0,0h0
	c0.5-0.4,4.4-3.3,8.8-4.5c4.7-1.3,7.2-1.7,7.2-1.7s-4.5,5.1-4.7,6.8c-0.2,1.7-0.2,6.9-1.8,9.8c-1.6,2.9-3.6,3.2-3.6,3.2
	s-2-1.9-2.6-3.3c1-0.8,3.3-0.9,4.3-2.1c1.3-1.5,0.6-2.9,2-6.6c1.4-3.6,2.2-5.1,2.2-5.1s-2.1,0.3-6.4,2.6c-4.3,2.3-5.7,3.8-5.3,7.7
	c0.1,0.5,0.2,1.1,0.4,1.9c-0.2,2.7,0.5,6.1,1.7,8.6c2.1,4.4,1.9,7.9,0.1,12.2c-1.8,4.3-6.1,5.5-9.9,10.1c-2.4,2.9-4.3,6.9-5.3,9.5
	l3.9-13.9c0,0,5.5-2,8-8.5c2.5-6.5-6.1-22.4-6.1-22.4s-1.1,9.1-10.5,12.6c-7.7,2.9-11.7-3.8-12.9-6.3
	C307.9,73.8,307.7,73.8,307.5,73.8z M300.5,105.7L300.5,105.7c-5.6-1.3-6.3-6.8-9.3-7.1c-3.1-0.3-8-1.5-7.9-6.8
	c0.1-5.3,3.4-5.8,6.6-4.1c3.2,1.7,4.8,7.3,4.8,7.3s3.8-19.3,5.8-21.7v-0.1c0,0,0,0,0.1,0c0,0,0.1-0.1,0.1-0.1v0.2
	c2,2.3,5.8,21.7,5.8,21.7s1.6-5.6,4.8-7.3c3.2-1.7,6.5-1.2,6.6,4.1c0.1,5.3-4.8,6.5-7.9,6.8c-3.1,0.3-3.8,5.8-9.3,7.1v0l0,0
	C300.6,105.7,300.5,105.7,300.5,105.7z M275.9,113.8L275.9,113.8L275.9,113.8L275.9,113.8z M262.6,63.3L262.6,63.3L262.6,63.3
	L262.6,63.3L262.6,63.3L262.6,63.3L262.6,63.3c-0.6-0.4-4.5-3.4-8.9-4.5c-4.7-1.3-7.2-1.7-7.2-1.7s4.5,5.1,4.7,6.8
	c0.2,1.7,0.2,6.9,1.8,9.8c1.6,2.9,3.6,3.2,3.6,3.2s2-1.9,2.6-3.3c-1-0.8-3.3-0.9-4.3-2.1c-1.3-1.4-0.6-2.9-2-6.6
	c-1.4-3.6-2.2-5.1-2.2-5.1s2.1,0.3,6.4,2.6c4.3,2.3,5.7,3.8,5.3,7.7c-0.1,0.5-0.2,1.1-0.4,1.9c0.2,2.7-0.5,6.1-1.7,8.6
	c-2.1,4.4-1.9,7.9-0.1,12.2c1.8,4.3,6.1,5.5,9.9,10.1c2.4,2.9,4.3,6.9,5.3,9.5l-3.9-13.9c0,0-5.5-2-8-8.5
	c-2.5-6.5,6.1-22.4,6.1-22.4s1.1,9.1,10.5,12.6c7.7,2.9,11.7-3.8,12.9-6.3c0.2,0,0.4,0,0.6,0c0-0.1-0.1-0.5-0.2-1v0
	c-0.4-1.6-1.8-5.1-5-9c-4.2-5.1-10-7.7-13.4-7.3c-3.5,0.5-7.1,5.8-7.1,5.8s0.1,0,0.2-0.1c-1.1,1-2,1.8-2.5,1.9
	C263.9,64.5,263.7,64,262.6,63.3z M330.4,28.3l-1.4,1.1c0,0-1.6-1.7-6.3-3.6c-4.6-2-5.1-1.8-5.1-1.8s1.9,1.7,3.3,6
	c1.4,4.4,1.4,5.7,1.4,5.7s-1.1,1.9-1.5,4.7c-1.2,3.1-3.3,7.2-6.5,10.4c-5.6,5.5-12.7,8.3-13.7,8.7v0l0,0l-0.1,0v-0.1
	c-1-0.4-8.1-3.1-13.7-8.7c-3.2-3.2-5.3-7.3-6.5-10.4c-0.4-2.8-1.5-4.7-1.5-4.7s0-1.4,1.4-5.7c1.4-4.3,3.3-6,3.3-6s-0.5-0.2-5.1,1.8
	c-4.6,2-6.3,3.6-6.3,3.6l-1.4-1.1c10.6-12.8,30-12.4,30-12.4v0C302.3,15.9,320.3,16.1,330.4,28.3z"/>
<path class="st4" d="M311.8,124.3c-1,1-1.8,2.2-2.3,3.3C310.2,126.3,310.9,125.1,311.8,124.3L311.8,124.3z M324.7,114.8L324.7,114.8
	L324.7,114.8L324.7,114.8L324.7,114.8L324.7,114.8c0.1-0.3,0.9-2,3.2-4.3c2.5-2.5,3.2-3.2,3.2-3.2s-2.1,8.6-4.1,13.6
	c-2.1,5.1-4.3,5.6-4.3,5.6l-2.6-3.4l1.3-1.9C321.4,121.2,322.6,120,324.7,114.8z M346.5,65.3c-0.4,0.2-2.3,1.2-5.2,2.5
	c-1.5,0.7-2.2,2.6-2.2,5l0,0c-1.2-5.9,0.3-7.3,3.5-9.4c3.1-2.2,6.7-3.2,6.7-3.2S347.7,62.3,346.5,65.3z M300.6,132.8v-0.2
	c0.6-0.7,2.9-1,5-4c2.3-3.3,1.9-6.9,1.9-6.9l-6.9,0.3v0l-0.1,0c0,0,0,0,0.1-0.1c0,0.1,0.1,0.1,0.1,0.1v-0.2c0.4-0.5,1.5-1.8,4.4-3.4
	c3.5-2,8-1.9,8-1.9s-0.1,0.1-1.3,2.5c-1.2,2.3-2.2,3.6-2.2,3.6s7.4-3.9,11.5-8.6c4.1-4.7,8.6-15.7,8.6-15.7s0.3-0.2,2.4-1.5
	c2.1-1.3,5.8-4.8,4.9-11c-0.9-6.2-6.3-10.4-6.3-10.4s0,2.6-0.7,5.7c-0.7,3.1-2.3,5.6-2.3,5.6s5.1,1.1,5.1,3.7c0,2.7-3.3,3.3-5,5
	c-1.7,1.7-10.2,4.9-10.2,4.9s3.4-2.2,3.7-6.6c0.3-4.3-1.2-7.9-1.2-7.9s1.4,0.4,3.4-1c2-1.4,3.1-6,3.1-6l-5.3,1.2c0,0,4-0.9,6.2-6.5
	c2.2-5.5,1.7-11.9,1.7-11.9l-2.2,0.7l-17.1,12.8c0,0,0-0.1,0.1-3.9c0.1-3.8,3.1-7.7,3.1-7.7s-9.4,4.3-8,10.7
	c1.4,6.4,5.5,13.8,5.5,13.8s1.4-2.3,4.1-2.3c2.7,0,4,5.5,2.5,8.5c-1.5,3-5.7,2.7-5.7,2.7s0.8,0,1.6-1c0.9-0.9,0.8-2.3,0.8-2.3
	s-3.7-0.9-5.4,1.9c-1.7,2.8-2,6.6-5.1,8.3c-1.1,0.6-1.9,0.7-2.6,0.7v0c-0.7,0.1-1.5-0.1-2.7-0.7c-3.2-1.7-3.4-5.5-5.1-8.3
	c-1.7-2.8-5.4-1.9-5.4-1.9s0,1.4,0.8,2.3c0.9,0.9,1.6,1,1.6,1s-4.2,0.3-5.7-2.7c-1.5-3-0.2-8.5,2.5-8.5c2.7,0,4.1,2.3,4.1,2.3
	s4.1-7.4,5.5-13.8c1.4-6.4-8-10.7-8-10.7s3,3.9,3.1,7.7c0.1,3.8,0.1,3.9,0.1,3.9l-17.1-12.8l-2.2-0.7c0,0-0.4,6.4,1.7,11.9
	c2.2,5.5,6.2,6.5,6.2,6.5l-5.3-1.2c0,0,1.2,4.6,3.1,6c2,1.4,3.4,1,3.4,1s-1.5,3.6-1.2,7.9c0.3,4.3,3.7,6.6,3.7,6.6
	s-8.5-3.2-10.2-4.9c-1.7-1.7-5-2.3-5-5c0-2.7,5.1-3.7,5.1-3.7s-1.6-2.5-2.3-5.6c-0.7-3.1-0.7-5.7-0.7-5.7s-5.3,4.2-6.3,10.4
	c-0.9,6.2,2.8,9.7,4.9,11c2.1,1.3,2.4,1.5,2.4,1.5s4.4,11,8.6,15.7c4.1,4.7,11.5,8.6,11.5,8.6s-1-1.3-2.2-3.6
	c-1.2-2.3-1.3-2.5-1.3-2.5s4.4-0.1,8,1.9c2.8,1.6,4,3,4.4,3.4v0.2l-6.9-0.3c0,0-0.4,3.6,1.9,6.9c2.1,3,4.4,3.3,5,4v0.2
	c0-0.1,0-0.1,0.1-0.2C300.6,132.7,300.6,132.8,300.6,132.8z M292.1,128.6c0.5,1.2,0.8,2,0.8,2l-2.3-2.3c0,0-0.4,1.2-2,3
	c-1.6,1.8-2.2,1.8-2.2,1.8s8.6,10.4,14.1,10v0c5.4,0.6,14.2-10,14.2-10s-0.5,0-2.2-1.8c-1.6-1.8-2-3-2-3l-2.3,2.3c0,0,0.2-0.9,0.8-2
	c-1.6,3.4-2.8,7.4-4.3,8.6c-1.9,1.5-3.6,2-4,2.1c-0.2,0-2-0.4-4.1-2.1C295,136,293.7,132,292.1,128.6z M289.3,124.3
	c1,1,1.8,2.2,2.3,3.3C291,126.2,290.2,125.1,289.3,124.3L289.3,124.3z M276.4,114.8L276.4,114.8L276.4,114.8L276.4,114.8
	L276.4,114.8L276.4,114.8c-0.1-0.3-0.9-2-3.2-4.3c-2.5-2.5-3.2-3.2-3.2-3.2s2.1,8.6,4.1,13.6c2.1,5.1,4.3,5.6,4.3,5.6l2.6-3.4
	l-1.3-1.9C279.7,121.2,278.5,120,276.4,114.8z M254.6,65.3c0.4,0.2,2.3,1.2,5.2,2.5c1.5,0.7,2.2,2.6,2.2,5l0,0
	c1.2-5.9-0.3-7.3-3.5-9.4c-3.1-2.2-6.7-3.2-6.7-3.2S253.4,62.3,254.6,65.3z M255.3,67c-0.1-0.3-0.2-0.5-0.3-0.7
	C255.1,66.5,255.2,66.8,255.3,67z M283.5,24c0,0-1.9,1.7-3.3,6c-1.4,4.3-1.4,5.7-1.4,5.7s2.6,3.5,2.7,10c0.1,6.5-5,9.9-9.4,11.1
	c-4.4,1.2-8.4-0.7-8.4-0.7l-1.2,6.8c0-0.3-0.1-1-0.4-2.4c-0.4-2.7-0.9-8.5-0.9-8.5s2.2,2.4,6.3,2.7c4.1,0.3,8.1-1,11.4-7
	c3.3-6-0.2-12.1-0.2-12.1s3-3.2,7.3-7.3c4.3-4.1,9.7-5.8,9.7-5.8S291.3,22.1,283.5,24z M272.4,29.1c0.6-0.5,2.4-1.9,6-3.4
	c1.3-0.6,2.3-1,3.1-1.2C276.2,26.1,273.2,28.4,272.4,29.1z M317.6,24c0,0,1.9,1.7,3.3,6c1.4,4.4,1.4,5.7,1.4,5.7s-2.6,3.5-2.7,10
	c-0.1,6.5,5,9.9,9.4,11.1c4.4,1.2,8.4-0.7,8.4-0.7l1.2,6.8c0-0.3,0.1-1,0.4-2.4c0.4-2.7,0.9-8.5,0.9-8.5s-2.2,2.4-6.3,2.7
	c-4.1,0.3-8.1-1-11.4-7c-3.3-6,0.2-12.1,0.2-12.1s-3-3.2-7.3-7.3c-4.3-4.1-9.7-5.8-9.7-5.8S309.8,22.2,317.6,24z M328.8,29.2
	c-0.6-0.5-2.4-1.9-6-3.4c-1.3-0.6-2.3-1-3.1-1.2C324.9,26.1,327.9,28.4,328.8,29.2z M345.8,67c0.1-0.3,0.2-0.5,0.3-0.7
	C346,66.5,345.9,66.8,345.8,67z"/>
<path class="st5" d="M291.7,72.6c0,0-3.4-1.3-8.3-4.4c-4.9-3.2-7.5-6.4-7.5-6.4s-2,8.6,1.5,12.7c3.5,4.1,9.9,3.6,9.9,3.6
	s2.5-0.5,3.8-2.1C292.3,74.4,291.7,72.6,291.7,72.6 M309.4,72.7c0,0,3.4-1.3,8.3-4.4c4.9-3.2,7.5-6.4,7.5-6.4s2,8.6-1.5,12.7
	c-3.5,4.1-9.9,3.6-9.9,3.6s-2.5-0.5-3.8-2.1C308.8,74.5,309.4,72.7,309.4,72.7z"/>
<path class="st6" d="M291.7,72.6c0,0-3.4-1.3-8.3-4.4c-3.2-2.1-5.4-4.1-6.5-5.3c-0.4,0.2-0.7,0.4-1,0.7c-0.1,0.1-0.2,0.2-0.3,0.3
	c-0.4,2.8-0.6,7.8,1.8,10.6c1.7,2,4.2,2.9,6.2,3.3l-0.3-0.3c0,0-4-0.9-5.3-4c-1.3-3,2.1-5.5,2.1-5.5s-0.7,4.4,2.2,6
	c2.9,1.6,4.5-0.1,4.5-0.1l2.6,0.8c0,0-2.2,1.6-3.7,1.9C284,77,284,77,284,77s1.3,1.6,5.7,0.2c0.5-0.3,1-0.7,1.3-1.1
	C292.3,74.4,291.7,72.6,291.7,72.6 M309.4,72.7c0,0,3.4-1.3,8.3-4.4c3.2-2.1,5.4-4.1,6.5-5.3c0.4,0.2,0.7,0.4,1,0.7
	c0.1,0.1,0.2,0.2,0.3,0.3c0.4,2.8,0.6,7.8-1.8,10.6c-1.7,2-4.2,2.9-6.2,3.3l0.3-0.3c0,0,4-0.9,5.3-4c1.3-3-2.1-5.5-2.1-5.5
	s0.7,4.4-2.2,6c-2.9,1.6-4.5-0.1-4.5-0.1l-2.6,0.8c0,0,2.2,1.6,3.7,1.9c1.6,0.3,1.6,0.3,1.6,0.3s-1.3,1.6-5.7,0.2
	c-0.5-0.3-1-0.7-1.3-1.1C308.8,74.5,309.4,72.7,309.4,72.7z"/>
<path class="st2" d="M267.1,62.8c0,0,4.4-5.6,6.8-5.3c2.4,0.3,3.7,3.8,8.9,8c5.1,4.3,7.9,5.3,7.9,5.3s0-2-0.9-4.3
	c-0.9-2.3-1.4-2.9-1.4-2.9s5.4,3,6.5,7.8c1.1,4.8-4.3,11.6-4.3,11.6l0.3-4.3c0,0-2.5,0.5-5.7-0.1c-3.2-0.6-5.3-2.2-5.3-2.2
	s1.4,1.1,5.6,0.3c4.2-0.7,5.5-2.5,5.5-2.5l-5.2-2.9c0,0-0.1,2.3-2.1,2.7c-2,0.4-3.1-2.1-3.2-3.9c0-1.8,0.2-2.5,0.2-2.5l-3.2-2.4
	c0,0-1,2-1,4.7c0,2.7,1.1,4.4,1.1,4.4s-2.9-2.7-4.1-6c-1.2-3.3-1.1-6.8-1.1-6.8S269,61.1,267.1,62.8"/>
<path class="st2" d="M334.1,62.8c0,0-4.4-5.6-6.8-5.3c-2.4,0.3-3.7,3.8-8.9,8c-5.1,4.3-7.9,5.3-7.9,5.3s0-2,0.9-4.3
	c0.9-2.3,1.4-2.9,1.4-2.9s-5.4,3-6.5,7.8s4.3,11.6,4.3,11.6l-0.3-4.3c0,0,2.5,0.5,5.7-0.1c3.2-0.6,5.3-2.2,5.3-2.2s-1.4,1.1-5.6,0.3
	c-4.2-0.7-5.5-2.5-5.5-2.5l5.2-2.9c0,0,0.1,2.3,2.1,2.7c2,0.4,3.1-2.1,3.2-3.9c0-1.8-0.2-2.5-0.2-2.5l3.2-2.4c0,0,1,2,1,4.7
	c0,2.7-1.1,4.4-1.1,4.4s2.9-2.7,4.1-6s1.1-6.8,1.1-6.8S332.1,61.2,334.1,62.8"/>
<path class="st2" d="M290.8,88.3c0,0-2-1.9-4-1.2c-2,0.7-2.9,4.5-1.9,7.2c1,2.7,6.1,2.9,6.1,2.9s-0.5-1.1-1.2-1.9
	c-0.7-0.8-1.2-1.1-1.2-1.1s2.9-0.3,4.6,1.8s2.7,4.1,4.7,6c2,1.8,2.8,1.7,2.8,1.7v13.4c0,0-11.8-1.4-16.2-3.9c-4.4-2.5-6-5.3-6-5.3
	l0,2.6c0,0-2.6-2.5-4.3-6.3c-1.8-3.8-2.4-5.9-2.4-5.9s-4.7-2.2-5.2-5.1c-0.5-2.9,0.6-3.9,0.6-3.9s-0.3-5.2,0.7-7.8
	c1.1-2.6,1.1-2.6,1.1-2.6s0.4,2.2,2.2,4.8c1.8,2.7,2.7,3,2.7,3s-4.6,2.3-4.3,3.5c0.2,1.2,4.2,1.4,4.2,1.4s4.7,5.6,10.2,8.7
	c5.6,3.1,10.5,3.1,10.5,3.1l-2.7-2.9c0,0-5-0.8-7.3-3.4c-2.3-2.6-2.1-6-2.1-6s-1.3,0.7-1.7,2c-0.4,1.3-0.3,1.5-0.3,1.5
	s-0.8-3.1,1.3-7c2.1-3.9,5.6-5.1,7-4.1C289.9,84.6,290.8,88.3,290.8,88.3"/>
<path class="st2" d="M310.3,88.3c0,0,2-1.9,4-1.2c2,0.7,2.9,4.5,1.9,7.2c-1,2.7-6.1,2.9-6.1,2.9s0.5-1.1,1.2-1.9
	c0.7-0.8,1.2-1.1,1.2-1.1s-2.9-0.3-4.6,1.8c-1.7,2.2-2.7,4.1-4.7,6c-2,1.8-2.8,1.7-2.8,1.7v13.4c0,0,11.8-1.4,16.2-3.9
	c4.4-2.5,6-5.3,6-5.3l0,2.6c0,0,2.6-2.5,4.3-6.3c1.8-3.8,2.4-5.9,2.4-5.9s4.7-2.2,5.2-5.1c0.5-2.9-0.6-3.9-0.6-3.9s0.3-5.2-0.7-7.8
	c-1.1-2.6-1.1-2.6-1.1-2.6s-0.4,2.2-2.2,4.8c-1.8,2.7-2.7,3-2.7,3s4.6,2.3,4.3,3.5c-0.2,1.2-4.2,1.4-4.2,1.4s-4.7,5.6-10.2,8.7
	c-5.6,3.1-10.5,3.1-10.5,3.1l2.7-2.9c0,0,5-0.8,7.3-3.4c2.3-2.6,2.1-6,2.1-6s1.3,0.7,1.7,2c0.4,1.3,0.3,1.5,0.3,1.5s0.8-3.1-1.3-7
	c-2.1-3.9-5.6-5.1-7-4.1C311.2,84.6,310.3,88.3,310.3,88.3"/>
<path class="st5" d="M284,107.5c0,0,5.1,3.2,16.6,3.8v0c11.4-0.6,16.5-3.8,16.5-3.8c0,1.8-1.6,3.5-1.6,3.5c-5.2,2.8-15,3.6-15,3.6v0
	c-1.2-0.1-10-1-14.9-3.6C285.6,111,284,109.4,284,107.5 M280.6,106c0,0-0.5,1.4-0.2,2.1c0.2,0.8,2,1.8,2,1.8S281,106.4,280.6,106z
	 M279.9,100c0,0,0.5,3.6,1,4c0.5,0.3,1.6-2.1,1.6-2.1L279.9,100z M273.6,94.8c0,0,0.9,1.3,2.2,2.2c1.3,0.9,1.5,0.9,1.5,0.9
	s-0.7,0.7-1,3.6c-0.2,2.9,0,3.4,0,3.4S272.9,101,273.6,94.8z M320.5,106.1c0,0,0.5,1.4,0.2,2.1c-0.2,0.8-2,1.8-2,1.8
	S320.1,106.4,320.5,106.1z M321.2,100c0,0-0.5,3.6-1,4c-0.5,0.3-1.6-2.1-1.6-2.1L321.2,100z M327.5,94.8c0,0-0.9,1.3-2.2,2.2
	c-1.3,0.9-1.5,0.9-1.5,0.9s0.7,0.7,1,3.6c0.2,2.9,0,3.4,0,3.4S328.2,101,327.5,94.8z M317,103.3c0,0,0.8,1.8,0.2,2.5
	c-0.5,0.7-8.3,3.8-16.8,4v0c-8.4-0.3-16.1-3.3-16.7-4c-0.5-0.7,0.2-2.5,0.2-2.5c8.9,3.8,16.5,3.4,16.5,3.4v0
	C301.7,106.7,308.8,106.8,317,103.3z"/>
<path class="st6" d="M317,103.3c0,0,0.7,1.5,0.3,2.3c0-0.3-0.7-1.6-1.3-1.4c-0.6,0.2-1.1,2.4-1.5,2.9c-0.4,0.2-0.9,0.3-1.5,0.5
	c0.2-0.2,0.4-0.4,0.5-0.6c0.2-0.5-1.1-2-2.2-1.4c-1.1,0.6-1.2,2.8-1.2,2.8c-2.1,0.5-4.6,1-7.2,1.3c0.1,0,5-0.9,5.6-1.4
	c0.6-0.6,0.8-2.3,0.8-2.3s-2.9,0.9-8.7,0.7C302.2,106.7,309.2,106.6,317,103.3 M317.1,107.6L317.1,107.6c-0.4,0.8-1.4,3.1-2.1,3
	c-0.6-0.1-0.8-1.2-0.9-1.7c-0.1,0-0.2,0.1-0.3,0.1l-0.5,0.7c-0.7,1.1-1.6,2.4-2.4,2.3c-0.8-0.1-0.3-2.1-0.3-2.1l0,0l0,0
	c-1,0.2-2.1,0.5-3.4,0.7l0,0c-0.7,0.1-1.5,0.3-2.3,0.3c-0.7,0.1-1.5,0.2-2.3,0.2c4.7-0.1,7-0.7,7-0.7s0.4,1.5-0.8,2.3
	c-1.2,0.8-8.3,1.8-8.3,1.8s9.8-0.8,15-3.6C315.5,111,317.1,109.4,317.1,107.6z M284,107.5L284,107.5c0.4,0.8,1.4,3.1,2.1,3
	c0.6-0.1,0.8-1.2,0.9-1.7c0.1,0,0.2,0.1,0.3,0.1l0.5,0.7c0.7,1.1,1.6,2.4,2.4,2.3c0.8-0.1,0.3-2.1,0.3-2.1l0,0l0,0
	c1,0.2,2.1,0.5,3.4,0.7l0,0c0.7,0.1,1.5,0.3,2.3,0.3c0.7,0.1,1.5,0.2,2.3,0.2c-4.7-0.1-7-0.7-7-0.7s-0.4,1.5,0.8,2.3
	c1.2,0.8,8.3,1.8,8.3,1.8s-9.8-0.8-15-3.6C285.6,111,284,109.4,284,107.5z M325.5,96.8c-0.1,0.1-0.2,0.1-0.3,0.2
	c-1.3,0.9-1.5,0.9-1.5,0.9s0.7,0.7,1,3.6c0.2,2.7,0,3.3,0,3.4C326.3,101.1,325.5,96.8,325.5,96.8L325.5,96.8z M275.6,96.8
	c0.1,0.1,0.2,0.1,0.3,0.2c1.3,0.9,1.5,0.9,1.5,0.9s-0.7,0.7-1,3.6c-0.2,2.7,0,3.3,0,3.4C274.9,101.1,275.6,96.8,275.6,96.8
	L275.6,96.8z M281.1,104c0.5,0,1.5-2.1,1.5-2.1l-2.6-1.9l1.4,1C281.3,101,281.5,103.1,281.1,104L281.1,104z M281.3,109.2
	c0.5,0.4,1.1,0.7,1.1,0.7s-1.4-3.6-1.8-3.9c0.1,0.4,0.8,2.5,0.7,3C281.3,109.1,281.3,109.2,281.3,109.2z M319.8,109.2
	c-0.5,0.4-1.1,0.7-1.1,0.7s1.4-3.6,1.8-3.9c-0.1,0.4-0.8,2.5-0.7,3C319.8,109.2,319.8,109.2,319.8,109.2z M320.1,104
	c-0.5,0-1.5-2.1-1.5-2.1l2.6-1.9l-1.4,1C319.8,101,319.6,103.2,320.1,104L320.1,104z M284.1,103.2c0,0-0.7,1.5-0.3,2.3
	c0-0.3,0.7-1.6,1.3-1.4c0.6,0.2,1.1,2.4,1.5,2.9c0.4,0.2,0.9,0.3,1.5,0.5c-0.2-0.2-0.4-0.4-0.5-0.6c-0.2-0.5,1.1-2,2.2-1.4
	c1.1,0.6,1.2,2.8,1.2,2.8c2.1,0.5,4.6,1,7.2,1.3c-0.1,0-5-0.9-5.6-1.4c-0.6-0.6-0.8-2.3-0.8-2.3s2.9,0.9,8.7,0.7
	C298.9,106.7,291.9,106.6,284.1,103.2z"/>
<path class="st2" d="M293.6,121.7l7,0.4v4.3C300.6,126.4,295.6,126.6,293.6,121.7"/>
<path class="st2" d="M307.5,121.7l-7,0.4v4.3C300.5,126.4,305.5,126.7,307.5,121.7"/>
<path class="st6" d="M330.7,33.1l-2.9,3.8c0,0,0.5,3.3,2.9,5.8c2.5,2.4,4.2,3.3,4.2,3.3s1.4-0.1,2.5-1.7c1-1.6,1-3.3,1-3.3
	S333.4,37.7,330.7,33.1 M336,27.6l-3.8,4.3c0,0,1.2,2.7,3.8,4.9c2.6,2.2,3.4,2.5,3.4,2.5s2.1,0,2.9-1.8c0.8-1.8,0.1-2.8,0.1-2.8
	S338.3,32.8,336,27.6z M342.3,22.1c0,0-1.6,0.5-3.1,2c-1.4,1.5-1.9,2.3-1.9,2.3s0.5,2.3,3.1,4.3c2.6,2,3.9,2.5,3.9,2.5
	s1.1-0.1,1.8-1.3c0.7-1.2,0.4-2.5,0.4-2.5S343,26.8,342.3,22.1z M348.7,19.2c0,0-1.8,0.1-3.1,1c-1.4,0.8-1.7,1.4-1.7,1.4
	s0.1,2.3,1.7,4.4c1.6,2.2,2.5,2.8,2.5,2.8s1.3-0.3,2.3-1.3c1-1,0.6-2.8,0.6-2.8S349.1,23,348.7,19.2z M357.9,20.8
	c0,0-5.6-2.3-6.4-1.7c-0.8,0.6-0.9,2.1-0.4,3.8c0.6,1.7,1.2,2.4,1.8,2.5C353.6,25.5,356.3,22.2,357.9,20.8z M356,25.4
	c0,0,1.7-3.2,3.3-3.2c1.6,0,3.6,4.2,3.6,4.2s-1.4-0.6-4.2-0.1C355.7,26.6,355.9,25.8,356,25.4z M357.6,27.2c0,0,2.6-0.5,2.6-0.2
	c0,0.3-1.2,1.5-1.6,1.5C358.1,28.5,357.6,27.4,357.6,27.2z M359.2,29.4c0,0,2.5-1.8,3.2-1.6c0.7,0.2,0.9,4.7,0.5,4.8
	c-0.4,0.1-0.8-0.6-2.4-1.2C359,30.7,359.1,29.6,359.2,29.4z M360.7,32.8c0,0,1.5,0.3,1.6,1.3c0,1-1.6,3-1.6,3V32.8z M270.4,33
	l2.9,3.8c0,0-0.5,3.3-2.9,5.8c-2.5,2.4-4.2,3.3-4.2,3.3s-1.4-0.1-2.5-1.7c-1-1.6-1-3.3-1-3.3S267.7,37.7,270.4,33z M265.1,27.5
	l3.8,4.3c0,0-1.2,2.7-3.8,4.9c-2.6,2.2-3.4,2.5-3.4,2.5s-2.1,0-2.9-1.8c-0.8-1.8-0.1-2.8-0.1-2.8S262.8,32.8,265.1,27.5z
	 M258.9,22.1c0,0,1.6,0.5,3.1,2c1.4,1.5,1.9,2.3,1.9,2.3s-0.5,2.3-3.1,4.3c-2.6,2-3.9,2.5-3.9,2.5s-1.1-0.1-1.8-1.3
	c-0.7-1.2-0.4-2.5-0.4-2.5S258.1,26.8,258.9,22.1z M252.4,19.2c0,0,1.8,0.1,3.1,1c1.4,0.8,1.7,1.4,1.7,1.4s-0.1,2.3-1.7,4.4
	c-1.6,2.2-2.5,2.8-2.5,2.8s-1.3-0.3-2.3-1.3c-1-1-0.6-2.8-0.6-2.8S252,23,252.4,19.2z M243.2,20.8c0,0,5.6-2.3,6.4-1.7
	c0.8,0.6,0.9,2.1,0.4,3.8c-0.6,1.7-1.2,2.4-1.8,2.5C247.5,25.5,244.8,22.2,243.2,20.8z M245.1,25.4c0,0-1.7-3.2-3.3-3.2
	c-1.6,0-3.6,4.2-3.6,4.2s1.4-0.6,4.2-0.1C245.4,26.6,245.2,25.8,245.1,25.4z M243.5,27.2c0,0-2.6-0.5-2.6-0.2c0,0.3,1.2,1.5,1.6,1.5
	C243,28.5,243.5,27.3,243.5,27.2z M241.9,29.3c0,0-2.5-1.8-3.2-1.6c-0.7,0.2-0.9,4.7-0.5,4.8c0.4,0.1,0.8-0.6,2.4-1.2
	C242.1,30.7,242,29.5,241.9,29.3z M240.4,32.8c0,0-1.5,0.3-1.6,1.3c0,1,1.6,3,1.6,3V32.8z M275.2,38.6l2.9,3.4c0,0-0.2,3.7-2.7,7.2
	c-2.4,3.5-6.4,3.2-6.4,3.2s1.9-0.9,1.7-1.2c-0.2-0.3-2.7-3.7-2.7-3.7S272.7,46,275.2,38.6z M325.9,38.6L323,42c0,0,0.2,3.7,2.7,7.2
	c2.4,3.5,6.4,3.2,6.4,3.2s-1.9-0.9-1.7-1.2c0.2-0.3,2.7-3.7,2.7-3.7S328.4,46.1,325.9,38.6z"/>
<path class="st7" d="M243.5,27.2c0,0-2.6-0.5-2.6-0.2c0,0.3,1.2,1.5,1.6,1.5C243,28.5,243.5,27.3,243.5,27.2 M239.8,33
	c0.2,0.6,0.6,4,0.6,4v-4.2C240.4,32.8,240.1,32.8,239.8,33z M240,28.2c0.1,0.2,0.2,0.3,0.2,0.5c0,0.4,0,1.8-0.3,2.4
	c-0.3,0.6-0.6,0.8-0.7,0.9c0.3-0.2,0.7-0.4,1.2-0.6c1.6-0.6,1.5-1.8,1.3-2C241.9,29.3,240.9,28.6,240,28.2z M243.5,23.1
	c0.2,1-0.4,1.6-1.2,2.2c-0.5,0.3-1,0.5-1.5,0.6c0.5,0,1.1,0.1,1.7,0.2c2.9,0.5,2.7-0.4,2.6-0.8C245.1,25.4,244.4,24.1,243.5,23.1z
	 M250.2,21.6c-0.4,0.9-2.2,1.3-3.5,1.2c-1.2-0.1-3.6-1.9-3.6-1.9c1.6,1.4,4.3,4.7,4.9,4.6c0.6-0.1,1.2-0.8,1.8-2.5
	C250,22.4,250.2,22,250.2,21.6z M256.9,23.1c0,0-0.9,2.2-2.1,2.7c-1.2,0.5-3-1.1-3.1-2.1c-0.1-0.5,0.1-1.6,0.3-2.4
	c-0.6,2.4-1.8,3.4-1.8,3.4s-0.4,1.8,0.6,2.8c1,1,2.3,1.3,2.3,1.3s0.9-0.7,2.5-2.8C256.3,24.9,256.7,23.9,256.9,23.1z M258.5,23.5
	L258.5,23.5L258.5,23.5z M262.9,28.3c0,0-1.7,1.8-2.9,2.2c-1.1,0.4-2.6-1.9-2.7-3c0-0.5,0.2-1.4,0.5-2.1c-1.3,2.6-3.1,4-3.1,4
	s-0.4,1.3,0.4,2.5c0.7,1.2,1.8,1.3,1.8,1.3s1.3-0.4,3.9-2.5C261.8,29.9,262.5,29,262.9,28.3z M264.1,29.4L264.1,29.4L264.1,29.4
	L264.1,29.4z M265.7,36.3c-1.3,0.7-3.2-0.9-3.6-2.2c-0.2-0.9,0.7-2.7,1.4-3.8c-2.2,3.1-4.8,4.4-4.8,4.4s-0.7,1,0.1,2.8
	c0.8,1.8,2.9,1.8,2.9,1.8s0.8-0.3,3.4-2.5C265.3,36.6,265.5,36.4,265.7,36.3z M270.4,42.6c-0.8,0.5-2.6-0.5-3.5-1.9
	c-0.8-1.4-0.2-2.5,1.3-4.6c-2.6,3-5.5,4.9-5.5,4.9s0,1.6,1,3.3c1,1.6,2.5,1.7,2.5,1.7S267.9,45,270.4,42.6z M357.6,27.2
	c0,0,2.6-0.5,2.6-0.2c0,0.3-1.2,1.5-1.6,1.5C358.1,28.5,357.6,27.4,357.6,27.2z M361.4,33c-0.2,0.6-0.6,4-0.6,4v-4.2
	C360.7,32.8,361,32.9,361.4,33z M361.1,28.2c-0.1,0.2-0.2,0.3-0.2,0.5c0,0.4,0,1.8,0.3,2.4c0.3,0.6,0.6,0.8,0.7,0.9
	c-0.3-0.2-0.7-0.4-1.2-0.6c-1.6-0.6-1.5-1.8-1.3-2C359.2,29.4,360.2,28.7,361.1,28.2z M357.6,23.2c-0.2,1,0.4,1.6,1.2,2.2
	c0.5,0.3,1,0.5,1.5,0.6c-0.5,0-1.1,0.1-1.7,0.2c-2.9,0.5-2.7-0.4-2.6-0.8C356,25.4,356.7,24.1,357.6,23.2z M350.9,21.6
	c0.4,0.9,2.2,1.3,3.5,1.2c1.2-0.1,3.6-1.9,3.6-1.9c-1.6,1.4-4.3,4.7-4.9,4.6c-0.6-0.1-1.2-0.8-1.8-2.5C351.1,22.5,351,22,350.9,21.6
	z M344.2,23.1c0,0,0.9,2.2,2.1,2.7c1.2,0.5,3-1.1,3.1-2.1c0.1-0.5-0.1-1.6-0.3-2.4c0.6,2.4,1.8,3.4,1.8,3.4s0.4,1.8-0.6,2.8
	c-1,1-2.3,1.3-2.3,1.3s-0.9-0.7-2.5-2.8C344.8,24.9,344.4,23.9,344.2,23.1z M342.6,23.6L342.6,23.6L342.6,23.6z M338.2,28.3
	c0,0,1.7,1.8,2.9,2.2c1.1,0.4,2.6-1.9,2.7-3c0-0.5-0.2-1.4-0.5-2.1c1.3,2.6,3.1,4,3.1,4s0.4,1.3-0.4,2.5c-0.7,1.2-1.8,1.3-1.8,1.3
	s-1.3-0.4-3.9-2.5C339.3,29.9,338.6,29.1,338.2,28.3z M337,29.4L337,29.4L337,29.4z M335.4,36.3c1.3,0.7,3.2-0.9,3.6-2.2
	c0.2-0.9-0.7-2.7-1.4-3.8c2.2,3.1,4.8,4.4,4.8,4.4s0.7,1-0.1,2.8c-0.8,1.8-2.9,1.8-2.9,1.8s-0.8-0.3-3.4-2.5
	C335.8,36.6,335.6,36.5,335.4,36.3z M330.7,42.6c0.8,0.5,2.6-0.5,3.5-1.9c0.8-1.4,0.2-2.5-1.3-4.6c2.6,3,5.5,4.9,5.5,4.9
	s0,1.6-1,3.3c-1,1.6-2.5,1.7-2.5,1.7S333.2,45,330.7,42.6z M325.3,48.7c0.1,0.2,0.2,0.3,0.3,0.5c2.4,3.5,6.4,3.2,6.4,3.2
	s-1.9-0.9-1.7-1.2c0.2-0.3,2.7-3.7,2.7-3.7s-3.4-1.1-5.9-6.1l0,0c0.7,2.2,2.2,3.3,2.1,4.4C329,47,326.9,49.2,325.3,48.7z
	 M275.8,48.7c-0.1,0.2-0.2,0.3-0.3,0.5c-2.4,3.5-6.4,3.2-6.4,3.2s1.9-0.9,1.7-1.2c-0.2-0.3-2.7-3.7-2.7-3.7s3.4-1.1,5.9-6.1l0,0
	c-0.7,2.2-2.2,3.3-2.1,4.4C272.1,47,274.2,49.2,275.8,48.7z"/>
<path class="st6" d="M165,119.2c0,0,2.6,3.7,6.4,6.5c3.7,2.8,5,3.5,5,3.5s0.2,3.3-2.9,5.1c-3.1,1.8-4.4,0.9-4.4,0.9
	S164.5,130.3,165,119.2 M401.2,92.5c0,0,2.9,3.8,5.1,12.3c2.2,8.5,1.4,11.2,1.4,11.2s-1.5,3.2-7,3.1c-5.4-0.1-7.3-4.3-7.3-4.3
	S400.4,103.9,401.2,92.5z M436.1,119.3c0,0-2.6,3.7-6.4,6.5c-3.7,2.8-5,3.5-5,3.5s-0.2,3.3,2.9,5.1c3.1,1.8,4.4,0.9,4.4,0.9
	S436.6,130.3,436.1,119.3z M317.9,124.4c0,0-2.6,0-3.4,0.8c-0.8,0.8-1.4,2.9-1.4,2.9s2.8,3.4,6.5,4c3.7,0.7,5.7-0.4,5.7-0.4
	S322,130.6,317.9,124.4z M283.2,124.4c0,0,2.6,0,3.4,0.8c0.8,0.8,1.4,2.9,1.4,2.9s-2.8,3.4-6.5,4c-3.7,0.7-5.7-0.4-5.7-0.4
	S279.1,130.6,283.2,124.4z M199.9,92.4c0,0-2.9,3.8-5.1,12.3c-2.2,8.5-1.4,11.2-1.4,11.2s1.5,3.2,7,3.1c5.4-0.1,7.3-4.3,7.3-4.3
	S200.7,103.9,199.9,92.4z"/>
<path class="st7" d="M201.2,119.1c4.9-0.4,6.6-4.2,6.6-4.2s-7.1-11-7.8-22.4c0,0-0.9,2.9-0.9,11.4
	C199.1,110,200.4,116.1,201.2,119.1 M399.9,119.1c-4.9-0.4-6.6-4.2-6.6-4.2s7.1-11,7.8-22.5c0,0,0.9,2.9,0.9,11.4
	C402,110,400.7,116.2,399.9,119.1z M436.1,119.3c0,0-2.6,3.7-6.4,6.5c-3.7,2.8-5,3.5-5,3.5s-0.2,3.2,2.8,5c0.9-1.2,2-2.9,3.1-4.6
	C433.1,125.7,436.1,119.3,436.1,119.3z M283.4,124.4c0.6,0,2.6,0.1,3.2,0.8c0.8,0.8,1.4,2.9,1.4,2.9s-2.8,3.4-6.5,4
	c-3.7,0.7-5.7-0.4-5.7-0.4c7.7,0.7,10.1-4.9,10-5.7C285.9,125.2,284.8,124.5,283.4,124.4z M317.7,124.4c-0.6,0-2.6,0.1-3.2,0.8
	c-0.8,0.8-1.4,2.9-1.4,2.9s2.8,3.4,6.5,4c3.7,0.7,5.7-0.4,5.7-0.4c-7.7,0.7-10.1-4.9-10-5.7C315.2,125.2,316.3,124.5,317.7,124.4z
	 M165,119.2c0,0,2.6,3.7,6.4,6.5c3.7,2.8,5,3.5,5,3.5s0.2,3.2-2.8,5c-0.9-1.2-2-2.9-3.1-4.6C168,125.7,165,119.2,165,119.2z"/>
<path class="st6" d="M136.6,259.3l10.7-1l6.6,8.7l-12.1,2.2C141.9,269.3,138.5,266.1,136.6,259.3 M152.4,280.2l12.6-3.3l9,6.8
	C174,283.7,160.9,286.1,152.4,280.2z M138.2,231.5l5.8,0.3c0,0-0.6,2.6-0.4,6.2c0.2,3.6,0.4,4.8,0.4,4.8l-9.7,2.1
	C134.3,244.9,133.7,237.6,138.2,231.5z"/>
<path class="st6" d="M464.5,259.3l-10.7-1l-6.6,8.7l12.1,2.2C459.2,269.3,462.6,266.1,464.5,259.3 M448.7,280.2l-12.6-3.3l-9,6.8
	C427.1,283.7,440.2,286.1,448.7,280.2z M463,231.5l-5.8,0.3c0,0,0.6,2.6,0.4,6.2c-0.2,3.6-0.4,4.8-0.4,4.8l9.7,2.1
	C466.8,245,467.4,237.6,463,231.5z"/>
<path class="st7" d="M136.6,259.3l10.7-1l6.6,8.7l-12.1,2.2l7.8-3.5l-3.1-6.1L136.6,259.3z M153.9,279.8l11.1-2.9l9,6.8
	c0,0-3.8,0.7-8.7,0.4c5.1-0.9,3.6-1.7,3.6-1.7l-5.3-3.6C163.6,278.9,158.3,279.5,153.9,279.8z M144,231.8c0,0-0.6,2.6-0.4,6.2
	c0.2,3.6,0.4,4.8,0.4,4.8l-9.7,2.1c0,0-0.1-1.1,0.1-2.7l7.5-1.4L144,231.8z"/>
<path class="st7" d="M464.5,259.3l-10.7-1l-6.6,8.7l12.1,2.2l-7.8-3.5l3.1-6.1L464.5,259.3z M457.2,231.8c0,0,0.6,2.6,0.4,6.2
	c-0.2,3.6-0.4,4.8-0.4,4.8l9.7,2.1c0,0,0.1-1.1-0.1-2.7l-7.5-1.4L457.2,231.8z M447.2,279.8l-11.1-2.9l-9,6.8c0,0,3.8,0.7,8.7,0.4
	c-5.1-0.9-3.6-1.7-3.6-1.7l5.3-3.6C437.5,278.9,442.8,279.5,447.2,279.8z"/>
<path class="st8" d="M184.1,184.4c0,0-13.1-2.8-16.1-1.4c-3,1.4-7.7,8-14.9,12.6c-7.2,4.6-7.7,4.2-8.3,8.6
	c-0.7,4.4,0.9,18.2,2.7,19.5c1.3,0.9,1.8-0.3,4.2-2.5c-0.8-2.9-2.2-9.2-1.7-13.2c0.7-5.4,0-6.9,6.4-10.2c6.5-3.3,11.5-9.6,11.5-9.6
	s4.3,4.1,12,1.8C181.6,188.1,183.1,186.2,184.1,184.4"/>
<path class="st8" d="M205.4,184.1L205.4,184.1L205.4,184.1c-3.3-2.1-8.3-4.2-13-2.1c-8,3.6-10.6,14.3-18.7,26.1
	c-8.1,11.8-16.3,17.3-17.8,22.7c-1.5,5.4,1.1,12,8.7,15.7c1.2,0.6,2.4,1,3.6,1.3c-4.5-2.2-8.7-5-6.9-13.9c1.8-9,12.6-10.7,19.6-21.8
	c6.9-11.1,8-19.9,11.9-25.8C196.6,180.5,205.4,184.2,205.4,184.1L205.4,184.1z"/>
<path class="st8" d="M213.9,199.7c0,0,2.3,0,4.7,1.1c-7.7-0.4-4.4,9.2-9.5,20.5c-5.1,11.3-12.8,20.5-17.3,26.8
	c-4.5,6.3-3.5,15.1,3,20.1c0.1,0.1,0.1,0.1,0.2,0.2c-5.9-1-10.8-5-11.6-10.8c-1-7.5,2.2-11.9,9.3-21.5
	C199.8,226.3,212.1,205.8,213.9,199.7"/>
<path class="st8" d="M230.2,209c0,0,2.5,2.3,4.6,5.1c-2.2,0.4-5,2.2-6.2,8.5c-1.8,9.8,0.9,15.4-3.1,26.6c-4,11.1-8.1,19-3.4,21
	c3.7,1.6,8.5-1.4,10.4-2.8l-0.1,0.1c-2.9,5.8-8.1,6.4-12.7,5.6c-4.6-0.7-7.2-4.3-7.2-4.3s7.4-18.8,9.8-27.7
	c2.4-8.9,1.9-15.1,4.1-21.3C228.8,213.6,230.1,211.7,230.2,209"/>
<path class="st8" d="M240.2,223c0,0,3-0.5,5.5,2c-1.3,0-2.6,0.3-3.3,1.7c-1.4,3,1,11.2,0.1,23.4c-0.9,12.2-0.9,15.7,2.7,16.2
	c2.1,0.3,4-3,5.3-5.9c-0.1,2.1-0.3,3.8-0.6,4.5c-1.8,4.4-5.7,3.6-7.7,3.4c-2-0.2-4.7-1.9-4.7-1.9s2.2-4.3,2.6-13.9
	C240.7,242.8,240.2,223,240.2,223"/>
<path class="st0" d="M282.8,70.3c0.3-0.1,0.6,0.4,0.7,1c0.1,0.6,0,1.2-0.3,1.2c-0.3,0.1-0.6-0.4-0.7-1
	C282.4,70.9,282.5,70.3,282.8,70.3"/>
<path class="st0" d="M318.3,70.3c-0.3-0.1-0.6,0.4-0.7,1c-0.1,0.6,0,1.2,0.3,1.2c0.3,0.1,0.6-0.4,0.7-1
	C318.7,70.9,318.6,70.4,318.3,70.3"/>
<path class="st4" d="M273.9,271c1.1,0.1,2.4,0.1,3.9-0.1C276.5,271,275.2,271,273.9,271 M229.3,182c2.7,3.8,5.3,6.9,7.2,9.1
	c6.2,6.8,9.2,8.8,9.2,8.8s-6.9-2.1-13.3-5.7c-6.4-3.6-9.2-5.3-9.2-5.3s4.7,12.2,15.1,20.7c10.4,8.5,26.8,17.6,26.8,17.6
	s-5.1-0.4-8.8-0.8c-3.7-0.4-4.3-0.7-4.3-0.7s0.9,3,1.2,8.8c0.3,5.8,0.3,5.9,0.3,5.9s2.1,3.4,5.9,5.2c3.8,1.8,4.3,1.8,4.3,1.8
	s-2.9,0.8-5.7,1.4c-2.8,0.6-3.7,0.5-3.7,0.5s-0.4,8.7,0.2,11.2c0.6,2.5,2.3,5.8,4.8,8.3c2.5,2.5,3.8,3,3.8,3s-3.3-0.6-6.3-1.6
	c-2.9-1.1-3.5-1.6-3.5-1.6s-4.2,3.1-3.2,6.7c0.6,2.4,6.6,7.9,13.6,12.6c-6.9-6.8-8.2-13.3-3.4-13.7c4.8-0.4,11.7,5.6,30.3,5.7h0
	c-2.3-0.4-5.5-1.3-9.7-3.1c-7.3-3.1-10.5-5.6-11.7-6.6c-6.4-1.7-11.4-5.7-12.4-9.9c-1.3-6,0.1-10.8,12.3-12.4
	c7.9-1.1,14.9,1,18.9,2.7c-6.2-4.5-16.6-7.7-16.6-7.7s6.5,0.9,12.3,0.6c-5,0-24.7-3.4-26.2-9.1c-1.5-5.7,12.5-5.4,17.3-8.7
	c4.8-3.3,8.4-8.3,14.3-5.1c0.5,0.3,1,0.5,1.4,0.8c-6.5-7.3-17.3-10.6-25.1-15.4c-8-4.9-10-7.2-10-7.2
	C245.7,193.7,236.2,188.4,229.3,182z M166.1,176.9c2.4-0.8,4.8-1,7.7-0.6c7.4,0.8,14.5,3.4,14.5,3.4s8.6-0.8,16.8-10.9
	c8.2-10.1,6.4-16.7,6.4-16.7s-1.8,3.8-6.6,7.9c-4.9,4-4.9,4-4.9,4s6.4-5.9,10.2-16.7c2.8-8,3-12.6,2.9-14.4c-0.1-0.6-0.1-1-0.1-1
	s-5.1,11.4-20.1,26.2C180.9,169.9,169.9,175.2,166.1,176.9z M164.7,177.4L164.7,177.4L164.7,177.4L164.7,177.4z M119.3,225.3
	c0,0,8.4-4.3,13.5-9.3c5.1-5,5.2-5.5,5.2-5.5s-0.2-12.6,1.9-14.6c0,0-12.4,12.3-16.5,20.8C119.3,225.3,119.3,225.3,119.3,225.3z
	 M111.5,265.4c6.2-0.1,9.9-0.2,9.9-0.2l-13.2,5.9c0,0,1.9,3.8,11.1,4.1c9.3,0.3,15.2-2.6,15.2-2.6s-7.7-9.3-7.3-23.5
	c0.3-11.7,4-19,5.3-21.2c-1.4,2.2-5.6,9.5-7.8,17.7c-2.6,9.9,0.7,17.8,0.7,17.8S119.2,264.8,111.5,265.4z M90,263.2
	c1.4,0.8,3.2,1.3,5.3,1.6C93.2,264.4,91.5,263.9,90,263.2z M327.2,271c-1.1,0.1-2.4,0.1-3.9-0.1C324.6,271,325.9,271,327.2,271z
	 M371.8,182c-2.7,3.8-5.3,6.9-7.2,9.1c-6.2,6.8-9.2,8.8-9.2,8.8s6.9-2.1,13.3-5.7c6.4-3.6,9.2-5.3,9.2-5.3s-4.7,12.2-15.1,20.7
	c-10.4,8.5-26.8,17.6-26.8,17.6s5.1-0.4,8.8-0.8c3.7-0.4,4.3-0.7,4.3-0.7s-0.9,3-1.2,8.8c-0.3,5.8-0.3,5.9-0.3,5.9s-2.1,3.4-5.9,5.2
	c-3.8,1.8-4.3,1.8-4.3,1.8s2.9,0.8,5.7,1.4c2.8,0.6,3.7,0.5,3.7,0.5s0.4,8.7-0.2,11.2c-0.6,2.5-2.3,5.8-4.8,8.3
	c-2.5,2.5-3.8,3-3.8,3s3.3-0.6,6.3-1.6c2.9-1.1,3.5-1.6,3.5-1.6s4.2,3.1,3.2,6.7c-0.6,2.4-6.6,7.9-13.6,12.6
	c6.9-6.8,8.2-13.3,3.4-13.7c-4.8-0.4-11.7,5.6-30.3,5.7h0c2.3-0.4,5.5-1.3,9.7-3.1c7.3-3.1,10.5-5.6,11.7-6.6
	c6.4-1.7,11.4-5.7,12.4-9.9c1.3-6-0.1-10.8-12.3-12.4c-7.9-1.1-14.9,1-18.9,2.7c6.2-4.5,16.6-7.7,16.6-7.7s-6.5,0.9-12.3,0.6
	c5,0,24.7-3.4,26.2-9.1c1.5-5.7-12.5-5.4-17.3-8.7c-4.8-3.3-8.4-8.3-14.3-5.1c-0.5,0.3-1,0.5-1.4,0.8c6.5-7.3,17.3-10.6,25.1-15.4
	c8-4.9,10-7.2,10-7.2C355.4,193.7,364.9,188.5,371.8,182z M435,176.9c-2.4-0.8-4.8-1-7.7-0.6c-7.4,0.8-14.5,3.4-14.5,3.4
	s-8.6-0.8-16.8-10.9c-8.2-10.1-6.4-16.7-6.4-16.7s1.8,3.8,6.6,7.9c4.9,4,4.9,4,4.9,4s-6.4-5.9-10.2-16.7c-2.8-8-3-12.6-2.9-14.4
	c0.1-0.6,0.1-1,0.1-1s5.1,11.4,20.1,26.2C420.2,169.9,431.2,175.3,435,176.9z M436.4,177.5L436.4,177.5L436.4,177.5z M481.8,225.3
	c0,0-8.4-4.3-13.5-9.3c-5.1-5-5.2-5.5-5.2-5.5s0.2-12.6-1.9-14.6c0,0,12.4,12.3,16.5,20.8C481.8,225.3,481.8,225.3,481.8,225.3z
	 M489.6,265.4c-6.2-0.1-9.9-0.2-9.9-0.2l13.2,5.9c0,0-1.9,3.8-11.1,4.1c-9.3,0.3-15.2-2.6-15.2-2.6s7.7-9.3,7.3-23.5
	c-0.3-11.7-4-19-5.3-21.2c1.4,2.2,5.6,9.5,7.8,17.7c2.6,9.9-0.7,17.8-0.7,17.8S481.9,264.8,489.6,265.4z M511.1,263.2
	c-1.4,0.8-3.2,1.3-5.3,1.6C507.9,264.5,509.6,263.9,511.1,263.2z M360.8,114.4c0,0-3.8,4.4-6.4,9.2c-2.5,4.8-2.5,4.9-2.5,4.9
	s6-4.2,12.7-8.2c-4.8,3.2-11.8,9-18.6,18.9c-12.3,17.9-24.5,11.7-34.3,15.9c0.1-0.1,0.3-0.1,0.4-0.2c6.1-2.5,9.8-0.3,20.8-9.4
	c10.9-9.2,14.2-12.3,13.5-11.9c-0.7,0.5-6.9,4-14,5.6c-7.1,1.6-7.8,1.6-7.8,1.6s3.8-2.2,6.1-8.6c2.2-6.5,2.5-14.7,2.5-14.7
	s0.8,0,6,1c5.1,1,5.1,1,5.1,1c6.6,4.4,6.6,4.4,6.6,4.4S356.3,116.3,360.8,114.4z M162.6,265.6c0.6,0.9,1.2,1.7,1.8,2.5
	c8.3,10.2,19.8,12.3,33.7,11.7c13.8-0.7,27.5-2.5,27.5-2.5s-6.3,0.2-10.3-0.6c-4-0.7-8-4.3-8-4.3s-11,1.8-18.3,0.7h0
	C183.1,272.7,170.4,270.8,162.6,265.6z M438.5,265.6c-0.6,0.9-1.2,1.7-1.8,2.5c-8.3,10.2-19.8,12.3-33.7,11.7
	c-13.8-0.7-27.5-2.5-27.5-2.5s6.3,0.2,10.3-0.6c4-0.7,8-4.3,8-4.3s11,1.8,18.3,0.7h0C418,272.7,430.7,270.8,438.5,265.6z
	 M512.9,242.5c0.4,1.1,0.8,2.1,1.1,3.2C513.6,244.7,513.3,243.6,512.9,242.5z M485.4,221.2c0.2,0.4,0.3,0.5,0.3,0.5
	s-1.1-8.5-0.8-12.2c0.3-3.6,0.3-3.6,0.3-3.6s12,15.8,19.6,23.7c2.7,2.7,4.9,6.2,6.7,9.8c-7-14.2-21.3-20.7-21.3-20.7s0,0,0.5,5.4
	c0.5,5.4,2.5,10.3,2.5,10.3s0,0-3.8-5.4C487.3,226,486.4,224.1,485.4,221.2z M469.2,179.7c0.6,1,1.2,2,1.8,3
	C470.5,181.7,469.9,180.7,469.2,179.7z M450.1,174.4c-0.8-2-2.2-5.9-3-10.2c-1.2-6.4-1.2-6.4-1.2-6.4s9.1,6.9,17.7,15.2
	c-5.6-4.9-11.4-6.3-11.4-6.3s0.2,0.8,1.6,5.8c1.4,5,4.6,10.9,4.6,10.9S456.2,181.9,450.1,174.4z M241.4,268
	c-1.8-0.5-3.7-1.7-3.7-1.7s1-1.9,1.8-6c0,0.8-0.1,1.8-0.2,3C239.1,265.1,240,266.9,241.4,268z M240.2,223c0,0,3.7-0.7,6.5,3.1
	c2.7,3.7,5.1,34.4,3.4,38.8c-0.4,1-0.9,1.7-1.5,2.3c4.9-4.6-2.3-16-0.9-26.2c1.4-10.2-0.9-14.9-4.3-16.3c-1.6-0.7-2.5,0.8-3.1,2.5
	C240.3,224.6,240.2,223,240.2,223z M229.7,271.3c-0.4,0.3-0.8,0.6-1.2,0.8C228.9,271.9,229.3,271.6,229.7,271.3z M236.5,216.6
	c0.5,0.9,0.9,1.8,1.1,2.7c1,4.3-0.7,11-1.1,21.1c-0.5,10.1-1,21.3-3.9,27.1c-0.1,0.3-0.3,0.5-0.4,0.7c2-3.9,1.3-9.7,0.6-19.4
	c-1-13.7,0-13.7,3.2-24.8C236.9,220.6,237,218.3,236.5,216.6z M230.2,209c0,0,2.6,2.4,4.7,5.3c-1.6-1.3-4-1.4-5.5-1.8
	C229.9,211.2,230.2,210.2,230.2,209z M218.1,200.5c1.5,0.6,3.2,1.5,4.5,3.1c3.3,3.8,2.6,6.9,1.1,10c-1.5,3.1-3.9,18.5-7.8,32.8
	c-3.8,14.3-7.8,21-15.6,22c-2.3,0.3-4.7,0.1-6.9-0.5c13,2.1,15.9-7.4,17.1-19.5c1.1-12.2,3.6-25.6,8.4-33.8
	C222.8,208.2,221.4,202.5,218.1,200.5z M213.9,199.7c0,0,0.5,0,1.2,0.1c-0.5,0-0.9,0.1-1.3,0.2C213.9,199.9,213.9,199.8,213.9,199.7
	z M209,186.9c0,0-3.3-3.2-7.7-4.9c5.6,2.4,7.9,8.4,1.4,16.8c-6.5,8.3-13.7,13.8-18,22.7c-4.3,9-5.1,20.2-12,25
	c-1.5,1.1-3.1,1.4-4.6,1.4c6.1,1.5,11.2-1.2,14.3-6.7c3.6-6.5,17.5-25.9,22.8-35.2C210.6,196.9,213.6,193.6,209,186.9z M159.8,213.8
	c1.7-2.5,2.2-4.6,2.2-4.6s-0.2-1.7-4.1-2.1c-3.9-0.4-4.5,0-4.5,0s1.4-1.8,6.6-2.3c3.8-0.4,12.2-6.3,18.4-12.9
	c-2.9,2.1-6.9,4-12.4,5.2c-12.9,2.7-15.1,3.5-15.8,9.2c-0.7,5.7,1,11.2,1,11.2S157,216.7,159.8,213.8z M359.8,268
	c1.8-0.5,3.7-1.7,3.7-1.7s-1-1.9-1.8-6c0,0.8,0.1,1.8,0.2,3C362,265.1,361.1,266.9,359.8,268z M360.9,223c0,0-3.7-0.7-6.5,3.1
	c-2.7,3.7-5.1,34.4-3.4,38.8c0.4,1,0.9,1.7,1.5,2.3c-4.9-4.6,2.3-16,0.9-26.2c-1.4-10.2,0.9-14.9,4.3-16.3c1.6-0.7,2.5,0.8,3.1,2.5
	C360.9,224.6,360.9,223,360.9,223z M371.5,271.3c0.4,0.3,0.8,0.6,1.2,0.8C372.2,271.9,371.8,271.6,371.5,271.3z M364.6,216.7
	c-0.5,0.9-0.9,1.8-1.1,2.7c-1,4.3,0.7,11,1.1,21.1c0.5,10.1,1,21.3,3.9,27.1c0.1,0.3,0.3,0.5,0.4,0.7c-2-3.9-1.3-9.7-0.6-19.4
	c1-13.7,0-13.7-3.2-24.8C364.2,220.6,364.1,218.3,364.6,216.7z M370.9,209c0,0-2.6,2.4-4.7,5.3c1.6-1.3,4-1.4,5.5-1.8
	C371.2,211.3,370.9,210.2,370.9,209z M383,200.6c-1.5,0.6-3.2,1.5-4.5,3.1c-3.3,3.8-2.6,6.9-1.1,10c1.5,3.1,3.9,18.5,7.8,32.8
	c3.8,14.3,7.8,21,15.6,22c2.3,0.3,4.7,0.1,6.9-0.5c-13,2.1-15.9-7.4-17.1-19.5c-1.1-12.2-3.6-25.6-8.4-33.8
	C378.3,208.2,379.7,202.6,383,200.6z M387.2,199.7c0,0-0.5,0-1.2,0.1c0.5,0,0.9,0.1,1.3,0.2C387.2,199.9,387.2,199.8,387.2,199.7z
	 M392.1,187c0,0,3.3-3.2,7.7-4.9c-5.6,2.4-7.9,8.4-1.4,16.8c6.5,8.3,13.7,13.8,18,22.7c4.3,9,5.1,20.2,12,25
	c1.5,1.1,3.1,1.4,4.6,1.4c-6.1,1.5-11.2-1.2-14.3-6.7c-3.6-6.5-17.5-25.9-22.8-35.2C390.5,196.9,387.5,193.6,392.1,187z
	 M441.3,213.9c-1.7-2.5-2.2-4.6-2.2-4.6s0.2-1.7,4.1-2.1c3.9-0.4,4.5,0,4.5,0s-1.4-1.8-6.6-2.3c-3.8-0.4-12.2-6.3-18.4-12.9
	c2.9,2.1,6.9,4,12.4,5.2c12.9,2.7,15.1,3.5,15.8,9.2c0.7,5.7-1,11.2-1,11.2S444.1,216.7,441.3,213.9z M240.3,114.4
	c0,0,3.8,4.4,6.4,9.2c2.5,4.8,2.5,4.9,2.5,4.9s-6-4.2-12.7-8.2c4.8,3.2,11.8,9,18.6,18.9c12.3,17.9,24.5,11.7,34.3,15.9
	c-0.1-0.1-0.3-0.1-0.4-0.2c-6.1-2.5-9.8-0.3-20.8-9.4c-10.9-9.2-14.2-12.3-13.5-11.9c0.7,0.5,6.9,4,14,5.6c7.1,1.6,7.8,1.6,7.8,1.6
	s-3.8-2.2-6.1-8.6c-2.2-6.5-2.5-14.7-2.5-14.7s-0.8,0-6,1c-5.1,1-5.1,1-5.1,1c-6.6,4.4-6.6,4.4-6.6,4.4S244.8,116.3,240.3,114.4z"/>
<path class="st2" d="M35.7,268.8L8.2,411.1L74.8,463c89-40.1,139.5-42.5,225.7-42.5c86.2,0,136.7,2.3,225.7,42.5l66.6-51.9
	l-27.5-142.3c-73.8,11.1-185.6,18.7-264.8,18.5C221.3,287.5,109.5,279.9,35.7,268.8"/>
<path class="st1" d="M74.4,438.3c28.5-12.8,62.8-23.8,98.1-29.3c-43.1,0.5-84.1,2.2-127.2,5.8L74.4,438.3z M526.7,438.3
	c-28.5-12.8-62.8-23.8-98.1-29.3c43.1,0.5,84.1,2.2,127.2,5.8L526.7,438.3z"/>
<path class="st9" d="M515.6,375c-1.4-10.5-2.9-21.1-4.4-31.6c-1.4-10.5-2.9-21.1-4.4-31.6c7-0.5,13.9-1,20.9-1.6
	c1.7,10.9,3.3,21.7,5,32.6c1.6,10.9,3.4,21.7,5,32.6C530.3,375.3,522.9,375.2,515.6,375 M509,395.7c13.8,0.6,27.7,1.2,41.6,1.9
	c7.7,0.4,12.8-5.9,11.5-13.9c-2.3-13.8-4.6-27.7-6.9-41.6c-2.3-13.8-4.6-27.7-6.9-41.6c-1.3-8-8.2-13.9-15.2-13.1
	c-12.6,1.5-25.3,2.9-38,4.2c-7,0.7-11.9,7.3-11.1,14.6c1.5,12.6,3.1,25.2,4.7,37.8c1.6,12.6,3.2,25.2,4.7,37.8
	C494.4,389.2,501.4,395.4,509,395.7z M483,394.7c-0.9-8.2-1.9-16.4-2.8-24.6c-7.6-0.1-15.3-0.1-22.9-0.1c0.1,1.4,0.3,2.9,0.4,4.3
	c-4.2,0-8.4-0.1-12.6-0.1c-0.9-9.7-1.9-19.3-2.8-29c-0.9-9.6-1.8-19.3-2.7-29c2-0.1,4-0.2,6.1-0.3c-0.7-6.5-1.3-13-2-19.4
	c-11.2,0.8-22.4,1.7-33.6,2.4c0.5,6.3,1,12.5,1.5,18.8c2-0.1,4-0.2,6-0.2c0.8,9.4,1.6,18.9,2.3,28.3c0.8,9.4,1.6,18.9,2.4,28.3
	c-2.1,0-4.2,0-6.2,0c0.5,6.3,0.9,12.5,1.4,18.8C439.1,393.2,461.1,393.9,483,394.7z M358.9,373.6c-0.4-9-0.8-18.1-1.2-27.1
	c-0.4-9-0.7-18.1-1.2-27.1c7.1-0.2,14.1-0.4,21.2-0.6c0.5,9.1,1,18.3,1.5,27.4c0.5,9.1,1.1,18.3,1.6,27.4
	C373.5,373.6,366.2,373.6,358.9,373.6z M350.2,391.5c13.7,0.1,27.4,0.3,41.2,0.6c7.6,0.1,13.4-5.1,12.9-11.8
	c-0.8-11.5-1.6-22.9-2.4-34.4c-0.8-11.5-1.6-22.9-2.4-34.4c-0.5-6.6-6.6-11.7-13.8-11.4c-13,0.6-25.9,1.1-38.8,1.4
	c-7.1,0.2-12.8,5.6-12.6,12c0.3,11,0.6,22.1,0.9,33.1c0.3,11,0.6,22.1,0.9,33.1C336.3,386.2,342.6,391.5,350.2,391.5z M270.9,391.4
	c11.5,0,23-0.1,34.6-0.1c2.9-11.9,5.8-23.7,8.5-35.6c2.7-11.9,5.4-23.8,8.2-35.7c1.6,0,3.3,0,5.1,0c-0.2-5.9-0.3-11.9-0.4-17.9
	c-11,0.1-22,0.2-33,0.2c0.1,5.9,0.1,11.9,0.1,17.8c1.9,0,4,0,6,0c-1.9,8.9-3.8,17.8-5.7,26.7c-1.9,8.9-3.9,17.8-5.9,26.7
	c-1.9-8.9-4-17.8-5.8-26.7c-1.9-8.9-3.7-17.9-5.5-26.8c2,0,4,0,6,0c0.1-5.9,0.1-11.9,0.1-17.8c-11-0.1-21.9-0.3-32.9-0.6
	c-0.2,6-0.3,12-0.5,18c1.6,0,3.3,0.1,5.1,0.1c2.6,12,5.3,24,8,36C265.2,367.6,268,379.5,270.9,391.4z M203.4,355.3
	c1.6-6.1,3.2-12.3,4.8-18.4c1.6-6.1,3.2-12.2,4.8-18.3c0.3,0,0.6,0,1,0c0.8,6.2,1.8,12.3,2.6,18.5c0.9,6.1,1.8,12.2,2.8,18.4
	C214.1,355.4,208.8,355.3,203.4,355.3z M193.4,392.5c1.7-6.2,3.3-12.5,5-18.7c7.9,0,15.7-0.1,23.7-0.1c1,6.1,2,12.2,3,18.2
	c8.5-0.1,16.9-0.2,25.4-0.3c0.1-6,0.3-12,0.4-18c-2,0-4.1,0-6.1,0c-1.8-9-3.7-18.1-5.5-27.1c-1.8-9.1-3.6-18.2-5.3-27.3
	c2,0.1,4.1,0.1,6.1,0.2c0.2-6,0.4-12.1,0.5-18.1c-17.6-0.8-35.2-1.6-52.7-2.6c-0.4,6.3-0.8,12.6-1.3,18.8c1.9,0.1,3.9,0.2,6,0.2
	c-2.8,9.3-5.6,18.6-8.4,28c-2.8,9.4-5.7,18.8-8.6,28.3c-2.1,0-4.2,0-6.3,0c-0.5,6.4-1,12.7-1.4,19.1
	C176.5,392.9,185,392.7,193.4,392.5z M124.4,394.5c12-0.4,24-0.8,36-1.2c0.5-6.4,1-12.8,1.5-19.2c-2.1,0-4.2,0.1-6.3,0.1
	c0.8-9.7,1.7-19.3,2.5-29c0.8-9.7,1.6-19.3,2.4-29c2,0.1,4,0.2,6,0.3c0.6-6.4,1.1-12.8,1.6-19.2c-11.3-0.8-22.4-1.8-33.6-2.8
	c-0.6,6.7-1.4,13.3-2,20c2,0.1,4,0.2,6,0.4c-1,9.9-2,19.8-2.9,29.8c-0.9,9.9-1.9,19.8-2.9,29.8c-2.1,0-4.2,0.1-6.3,0.1
	C125.8,381.2,125.1,387.8,124.4,394.5z M70.5,375.3c1.5-10.8,2.9-21.5,4.4-32.3c1.4-10.8,2.9-21.5,4.5-32.3c6.5,0.5,13.2,1,19.9,1.5
	c-1.4,10.5-2.6,20.9-3.9,31.4c-1.3,10.5-2.6,20.9-3.9,31.4C84.4,375.1,77.5,375.2,70.5,375.3z M98.5,395.5
	c7.6-0.3,14.5-6.5,15.3-13.7c1.4-12.5,2.7-25,4.1-37.5c1.3-12.5,2.8-25,4.1-37.5c0.8-7.2-4.3-13.7-11.3-14.5
	c-18.6-2-37.1-4.1-55.6-6.2c-1.1,7.5-2.3,15-3.4,22.5c1.9,0.2,4,0.3,5.9,0.5c-1.7,11.1-3.4,22.3-5.1,33.4c-1.7,11.1-3.3,22.3-5,33.4
	c-2.1,0-4.2,0.1-6.2,0.1c-1.2,7.5-2.3,15-3.5,22.5C58,397.3,78.2,396.3,98.5,395.5z"/>
<path class="st10" d="M509.2,390.7c13.9,0.6,27.7,1.2,41.6,1.9c4.8,0.2,7-3.6,6.3-8.1c-2.3-13.9-4.6-27.7-6.9-41.6l-0.2-1.3
	c-4,0.4-8.1,0.8-12.3,1.2c1.6,10.6,3.3,21.2,4.9,31.8l0.9,5.9l-5.9-0.1c-7.4-0.1-14.7-0.3-22.1-0.4l-4.3-0.1l-0.6-4.3
	c-1.4-10.1-2.8-20.1-4.2-30.2c-4.1,0.3-8.2,0.6-12.4,0.9c1.5,11.6,2.9,23.2,4.4,34.8C499,386.3,504.2,390.5,509.2,390.7
	 M477.3,389.5c-0.6-4.8-1.1-9.6-1.7-14.4c-4.3,0-8.7-0.1-13-0.1l0.3,4.3l-5.4,0c-4.2,0-8.4-0.1-12.6-0.1l-4.5,0l-0.4-4.5
	c-0.8-8.3-1.6-16.6-2.4-24.9c-4.2,0.2-8.3,0.4-12.6,0.6c0.6,7.8,1.3,15.5,2,23.3l0.5,5.4l-5.5,0c-0.3,0-0.5,0-0.8,0
	c0.2,3,0.4,5.9,0.7,8.9C440.4,388.3,458.9,388.8,477.3,389.5z M350.2,386.6c13.7,0.1,27.5,0.3,41.2,0.6c3.8,0.1,8.1-2.1,7.8-6.4
	c-0.7-9.8-1.4-19.6-2.1-29.4c-4.2,0.1-8.4,0.3-12.6,0.4l1.3,21.8l0.3,5.3l-5.3,0c-7.3,0-14.6-0.1-21.9-0.1l-4.8,0l-0.2-4.7
	c-0.3-7.2-0.7-14.3-1-21.5c-4.2,0.1-8.4,0.1-12.7,0.2c0.3,9,0.5,18.1,0.8,27.1C341.2,384,346.4,386.5,350.2,386.6z M285.8,386.3
	l-2.6-11.8c-1.6-7.3-3.2-14.6-4.8-21.9c-3.8,0-7.7-0.1-11.5-0.1l0.4,2c2.4,10.6,4.9,21.2,7.4,31.8
	C278.5,386.4,282.2,386.4,285.8,386.3z M297.9,352.8c-1.6,7.3-3.2,14.6-4.9,21.8l-2.6,11.7c3.7,0,7.4,0,11.2,0
	c2.6-10.6,5.1-21.1,7.5-31.7l0.4-1.8c-3,0-6,0-8.9,0C299.7,352.8,298.8,352.8,297.9,352.8z M229.4,386.8c5.4-0.1,10.8-0.1,16.3-0.2
	c0.1-2.7,0.1-5.4,0.2-8c-0.3,0-0.6,0-0.9,0h-4.1l-0.8-4c-1.5-7.5-3.1-15-4.6-22.5c-3.8-0.1-7.7-0.2-11.5-0.3l0.4,2.8l0.9,5.8l-5.9,0
	c-5.3,0-10.7-0.1-16-0.1l-6.4-0.1l1.6-6.2l0.8-2.9c-3.8-0.1-7.5-0.3-11.3-0.4c-2.5,8.3-5,16.5-7.6,24.8l-1.1,3.5h-3.7
	c-0.5,0-1.1,0-1.6,0c-0.2,3-0.5,6-0.7,9c5.4-0.1,10.8-0.3,16.2-0.4c1.3-5,2.7-10,4-15.1l1-3.7l3.8,0c7.9,0,15.8-0.1,23.7-0.1l4.3,0
	l0.7,4.2C227.8,377.5,228.6,382.2,229.4,386.8z M156.6,379.2c-0.3,0-0.5,0-0.8,0l-5.5,0l0.5-5.5c0.7-8.2,1.4-16.4,2.1-24.6
	c-4.2-0.2-8.4-0.4-12.5-0.7c-0.9,8.8-1.7,17.6-2.6,26.4l-0.4,4.4l-4.4,0.1c-0.6,0-1.2,0-1.8,0c-0.3,3.3-0.7,6.6-1,9.8
	c8.6-0.3,17.2-0.6,25.8-0.8C156.1,385.4,156.3,382.3,156.6,379.2z M57.5,342.3l-0.1,0.8c-1.7,11.1-3.3,22.3-5,33.4l-0.6,4.2
	l-4.2,0.1c-0.7,0-1.4,0-2,0c-0.6,4.1-1.3,8.2-1.9,12.2c18.2-0.9,36.4-1.8,54.6-2.5c4.9-0.2,10-4.3,10.5-9.3
	c1.3-11.5,2.5-23,3.7-34.4c-4.2-0.3-8.3-0.6-12.4-0.9c-1.2,9.9-2.4,19.8-3.7,29.7l-0.5,4.3l-4.3,0.1c-7,0.1-14,0.2-21,0.3l-5.8,0.1
	l0.8-5.8c1.4-10.4,2.8-20.8,4.2-31.2C65.6,343.1,61.5,342.7,57.5,342.3z"/>
</svg>
