<?xml version="1.0" encoding="utf-8"?>
<!-- Generator: Adobe Illustrator 19.0.0, SVG Export Plug-In . SVG Version: 6.00 Build 0)  -->
<svg version="1.1" id="Layer_1" xmlns="http://www.w3.org/2000/svg" xmlns:xlink="http://www.w3.org/1999/xlink" x="0px" y="0px"
	 viewBox="0 0 542 619.7" style="enable-background:new 0 0 542 619.7;" xml:space="preserve">
<style type="text/css">
	.st0{fill-rule:evenodd;clip-rule:evenodd;fill:#AAAAAA;}
	.st1{fill-rule:evenodd;clip-rule:evenodd;}
	.st2{fill-rule:evenodd;clip-rule:evenodd;fill:#F10F00;}
	.st3{fill-rule:evenodd;clip-rule:evenodd;fill:#A70E06;}
	.st4{fill-rule:evenodd;clip-rule:evenodd;fill:#FFFFFF;}
	.st5{fill:#FFFFFF;}
</style>
<path class="st0" d="M266.7,618c-62.1-31.2-119.6-72.7-160.2-129.9c-6-8.4-11.5-17-16.5-25.8H0c0-48.9,0-97.8,0-146.7h47
	c-4.1-59.1,4.4-119.4,18.7-176.6l0.9-3.6L70,134c23.9-10.1,48.1-18.6,72.8-25.4l-4.9-37.3c-0.7-5.3-0.7-10.6-0.1-15.9L144.1,2
	l22.7,47.4c2.5,5.3,4.4,11,5.3,16.8l4.9,28.8c0.6-1.1,1.1-2.1,1.7-3.1c10.8-18.7,28.9-37.1,47.4-48.4c13.9-8.5,29.6-15.4,45.5-19
	c9.8-2.2,23.2-3.8,33-0.8c4.1,1.3,7.6,3.3,10.8,5.6c3.7-5.7,10.9-7,17.3-4.6c8.7,3.3,19.5,13.5,25.4,20.5c3.6,4.3,7,9.2,9.3,14.3
	c3.7,8,5.7,15.7,7.3,24.3c0.8,4.5,1.5,9.9,3.4,14.1c1,2.2,2.7,4.6,4.4,6.8c29.7,7.2,58.8,17.1,87.4,29.1l3.4,1.4l0.9,3.6
	c14.3,57.1,22.8,117.4,18.7,176.6h47c0,48.9,0,97.8,0,146.7h-90c-5,8.8-10.5,17.4-16.5,25.8c-40.6,57.2-98.1,98.7-160.2,129.9
	l-3.3,1.7L266.7,618z"/>
<path class="st1" d="M270,98.5c-69,0.4-134.4,15.8-197.1,42.3c-62,247.4,29.2,386.2,197.1,470.6c167.9-84.4,259.1-223.2,197.1-470.6
	C404.4,114.4,339,98.9,270,98.5"/>
<path class="st2" d="M270,582.3c173.5-92.1,219.3-232.3,175-422.5c-56.1-22.3-114.2-35.4-175-35.4c-60.8,0-118.9,13.1-175,35.4
	C50.7,349.9,96.5,490.1,270,582.3"/>
<path class="st3" d="M436.8,173.9c17.1,79.4,21,165.5-12.8,241.2c-30.2,67.7-84.9,115.8-148.6,151.5l-5.4,3l-5.4-3
	c-63.7-35.7-118.5-83.8-148.6-151.5c-33.7-75.8-29.9-161.8-12.8-241.2l1.3-5.9l5.7-2.1c51.4-19.2,104.8-30.3,159.8-30.3
	c55,0,108.4,11.1,159.8,30.3l5.7,2.1L436.8,173.9z"/>
<path class="st1" d="M270,557c61.4-34.4,114.7-80.7,143.9-146.3c32.8-73.6,28.7-157.1,12-234.4c-50.1-18.7-102.1-29.6-155.9-29.6
	c-53.8,0-105.8,10.9-155.9,29.6c-16.6,77.3-20.7,160.8,12,234.4C155.3,476.2,208.6,522.6,270,557"/>
<path class="st3" d="M346.4,153.9c-25-4.7-50.5-7.2-76.4-7.2c-17.9,0-35.7,1.2-53.2,3.5c2.4,0.2,4.7,0.3,7,0.3
	c0.1,3.1,1.2,6.1,3.2,8.6c0.7,0.9,1.5,1.7,2.3,2.4c-0.2,1.5-0.2,3.1,0,4.7c0.4,3,1.6,5.7,3.5,7.9c-0.3,0.9-0.6,1.8-0.8,2.8
	c-2.5,1.1-5.1,2.2-7.6,3.3c-3,1.3-5.7,3.4-7.6,6c-3.9,5.2-7.6,10.6-11,16.2c-3.9,1-7.7,2.2-11.5,3.4l-8.6-50.3
	c-11.3,2.3-22.5,5.1-33.7,8.3c2.6,19.4,5.1,38.8,7.7,58.2c-3.1,2.4-6.1,5.2-8.2,8.4c-3.5,5.4-7,10.9-10.3,16.5
	c-7.1,12-13.6,24.3-19.2,37.1c-6.3,14.6-11.5,29.5-15.8,44.8l-1.4,5.2c0.2,1.5,0.4,3.1,0.7,4.6l7.2,2.4
	c34.5,11.5,68.6,25.8,101.5,41.2c19.9,9.3,39.5,19.1,58.8,29.5c17.4,9.4,34.6,19.3,51.2,30l7,4.5l5.7-6.2
	c21.9-23.6,41.9-50.2,59.5-77.1c2.1-3.2,31.2-34.7,36.4-40c-6.1-39-12.1-65.4-41.2-101.4c-3.6-4.5-7.7-8.2-13.2-10
	c-14-4.4-28-8.8-42.1-13.2l-0.2-1.7c0-3.4-0.2-6.8-0.6-10.3l-0.3-2.9l7.6-12.5c1.8-2.9,3-6.2,3.4-9.6
	C346.3,159,346.3,156.4,346.4,153.9"/>
<path class="st1" d="M328.1,184.1l9.7-15.9c1.4-2.2,2.3-4.7,2.6-7.3c0.3-2.3,0.3-5.6,0.5-9c0.1-1.6,0.3-3.3,0.6-4.8
	c6.3,0.3,20.1,0.7,30.3-1.3c4-0.8,7.4-1.9,10-3.4c2.3-1.4,3.9-3.1,4.8-5c2.5-5.3,1.3-11.1-2.1-16.9c-3.8-6.6-10.3-13.3-13.2-19.4
	c-2.2-4.8-2.9-10-4-15.9c-1.2-6.6-2.8-14-6.7-22.6c-6.5-14.2-23.2-28.2-30.6-31c-4.8-1.8-7.8,0.2-8.9,2.5c-0.7,1.6-0.8,3.7-0.3,6.1
	c0.3,1.3,1,3.4,1.5,5.2c-0.6-0.5-1.1-1-1.7-1.6c-4.8-4.5-10.7-10.8-18.3-13.2c-12.3-3.8-41.4,0-72.5,19
	c-18.4,11.2-35.2,29.2-44.8,45.8c-6.9,11.9-9.9,23.2-7.9,31c1.6,6.6,8.2,11.4,17.2,14.1c11.6,3.6,27.2,4.2,36.4,4.2
	c-0.2,0.5-0.5,1-0.7,1.5c-1.4,3-0.9,6.5,1.2,9c1.3,1.5,2.7,2.9,4.3,4c-0.8,1.9-1,3.9-0.8,5.8c0.4,2.6,1.7,5.1,4.2,7.2l-2.5,8.4
	c-2.6,1.1-7.3,3.1-10,4.3c-2.1,0.9-4,2.4-5.4,4.2l0,0c-4.5,6-8.4,11.8-11.8,17.6c-4.3,1.1-11.6,3.1-19.5,6l-25-145.6
	c-0.9-5.1-2.5-10.2-4.7-14.9l-11.7-24.4l-3.3,28.1c-0.6,4.7-0.5,9.4,0.1,14.1l20.3,154.1c-4.2,2.8-7.5,5.8-9.5,8.8
	c-18.4,28.2-33.1,55.8-44.6,96.9l-1.1,4.1l4,1.3c68,22.7,155.9,64.7,212.7,101.4l3.1,2l2.5-2.7c32.5-35.2,72.2-61.6,94.8-109.4
	c-1.8-34.2-14.2-71-40.5-101.8c-2.9-3.6-6.2-6.8-10.5-8.2l-46.3-14.6c0.2-4.5,0.1-9.5-0.5-15.3l-0.2-1.9L328.1,184.1z"/>
<path class="st4" d="M278,105.6c0.1-1,0-2.2,0.5-2.9c0.9-1.4,9.9-2.9,11.5-3.1c10.4-1.7,21.9-1.7,32.1,1.1
	c2.2,0.6,12.4,4.4,12.9,7.2c0.3,1.3,0.3,2.2,0.2,2.8c-0.9-0.6-1.8-1.1-2.8-1.6c-1.3-0.7-2.7-1.4-4-2.1c-0.5-0.3-1.1-0.9-1.7-1
	c-1.5-0.2-3.9,0.9-5.2,1.3c-1,0.3-2.1,0.7-3.1,1c-1.1,0.4-2.1,0.8-3.2,1.3c-0.1,0-0.3,0-0.4,0c-0.5,0-1.1-3-1.2-3.3
	c0-0.2,0.1-0.8-0.1-0.7c-1.9,1.1-4.2,4-6.2,5.8c0.2,0.3,0.3,0.6,0.4,0.8c1.1,2.2,1.2,2.8,0.9,5.1c-1,7.6,1.2,15,2.2,22.4
	c0.2,1.5-1.2,2.6-2.2,3.4c-0.1,0.1-1,0.8-1.1,0.8c-0.5-0.2-0.9-1.4-1.1-1.8c-0.9-2-1.7-4-2.5-6c-0.8-1.9-1.6-3.8-1.9-5.9
	c-0.7-4.6-0.1-9.7,0.1-14.3c0.1-1.5,0-3.3,0.1-5.1l0.1,0c0,0-0.1,0-0.1-0.1c0-0.1,0-0.2,0-0.4c-0.3-0.4-0.6-0.8-0.9-1.2
	c-0.1-0.1-0.1-0.3-0.2-0.3c-0.9-1.5-2-3-3-4.4c-0.1-0.1-1.2-1.7-1.3-1.6c-0.6,0.3-1,2.5-1.2,3.1c-0.3,0.7-0.5,1.5-0.8,2.2
	c-0.1,0.2-0.1,0.4-0.2,0.6c-0.6-0.2-1.2-0.4-1.8-0.7c-2.7-0.9-5.3-1.9-8-2.8c-0.9-0.3-2.2-0.9-3.2-0.7
	C280.5,104.7,279.3,105.1,278,105.6 M293.5,124.3c0-0.3-0.4,0.3-0.6,0.5c-0.5,0.4-1,0.8-1.6,1.2c-1.2,0.9-2.9,2.7-4.5,3
	c-2.3,0.4-5-0.1-7.4-0.4c-0.8-0.1-2.2-0.6-2.9-0.3c-0.6,0.3-1.1,1-1.4,1.6c-0.8,1.3-1.6,2.7-2.3,4.1c-0.4,0.9-0.8,1.9-1.2,2.8
	c-0.1,0.2-0.4,0.8-0.3,1c0.2,0.4,1.1,0.8,1.5,1c1.2,0.8,2.3,1.7,3.4,2.7c1.5,1.4,3.2,2.7,4.6,4.3c0.3,0.4,1,1.7,1.5,1.9
	c0.4,0.1,1.1-0.5,1.4-0.7c1.2-0.9,2.4-1.7,3.6-2.6c1.2-0.9,2.4-1.7,3.5-2.6c0.2-0.1,1-0.6,1-0.8c0.2-1.4-1.3-2.3-0.6-3.8
	c1-1.9,2.1-3.7,3.2-5.6c0.3-0.6,1-1.3,1.2-1.9L293.5,124.3z M334.3,120.9c-0.4,1.2-0.6,2.4-0.9,3.7c-0.8,4.1-1.4,8.2-1.9,12.4
	c-0.3,2.3-0.6,4.7-0.8,7c0,1.6,0.1,3.1,0.2,4.7c0.3,2.8,1.2,6,0.5,8.8c-0.7,2.7-2,5.5-3.6,8.1c-1.4,2.9-2.9,5.7-4.5,8.5
	c-1.8,3.2-3.9,6.2-6.2,9.1c-0.3,0.4-1.4,2.5-2,2.6c-1.5,0.2-3.6-0.6-5.1-0.6c-1.3,0.1-3.2,0.6-4.4,0.1c-1-0.4-1.2-3.3-1.5-4.2
	c-0.4-1.5-1.7-3.7-1.6-5.2c0-0.4,1-1.2,1.3-1.4c1.4-1.4,2.9-2.8,4.5-4.1c1-0.8,2.1-1.7,3.2-2.4c0.1,0,1.1-0.7,1.1-0.7
	c-0.3-0.9-1.8-1.6-2.5-2c-3.4-1.8-6.7-1.5-10.4-1.3c-1.4,0.1-2.3-0.8-3.5-1.5c-0.1-0.1-1.7-0.9-1.6-1c0.5-0.4,1.5-0.5,2-0.6
	c1.6-0.5,4.1-1.6,5.9-1.2c1,0.3,2,1.3,3,1.4c1.1,0.1,2.4-0.5,3.5-0.7c1.1-0.1,2.3,0.2,3.3,0.4c1.9,0.3,3.7,0.7,5.5,1.2
	c-0.9-0.8-1.9-1.7-2.8-2.6c-1.5-1.4-3-3.6-5.2-3.8c-1.3-0.1-2.6,0.2-3.9,0.1c0,0-1.2-0.1-1.2-0.2c0.1-0.8,1.1-2,1.5-2.6
	c0.7-1.1,1.5-3.1,2.5-3.9c1.6-1.3,3.9-1.3,5.4-2.9c1.9-2.1,0-6.6-0.4-8.9c-0.2-0.9-0.2-2.3-0.6-3.1l-0.9-5.7c0,0,0,0,0,0l0,0
	c0.1,0,0.3,0,0.4,0c0.3,0,0.7,0,1,0c0.9,0,1.8,0,2.7,0.1c2.5,0.1,5.5,0.4,7.9-0.3c0.1,0,0.3-0.1,0.4-0.2
	C327.5,127.4,331.5,124,334.3,120.9z M293.2,201.4c-0.1,0,0.5-0.9,1.1-1.8c0.8-1.1,1.6-2.3,2.4-3.4c1.4-1.9,7.3-1.2,9.6-1.3
	c1.3-0.1,2.7-0.1,4-0.2c0,0,1.1-0.1,1.1,0c0,0.3-2.4,2-2.7,2.2c-2.8,2.4-5.7,4.8-8.3,7.4L293.2,201.4z"/>
<path class="st0" d="M293.5,124.3c0-0.3-0.4,0.3-0.6,0.5c-0.5,0.4-1,0.8-1.6,1.2c-1.2,0.9-2.9,2.7-4.5,3c-2.3,0.4-5-0.1-7.4-0.4
	c-0.8-0.1-2.2-0.6-2.9-0.3c-0.6,0.3-1.1,1-1.4,1.6c-0.8,1.3-1.6,2.7-2.3,4.1c-0.4,0.9-0.8,1.9-1.2,2.8c-0.1,0.2-0.4,0.8-0.3,1
	c0.2,0.4,1.1,0.8,1.5,1c1.2,0.8,2.3,1.7,3.4,2.7c1.5,1.4,3.2,2.7,4.6,4.3c0.3,0.4,1,1.7,1.5,1.9c0.4,0.1,1.1-0.5,1.4-0.7
	c1.2-0.9,2.4-1.7,3.6-2.6c1.2-0.9,2.4-1.7,3.5-2.6c0.2-0.1,1-0.6,1-0.8c0.2-1.4-1.3-2.3-0.6-3.8c1-1.9,2.1-3.7,3.2-5.6
	c0.3-0.6,1-1.3,1.2-1.9L293.5,124.3z M306.5,142l4.3-1c-0.4,0.9-1.3,1.6-2,2.2c-0.1,0.1-1,0.8-1.1,0.8
	C307.1,143.7,306.7,142.5,306.5,142L306.5,142z M294.4,99l2.5,3.8c-0.6,0.4-0.9,2.5-1.2,3c-0.3,0.7-0.5,1.5-0.8,2.2
	c-0.1,0.2-0.1,0.4-0.2,0.6c-0.6-0.2-1.2-0.4-1.8-0.7c-2.7-0.9-5.3-1.9-8-2.8c-0.9-0.3-2.2-0.9-3.2-0.7c-1.2,0.2-2.5,0.6-3.7,1.1
	c0.1-1,0-2.2,0.5-2.9c0.9-1.4,9.9-2.9,11.5-3.1C291.5,99.3,292.9,99.1,294.4,99z"/>
<path class="st4" d="M302.5,221.7c5.7-1.5,11.1-4.7,16-11c0.8-1,1.2-2.3,1.2-3.7c-0.1-3.2-0.4-9.3-0.4-9.3c-3.6,4.5-9,8.5-13.6,10.2
	c-1.6,0.6-2.7,2.1-2.8,3.8C302.8,215.5,302.5,221.7,302.5,221.7 M251.7,174.3c12.1,13.9,25.7,25.6,42.5,33c2.6,1.1,4.1,3.8,3.8,6.6
	c-0.5,3.8-1,8.5-1,8.5c-15.8-5.3-31.6-16-44.7-30.3c-2-2.2-2.8-5.1-2.3-8C250.7,179.9,251.7,174.3,251.7,174.3z"/>
<path class="st0" d="M302.6,219.4c1-0.5,2.1-1.1,3.1-1.6c3.9-2,7.9-4,11.8-5.9c-4.6,5.5-9.7,8.3-15,9.8L302.6,219.4z M270.9,193
	c0.1,4.7,0.3,9.6,2.2,11.4c6.8,6,14,11.5,21.1,17.1c-14.9-5.6-29.6-15.9-41.9-29.3c-2-2.2-2.8-5.1-2.3-8c0.7-4.2,1.7-9.8,1.7-9.8
	C257.7,181.1,264,187.4,270.9,193z"/>
<path class="st0" d="M258,181.2l0,0.6c-0.3,5.4-0.2,10.9,0.2,16.4c-2-1.9-4-4-5.9-6.1c-2-2.2-2.8-5.1-2.3-8c0.7-4.2,1.7-9.8,1.7-9.8
	C253.8,176.7,255.9,179,258,181.2"/>
<path class="st4" d="M284.5,237.8c5.8,8.7,12.3,14.6,19.4,18.4l6.3-8.9C301.4,246.2,284.5,237.8,284.5,237.8 M311.3,263.3l19.2,20.5
	c10.2-20.6,15.5-42,17.2-64.1l-13.4-5.6C329.3,231,322.6,247.6,311.3,263.3z M253,227.5c52.1,30.9,86.2,72.6,113.5,118.4
	c1.8,3,2.9,6.3,3.4,9.7c0.3,2.4-0.8,9.9-0.8,9.9c-40.8-51-82.5-98.7-148.3-138C231,226.6,241.8,226.7,253,227.5z M292.6,289.5
	c7.2,3.7,13.8,9.9,20.1,17.4c-15.2,28.9-32.4,55.5-52.1,78.9l-14.1-7.9l-1.1-15C266.5,339.9,281.4,315.2,292.6,289.5z"/>
<path class="st0" d="M311.3,263.3l4.2,4.5c4.6-12.1,9.5-24.2,13.5-36.5c0.9-2.7,3-7.1,3.4-10.7C327.5,235.2,321.2,249.6,311.3,263.3
	 M309.6,312.8c-4.9-4.6-9.9-9.2-14.9-13.7c-2.8,5.3-6.9,11.8-7.8,13.3c-12.4,21.3-25,42.6-38.4,63.3c-0.4,0.5-0.9,1.4-1.5,2.5
	l-0.4-0.2l-1.1-15c21.1-23,36-47.7,47.2-73.4c7.2,3.7,13.8,9.9,20.1,17.4C311.7,308.8,310.7,310.8,309.6,312.8z M253,227.5
	c-4.2,1.2-7.9,3-10.8,5.5c1.6,1.1,3.3,2.2,4.9,3.3c40.3,27.3,77.2,58.6,104.5,99.3c6.3,9.4,12.4,18.9,17.7,28.9
	c-0.1,0.7-0.2,1.1-0.2,1.1c-40.8-51-82.5-98.7-148.3-138C231,226.6,241.8,226.7,253,227.5z"/>
<path class="st2" d="M373.1,344.8c2.7-22.9,3.8-55.1-12.2-70.2c5,1.3,8.6,4,12,6.8c-6.3-9.9-12.2-17.7-16.8-21
	c5.9,1,10.9,3.9,15.1,8.6c11.8,14.3,23.2,42.9,28.8,60.6l14-6.6c-3.6-35.4-22.4-71.7-35.1-86.6c-1.4-1.7-2.5-3.6-4.3-4.9
	c-7-5.4-13.4-7.7-19.5-8c-2.5,17.9-6.7,35.3-12.7,52.2c-1,2.8-1.3,5.9-0.8,8.8c0.9,5.8,2.3,15.2,2.3,15.2
	C357.5,315,365.9,329.9,373.1,344.8 M218.6,360.3c1.4,4.9,43.6-28.4,50.9-44.5c-0.8-14.8-3.1-30.4-8.4-47.6
	c-18.8-16.8-38.8-30.5-60-41.2c-7.5,1.1-14.3,3.1-20.5,5.8c-6.5,2.8-9.9,10-8,16.8c5.3,19.5,6.6,39.5,6.1,59.6
	c-3.5-9.5-7.5-18.5-13.9-25.3c1.3,24.1,7.1,44.1,13.5,63.6l12.3,7.1c4.8-25.6,4-52.1,1.5-78.9C203.6,303.4,213,331.4,218.6,360.3z"
	/>
<path class="st3" d="M352.5,238.9c-2.5,12.5-5.8,24.8-10.1,36.8c-1,2.8-1.3,5.9-0.8,8.8l1,6.6c0.3-0.7,0.5-1.4,0.8-2.1
	c4-10.3,7-21.1,8.4-32.1c0.7-5.4,0.9-10.9,0.8-16.4C352.6,240,352.6,239.4,352.5,238.9 M170.9,292.4c-1.8-3-3.8-5.9-6.2-8.4
	c1.3,24.1,7.1,44.1,13.5,63.6l12.3,7.1c0.4-1.9,0.7-3.9,1-5.8c-1.2-2.8-2.4-5.5-3.7-8.3c-5.1-11.4-10.7-22.9-14.3-34.9
	C172.3,301.3,171.6,296.8,170.9,292.4z M179.5,233.4c-5.8,3.1-8.8,9.9-7,16.3c5.3,19.5,6.6,39.5,6.1,59.6c-0.9-2.5-1.9-4.9-2.9-7.3
	c1,4.7,2.1,9.5,3,10.4c0.7,0.7,0.1-1.9,0.1-2.8c0.1-2.3,0.2-4.6,0.3-6.8c0.2-6.4,0.6-12.8,0.9-19.2c0.7-13.7,1.7-27.5,0.3-41.2
	C180.1,240,180,236.5,179.5,233.4z M262.7,273.6c-0.5-1.8-1-3.6-1.6-5.4c-18.8-16.8-38.8-30.5-60-41.2c-0.5,0.1-0.9,0.1-1.3,0.2
	c1.1,0.6,2.1,1.2,3.2,1.9c6.1,3.6,11.9,7.4,17.7,11.4c14.5,10,28.5,20.6,41.5,32.6L262.7,273.6z M194.1,280.8
	c-0.5-3.4-1.1-6.7-1.7-10.1c-0.1-0.6-2.6-11.1-2.6-11.1c0.4-0.6,0.8,1.1,1.3,1.6c0.7,1,1.5,1.9,2.3,2.9c2.3,2.9,4.5,5.8,6.8,8.7
	c7.6,9.6,15.2,19.3,22.1,29.4c8.2,12,15,24.5,20.9,37.7c0.5,1.1,1.1,2.2,1.6,3.4c-12.7,11-25.5,19.6-26.2,16.9
	C213.3,333.2,204.7,306.7,194.1,280.8z"/>
<path class="st4" d="M318.1,343.7c1.7,0,3.2,1.4,3.2,3.2c0,1.7-1.4,3.2-3.2,3.2c-1.7,0-3.2-1.4-3.2-3.2
	C314.9,345.1,316.4,343.7,318.1,343.7 M322.4,364.4c1.7,0,3.2,1.4,3.2,3.2c0,1.7-1.4,3.2-3.2,3.2c-1.7,0-3.2-1.4-3.2-3.2
	C319.2,365.8,320.6,364.4,322.4,364.4z M326.6,390.3c1.7,0,3.2,1.4,3.2,3.2c0,1.7-1.4,3.2-3.2,3.2c-1.7,0-3.2-1.4-3.2-3.2
	C323.4,391.7,324.8,390.3,326.6,390.3z M309,409.5l-20.1-12c6.1-11.7,11.5-25,16.3-39.8C308.9,375.5,310.2,392.8,309,409.5z
	 M350.8,395.5c-7,8.8-14.2,16.7-21.5,23.7l-10.9-7c-0.7-22.5-3.6-45.4-9.4-68.9c3.1-7.4,5.7-16.4,8-26.4
	C332.3,344.4,343.2,370.4,350.8,395.5z"/>
<path class="st0" d="M287,289.6C287,289.6,287,289.6,287,289.6L287,289.6c-0.3-0.1-2.4,0.6-2.5,0.6c-1.2,0.4-8.5,3.1-9.2,2.7
	c-3.2-1.9-3-14.6-5-17.7L287,289.6z M331.4,328.2c0.7,0.3-1-1.2-1.5-1.8c-0.4-0.5-2.6-3.7-3.3-3.6c-0.2,0-0.1,0.6-0.1,0.7
	c0.2,2.7,1,5.9,2,8.5L331.4,328.2z M302.9,332.3c0.2-0.1,0.4-1.1,0.5-1.3c0.4-0.9,1-3.7,2-4.1c0.6-0.3,2,0.7,2.5,1
	c0.6,0.3,2.8,1.2,3.1,2c0.1,0.3-0.5,1.1-0.6,1.3c-0.7,1.3-1.5,2.6-2.4,3.8L302.9,332.3z M346.5,346.7L346.5,346.7
	C346.5,346.7,346.5,346.8,346.5,346.7z M346.5,346.7c-0.1-0.1-0.3-0.6-0.5-0.8c-0.4-0.6-0.9-1.2-1.3-1.7c-0.5-0.6-4.6-6-5-5.9
	c-0.8,0.2-1.6,2-2.1,2.6c-3.7,5.4-0.3,5.6,2,11L346.5,346.7z M289.1,355.5c-0.3,0.1,0.3-0.5,0.5-0.7c0.4-0.6,0.8-1.2,1.1-1.8
	c0.6-0.9,1.9-4.4,3.3-3.9c1.3,0.6,2.5,1.4,3.7,2.1c1.1,0.6,4.6,2.2,5.1,3.5c0.2,0.5-0.7,1.6-0.9,2c-1,1.7-2.3,3.2-3.4,4.7
	L289.1,355.5z M363,367.2c-0.1-0.8-5.8-7.5-6.1-7.5c-1.4,0.2-3,3.3-3.7,4.3c-3.9,5.2-5.3,6.1-1.2,11.2c0.6,0.7,1.7,2.7,2.6,3.1
	L363,367.2z M270.9,382.3c-0.1-0.1,0.6-0.9,0.7-1c1.7-2.5,3.4-5.1,5.1-7.6c0.1-0.1,0.2-0.4,0.4-0.4c1.6,0,4.2,2.7,5.4,3.5
	c2.4,1.7,4.9,3.2,7.3,4.9c0.1,0,0.5,0.3,0.5,0.4c0,0.4-1.2,1.6-1.4,1.9c-1.7,2.3-3.1,4.9-4.9,7.1L270.9,382.3z"/>
<path class="st2" d="M263,49.4l2.4-7.4c20-6.5,37-6.4,47.7,7.2C294.1,40.4,278.2,43.7,263,49.4 M251.9,86.2c1,0,1.8,0.8,1.8,1.8
	c0,1-0.8,1.8-1.8,1.8c-1,0-1.8-0.8-1.8-1.8C250.1,87,250.9,86.2,251.9,86.2z M252,84.5c1.9,0,3.4,1.5,3.4,3.4c0,1.9-1.5,3.4-3.4,3.4
	c-1.9,0-3.4-1.5-3.4-3.4C248.6,86,250.1,84.5,252,84.5z M237.3,57c1.4,13.3,4.8,24.6,9.7,34.5c1.1,2.1,3.4,3.4,5.8,3.1c0,0,0,0,0,0
	c3.1-0.4,5.4-3.2,5-6.4c-1.6-13.5-1-27.8,2.6-43.4c-1.9,0.1-3.8,0.8-5.7,2.2c-2,9.9-3.3,19.3-3.5,27.8c0,1.3-1,2.4-2.2,2.5
	c0,0,0,0,0,0c-0.6,0.1-1.2-0.2-1.4-0.7c-3-5.7-4.7-13.5-5.7-22.5C240,54.7,238.5,55.7,237.3,57z M195.4,129.6
	c-2.4-0.3-4.6-1.1-6.3-2.7c-2.4-2.3-3.4-5.8-2.5-9.1c6.5-23.7,24.1-41.5,45.3-57.5l1.6,6.4C209.8,83.3,196.3,103.9,195.4,129.6z
	 M321.5,56c0,0,9.3,4.7,13.6,4.2c2.9-0.3-0.1-4.7,3.4-4.7c4.4,0,10.1,8.9,12.5,17.2c2.4,8.3,3.1,22.9,8.8,36
	c5,11.6,15.2,16.6,14.4,21.1c-0.8,4.5-9.1,6.5-9.1,6.5s13-0.2,13.4-5.5c0.4-5.3-11.4-13.4-16.8-25.3c-4.1-9-4.1-27.5-10.6-40.8
	c-6.5-13.3-21-23.2-21-23.2s3.7,4.7,3.7,8.6c0.1,3.9-1.5,5.7-4.3,6.4C326.7,57.1,321.5,56,321.5,56z"/>
<path class="st1" d="M224.6,366.1L199,250.4c0,0-6.7-0.4-11.7-0.8c-3.2-0.2-6-2.3-7.1-5.3c-1.1-3-2.3-6.3-2.3-6.3s-1.2,0.1-2.5,0.2
	c-2,0.2-3.8-1.3-4-3.2c-2.9-21.7-18-136.5-21.8-165.1c-0.6-4.3-0.6-8.6-0.1-13c0.7-5.6,1.5-12.9,1.5-12.9s2.8,5.8,5.1,10.6
	c2.1,4.3,3.5,9,4.4,13.7c5.2,30.1,25,145.8,28.2,164.5c0.3,1.5-0.5,3-1.9,3.6c-1.4,0.6-2.9,1.3-2.9,1.3s0.1,0.3,0.2,0.9
	c0.8,4,4.5,6.8,8.6,6.5c1.9-0.2,3.8-0.3,5.4-0.4c0.8-0.1,1.6-0.5,2.1-1.1c0.5-0.7,0.8-1.5,0.7-2.3v0c-0.1-0.7,0.4-1.3,1-1.4
	c1.8-0.2,5-0.7,7.1-1c1.1-0.2,2.2,0.5,2.5,1.6c0.3,1,0.5,1.9,0.5,1.9s1.2-0.3,2.3-0.6c0.5-0.1,1-0.1,1.4,0.2
	c0.4,0.3,0.7,0.7,0.8,1.1c2.2,9.5,12.4,53.1,12.4,53.1s1.2-0.3,2.5-0.6c0.8-0.2,1.6-0.1,2.2,0.4c0.7,0.4,1.1,1.1,1.3,1.8
	c3.3,15.5,18.8,87.7,18.8,87.7L224.6,366.1z"/>
<path class="st0" d="M214.9,277.2c-0.8,0.2-1.5,0.6-1.9,1.3c-0.4,0.7-0.6,1.5-0.4,2.3c1.2,5.4,3.6,16.3,3.6,16.3l6.3-1.3
	c0,0-2.5-11-3.7-16.4c-0.4-1.6-1.9-2.6-3.5-2.3C215.2,277.2,215.1,277.2,214.9,277.2 M226.7,307c-0.1-0.6,0-1.2,0.4-1.7
	c0.3-0.5,0.9-0.9,1.5-1h0c1.3-0.2,2.5,0.6,2.8,1.9c2.6,12.4,14.6,70.4,14.6,70.4l-5-1.2C241,375.4,229.3,319.2,226.7,307z"/>
<path class="st1" d="M270,454.9H7.4c0-44,0-87.9,0-131.9H270h262.6c0,44,0,87.9,0,131.9H270z"/>
<path class="st5" d="M470.5,433.2h29c6.1,0,11.1-5.2,11.1-11.5v-25.2c0-4.6-2.7-8.7-6.8-10.5l-25.6-11.2v-2.7c0-5.4-4.1-9.7-9.4-9.7
	h23V373l18.7-4.4v-12.4c0-6.3-5-11.5-11.1-11.5h-29c-6.1,0-11.1,5.2-11.1,11.5v22.5c0,4.6,2.7,8.7,6.8,10.5l25.6,11.2v15h-13.6
	v-10.6l-18.7,4.4v12.4C459.4,428,464.4,433.2,470.5,433.2 M412.2,390.7v-18.6c0-5.4-4.1-9.7-9.4-9.7h27.3v28.3H412.2z M429.6,433.2
	h20.1v-17.7h-5.2l-1.9-8.2c3.9-1.8,6.3-5.8,6.3-10.2v-40.8c0-6.3-5-11.5-11.1-11.5h-49.4v17.7h5.1v53.1h-5.1v17.7h29v-17.7h-5.1
	v-7.1h11.2L429.6,433.2z M378.6,433.2V412h-18.7v3.5h-10.2v-17.7h15.5l3.9-17.7h-19.4v-8c0-5.4-4.1-9.7-9.4-9.7h19.6v3.5h18.7v-21.2
	h-52.8v17.7h5.1v53.1h-5.1v17.7H378.6z M290.4,433.2h20.5v-70.8h5.1v-17.7h-29v17.7h5.1v32.7l-20.5-50.4h-25.6v17.7h5.1v53.1h-5.1
	v17.7h29v-17.7H270v-32.7L290.4,433.2z M210.8,433.2h20.5v-70.8h5.1v-17.7h-29v17.7h5.1v32.7l-20.5-50.4h-25.6v17.7h5.1v53.1h-5.1
	v17.7h29v-17.7h-5.1v-32.7L210.8,433.2z M109,433.2h31.5c6.1,0,11.1-5.2,11.1-11.5v-59.3h5.1v-17.7h-29v17.7h5.1v53.1h-25.6
	c5.2,0,9.4-4.3,9.4-9.7v-43.4h5.1v-17.7h-29v17.7H98v59.3C98,428,102.9,433.2,109,433.2z M40.5,433.2H72c6.1,0,11.1-5.2,11.1-11.5
	v-41.6H59l-3.9,17.7h9.3v17.7H48.2v-43.4c0-5.4-4.1-9.7-9.4-9.7h25.6V373l18.7-4.4v-12.4c0-6.3-5-11.5-11.1-11.5H40.5
	c-6.1,0-11.1,5.2-11.1,11.5v65.5C29.4,428,34.4,433.2,40.5,433.2z"/>
<path class="st0" d="M473.5,389l21.5,9.4v20.3H475v-9.8l-12.4,2.9v9.9c0,4.4,3.4,8.3,7.9,8.3h29c4.5,0,7.9-3.9,7.9-8.3v-25.2
	c0-3.2-1.9-6.3-4.9-7.6H473.5z M432.1,430h14.5v-11.4H442l-3.1-13.2l2.4-1.1c2.9-1.3,4.5-4.3,4.5-7.4V389h-12.4v4.9H409V389h-12.4
	v29.7h-5.1V430h22.7v-11.4H409v-13.4h16.8L432.1,430z M375.4,430v-14.9H363v3.5h-16.5v-24h16.1l1.3-5.7H334v29.7h-5.1V430H375.4z
	 M254.4,389v29.7h-5.1V430h22.7v-11.4h-5.1V389H254.4z M292.6,430h15.2V389h-12.4v22.4l-9.1-22.4h-10.3L292.6,430z M174.8,389v29.7
	h-5.1V430h22.7v-11.4h-5.1V389H174.8z M212.9,430h15.2V389h-12.4v22.4l-9.1-22.4h-10.3L212.9,430z M136.1,389v29.7h-31.9v-6.3h3.2
	c3.6,0,6.2-3,6.2-6.6V389h-12.4v32.7c0,4.4,3.4,8.3,7.9,8.3h31.5c4.5,0,7.9-3.9,7.9-8.3V389H136.1z M60.3,389l-1.3,5.7h8.5v24H45
	V389H32.6v32.7c0,4.4,3.4,8.3,7.9,8.3H72c4.5,0,7.9-3.9,7.9-8.3V389H60.3z"/>
</svg>
