<?xml version="1.0" encoding="utf-8"?>
<!-- Generator: Adobe Illustrator 19.0.0, SVG Export Plug-In . SVG Version: 6.00 Build 0)  -->
<svg version="1.1" id="Layer_1" xmlns="http://www.w3.org/2000/svg" xmlns:xlink="http://www.w3.org/1999/xlink" x="0px" y="0px"
	 viewBox="0 0 612.4 544.9" style="enable-background:new 0 0 612.4 544.9;" xml:space="preserve">
<style type="text/css">
	.st0{fill-rule:evenodd;clip-rule:evenodd;fill:#999999;}
	.st1{fill-rule:evenodd;clip-rule:evenodd;}
	.st2{fill-rule:evenodd;clip-rule:evenodd;fill:#FCBF00;}
	.st3{fill-rule:evenodd;clip-rule:evenodd;fill:#B76000;}
	.st4{fill-rule:evenodd;clip-rule:evenodd;fill:#FEFEFE;}
	.st5{fill-rule:evenodd;clip-rule:evenodd;fill:#FFFFFF;}
	.st6{fill-rule:evenodd;clip-rule:evenodd;fill:#ED767A;}
	.st7{fill-rule:evenodd;clip-rule:evenodd;fill:#992C30;}
	.st8{fill:#FFFFFF;}
</style>
<path class="st0" d="M3.1,336.3c1-2.6,1.9-4.6,0.8-7.4c-2.7-6.9-2.5-14.1,1.7-20.4c0.8-1.2,1.5-2.7,1.7-4.2c0-0.6-0.1-1.3-0.1-1.9
	C7,294,8.9,285,15.1,279c7.4-7.2,21.4-12.2,31.4-15c0.6-0.2,1.2-0.2,1.8-0.2c0.9,0.1,1.9,0.2,2.8,0.3c1.6-0.6,3.3-1.1,4.8-1.5
	c3.9-1,10.6,0,14.5,0.8c6.9,1.5,13.8,4.3,19.4,8.6c6.7,5.2,14,12.5,19.1,19.3c1.5,2,1.3,4.8-0.6,6.5c-1.5,1.5-3.7,1.8-5.6,0.9
	c-1.1-0.3-2.8-0.4-3.8-0.5c-1.3-0.1-2.7-0.2-4-0.3c2.2,1.3,4.2,2.7,6,4.1c5.5,4.5,12,11.2,15.7,17.5c1.2,2,0.8,4.5-0.8,6.1
	c-1.6,1.5-3.8,1.8-5.7,0.9c-1.8-0.6-6.6-0.2-8.3,0.1c-2.6,0.3-5.4,0.8-8.2,1.5c1,0.7,1.9,1.4,2.7,2.1c5.5,4.3,10.9,9.4,15.7,14.5
	c1.4,1.5,1.8,3.5,1,5.4c-0.8,1.9-2.6,3-4.5,3c-0.9,0-2.1,0.3-3,0.4c-3.4,0.7-6.8,1.7-10.1,2.8c-3.1,1-6.4,2-9.8,2.8
	c1.1,0.2,2.2,0.3,3.3,0.4c2.5,0.3,6.4,0,8.7-1.1c1.9-1,4.1-0.7,5.7,0.8c1.6,1.5,2,3.7,1.2,5.6c-1.4,3.1-3.4,6.3-5.3,9.1
	c-4,5.7-9.3,11-15.7,14c-8.2,3.9-19.5,6.6-28.6,7.2c-0.3,0-0.6,0-1,0c-4.6-0.6-9.5-1.6-14-2.8c-8.6-2.3-24.5-9-31.3-14.6
	c-6.5-5.4-10.4-14.8-8-23c-0.6-3.4-0.9-7.4-0.5-10.6c0-0.1,0-0.2,0.1-0.4c0.2-0.9,0.4-1.8,0.7-2.6c0,0,0-0.1,0-0.1
	c0-0.1,0-0.1,0.1-0.2C1.7,339.2,2.3,337.7,3.1,336.3 M607.3,336.3c0.8,1.4,1.4,2.9,2,4.5c0,0.1,0,0.1,0.1,0.2c0,0,0,0.1,0,0.1
	c0.3,0.9,0.5,1.7,0.7,2.6c0,0.1,0.1,0.2,0.1,0.4c0.5,3.2,0.2,7.2-0.5,10.6c2.4,8.3-1.5,17.7-8,23c-6.7,5.6-22.7,12.3-31.3,14.6
	c-4.5,1.2-9.4,2.2-14,2.8c-0.3,0-0.6,0.1-1,0c-9.1-0.6-20.4-3.3-28.6-7.2c-6.4-3.1-11.6-8.3-15.7-14c-1.9-2.7-3.9-6-5.3-9.1
	c-0.9-2-0.4-4.1,1.2-5.6c1.6-1.5,3.8-1.8,5.7-0.8c2.3,1.2,6.2,1.4,8.7,1.1c1.1-0.1,2.2-0.3,3.3-0.4c-3.3-0.8-6.6-1.8-9.8-2.8
	c-3.3-1.1-6.7-2.1-10.1-2.8c-0.9-0.2-2.1-0.4-3-0.4c-2,0-3.7-1.1-4.5-3c-0.8-1.9-0.4-3.9,1-5.4c4.8-5,10.2-10.1,15.7-14.5
	c0.8-0.6,1.7-1.3,2.7-2.1c-2.8-0.7-5.5-1.2-8.2-1.5c-1.8-0.2-6.5-0.6-8.3-0.1c-1.9,1-4.1,0.6-5.7-0.9c-1.7-1.6-2-4.1-0.8-6.1
	c3.7-6.2,10.2-13,15.7-17.5c1.7-1.4,3.8-2.8,6-4.1c-1.3,0.1-2.7,0.1-4,0.3c-1,0.1-2.8,0.2-3.8,0.5c-1.8,0.9-4,0.6-5.6-0.9
	c-1.8-1.7-2.1-4.5-0.6-6.5c5.1-6.8,12.4-14.1,19.1-19.3c5.6-4.3,12.6-7.1,19.4-8.6c3.9-0.9,10.6-1.8,14.5-0.8
	c1.5,0.4,3.2,0.9,4.8,1.5c0.9-0.1,1.9-0.2,2.8-0.3c0.6-0.1,1.2,0,1.8,0.2c10,2.8,23.9,7.7,31.4,15c6.2,6,8,15,7.9,23.3
	c0,0.6,0,1.3-0.1,1.9c0.2,1.5,0.9,3,1.7,4.2c4.2,6.3,4.4,13.5,1.7,20.4C605.4,331.7,606.3,333.7,607.3,336.3z"/>
<path class="st0" d="M305.2,455.7c-64.1,0-128.2,1.2-192.3,3l-2.6,0.1l-51-51.1l-2.8-2.8l0.9-6.5c6.9-47.7,13.9-95.3,20.9-142.9
	l0.8-5.4l5.5,0.4c40.1,2.9,80.3,5.3,120.5,6.8c33.3,1.2,66.6,1.9,99.9,1.9c33.3,0,66.6-0.6,99.9-1.9c40.2-1.5,80.4-3.9,120.5-6.8
	l5.5-0.4l0.8,5.4c7,47.6,14,95.3,20.9,142.9l0.9,6.5l-2.8,2.8l-51,51.1l-2.6-0.1C433.4,457,369.3,455.7,305.2,455.7"/>
<path class="st1" d="M305.2,449.8c-66.1,0.1-127.2,1.2-192.4,3l-49.8-50l242.3-86.4l242.3,86.4l-49.8,50
	C432.4,451,371.4,449.9,305.2,449.8"/>
<path class="st0" d="M305.2,544.9l-130.7-93.6l-28.3-27.6l-62.7-37.6l25-248.7l108.9-59.3c-5.8-13-6.8-27.1-1.3-40.5
	c2.2-5.4,5.7-11.1,9.7-15.5c3.8-8.2,10.6-15.5,19.2-18.3c6.6-2.1,14.4-2.3,21.3-1c7.3-0.7,15.6,1.3,22.1,4.2
	c9.4,4.2,19.9,14.7,27.2,22.8c2.5,0.5,5,1,7.5,1.5c3.8,0.8,7.6,2,11.2,3.6c6.1-1.9,12.7-1.3,18.9,0.4c11.8,3.2,19.3,13.2,22.5,24.4
	c14,6.4,26.1,16.3,36,28c0.3,0.4,0.6,0.7,0.9,1.1l89.2,48.6l25,248.7l-62.6,37.6l-28.3,27.6L305.2,544.9z"/>
<polygon class="st1" points="305.2,537.6 89.8,383.3 114.1,141.1 305.2,37.1 496.3,141.1 520.6,383.3 "/>
<polygon class="st2" points="305.2,515.7 501.9,374.8 479.5,152.3 305.2,57.3 130.9,152.3 108.5,374.8 "/>
<polygon class="st3" points="305.2,501.1 489.4,369.2 468.4,159.7 305.2,70.8 142.1,159.7 121,369.2 "/>
<polygon class="st1" points="476.6,330.4 460,165.2 305.2,81 150.4,165.2 133.8,330.4 "/>
<path class="st1" d="M178.6,188.8c-5.3-0.3-9.5-3.3-13.6-4.5c15.6-6.5,17-7.7,24.2-23.9c3.7-8.4,7.5-16.8,11.2-25.2
	c1.5-3.3,2-4.7,3.7-7.9c-5.4-1.1-7.2-1.6-12.6-2.7c18.7-18.4,26.4-21.4,33.6-46.7c-6.1-11.9-7.6-25-2.4-37.7
	c2-4.8,5.3-10.3,9.2-14.2c2.9-6.8,8.4-13.3,15.5-15.6c5.6-1.8,12.8-1.9,18.8-0.5c6.4-0.9,14.1,1,19.6,3.5
	c8.5,3.8,19.4,14.8,26.4,22.8c3.3,0.7,6.5,1.4,9.8,2c3.9,0.8,8.3,2.4,12.2,4.4c5.4-2.6,11.7-2.1,17.3-0.5
	c10.4,2.8,16.4,12.6,18.3,22.7c14.3,5.9,26.7,15.7,36.7,27.5c5,5.8,10.4,13.4,13.9,20.3l7.6,15.4l-9.6-1.6
	c2.7,6.9,4.5,14.2,5.7,21.3c0.8,4.9,1.4,10.3,1.6,15.5l35,29l-12.2,0.2c3.4,2.5,6.9,5,10.2,7.4c8.5,6.1,17.3,12,25.4,18.7
	c6.3,5.2,14.2,12.5,16.2,20.8c3.4,14.4-6.6,33.3-14.1,45c-16.3,25.7-40.5,50.1-62.9,70.4c-21.5,19.5-46,39.1-71.6,53
	c-7.3,4-18.4,9.5-26.8,11.2l-2.1,0.4l-2.1-0.6c-62.3-18.4-122.7-50-165-100.3c-11.5-13.6-21.7-28.8-29.5-44.8
	c-2.9-6.1-6.1-13.3-7.9-19.9l-0.8-2.9l1.1-2.8c8.9-21.6,21.5-31.7,40.2-44.2C165.4,199.3,172.2,194.2,178.6,188.8"/>
<path class="st1" d="M234.3,76.6c0,0-0.8,7.7-8.9,21.1c-8.1,13.4-17.8,22-17.8,22c2.7,0.6,10.2-1.1,12.2-2.1c0,0-4.2,4.9-11.4,21.2
	c-7.3,16.3-11.2,25.2-11.2,25.2l9.3-4.8c0,0-3.5,4.7-11.2,12.8c-7.7,8-11.4,11.5-11.4,11.5c3.4,2.5,8.1,1.9,12.2,1.5
	c0,0-15.9,15.2-32.4,26.2c-16.5,11-28.6,20-37,40.3c0,0,29.3,109.5,196.4,158.8c0,0,33-6.6,94.2-62c61.2-55.4,77.9-92,74.4-106.9
	c-3.5-15-45.3-36.1-64.7-55.4l12-1.3l-22.1-16.3c0,0,0.9-32.8-15-53.5l10.6,1.8c0,0-16.7-33.9-50.8-45.3c0,0-0.6-17.3-12.5-20.6
	c-12-3.3-14.2,2.9-14.2,2.9s-6.5-4.9-14.7-6.6c-8.2-1.6-12.9-2.7-12.9-2.7s-15.4-18.3-25.2-22.7c-9.8-4.4-16.3-2.5-16.3-2.5
	s-8.4-2.5-15.8-0.1c-7.5,2.4-10.7,12.2-10.7,12.2S218.3,49.2,234.3,76.6"/>
<path class="st4" d="M139.8,258.6c0,0,9.9,18.3,20.5,33.2c10.6,15,10.6,15,10.6,15s-6.8-12.1-6.8-33c0-20.9,13.9-37.6,13.9-37.6
	s-2.2,9.2,15,34.5c17.2,25.3,47.3,30.6,47.3,30.6s-10.6-7.3-19.4-21.8c-8.8-14.5-10.6-24.2-10.6-24.2s11.7,14.3,41.4,27.1
	c29.7,12.8,45.8,7.3,45.8,7.3s-25.3-4.6-42.7-26.8c-17.4-22.2-22.9-53.5-22.9-53.5s9.5,8.8,27.6,14.6c18.1,5.8,26.4,5.8,26.4,5.8
	s-28.7-15.4-39-39.8c-10.3-24.4-3.7-51.9-1.5-58.6c2.2-6.7,5.7-12.2,5.7-12.2v12.1c0,0,8,15.4,29.1,16.9
	c21.1,1.5,34.8-15.2,35.4-16.9c0.7-1.8,0.2-8,1.3-16.3c1.1-8.2,1.1-8.2,1.1-8.2s1.8,6.6,6.4,13.7c4.6,7.1,6.8,9.5,6.8,9.5
	s-0.7,5.9-2.4,10.6c-1.8,4.6-2.3,4.6-2.3,4.6s7.4-3,10.9-10.3c3.5-7.4,1.5-14.8,1.5-14.8s7,4.8,9.1,16.5C350,148.1,347,151,347,151
	s6.6-4.2,11.4-11.4c4.8-7.3,4.6-10.1,4.6-10.1s5.4,16.4-0.1,31.3c-5.5,15-13.9,17.6-13.9,17.6s5.1,2.7,11.7,2.6
	c6.6-0.1,9.5-1.8,9.5-1.8s-3.4,8.9-17.7,16.2c-14.3,7.3-26.8,3.5-26.8,3.5s5.5,6.9,26.7,11.4c21.2,4.5,30.8-0.3,30.8-0.3
	s-16.2,23-38.8,36c-22.7,13-43.6,9.5-43.6,9.5s16.9,11.4,51.5,9.7c34.5-1.8,47.7-15.4,47.7-15.4s7.7-9.6,6.6-21.1
	c-1.1-11.5-3.3-13.1-3.3-13.1s16.7,5.6,27.3,19.5c10.6,13.9,8.6,27.1,8.6,27.1s4-4.1,6.2-10c2.2-5.9,1.6-8.7,1.6-8.7
	s9.5,15.9,2,38.4c-7.5,22.4-21.6,41.4-21.6,41.4s42.2-39.6,47.1-58.1c4.8-18.5-4.8-37.4-25.7-50.4c-20.9-13-43.6-33.7-43.6-33.7
	l5.4-2.2l-7.4-9.5c0,0-1.8,4.2-7.6,9.5c-5.8,5.3-7.5,6-7.5,6s5.9-8.7,6.3-20.6c0.3-11.9-1.9-19.1-1.9-19.1s5.5,2.3,8.8,6.3
	c3.3,4,3.6,6,3.6,6s-0.8-19.5-8.7-33.8c-7.9-14.3-20.9-20.5-20.9-20.5s4.8-1.2,10.7-1c5.8,0.2,5.8,0.2,5.8,0.2s-9.8-11.3-22.5-16.7
	c-12.8-5.4-17.2-6-17.2-6s3.4-14.5-1.9-19.5c-5.3-4.9-12.2,1.1-12.2,1.1s5.9-0.3,7,1c1.1,1.3-0.3,15-0.3,15l-4-1.2
	c0,0-3.1-9.9-10.2-16.5c-7.1-6.6-11.5-6.7-13-6.3c-1.5,0.3-1.8,0.4-1.8,0.4s2.9,0.8,4.2,2.1c1.4,1.4,4.8,6.8,5.9,9.2
	c1.2,2.4,1.2,2.4,1.2,2.4s-7.8-2.8-15.8-9.5c-8-6.7-19.5-22.8-28.4-27.9c-8.9-5.2-15.4-1.4-15.4-1.4s-1.2,4.5-3.4,7.3
	c-2.2,2.7-4.3,5.6-4.6,6.9c-0.3,1.3,1.4,6.2,6.7,8.5c5.3,2.3,14.2-6.3,21-3.4c6.7,3,12.5,15.4,12.5,15.4s-2.1-2.6-5.2-5.1
	c-3.1-2.4-3.2-2.4-3.2-2.4s3,11.2,7.7,18.6c4.7,7.5,10,6.2,11.3,5.6c1.3-0.6,1.5-1.3,1.5-1.3s1.8,2.5-0.7,8
	c-2.5,5.5-3.3,7.7-5.3,19.4c-2,11.7-5.1,14.6-13.2,18.9c-8.1,4.3-20.8,4.4-20.8,4.4s2.9,2,7.6,2.7c4.7,0.8,5.7,0.8,5.7,0.8
	s-13.3,3.4-21.4-1.8c-8.1-5.2-6.5-12-4.9-25.2c1.5-13.2,4.4-22.2,4.4-22.2s-2.6-1.1-4.7-3.7c-2.1-2.6-3.5-5-3.5-5s-0.4,1.5,0.2,4.1
	c0.6,2.6,1,3.4,1,3.4s-3.7-4.2-6.5-9.6c-2.9-5.4-2.6-9.5-2.6-9.5s-0.3-0.2-0.9,0.8c-0.6,1-0.3,2.1-0.3,2.1s-1.8-4.3-0.6-7.5
	c1.2-3.2,13-4,12.8-8.8c-0.2-4.8-4.4-8.1-4.4-8.1s-2.9-0.2-5.9-2.4c-3.1-2.2-3.5-2.6-3.5-2.6s-10.6,7.9-6.8,20.5
	c3.7,12.5,9.9,15.8,14.1,29.5c4.2,13.6-0.2,26.4-0.2,26.4s0.3-5.9-2.3-13.9c-2.6-7.9-6.6-14.2-6.6-14.2s-1.8,6.7-7.1,14.8
	c-5.4,8.1-10.1,11.1-10.1,11.1l10-0.1c0,0-6.4,7.1-10.7,15.3c-4.3,8.1-4.8,9.7-4.8,9.7s1.3-1.1,6.4-2.4c5.1-1.3,5.3-1.3,5.3-1.3
	s-6.7,8.7-8.2,21c-1.5,12.3,2,20.2,2,20.2s1.9-4.8,5.3-8.6c3.4-3.7,3.4-3.7,3.4-3.7s-0.3,7.3,1.5,19.2c1.9,12,5.5,16.2,5.5,16.2
	s-3.8-3.6-6.8-8.5c-3-4.8-3.1-9.2-3.1-9.2s-3.6,5.3-6.7,11.3c-3.1,6-3.6,8.9-3.6,8.9s-3-8.4-4.5-18.1c-1.5-9.8-1.1-16.8-1.1-16.8
	S210,185.9,194,201C177.9,216.2,142.3,231.2,139.8,258.6"/>
<path class="st5" d="M308.4,55.4c-7.7-7.6-17.6-20.7-25.5-25.3c-7.1-4.1-12.7-2.6-14.7-1.8c-0.4,0.7-0.8,1.4-1.3,2.1
	c-0.5,1.6-1.5,3.8-2.8,5.5l-0.2,0.3c-0.4,1.4-0.6,2.8-0.4,4.3c0.8,4.8,5.6,6,8.2,5.8c2.6-0.3,4.9-1,4.9-1s-2.4,0.1-4.5-1
	c-2.1-1-2.1-1-2.1-1s3.2,0.5,8.9-0.8c5.7-1.3,10.4-3.8,16.1,2.3c5.7,6.2,8.7,14,14.3,21.1c5.6,7.1,15.1,11.3,15.1,11.3
	s-4.3-2.7-7.3-9.2C314.1,61.4,308.4,55.4,308.4,55.4L308.4,55.4z M340.8,76.2c0,0-3.1-9.9-10.2-16.5c-7.1-6.6-11.5-6.7-13-6.3
	c-0.7,0.1-1.1,0.2-1.4,0.3c0.6,0.2,1.2,0.5,1.8,0.9l0,0c0.7,0.3,1.5,0.8,2,1.3c0,0,0.1,0.1,0.2,0.2c6.2,4.8,11.6,13.5,14.4,16.3
	C337.6,75.4,340.8,76.2,340.8,76.2z M352.2,79.8c0,0,3.4-14.5-1.9-19.5c-4-3.7-8.8-1.2-11,0.2c2.1-0.7,4.9-1,7.5,0.8
	C351.2,64.7,352.2,79.8,352.2,79.8z M404.9,157.4c0,0.1,0,0.1,0,0.1s-0.8-19.5-8.7-33.8c-7.9-14.3-20.9-20.5-20.9-20.5
	s4.8-1.2,10.7-1c5.8,0.2,5.8,0.2,5.8,0.2s-9.8-11.3-22.5-16.7c-12.8-5.4-17.2-6-17.2-6s-4.1-0.2-8-0.9c-3.8-0.8-5.9-1.2-5.9-1.2
	s0.8,4.2,12.3,9.3c11.5,5.2,26.3,10.1,26.3,10.1s-3.3-1.5-10.4,0.1c-7.1,1.7-8,1.9-8,1.9S395.5,110.9,404.9,157.4z M472.9,269.3
	c0.7-1.5,1.2-2.9,1.6-4.2c4.8-18.5-4.8-37.4-25.7-50.4c-20.9-13-43.6-33.7-43.6-33.7l5.4-2.2l-7.4-9.5l0,0l0,0
	c-0.1,0.2-2.2,6.2-3.7,8.7c-1.6,2.5-1.6,2.5-1.6,2.5s28.6,23.4,37.1,33.1c8.6,9.7,11,17.8,11,17.8s-0.7,0.2-0.9-5.7
	c-0.2-5.9-1.8-9.7-1.8-9.7s37.5,19.3,29.9,50.3C473.1,267.6,472.9,268.5,472.9,269.3z"/>
<path class="st5" d="M215.8,182.1c-0.1-0.4-0.1-0.7-0.2-1.1c-1.5-9.8-1.1-16.8-1.1-16.8S210,185.9,194,201
	c-15.7,14.8-49.9,29.4-54,55.5c5.9-14.8,25.1-26,25.1-26s-2.9,6.2-4.4,11.4c-1.5,5.3-1.5,5.3-1.5,5.3s1.8-6.8,16.5-16.7
	c14.7-9.9,19-18.2,19-18.2s0.6,7.3,4.1,12.4c3.5,5.2,8.8,7.1,8.8,7.1s-4.8-7-0.7-23C211.1,193,215.8,182.1,215.8,182.1L215.8,182.1z
	 M249,100.5c-0.1-0.4-0.2-0.7-0.4-1.1c-2.6-7.9-6.6-14.2-6.6-14.2s-1.8,6.7-7.1,14.8c-5.4,8.1-10.1,11.1-10.1,11.1l10-0.1
	c0,0-6.4,7.1-10.7,15.3c-4.3,8.1-4.8,9.7-4.8,9.7s1.3-1.1,6.4-2.4c5.1-1.3,5.3-1.3,5.3-1.3s-6.7,8.7-8.2,21c-1.5,12.3,2,20.2,2,20.2
	s-1.1-5.8,1.7-19.6c2.7-13.7,9.2-27.5,9.2-27.5l-8,3.5c0,0,2.7-6.9,6.8-13.6c4.1-6.7,6.8-9.3,6.8-9.3l-8.1,0.8c0,0,4.9-4.2,7.7-9
	c2.7-4.8,3-7.7,3-7.7s0.8,1.8,2.9,5.1C248.6,99.3,249,100.5,249,100.5z M249,100.5L249,100.5L249,100.5L249,100.5z M249.3,81.7
	l0.1,0.2C249.4,81.9,249.4,81.8,249.3,81.7L249.3,81.7z M243.9,36.9c0,0-10.6,7.9-6.8,20.5c2.4,7.9,5.7,12.1,8.9,17.6
	c-2.3-4.6-4.8-10.3-5.6-14.7c-1.2-7.1,3.7-10.3,3.7-10.3s-0.8,1.1-1.2,3.6c-0.3,2.5-0.3,2.5-0.3,2.5s1.4-1.5,4.5-3.1
	c3.1-1.6,3.9-8,1.5-10.4C246.1,40.1,243.9,36.9,243.9,36.9z"/>
<path class="st0" d="M320,55.9c1.4,1.4,4.8,6.8,5.9,9.2c1.2,2.4,1.2,2.4,1.2,2.4s-7.8-2.8-15.8-9.5c-0.9-0.8-1.9-1.6-2.9-2.6l0,0
	c4.2,6.8,23.9,18.9,23.9,18.9S322.4,57.4,320,55.9 M344.8,62.2c0.1,0.1,0.2,0.2,0.3,0.3c1.1,1.3-0.3,15-0.3,15l-4-1.2
	c0.4,1.2,8.1,2.1,8.1,2.1S349.2,63.5,344.8,62.2L344.8,62.2z"/>
<path class="st0" d="M245.3,58.4c2.2-2.8,12.7-3.7,12.5-8.3c-0.2-4.8-4.4-8.1-4.4-8.1s-2.9-0.2-5.9-2.4c-3.1-2.2-3.5-2.6-3.5-2.6
	s0.4,2.6,4.2,5.3c3.8,2.7,6,6.6,5.6,9C253.4,53.4,247.6,54,245.3,58.4 M307.1,98.9c-0.4,1.9-0.8,4.3-1.3,7.2
	c-2,11.7-5.1,14.6-13.2,18.9c-8.1,4.3-20.8,4.4-20.8,4.4s2.9,2,7.6,2.7c4.7,0.8,5.7,0.8,5.7,0.8s-5.1,1.3-11,1.1l0,0
	c11.6,0.6,21.9-4,27.3-8.5C306.3,121.6,305.9,106.7,307.1,98.9z M308.5,93.1c-0.3,0.9-0.6,1.9-0.8,3.1
	C308,95.1,308.3,94.1,308.5,93.1z M299.6,63.2c-0.4-0.5-2.4-2.8-5.1-4.9c-3.1-2.4-3.2-2.4-3.2-2.4s3,11.2,7.7,18.6
	c4.7,7.5,10,6.2,11.3,5.6c1.3-0.6,1.5-1.3,1.5-1.3s-3.4-1-7.7-8.2C302.6,68.2,301.1,65.7,299.6,63.2z M264.1,35.9
	c-2.2,2.7-4.3,5.6-4.6,6.9c-0.3,1.3,1.4,6.2,6.7,8.5c2.6,1.2,6.2-0.4,9.9-1.9c-4.5-0.1-8.6-0.3-10.1-2
	C262.8,43.9,261.5,40.9,264.1,35.9z M447,243.4c0,0,9.5,15.9,2,38.4c-7.5,22.4-21.6,41.4-21.6,41.4s42.2-39.6,47.1-58.1
	c0.3-1.1,0.5-2.1,0.7-3.2c-5.7,17.1-18.4,23.5-18.4,23.5s1.5-8.6-2.2-22.7C450.8,248.7,447,243.4,447,243.4z M447,244.8
	c0-0.9-0.1-1.3-0.1-1.3S447,243.9,447,244.8z M438.1,250.5L438.1,250.5L438.1,250.5L438.1,250.5z M317.8,106.7c0,0,1.8,6.6,6.4,13.7
	c4.6,7.1,6.8,9.5,6.8,9.5s-0.7,5.9-2.4,10.6c-1.8,4.6-2.3,4.6-2.3,4.6s7.4-3,10.9-10.3c3.5-7.4,1.5-14.8,1.5-14.8s7,4.8,9.1,16.5
	C350,148.1,347,151,347,151s6.6-4.2,11.4-11.4c4.8-7.3,4.6-10.1,4.6-10.1s5.4,16.4-0.1,31.3c-5.5,15-13.9,17.6-13.9,17.6
	s5.1,2.7,11.7,2.6c6.6-0.1,9.5-1.8,9.5-1.8s-3.4,8.9-17.7,16.2c-14.3,7.3-26.8,3.5-26.8,3.5s5.5,6.9,26.7,11.4
	c21.2,4.5,30.8-0.3,30.8-0.3s-16.2,23-38.8,36c-22.7,13-43.6,9.5-43.6,9.5s16.9,11.4,51.5,9.7c34.5-1.8,47.7-15.4,47.7-15.4
	s7.7-9.6,6.6-21.1c-1.1-11.5-3.3-13.1-3.3-13.1s16.7,5.6,27.3,19.5c1.8,2.4,3.3,4.8,4.5,7.1c-2.3-5.3-6.1-12.4-12-19.7
	c-11.4-14.3-37.2-30.8-37.2-30.8s12.2-5.4,17.3-22.3c0,0-1.8,4.2-7.6,9.5c-5.8,5.3-7.5,6-7.5,6s5.9-8.7,6.3-20.6
	c0.3-11.9-1.9-19.1-1.9-19.1s5.5,2.3,8.8,6.3c0.8,1,1.5,1.9,2,2.7c-1.8-3.4-5.3-9.2-10.8-15.7c-9-10.6-13.6-13.2-13.6-13.2
	s2.2,7.9-0.9,19.6c-3.1,11.7-8.6,18.3-8.6,18.3s3.1-11.7-2-30.8c-5.1-19.1-15.4-28.8-15.4-28.8s2.9,8.1,2.9,16.7
	c0,8.6-0.9,13.6-0.9,13.6s-2.2-11.4-10.3-21.3c-8.1-9.9-18.9-19.1-18.9-19.1s5.3,6.6,6.4,17.4c1.1,10.8,0.1,11.3,0.1,11.3
	s-2.4-1.4-6.9-7.4C319.8,108.7,317.8,106.7,317.8,106.7z M174.8,240.3c1.7-2.7,3-4.2,3-4.2s-2.2,9.2,15,34.5
	c17.2,25.3,47.3,30.6,47.3,30.6s-10.6-7.3-19.4-21.8c-8.8-14.5-10.6-24.2-10.6-24.2s11.7,14.3,41.4,27.1
	c29.7,12.8,45.8,7.3,45.8,7.3s-25.3-4.6-42.7-26.8c-17.4-22.2-22.9-53.5-22.9-53.5s9.5,8.8,27.6,14.6c18.1,5.8,26.4,5.8,26.4,5.8
	s-28.7-15.4-39-39.8c-10.3-24.4-3.7-51.9-1.5-58.6c2.2-6.7,5.7-12.2,5.7-12.2v12.1c0,0,8,15.4,29.1,16.9
	c20.6,1.5,34.1-14.4,35.3-16.8l0.1-0.2c0,0-13.8,13.6-29.6,15.1c-15.8,1.5-32.1-15.2-29.9-15.7c2.1-0.5,6.2,2.4,16.5,3.3
	c-3-0.3-6.1-1.1-8.7-2.7c-8.1-5.2-6.5-12-4.9-25.2c1.5-13.2,4.4-22.2,4.4-22.2s-2.6-1.1-4.7-3.7c-2.1-2.6-3.5-5-3.5-5
	s-0.4,1.5,0.2,4.1c0.6,2.6,1,3.4,1,3.4s-3.7-4.2-6.5-9.6c-2.9-5.4-2.6-9.5-2.6-9.5s-0.3-0.2-0.9,0.8c-0.6,1-0.3,2.1-0.3,2.1
	s-1.5-3.6-0.8-6.7l0,0c-1.7,5.6,4.5,14.6,6.9,23c2.4,8.4,1.3,17.3,1.3,17.3l0,0c-0.1,7.7-2,13.2-2,13.2s0.3-5.4-1.9-12.7v0
	c-0.5,6-8.2,9.7-11.8,16.4c-3.6,6.7-3.8,7.1-3.8,7.1s3-2,6.8-2.9c3.8-0.9,3.8-0.9,3.8-0.9s-20.3,26.6-19.3,53.2c0,0,1.9-4.8,5.3-8.6
	c3.4-3.7,3.4-3.7,3.4-3.7s-0.3,7.3,1.5,19.2c1.9,12,5.5,16.2,5.5,16.2s-3.8-3.6-6.8-8.5c-3-4.8-3.1-9.2-3.1-9.2s-3.6,5.3-6.7,11.3
	c-3.1,6-3.6,8.9-3.6,8.9s-3-8.4-4.5-18.1c-4.2,15.9-0.9,41.2,3.7,52.9c4.6,11.7,7.9,15.6,7.9,15.6s-11.7-5.5-21.3-13.9
	c-9.7-8.4-11.2-23.3-11.2-23.3S184,224.8,174.8,240.3z M142.8,264c3.7,6.5,10.4,17.9,17.5,27.9c10.6,15,10.6,15,10.6,15
	s-6.8-12.1-6.8-33c0-8.5,2.3-16.3,5-22.6l0,0c-9.7,20.1-9,30.9-9,30.9S149.6,274.5,142.8,264z"/>
<path class="st4" d="M253.2,62.9c0,0-2.5-3.4-3.5-1.3c-0.9,2.1,1,6.3,3,9.1c2,2.9,3.2,3.6,3.2,3.6S253.5,66.8,253.2,62.9"/>
<path class="st0" d="M253.2,62.9c0,0-1.9-2.6-3-1.8c1.1,0,1.3,3.8,3.2,8.3c0.8,1.9,1.7,3.4,2.4,4.5C255.3,72,253.5,66.2,253.2,62.9"
	/>
<path class="st4" d="M284.5,52.7c0,0-2.7-2.7-4.5-0.9c-1.8,1.8,0.4,7.7,2.4,10.7c2,3,4.4,4.8,4.4,4.8S284.6,58.5,284.5,52.7"/>
<path class="st0" d="M284.5,52.7c0,0-1.5-1.5-3-1.5c0,0,0.2,5.3,2.8,10.7c1.3,2.8,2.1,4.4,2.6,5.4l0,0
	C286.9,67.3,284.6,58.5,284.5,52.7"/>
<path class="st4" d="M256.4,62.6c0,0-0.1-1.4,1.4-2.2c1.5-0.9,4.8-0.1,4.8-0.1s2.9-2.4,4.8-2.8c1.9-0.4,4.7-0.3,4.7-0.3
	s1.8-2.2,3.1-2.5c1.4-0.3,2.7,0.2,2.7,0.2s-0.4,2.5-0.1,5.9c0.3,3.4,0.7,4.1,0.7,4.1s-2.2-1.5-3.7-3c-1.5-1.5-1.6-2.2-1.6-2.2
	s-1.6,1.8-2.4,4.6s-0.7,4.5-0.7,4.5s-1.8-1.5-4-3.3c-2.2-1.8-2.4-2.9-2.4-2.9s-1.7,1.4-2.6,3.7c-0.9,2.3-0.8,3.3-0.8,3.3
	S257.1,66.6,256.4,62.6"/>
<path class="st0" d="M276.6,54.5c0.8,0.1,1.4,0.3,1.4,0.3L276.6,54.5z M256.6,61.4c0.2-0.4,0.5-0.8,1.1-1.1c1.5-0.9,4.8-0.1,4.8-0.1
	s2.9-2.4,4.8-2.8c1.9-0.4,4.7-0.3,4.7-0.3s1.8-2.2,3.1-2.5c0.4-0.1,0.8-0.1,1.2-0.1c-1.3,0.1-2.2,3.3-1.2,5.3c1,2.1,3.1,4.8,3.1,4.8
	v0c-0.7-0.5-2.2-1.6-3.4-2.8c-1.5-1.5-1.6-2.2-1.6-2.2s-0.9,1-1.7,2.7l0-0.1c-0.8-2.5-2.4-3.7-4.2-3.4c-1.8,0.4-2,2-1.5,4.7
	c0.1,0.6,0.4,1.3,0.7,2.1l-0.3-0.3c-2.2-1.8-2.4-2.9-2.4-2.9s-1.7,1.4-2.6,3.7c-0.5,1.2-0.7,2-0.7,2.5c-0.1-1.5-0.3-3.3-0.3-4
	c0-1.2,0-3.9-1.4-4.1C258.1,60.4,257.3,60.8,256.6,61.4z"/>
<path class="st0" d="M263.4,108.1c0,0-2.9,11-1.8,13.4c1.1,2.4,3.1,2.8,4.6,2c1.5-0.8,1.4-3.4,1.4-3.4S264.3,113.6,263.4,108.1"/>
<path class="st4" d="M263.4,108.1c0,0-2.9,11-1.8,13.4c0.9,2,2.5,2.6,3.9,2.3c-0.4-1.1-0.9-2.7-1.2-4.6
	C263.5,115.1,263.4,108.1,263.4,108.1"/>
<path class="st0" d="M290.8,101.2c0,0-1,7.1-1,11.7c0,4.5,1.1,5.2,2.9,5.8c1.8,0.5,3.3-1.3,3.8-2.4
	C297,115.1,292.4,108.4,290.8,101.2"/>
<path class="st4" d="M290.8,101.2c0,0-1,7.1-1,11.7c0,4.5,1.1,5.2,2.9,5.8c0.5,0.2,1,0.1,1.4,0c-0.3-1.1-1-4.2-2.3-10.9
	c-0.5-2.3-0.7-4.1-0.9-5.5C291,101.8,290.9,101.5,290.8,101.2"/>
<path class="st4" d="M269.9,120.9c0,0,1.4,1.8,2.9,1.8c1.5,0.1,3.2-1.2,3.2-1.2s3.3,1.3,5,0.6c1.7-0.7,2.7-2.7,2.7-2.7
	s2.7,0.5,3.7,0.1c1-0.4,1.5-1.4,1.5-1.4s-1.5-2.5-2.4-4.6s-1.3-3.3-1.3-3.3s-0.7,2.5-0.9,4.6c-0.2,2.1,0.1,3,0.1,3s-1.8,0-3.5-2.2
	c-1.7-2.2-1.8-4.5-1.8-4.5s-1.4,2.4-2,5.1c-0.6,2.7-0.3,3.8-0.3,3.8s-1.7-0.9-3.1-2.8c-1.3-2-1.4-4.2-1.4-4.2
	S269.5,117.2,269.9,120.9"/>
<path class="st0" d="M272.2,113c0,0-0.6,1-1.2,2.4C271.6,114,272.2,113,272.2,113 M269.9,120.9c0,0,1.4,1.8,2.9,1.8
	c1.5,0.1,3.2-1.2,3.2-1.2s3.3,1.3,5,0.6c1.7-0.7,2.7-2.7,2.7-2.7s2.7,0.5,3.7,0.1c1-0.4,1.5-1.4,1.5-1.4s-0.6-1.1-1.3-2.4
	c0.1,1.2,0,2.6-1.4,2.2c-0.9-0.2-1.7-1.3-2.1-2c0,1.4,0.2,2,0.2,2s-1.7,0-3.4-2h0c0,0,0.8,2.3,0.6,3.4c-0.3,1.2-2,1.9-3.4,0.8
	c-0.6-0.5-1-1.8-1.2-3.1c-0.4,2.1-0.1,3-0.1,3s-1.1-0.6-2.3-1.8c0,0.8-0.1,3-1,3.2c-1,0.1-3.2-0.9-3.4-3
	C269.9,119.2,269.8,120.1,269.9,120.9z"/>
<path class="st6" d="M268.5,110.5c0,0-1.8-4.8-2-8.1c-0.2-3.4,5.4-15.2,8.9-16.8c3.4-1.6,6.3-0.2,6.3-0.2s-0.7,1-1.1,4.7
	c-0.4,3.7-0.1,5.6-0.1,5.6s1.7-10.8,8-13.1c6.3-2.3,10.6,3.4,12.1,7.1c1.5,3.7,2.2,5,2.2,5s-1.1,6.2-1.5,10.7
	c-0.4,4.5-0.7,5.8-0.7,5.8s-2.7-3.4-5.9-8.9c-3.1-5.4-3.4-7.5-3.4-7.5s-2.6,3.7-3.6,7.3c-0.9,3.6-1.1,6.1-1.1,6.1l-1.5-4.1
	c0,0-1.9,2.2-2.5,4.7c-0.7,2.5-0.7,2.8-0.7,2.8s-0.9-1.9-1.1-3.8c-0.2-2-0.2-2.7-0.2-2.7s-2.2,1.8-3.6,3.9c-1.4,2.1-1.8,3.7-1.8,3.7
	s-0.7-1.6-0.9-4.1c-0.2-2.5-0.1-3.4-0.1-3.4S270.6,106.5,268.5,110.5"/>
<path class="st7" d="M280.4,95.7c0,0,1.7-10.8,8-13.1c6.3-2.3,10.6,3.4,12.1,7.1c1.5,3.7,2.2,5,2.2,5s-1.1,6.2-1.5,10.7
	c-0.4,4.5-0.7,5.8-0.7,5.8s-2.7-3.4-5.9-8.9c-2.5-4.3-3.2-6.5-3.4-7.3c0.1-0.7,0.1-1,0.1-1s0.4,2.7,2.1,5.1c1.7,2.5,3.2,4.2,3.2,4.2
	s0.4-16.8-6.1-16.7C284.1,86.9,280.4,95.7,280.4,95.7 M266.5,101.5c0.5-4.1,5.6-14.6,8.8-16.1c3.4-1.6,6.3-0.2,6.3-0.2
	s-0.7,1-1.1,4.7c-0.3,2.8-0.2,4.5-0.1,5.2c-0.2-1.4-1.3-6.4-5-5.8C271.2,90.3,266.8,99.4,266.5,101.5z M266.6,103.7
	c-0.1-0.5-0.1-1-0.2-1.4c0-0.2,0-0.4,0-0.6C266.4,102.2,266.5,102.9,266.6,103.7z"/>
<path class="st1" d="M113.4,428.3L63,402.8c7.1-48.8,14.2-97.6,21.4-146.5c76.9,5.5,145.1,8.4,220.8,8.7
	c75.7-0.2,143.9-3.1,220.8-8.7c7.2,48.8,14.3,97.6,21.4,146.5L497,428.3C370,408.7,242.1,408.6,113.4,428.3"/>
<path class="st1" d="M305.2,490.2l92.2-66c-28.4-8.2-60.3-12.9-94-12.9c-32.7,0-63.7,4.3-91.4,12.1L305.2,490.2z"/>
<path class="st3" d="M509.8,272.3c0.7,4.5,1.3,9,2,13.6c-68.6,3.3-137.6,6-206.6,6c-69.1,0-138-2.7-206.5-6c0.7-4.5,1.3-9,2-13.6
	c67.8,3.2,136.1,5.9,204.5,5.9C373.5,278.3,441.9,275.6,509.8,272.3 M524.4,381.8c0.7,4.6,1.3,9.2,2,13.8c-74.1-3.9-147.8-7-221.3-7
	c-73.4,0-147.1,3.1-221.2,7c0.7-4.6,1.4-9.2,2-13.8c73.4-3.8,146.4-6.8,219.1-6.9C378,375,451,378,524.4,381.8z"/>
<path class="st2" d="M511,280.9c-68.3,3.3-137.1,6-205.9,6c-68.8,0-137.5-2.7-205.8-6c0.4-2.9,0.8-5.7,1.2-8.6
	c67.8,3.2,136.1,5.9,204.5,5.9c68.3,0,136.7-2.6,204.6-5.9C510.2,275.2,510.6,278.1,511,280.9 M524.4,381.8c0.4,2.9,0.8,5.8,1.3,8.7
	c-73.9-3.9-147.3-6.9-220.5-6.9c-73.2,0-146.6,3.1-220.4,6.9c0.4-2.9,0.9-5.8,1.3-8.7c73.4-3.8,146.4-6.8,219.1-6.9
	C378,375,451,378,524.4,381.8z"/>
<path class="st8" d="M504.7,362.5c9.7,0.2,12.7-2.1,11.8-8.7c-0.5-3.3-1-6.6-1.4-9.9c-0.5-3.3-0.9-6.6-1.4-9.9
	c-0.6-4.5-3.9-6.1-9.2-6c-3.5,0.1-6.9,0.1-10.4,0.2c-1.7,0-2.4-0.3-2.6-1.5c-0.5-3.5-0.9-7.1-1.4-10.6c-0.1-0.9,0.5-1.3,1.8-1.3
	c6.2-0.2,12.3-0.4,18.5-0.6c-1.5-3.7-2.9-7.3-4.4-11c-7.5,0.3-14.9,0.7-22.3,1c-7.6,0.3-10.5,3.4-10,7.9c0.4,3.2,0.8,6.5,1.1,9.7
	c0.4,3.2,0.7,6.5,1.1,9.7c0.7,5.7,5.1,6.5,10.1,6.5c2.8,0,5.7,0,8.6,0c2.3,0,3.1,0.1,3.3,1.7c0.5,3.6,1,7.1,1.4,10.7
	c0.1,0.9-0.3,1.2-1.8,1.2c-6-0.1-12.1-0.1-18.1-0.2c1.4,3.6,2.9,7.2,4.3,10.7C490.7,362.1,497.7,362.3,504.7,362.5 M437.8,361.1
	c10.7,0.2,21.5,0.4,32.3,0.6c0.6-3.5,1.1-7,1.7-10.5c-5.9-0.1-11.8-0.1-17.6-0.2c-0.5-4.1-0.8-8.1-1.3-12.2c4.6,0,9.2,0,13.8,0
	c-0.3-3.3-0.7-6.5-1.1-9.8c-4.6,0.1-9.1,0.1-13.7,0.2c-0.4-4.4-0.8-8.8-1.3-13.3c5.9-0.1,11.8-0.3,17.8-0.5c-1.4-3.5-2.7-7-3.9-10.5
	c-10.6,0.4-21.1,0.7-31.6,1.1c0.8,9.2,1.7,18.4,2.5,27.5C436.1,342.7,436.9,351.9,437.8,361.1z M417.6,360.7
	c9.7,0.1,12.9-2.2,12.4-8.2c-0.6-7.7-1.3-15.4-1.9-23.1c-0.7-7.7-1.3-15.4-2-23.2c-5.5,0.1-11.1,0.3-16.6,0.5
	c0.5,7.2,1.1,14.5,1.6,21.7c0.5,7.2,1.1,14.5,1.7,21.7c0.1,0.8-0.2,1.2-1.6,1.2c-2,0-3.9,0-5.9,0c-1.4,0-1.6-0.4-1.7-1.2
	c-0.5-7.2-1-14.4-1.5-21.6c-0.5-7.2-1-14.4-1.5-21.6c-5.6,0.1-11.1,0.2-16.6,0.4c0.4,7.5,0.9,15,1.3,22.5c0.4,7.5,0.8,15,1.3,22.5
	c0.3,5.9,3.9,8.2,13.6,8.4C405.9,360.6,411.8,360.7,417.6,360.7z M337.5,352c0.1,5.8,3.7,8.1,13.3,8.1c9.9,0.1,19.7,0.1,29.5,0.2
	c-0.3-5.1-0.4-10.2-0.7-15.3c-0.3-5.1-0.6-10.2-0.8-15.3c-5.4,0-10.7,0.1-16.1,0.1c0.1,3.5,0.3,6.9,0.4,10.4
	c0.1,3.5,0.3,6.9,0.4,10.4c-2.5,0-5.1,0-7.6,0c-1.2,0-1.5-0.4-1.5-1c-0.2-5.2-0.5-10.4-0.6-15.5c-0.2-5.2-0.2-10.4-0.5-15.5
	c0-0.7,0.3-1,1.4-1c6-0.1,12-0.1,18-0.2c-1.1-3.3-2.2-6.5-3.3-9.8c-7.7,0.1-15.5,0.2-23.2,0.3c-6.5,0.1-9.6,2.6-9.5,6.4
	c0.1,6.3,0.2,12.6,0.4,18.9C337.2,339.4,337.3,345.7,337.5,352z M288.5,360c5.2,0,10.4,0,15.7,0c0-3.6,0-7.2,0-10.9
	c0-3.6,0-7.2,0-10.9c1.5,3.6,3,7.2,4.5,10.9c1.5,3.6,3.1,7.2,4.6,10.9c5.8,0,11.6,0,17.3,0c-0.1-8.7-0.3-17.4-0.5-26
	c-0.2-8.7-0.3-17.4-0.5-26c-5.6,0-11.2,0-16.7,0.1c0,3.5,0.1,7,0.1,10.4c0,3.5,0,7,0,10.4c-1.4-3.5-2.8-7-4.2-10.4
	c-1.4-3.5-2.8-6.9-4.2-10.4c-5.2,0-10.4,0-15.5,0c0,8.7-0.2,17.4-0.3,26C288.7,342.6,288.6,351.3,288.5,360z M246.9,360.2
	c10.7-0.1,21.4-0.1,32.2-0.2c0.9-3.2,2-6.5,3-9.7c-5.9,0-11.8,0-17.6,0c0.1-3.8,0.3-7.6,0.3-11.4c4.6,0,9.2,0,13.8,0
	c0.1-3,0.1-6,0.2-9c-4.6,0-9.1,0-13.8,0c0.1-4.1,0.3-8.3,0.3-12.4c6,0,12,0.1,17.9,0.1c-0.9-3.2-1.8-6.5-2.7-9.7
	c-10.6-0.1-21.1-0.2-31.7-0.3c-0.3,8.8-0.6,17.5-1,26.3C247.6,342.7,247.3,351.4,246.9,360.2z M241.8,314.3c0.2-4.1-3.1-6.9-10.7-7
	c-10.3-0.2-20.6-0.4-30.9-0.7c-0.6,9-1.3,18-2,27c-0.7,9-1.4,18-2,27c5.6-0.1,11.3-0.1,16.9-0.2c0.2-2.8,0.3-5.7,0.5-8.5
	c0.2-2.8,0.4-5.7,0.6-8.5c0.7,0,1.4,0,2.2,0c1.1,2.8,2.3,5.7,3.5,8.5c1.2,2.8,2.4,5.6,3.7,8.4c5.8-0.1,11.6-0.1,17.5-0.2
	c-1.4-2.8-2.8-5.6-4.1-8.4c-1.3-2.8-2.7-5.6-3.9-8.4c4.8,0,7.6-2.3,7.7-4.7c0.2-4.1,0.4-8.1,0.6-12.2
	C241.4,322.5,241.6,318.4,241.8,314.3z M223.9,316.5c1.1,0,1.6,0.5,1.5,1.1c-0.2,2.7-0.3,5.4-0.5,8.1c-0.1,2.7-0.3,5.4-0.4,8.1
	c0,0.8-0.4,1.1-1.7,1.1c-2.8,0-5.4,0-8.2,0c0.3-3.1,0.4-6.1,0.6-9.2c0.2-3.1,0.4-6.1,0.5-9.2C218.5,316.4,221.2,316.5,223.9,316.5z
	 M154.5,361.4c10.7-0.2,21.5-0.4,32.2-0.6c1.3-3.4,2.5-6.8,3.7-10.2c-5.9,0-11.7,0.1-17.6,0.1c0.3-4,0.7-8,1.1-12
	c4.6,0,9.2,0,13.8,0c0.3-3.1,0.5-6.3,0.8-9.4c-4.5,0-9.1-0.1-13.7-0.1c0.4-4.4,0.8-8.7,1.1-13.1c5.9,0.1,11.9,0.2,17.9,0.3
	c-0.7-3.4-1.4-6.8-2-10.2c-10.6-0.3-21.1-0.6-31.6-1c-1,9.3-1.9,18.7-2.8,28C156.3,342.8,155.4,352.1,154.5,361.4z M120.7,358
	c2.3-3.9,4.5-7.8,6.7-11.6c2.2-3.8,4.5-7.7,6.7-11.5c-0.5,4.5-1.1,9-1.6,13.5c-0.5,4.5-1.1,9-1.6,13.5c5.5-0.1,11-0.2,16.5-0.4
	c1-9.4,2-18.8,3-28.2c1-9.4,2-18.8,3-28.2c-5.7-0.2-11.4-0.4-17.2-0.7c-2,4-3.9,8-5.9,12c-2,4-3.9,8.1-5.9,12.1c-1-4.1-2-8.2-3-12.4
	c-1-4.1-1.9-8.3-2.8-12.5c-5.7-0.3-11.3-0.5-17-0.8c-1.4,10-2.8,19.9-4.2,29.9c-1.4,10-2.8,19.9-4.2,29.9c5.5-0.1,11-0.3,16.5-0.4
	c0.6-4.6,1.2-9.2,1.8-13.8c0.6-4.6,1.2-9.2,1.8-13.8c1.2,3.9,2.5,7.8,3.7,11.7C118.1,350.3,119.4,354.2,120.7,358z"/>
<path class="st0" d="M483.1,353.8c0.8,1.9,1.6,3.9,2.3,5.8c6.4,0.1,12.9,0.3,19.3,0.5c2,0.1,7.4,0.1,8.8-1.8c0.7-1,0.6-2.9,0.4-4.1
	c-0.5-3.3-1-6.6-1.4-9.9c-0.5-3.3-0.9-6.6-1.4-9.9c-0.1-0.8-0.3-1.4-0.7-1.9c-10.4,0.2-21,0.3-31.6,0.5c1.2,2.5,4.1,2.5,7.1,2.5
	c2.9,0,5.7,0,8.6,0c2.9,0,5.3,0.4,5.8,3.8c0.5,3.6,1,7.1,1.4,10.7c0.4,2.9-1.8,4-4.3,4C492.7,353.9,487.9,353.8,483.1,353.8
	 M440,358.6c9.3,0.2,18.6,0.3,27.9,0.5c0.3-1.9,0.6-3.7,0.9-5.6c-4.9,0-9.8-0.1-14.7-0.1l-2.2,0l-0.2-2.2c-0.5-4.1-0.9-8.1-1.3-12.2
	l-0.3-2.8l2.8,0c3.7,0,7.4,0,11,0l-0.3-3.2c-8.5,0.1-17.2,0.2-25.8,0.3C438.5,341.8,439.3,350.2,440,358.6z M413.9,333.6
	c0.4,5.4,0.9,10.8,1.3,16.2c0.2,2.7-1.6,3.9-4.1,3.8c-2,0-3.9,0-5.9,0c-2.3,0-4-1-4.1-3.5c-0.3-5.5-0.8-10.9-1.1-16.4
	c-4,0-8,0.1-12,0.1c0.3,6.1,0.7,12.1,1,18.2c0.1,1.1,0.3,2.4,1,3.3c1.8,2.5,7.4,2.7,10.2,2.7c5.8,0.1,11.6,0.1,17.4,0.2
	c2.2,0,7.9,0.1,9.4-2.1c0.6-0.9,0.6-2.4,0.6-3.5c-0.5-6.4-1-12.8-1.6-19.2C422,333.6,418,333.6,413.9,333.6z M377.7,357.8
	c-0.2-4.2-0.4-8.4-0.6-12.6c-0.2-3.8-0.5-7.5-0.7-11.3c-3.7,0-7.4,0-11.2,0.1c0.1,2.1,0.2,4.1,0.3,6.2c0.1,3.5,0.3,6.9,0.4,10.4
	l0.1,2.5l-2.5,0c-2.5,0-5.1,0-7.6,0c-2.2,0-3.9-1.1-4-3.4c-0.2-5.2-0.5-10.3-0.6-15.5l0-0.1c-3.9,0-7.8,0-11.8,0
	c0.1,6,0.3,11.9,0.4,17.9c0,1.1,0.2,2.3,0.8,3.2c1.7,2.4,7.4,2.5,10,2.6C359.8,357.7,368.8,357.7,377.7,357.8z M305.2,334.1l1.3,3.2
	c1.5,3.6,3,7.2,4.5,10.9c1.3,3.1,2.6,6.2,4,9.3c4.4,0,8.8,0,13.2,0c-0.1-7.8-0.3-15.6-0.4-23.4c-4,0-8.1,0-12.1,0v7.5l-3-7.5
	C310.1,334.1,307.6,334.1,305.2,334.1z M291,357.5c3.6,0,7.1,0,10.7,0c0-2.8,0-5.6,0-8.4c0-3.6,0-7.2,0-10.9v-4.1c-3.5,0-7,0-10.4,0
	C291.2,341.9,291.1,349.7,291,357.5z M278.7,352.8c-4.7,0-9.5,0-14.2,0l-2.6,0l0.1-2.6c0.1-3.8,0.3-7.6,0.3-11.4l0.1-2.4l2.4,0
	c3.8,0,7.6,0,11.4,0l0.1-2.4c-8.6,0-17.3,0-25.8-0.1l0,0c-0.3,7.9-0.7,15.8-1,23.7c9.3-0.1,18.5-0.1,27.8-0.2
	C277.8,355.9,278.2,354.4,278.7,352.8z M200.6,333.7l0,0.2c-0.6,8.1-1.2,16.2-1.8,24.3c4-0.1,8-0.1,11.9-0.1
	c0.1-2.1,0.2-4.1,0.3-6.2c0.2-2.8,0.4-5.7,0.6-8.5l0.1-2.3h2.3c0.7,0,1.5,0,2.2,0h1.7l0.6,1.5c1.1,2.8,2.3,5.6,3.5,8.4
	c1,2.3,2,4.6,3,6.9c4,0,7.9-0.1,11.9-0.1c-0.8-1.6-1.6-3.2-2.4-4.9c-1.3-2.8-2.7-5.6-4-8.4l-1.6-3.5l3.8,0c1.4,0,3.1-0.3,4.3-1
	c0.4-0.3,1-0.8,1-1.3c0.1-1.6,0.2-3.1,0.2-4.7c-3.8,0-7.6,0-11.4-0.1l0,0c-0.1,2.5-1.9,3.5-4.2,3.4c-2.7,0-5.4,0-8.2,0l-2.7,0
	l0.2-2.7l0.1-0.9C208.4,333.7,204.5,333.7,200.6,333.7z M186.9,353.2c-4.7,0-9.4,0.1-14,0.1l-2.7,0l0.2-2.7c0.3-4,0.7-8,1.1-12
	l0.2-2.3l2.3,0c3.8,0,7.7,0,11.5,0c0.1-0.9,0.2-1.9,0.2-2.8c-8.7-0.1-17.3-0.2-25.8-0.3l0,0.4c-0.9,8.4-1.7,16.8-2.6,25.2
	c9.3-0.2,18.5-0.3,27.8-0.5C185.6,356.7,186.2,354.9,186.9,353.2z M99.9,332.5l-0.1,0.8c-1.3,9-2.5,18-3.8,27
	c3.8-0.1,7.6-0.2,11.4-0.3c0.5-3.9,1-7.8,1.6-11.7c0.6-4.6,1.2-9.2,1.8-13.8l0.2-1.8L99.9,332.5z M136.9,333l-0.2,2.1
	c-0.5,4.5-1.1,9-1.6,13.5c-0.4,3.6-0.8,7.1-1.2,10.7c3.8-0.1,7.6-0.2,11.5-0.2c0.9-8.7,1.8-17.3,2.7-26
	C144.3,333.1,140.6,333.1,136.9,333z M121.3,352c1.3-2.3,2.7-4.6,4-6.9c2.2-3.8,4.5-7.7,6.7-11.5l0.4-0.7c-2.4,0-4.9-0.1-7.3-0.1
	l-1.5,3l-0.7-3c-2.6,0-5.2-0.1-7.8-0.1l0.4,1.3c1.2,3.9,2.5,7.8,3.7,11.7C119.9,347.8,120.6,349.9,121.3,352z"/>
<path class="st1" d="M598.3,302.3L598.3,302.3L598.3,302.3c0,0.7,0,1.5-0.1,2.1c0.1,1.6,0.7,4.1,2.5,6.9c3.4,5.1,3.2,10.7,1.2,15.9
	c-1.6,4.1-0.8,6.9,1,11.4c0.7,1.1,1.2,2.4,1.7,3.8c0,0,0,0.1,0.1,0.3c0.2,0.7,0.4,1.5,0.6,2.3c0.7,4.3-0.7,10.2-0.7,10.2
	c3,7.6-1.9,15.5-6,18.9c-6.2,5.2-22.1,11.7-29.3,13.6c-7.2,1.9-13.4,2.7-13.4,2.7s-14.8-1-26.8-6.8c-12-5.8-18.5-20.6-18.5-20.6
	s4.5,2.4,11.5,1.6c7-0.7,18.2-3.8,18.2-3.8l-1.9-3.8c0,0-11.1-1.8-21.8-5.3c-10.7-3.5-14.6-3.5-14.6-3.5s7.6-8,15.2-14
	c7.6-6,11.9-7.5,11.9-7.5s-11-3.8-19.8-4.8c-8.8-1.1-11.2,0.4-11.2,0.4s4.9-8.3,14.6-16.1c9.6-7.8,19.1-9,19.1-9s-0.6-2.3-2.9-3.3
	c-2.3-1-12.9-0.8-17.8-0.3c-4.9,0.5-5.5,1-5.5,1s7.6-10.1,18.1-18.3c10.6-8.2,26.1-9.5,29.7-8.6c3.7,0.9,5.3,1.8,5.3,1.8
	s1.6-0.3,4-0.5c6.3,1.8,21.9,6.6,29.2,13.7C597.4,287.9,598.4,296.2,598.3,302.3"/>
<path class="st0" d="M598.1,347.3L598.1,347.3L598.1,347.3c0-0.1,0-0.2,0-0.3c0-1.1-0.3-4.6-3.6-8.6c-4-4.9-1.6-8.4-0.4-14.6
	c1.2-6.2-3.9-10.1-4.1-14.9c-0.2-4.8,2.7-8.5-0.6-15.8c-3.3-7.3-24.5-16-24.5-16s6.1,8.9,4.3,12.6c-1.8,3.6-13.3,7.6-17.1,6.9
	c-3.8-0.7-3.8-0.7-3.8-0.7s2.3,2.9,9.1,4.5c6.8,1.7,12.1-0.6,12.1-0.6s-0.1,1.2-2,3.1c-1.9,1.9-2.9,1.6-2.9,1.6s6.4,5.4,4.9,12
	c-1.5,6.7-14.5,11.4-14.5,11.4s4.6,2.9,11.1,4.3c6.4,1.4,9.4,0.6,9.4,0.6s-0.6,0.5-3.2,2.1c-2.7,1.5-4.4,1.7-4.4,1.7s5.3,5,0.6,11.5
	c-4.8,6.5-17.3,8.2-17.3,8.2s2.5,1.2,9.5,1.8c7,0.6,12.6,1.7,12.6,1.7s-5.5,0.9-10.4,2.4c-4.9,1.6-7.7,2.3-7.7,2.3s6.2,1.4,8.1,7.8
	c2,6.4-0.9,10-0.9,10s6-1.4,14.4-5.8c10.4-5.5,24.5-5.9,18.1-20.3C595,355.9,597.8,353.4,598.1,347.3"/>
<path class="st4" d="M598.1,346.5c0-0.1,0-0.1,0-0.2 M598.3,346.5l-0.2,0.8l0,0l0,0l0,0c0,0,0-0.1,0-0.3v0v0l0,0l0,0v0l0,0v0l0,0
	l0,0l0,0l0,0l0,0l0-0.1l0,0l0,0l0,0v0l0,0l0,0l0,0c0-0.1,0-0.1,0-0.2l0,0l0-0.1l0,0l0,0l0-0.1l0,0l0-0.1l0,0l0,0l0-0.1l0,0l0,0
	l0-0.1l0,0l0-0.1l0,0l0-0.1l0,0l0-0.1l0,0l0,0l0-0.1l0,0l0,0l0-0.1l0,0l0-0.1l0,0l0,0l0-0.1l0,0l0,0l0-0.1l0,0l0,0l0-0.1l0,0l0-0.1
	l0,0l0,0l0,0l0-0.1l0,0l0-0.1l0,0l0,0l0-0.1l0-0.2l0,0l0,0l0-0.1l0,0c0-0.1-0.1-0.2-0.1-0.3l0,0l0,0l-0.1-0.2l0,0l0,0l-0.1-0.1l0,0
	l0,0l0,0l-0.1-0.2l0,0l0,0l0-0.1h0c-0.5-1.2-1.3-2.6-2.5-4.1c-4-4.9-1.6-8.4-0.4-14.6c1.2-6.2-3.9-10.1-4.1-14.9
	c-0.2-4.8,2.7-8.5-0.6-15.8c-3.3-7.3-24.5-16-24.5-16l11.2,8.1c0,0-1.4,7.1,1.3,11.2c2.7,4.1,9.7,7.8,9.7,7.8s-1,2.1-0.5,4.4
	c0.5,2.3,1.2,4.8,1.2,4.8s-10.2-1.4-12,5.1c-1.7,6.4,12.4,11.3,12.4,11.3s-1.2,3,0.2,6c1.4,3.1,1.4,3.1,1.4,3.1s-8,0.5-10.7,5.1
	c-0.5,0.8-0.7,1.7-0.7,2.4l0,0c-0.9,2.5,2.1,6.5,6.4,8.3c4.2,1.8,6.7,1.8,7.4,3.7c0.6,1.9-4.9,1.3-7.5,5c-2.6,3.7,0.3,6.5-1.3,8.5
	c-1.6,2-4.7,3.3-4.7,3.3l0,0c10.1-4.6,22.1-5.8,16.1-19.3c0,0,2.8-2.5,3.1-8.6C598.1,347.3,598.2,347,598.3,346.5z"/>
<path class="st0" d="M571.2,360c-2.1,0.4-5.2,1.1-8.2,2c-4.9,1.6-7.7,2.3-7.7,2.3s6.2,1.4,8.1,7.8c2,6.4-0.9,10-0.9,10
	s6-1.4,14.4-5.8c0.6-0.3,1.3-0.7,2-1c-5.7,2.3-10.4,4-11.3,3.8c-2.3-0.5-0.4-1.4,0-4.6c0.4-3.2-3.7-5.8-2.5-10
	C565.7,361.7,569,360.5,571.2,360 M570.6,342.5c0,1.6-0.5,3.4-2,5.4c-4.8,6.5-17.3,8.2-17.3,8.2s2.5,1.2,9.5,1.8
	c7,0.6,12.6,1.7,12.6,1.7s-0.7-1-3.3-2.6c-2.6-1.5-5-1.9-5-1.9s0,0,1.6-1.3S570.8,349,570.6,342.5L570.6,342.5z M575.1,333.1
	c-0.5,0.3-1.3,0.9-2.6,1.6c-2.7,1.5-4.4,1.7-4.4,1.7s2.4,2.3,2.5,5.8C570.7,337.3,573.8,334.2,575.1,333.1z M569.8,315.6
	c0,0.3-0.1,0.6-0.2,0.9c-1.5,6.7-14.5,11.4-14.5,11.4s4.6,2.9,11.1,4.3c6.4,1.4,9.4,0.6,9.4,0.6s-0.7,0.1-5.3-0.9
	c-4.6-1-8.5-3.5-8.5-3.5s6.8-3.2,7.8-8.6C569.9,318.1,569.9,316.8,569.8,315.6z M568.2,302.2c-0.2,0.2-0.4,0.4-0.6,0.6
	c-1.9,1.9-2.9,1.6-2.9,1.6s1.9,1.6,3.4,4.2c-0.1-0.4-0.2-0.8-0.3-1.3C567.5,305.2,567.8,303.5,568.2,302.2z M569.6,288.3
	c0,0.5-0.1,0.9-0.3,1.3c-1.8,3.6-13.3,7.6-17.1,6.9c-3.8-0.7-3.8-0.7-3.8-0.7s2.3,2.9,9.1,4.5c6.8,1.7,12-0.6,12.1-0.6
	c0,0-0.8,0.2-3.2-0.7c-2.5-1-3.6-1.4-3.6-1.4s6.3-0.4,6.9-3.7C570.1,292.6,570,290.5,569.6,288.3z M565.4,277.7
	c0.5,0.8,1.4,2.2,2.2,3.9C567,280.2,566.3,278.9,565.4,277.7L565.4,277.7z"/>
<path class="st4" d="M554.9,291.4c0,0,5.1-1.5,6.3-5c1.2-3.5-0.4-7.3-5.8-9.5c-5.4-2.2-15.1-0.8-21.4,2.1
	c-6.3,2.9-12.4,8.3-12.4,8.3s5.6-1.7,16.5,0.7C549,290.3,554.9,291.4,554.9,291.4"/>
<path class="st0" d="M554.9,291.4c0,0,5.1-1.5,6.3-5c0.6-1.8,0.5-3.7-0.6-5.5c0.1,0.9-0.1,2.1-0.8,3.5c-1.7,3.3-5.5,2.3-17.1-0.1
	c-11.5-2.4-21.2,3-21.2,3s5.6-1.7,16.5,0.7C549,290.3,554.9,291.4,554.9,291.4"/>
<path class="st4" d="M561.8,318.7c0,0,1.5-5.5-3.8-9.4c-5.3-3.9-14.5-5.9-26.1-2.3c-11.6,3.6-18.1,8.7-18.1,8.7s5.3,0.5,19.3,3.9
	C547,322.9,550.1,324,561.8,318.7"/>
<path class="st0" d="M561.8,318.7c0,0,1.4-5-3-8.8c0.1,0.1,2.5,3.6,1,6.8c-1.5,3.3-9,1.4-25.6-1.1c-16.5-2.5-20.4,0-20.4,0
	s5.3,0.5,19.3,3.9C547,322.9,550.1,324,561.8,318.7"/>
<path class="st4" d="M559.6,346.6c0,0,3.3-6.1-0.7-9.6c-4-3.5-16.4-3.8-24.8-1.8c-8.4,2-17.6,9.8-17.6,9.8s6.2,0.3,18.9,3.3
	C548,351.2,554.8,350.7,559.6,346.6"/>
<path class="st0" d="M559.6,346.6c0,0,2.7-5,0.2-8.5c0,0.6-0.1,1.3-0.1,2c-0.6,5.2-3.9,7.7-16.9,6c-12.4-1.7-22.6-0.9-25.8-1.1
	c1.6,0.1,7.7,0.7,18.4,3.3C548,351.2,554.8,350.7,559.6,346.6"/>
<path class="st4" d="M558.2,376.3c0,0,0-4.7-3.5-6.5c-3.5-1.8-7.4-0.4-15.8,0.8c-8.4,1.2-13.7,0.8-13.7,0.8S545,387.9,558.2,376.3"
	/>
<path class="st0" d="M557.9,374.3c-0.4-1.5-1.2-3.5-3.2-4.6c-3.5-1.8-7.4-0.4-15.8,0.8c-8.4,1.2-13.7,0.8-13.7,0.8
	c12.9,5,27.5-0.4,30.4,1.1C556.6,372.9,557.3,373.6,557.9,374.3"/>
<path class="st1" d="M12.1,302.3L12.1,302.3L12.1,302.3c0,0.7,0,1.5,0.1,2.1c-0.1,1.6-0.7,4.1-2.5,6.9c-3.4,5.1-3.2,10.7-1.2,15.9
	c1.6,4.1,0.8,6.9-1,11.4c-0.7,1.1-1.2,2.4-1.7,3.8c0,0,0,0.1-0.1,0.3c-0.2,0.7-0.4,1.5-0.6,2.3C4.5,349.2,5.8,355,5.8,355
	c-3,7.6,1.9,15.5,6,18.9c6.2,5.2,22.1,11.7,29.3,13.6c7.2,1.9,13.4,2.7,13.4,2.7s14.8-1,26.8-6.8c12-5.8,18.5-20.6,18.5-20.6
	s-4.5,2.4-11.5,1.6c-7-0.7-18.2-3.8-18.2-3.8l1.9-3.8c0,0,11.1-1.8,21.8-5.3c10.7-3.5,14.6-3.5,14.6-3.5s-7.6-8-15.2-14
	c-7.6-6-11.9-7.5-11.9-7.5s11-3.8,19.8-4.8c8.8-1.1,11.2,0.4,11.2,0.4s-4.9-8.3-14.6-16.1c-9.6-7.8-19.1-9-19.1-9s0.6-2.3,2.9-3.3
	c2.3-1,12.9-0.8,17.8-0.3c4.9,0.5,5.5,1,5.5,1s-7.6-10.1-18.1-18.3c-10.6-8.2-26.1-9.5-29.7-8.6c-3.7,0.9-5.3,1.8-5.3,1.8
	s-1.6-0.3-4-0.5c-6.3,1.8-21.9,6.6-29.2,13.7C13,287.9,12,296.2,12.1,302.3"/>
<path class="st0" d="M12.3,347.3L12.3,347.3L12.3,347.3c0-0.1,0-0.2,0-0.3c0-1.1,0.3-4.6,3.6-8.6c4-4.9,1.6-8.4,0.4-14.6
	c-1.2-6.2,3.9-10.1,4.1-14.9c0.2-4.8-2.7-8.5,0.6-15.8c3.3-7.3,24.5-16,24.5-16s-6.1,8.9-4.3,12.6s13.3,7.6,17.1,6.9
	c3.8-0.7,3.8-0.7,3.8-0.7s-2.3,2.9-9.1,4.5s-12.1-0.6-12.1-0.6s0.1,1.2,2,3.1c1.9,1.9,2.9,1.6,2.9,1.6s-6.4,5.4-4.9,12
	s14.5,11.4,14.5,11.4s-4.6,2.9-11.1,4.3c-6.4,1.4-9.4,0.6-9.4,0.6s0.6,0.5,3.2,2.1c2.7,1.5,4.4,1.7,4.4,1.7s-5.4,5-0.6,11.5
	c4.8,6.5,17.3,8.2,17.3,8.2s-2.5,1.2-9.5,1.8c-7,0.6-12.6,1.7-12.6,1.7s5.5,0.9,10.4,2.4c4.9,1.6,7.7,2.3,7.7,2.3S49,365.7,47,372
	c-2,6.4,0.9,10,0.9,10s-6-1.4-14.4-5.8c-10.4-5.5-24.5-5.9-18.1-20.3C15.4,355.9,12.6,353.4,12.3,347.3"/>
<path class="st4" d="M12.3,346.5c0-0.1,0-0.1,0-0.2 M12.1,346.5l0.2,0.8l0,0l0,0l0,0c0,0,0-0.1,0-0.3v0l0,0v0v0l0,0v0v0l0,0l0,0l0,0
	l0,0l0,0l0-0.1l0,0l0,0l0,0v0l0,0l0,0l0,0c0-0.1,0-0.1,0-0.2l0,0l0-0.1l0,0l0,0l0-0.1l0,0l0-0.1l0,0l0,0l0-0.1l0,0l0,0l0-0.1l0,0
	l0-0.1l0,0l0-0.1l0,0l0-0.1l0,0l0,0l0-0.1l0,0l0,0l0-0.1l0,0l0-0.1l0,0l0,0l0-0.1l0,0l0,0l0-0.1l0,0l0,0l0-0.1l0,0l0-0.1l0,0l0,0
	l0,0l0-0.1l0,0l0-0.1l0,0l0,0l0-0.1l0-0.2l0,0l0,0l0-0.1l0,0c0-0.1,0.1-0.2,0.1-0.3l0,0l0,0l0.1-0.2l0,0l0,0l0.1-0.1l0,0l0,0l0,0
	l0.1-0.2l0,0l0,0l0-0.1h0c0.5-1.2,1.3-2.6,2.5-4.1c4-4.9,1.6-8.4,0.4-14.6c-1.2-6.2,3.9-10.1,4.1-14.9c0.2-4.8-2.7-8.5,0.6-15.8
	c3.3-7.3,24.5-16,24.5-16l-11.2,8.1c0,0,1.4,7.1-1.3,11.2c-2.7,4.1-9.7,7.8-9.7,7.8s1,2.1,0.5,4.4c-0.5,2.3-1.2,4.8-1.2,4.8
	s10.2-1.4,12,5.1c1.7,6.4-12.4,11.3-12.4,11.3s1.2,3-0.2,6c-1.4,3.1-1.4,3.1-1.4,3.1s8,0.5,10.7,5.1c0.5,0.8,0.7,1.7,0.7,2.4l0,0
	c0.9,2.5-2.1,6.5-6.4,8.3c-4.2,1.8-6.7,1.8-7.4,3.7c-0.6,1.9,4.9,1.3,7.5,5c2.7,3.7-0.3,6.5,1.3,8.5c1.6,2,4.7,3.3,4.7,3.3l0,0
	c-10.1-4.6-22.1-5.8-16.1-19.3c0,0-2.8-2.5-3.1-8.6C12.3,347.3,12.2,347,12.1,346.5z"/>
<path class="st0" d="M39.2,360c2.1,0.4,5.2,1.1,8.2,2c4.9,1.6,7.7,2.3,7.7,2.3S49,365.7,47,372c-2,6.4,0.9,10,0.9,10
	s-6-1.4-14.4-5.8c-0.6-0.3-1.3-0.7-2-1c5.7,2.3,10.4,4,11.3,3.8c2.3-0.5,0.4-1.4,0-4.6c-0.4-3.2,3.7-5.8,2.5-10
	C44.7,361.7,41.5,360.5,39.2,360 M39.8,342.5c0,1.6,0.5,3.4,2,5.4c4.8,6.5,17.3,8.2,17.3,8.2s-2.5,1.2-9.5,1.8
	c-7,0.6-12.6,1.7-12.6,1.7s0.7-1,3.3-2.6c2.6-1.5,5-1.9,5-1.9s0,0-1.6-1.3C42,352.4,39.6,349,39.8,342.5L39.8,342.5z M35.3,333.1
	c0.5,0.3,1.3,0.9,2.6,1.6c2.7,1.5,4.4,1.7,4.4,1.7s-2.4,2.3-2.5,5.8C39.8,337.3,36.7,334.2,35.3,333.1z M40.6,315.6
	c0,0.3,0.1,0.6,0.2,0.9c1.5,6.7,14.5,11.4,14.5,11.4s-4.6,2.9-11.1,4.3c-6.4,1.4-9.4,0.6-9.4,0.6s0.7,0.1,5.3-0.9
	c4.6-1,8.5-3.5,8.5-3.5s-6.8-3.2-7.8-8.6C40.5,318.1,40.5,316.8,40.6,315.6z M42.2,302.2c0.2,0.2,0.4,0.4,0.6,0.6
	c1.9,1.9,2.9,1.6,2.9,1.6s-1.9,1.6-3.4,4.2c0.1-0.4,0.2-0.8,0.3-1.3C42.9,305.2,42.6,303.5,42.2,302.2z M40.8,288.3
	c0,0.5,0.1,0.9,0.3,1.3c1.8,3.6,13.3,7.6,17.1,6.9c3.8-0.7,3.8-0.7,3.8-0.7s-2.3,2.9-9.1,4.5c-6.8,1.7-12-0.6-12.1-0.6
	c0,0,0.8,0.2,3.2-0.7c2.5-1,3.6-1.4,3.6-1.4s-6.3-0.4-6.9-3.7C40.4,292.6,40.4,290.5,40.8,288.3z M45,277.7
	c-0.5,0.8-1.4,2.2-2.2,3.9C43.4,280.2,44.1,278.9,45,277.7L45,277.7z"/>
<path class="st4" d="M55.6,291.4c0,0-5.1-1.5-6.3-5c-1.2-3.5,0.4-7.3,5.8-9.5c5.4-2.2,15.1-0.8,21.4,2.1c6.3,2.9,12.4,8.3,12.4,8.3
	s-5.6-1.7-16.5,0.7C61.4,290.3,55.6,291.4,55.6,291.4"/>
<path class="st0" d="M55.6,291.4c0,0-5.1-1.5-6.3-5c-0.6-1.8-0.5-3.7,0.6-5.5c-0.1,0.9,0.1,2.1,0.8,3.5c1.7,3.3,5.5,2.3,17.1-0.1
	c11.5-2.4,21.2,3,21.2,3s-5.6-1.7-16.5,0.7C61.4,290.3,55.6,291.4,55.6,291.4"/>
<path class="st4" d="M48.6,318.7c0,0-1.5-5.5,3.8-9.4c5.3-3.9,14.5-5.9,26.1-2.3c11.6,3.6,18.1,8.7,18.1,8.7s-5.3,0.5-19.3,3.9
	C63.4,322.9,60.3,324,48.6,318.7"/>
<path class="st0" d="M48.6,318.7c0,0-1.4-5,3-8.8c-0.1,0.1-2.5,3.6-1,6.8c1.5,3.3,9,1.4,25.6-1.1c16.5-2.5,20.4,0,20.4,0
	s-5.3,0.5-19.3,3.9C63.4,322.9,60.3,324,48.6,318.7"/>
<path class="st4" d="M50.8,346.6c0,0-3.3-6.1,0.7-9.6c4-3.5,16.4-3.8,24.8-1.8c8.4,2,17.6,9.8,17.6,9.8s-6.2,0.3-18.9,3.3
	C62.4,351.2,55.6,350.7,50.8,346.6"/>
<path class="st0" d="M50.8,346.6c0,0-2.7-5-0.2-8.5c0,0.6,0.1,1.3,0.1,2c0.5,5.2,3.9,7.7,16.9,6c12.4-1.7,22.6-0.9,25.8-1.1
	c-1.6,0.1-7.7,0.7-18.4,3.3C62.4,351.2,55.6,350.7,50.8,346.6"/>
<path class="st4" d="M52.2,376.3c0,0,0-4.7,3.5-6.5c3.5-1.8,7.4-0.4,15.8,0.8c8.4,1.2,13.7,0.8,13.7,0.8S65.4,387.9,52.2,376.3"/>
<path class="st0" d="M52.5,374.3c0.4-1.5,1.2-3.5,3.2-4.6c3.5-1.8,7.4-0.4,15.8,0.8c8.4,1.2,13.7,0.8,13.7,0.8
	c-12.9,5-27.5-0.4-30.4,1.1C53.9,372.9,53.1,373.6,52.5,374.3"/>
</svg>
