<?xml version="1.0" encoding="utf-8"?>
<!-- Generator: Adobe Illustrator 19.0.0, SVG Export Plug-In . SVG Version: 6.00 Build 0)  -->
<svg version="1.1" id="Layer_1" xmlns="http://www.w3.org/2000/svg" xmlns:xlink="http://www.w3.org/1999/xlink" x="0px" y="0px"
	 viewBox="0 0 575.3 528.6" style="enable-background:new 0 0 575.3 528.6;" xml:space="preserve">
<style type="text/css">
	.st0{fill-rule:evenodd;clip-rule:evenodd;fill:#FFE500;}
	.st1{fill-rule:evenodd;clip-rule:evenodd;}
	.st2{fill-rule:evenodd;clip-rule:evenodd;fill:#C97C08;}
	.st3{fill-rule:evenodd;clip-rule:evenodd;fill:#990000;}
	.st4{fill-rule:evenodd;clip-rule:evenodd;fill:#FF0000;}
	.st5{fill:#FFFFFF;}
	.st6{fill-rule:evenodd;clip-rule:evenodd;fill:#B3B3B3;}
</style>
<path class="st0" d="M534.5,2l38.8,186.2l-79.8,30.7C471.8,340.2,412.2,444,307.7,514.4l-21.1,14.2l-21.1-14.2
	C161.1,444,101.5,340.2,79.8,218.8L0,188.2L38.8,2h6.7c80.4,0,160.7,0,241.1,0C367,2,447.4,2,527.8,2H534.5z"/>
<path class="st1" d="M488.8,196.7c-18.2,128.2-77.2,237.8-185.7,310.9l-16.5,11.1l-16.5-11.1C161.7,434.5,102.7,324.9,84.5,196.7
	l-2.9-20.4l18.2-9.7c58.8-31.5,120.2-46.3,186.9-46.3c66.7,0,128.1,14.8,186.9,46.3l18.1,9.7L488.8,196.7z"/>
<path class="st1" d="M527.8,10.2L563.8,183l-77.6,29.8c-65.7-22.2-139.8-48.5-199.6-48.5S152.8,190.7,87,212.8L9.5,183l0,0l0,0
	L45.5,10.2c80.4,0,160.7,0,241.1,0S447.4,10.2,527.8,10.2"/>
<path class="st2" d="M483.2,189.4l53.1-18.4c-38-10-90.4-23.4-161.7-32.6c44.8,9,99.7,21.2,133.9,33.5L483.2,189.4z"/>
<path class="st3" d="M113.5,207.4c12.7,73.6,38.5,132.4,71.4,179.3c30.5,8.1,65.1,12.6,101.7,12.6s71.1-4.6,101.7-12.6
	c33-46.9,58.7-105.7,71.5-179.3C418.5,181.5,356.3,165,286.7,165C217,165,154.8,181.5,113.5,207.4"/>
<path class="st2" d="M95.6,189.4L42.6,171c38-10,90.4-23.4,161.7-32.6c-44.8,9-99.7,21.2-133.9,33.5L95.6,189.4z"/>
<path class="st1" d="M393.9,288.4c0,0.3,0.1,0.6,0.1,0.9c0.2,2.6,0.5,5.3,0.5,8c4.6,6.8,8.9,17.9,11.4,25c3.8,10.9,6.9,24,8.1,35.5
	l1.2,12l-10-8c0.1,3.4,0.2,6.7,0.3,10.1c0.1,6.4,0.1,12.9-0.2,19.3l-122,121.2L168,391.1c-0.3-6.4-0.3-12.8-0.2-19.3
	c0.1-3.3,0.1-6.7,0.3-10.1l-10,8l1.2-12c1.2-11.5,4.3-24.7,8.1-35.5c2.5-7.1,6.8-18.2,11.4-25c0.1-2.6,0.3-5.4,0.5-8
	c0-0.3,0.1-0.6,0.1-0.9c-8.1,3.3-17.4,4.7-25.3,4.1c-13-1-26.9-9.3-34.5-20l-6.7-9.5l11.5,1.6c6.4,0.6,17-5.6,21.8-9.1
	c7.8-5.7,16.2-14.6,23.1-23.2l-13.2,1.9l5.2-9c4.9-8.6,13-17.9,20.8-23.9c6-4.6,14.4-9.3,22.2-12.1c-0.4-1.1-0.9-2.3-1.4-3.3
	c-4.8,2.7-11.8,4.2-16.6,4.8c-21,2.7-39.9-7.4-42.3-30c-1.3-12,2.2-23.6,8.7-33.6c2.8-4.4,7-9.6,11-13.1l6-5.1l2.2,7.6
	c1.3,4.6,4.1,13.3,7,17c0.3,0.4,1,1.3,1.6,1.9c5.2-5.2,11.8-10.1,18.2-13.6c11.8-6.5,25.2-9.5,38.3-5.1
	c20.7,6.9,33.8,39.8,39.2,61.1c2.2,0.2,4.5,0.7,6.3,1.4c1.3,0.5,2.9,1.2,4.3,2.1c1.4-0.9,2.9-1.6,4.3-2.1c1.8-0.7,4.1-1.2,6.3-1.4
	c5.4-21.2,18.5-54.2,39.2-61.1c13.1-4.4,26.5-1.4,38.3,5.1c6.3,3.5,13,8.4,18.2,13.6c0.6-0.7,1.3-1.5,1.6-1.9c2.8-3.7,5.7-12.4,7-17
	l2.2-7.6l6,5.1c4,3.4,8.2,8.6,11,13.1c6.5,10.1,10,21.6,8.7,33.6c-2.5,22.6-21.3,32.8-42.3,30c-4.8-0.6-11.8-2.1-16.6-4.8
	c-0.5,1-1,2.1-1.4,3.3c7.8,2.8,16.2,7.5,22.2,12.1c7.7,6,15.8,15.4,20.8,23.9l5.2,9l-13.2-1.9c6.9,8.6,15.3,17.6,23.1,23.2
	c4.8,3.5,15.5,9.7,21.8,9.1l11.5-1.6l-6.7,9.5c-7.5,10.7-21.4,19-34.5,20C411.3,293.1,401.9,291.7,393.9,288.4"/>
<path class="st0" d="M183.8,174.9c0.3-0.1,0.5-0.3,0.8-0.4C184.3,174.6,184.1,174.7,183.8,174.9 M168.1,173.9
	c0.4,0.1,0.7,0.1,0.7,0.1s4.2-2.4,6.8-6.3c2.6-3.9,2.3-5.5,2.3-5.5s2.2,0.9,6.7-1.2c4.5-2.1,5.1-3.2,5.1-3.2s1.4,7.2-2.4,13.5
	c-0.5,0.8-0.9,1.5-1.3,2.2c-0.2,0.2-0.5,0.3-0.7,0.5c1.8-1.2,3.8-3.1,5.3-5.9c3.4-6.4,2.1-10.9,1.8-11.8l0,0l0,0l0,0l0,0l0,0
	c0,0,14.7-13.2,21.2-12.2c6.5,0.9,14.7,17,14.7,17s-3.7,7.6-8.2,9.3c-0.3,0.1-0.7,0.2-1,0.3c0.9,0,2-0.1,3.3-0.2
	c5.3-0.5,6.2-1.5,6.2-1.5s3.2,2.3,4.4,9.1c1.2,6.8,1.4,9.1,1.4,9.1s-1.2,0.4-6.2,0.1c-3.2-0.2-5.6-1.5-6.9-2.5
	c0.8,1.1,2.6,3.3,6.3,5c5.2,2.4,8.7,1.6,8.7,1.6l3.5,15.9c0,0-4.1,0.3-10-2.3c-0.6-0.3-1.3-0.6-1.8-0.9c0.7,0.8,1.5,1.5,2.5,2.3
	c5.7,4.8,9.2,5.1,9.2,5.1l-0.2,0.1c0.1,0.8,0.7,5.2,2,9c1.5,4.2,16.1,7.9,20.9-6.6c1.5-5.5,0-11.6,0-11.6s-5.2-61.3-30.2-71
	c-25-9.7-32.9,12-47.3,18.1c-14.5,6.1-21-13.2-21-13.2s-1.3,9.7,1.6,18.7c2.8,8.9,7.4,10.4,7.4,10.4s0.5,4.3-3.2,7.4
	C169.1,173.2,168.5,173.6,168.1,173.9z"/>
<path class="st2" d="M183.8,174.9c0.3-0.1,0.5-0.3,0.8-0.4C184.3,174.6,184.1,174.7,183.8,174.9 M168.1,173.9
	c0.4,0.1,0.7,0.1,0.7,0.1s4.2-2.4,6.8-6.3c2.6-3.9,2.3-5.5,2.3-5.5s2.2,0.9,6.7-1.2c4.5-2.1,5.1-3.2,5.1-3.2s1.4,7.2-2.4,13.5
	c-0.5,0.8-0.9,1.5-1.3,2.2c-0.2,0.2-0.5,0.3-0.7,0.5c1.8-1.2,3.8-3.1,5.3-5.9c3.4-6.4,2.1-10.9,1.8-11.8l0,0l0,0l0,0l0,0l0,0
	c0,0,14.7-13.2,21.2-12.2c6.5,0.9,14.7,17,14.7,17s-3.7,7.6-8.2,9.3c-0.3,0.1-0.7,0.2-1,0.3c0.9,0,2-0.1,3.3-0.2
	c5.3-0.5,6.2-1.5,6.2-1.5s3.2,2.3,4.4,9.1c1.2,6.8,1.4,9.1,1.4,9.1s-1.2,0.4-6.2,0.1c-3.2-0.2-5.6-1.5-6.9-2.5
	c0.8,1.1,2.6,3.3,6.3,5c5.2,2.4,8.7,1.6,8.7,1.6l3.5,15.9c0,0-4.1,0.3-10-2.3c-0.6-0.3-1.3-0.6-1.8-0.9c0.7,0.8,1.5,1.5,2.5,2.3
	c5.7,4.8,9.2,5.1,9.2,5.1l-0.2,0.1c0.1,0.8,0.7,5.2,2,9c1.5,4.2,16.1,7.9,20.9-6.6c0.1-0.4,0.2-0.9,0.3-1.3
	c-3.2,1.7-6.2,2.8-9.1,1.8c-2.3-29.7-17.3-78.4-42.9-83.5c-2,0.9-3.9,2-5.7,3.3c-21.5,25.6-32.4,29.8-41,2c0,0-1.3,9.7,1.6,18.7
	c2.8,8.9,7.4,10.4,7.4,10.4s0.5,4.3-3.2,7.4C169.1,173.2,168.5,173.6,168.1,173.9z"/>
<path class="st0" d="M409.1,136.1c0,0,7.2,12.5,4.6,25.1c-2.6,12.6-9.5,12.8-9.5,12.8s-4.2-2.4-6.8-6.3c-2.6-3.9-2.3-5.5-2.3-5.5
	s-2.2,3.2-2.7,8c-0.5,4.8,0.3,5.9,0.3,5.9s-6.6-0.9-10.3-8c-3.8-7.1-1.7-12-1.7-12s-2.9,0.8-4.4,4.6c-1.5,3.8-1.5,5.9-1.5,5.9
	s-5.3-3.1-9.7-6.7c-4.3-3.6-4.5-4.4-4.5-4.4s-0.9,3.1-0.1,6.2c0.9,3,1.4,3.4,1.4,3.4l-4.3,5.3c0,0-1.6,0.4-6.8-0.1
	c-5.3-0.5-6.2-1.5-6.2-1.5s1.8,4.8,4.6,7.4c2.8,2.6,3.9,2.8,3.9,2.8l-0.8,4.9c0,0-1.6,3.4-6.8,5.7c-5.2,2.4-8.7,1.6-8.7,1.6
	s3.7,2.8,7.5,4.4s5.2,1.3,5.2,1.3s-1.1,4.5-6.9,9.3c-5.7,4.8-9.2,5.1-9.2,5.1s3,2.4,6.9,2.4c3.9,0,6.5-1.3,6.5-1.3
	s-3.4,14.4-16.9,16c-13.5,1.6-17.7-9.1-19.2-14.6c-1.5-5.5,0-11.6,0-11.6s5.2-61.3,30.2-71c25-9.7,32.9,12,47.3,18.1
	C402.6,155.4,409.1,136.1,409.1,136.1"/>
<path class="st2" d="M333.6,211.4c0.7,0.5,3.3,2.2,6.7,2.2c3.9,0,6.5-1.3,6.5-1.3s-3.4,14.4-16.9,16c-13.5,1.6-17.7-9.1-19.2-14.6
	c4.7,14.5,19.4,10.8,20.9,6.6C332.9,216.6,333.5,212.3,333.6,211.4 M336.8,191.2c0,0,3.7,2.8,7.5,4.4s5.2,1.3,5.2,1.3
	s-0.8,3.2-4.4,7c-0.6,0.3-1.2,0.6-1.8,0.9c-6,2.6-10,2.3-10,2.3L336.8,191.2z M344.5,168.8c0,0,1.8,4.8,4.6,7.4
	c2.8,2.6,3.9,2.8,3.9,2.8l-0.8,4.9c0,0-0.1,0.3-0.4,0.7c-1.3,0.9-3.7,2.3-6.9,2.5c-5,0.3-6.2-0.1-6.2-0.1s0.1-2.3,1.4-9.1
	C341.3,171.1,344.5,168.8,344.5,168.8z M380.7,156.1c0,0-2.9,0.8-4.4,4.6c-1.5,3.8-1.5,5.9-1.5,5.9s-5.3-3.1-9.7-6.7
	c-4.3-3.6-4.5-4.4-4.5-4.4s-0.9,3.1-0.1,6.2c0.9,3,1.4,3.4,1.4,3.4l-4.3,5.3c0,0-0.9,0.2-3.5,0.1c-0.3-0.1-0.6-0.2-1-0.3
	c-4.5-1.7-8.2-9.3-8.2-9.3s8.2-16.1,14.7-17C366,142.9,380.7,156.1,380.7,156.1z M380.6,156.2c0-0.1,0.1-0.1,0.1-0.2L380.6,156.2z
	 M395.1,162.2c0,0-2.2,3.2-2.7,8c-0.5,4.8,0.3,5.9,0.3,5.9s-2.8-0.4-5.7-2.6c-0.4-0.6-0.8-1.4-1.3-2.2c-3.7-6.3-2.4-13.5-2.4-13.5
	s0.6,1.1,5.1,3.2C392.9,163.1,395.1,162.2,395.1,162.2z M409.1,136.1c0,0,7.2,12.5,4.6,25.1c-2.1,10.1-7,12.3-8.8,12.7
	c-0.4-0.4-1-0.8-1.6-1.3c-3.8-3.1-3.2-7.4-3.2-7.4s4.6-1.5,7.4-10.4C410.4,145.9,409.1,136.1,409.1,136.1z"/>
<path class="st3" d="M235.2,289c11.2,13.3,17.3,16,25.3,12.4c0.2,10.2-1.9,18.2-10.3,19.8C238.4,311.7,237.9,301.2,235.2,289"/>
<path class="st3" d="M216.8,220.5c-0.2-0.5-0.5-1.1-0.7-1.6c-4.6-1.6-9.4-2.1-14-2.4c3.3-2.7,7.4-6.1,11.5-8.1c0,0-3.7,0.1-11.5,4.2
	c-7.8,4.1-9.1,4.9-9.1,4.9l14.3,2.6c0,0-9.2-0.7-22.7,18c-13.5,18.7-24.3,29.2-45.1,34.3C174.1,274.2,193,229.6,216.8,220.5"/>
<path class="st4" d="M286.8,477.2c1.5-1.2,7.9-6.5,16.5-17.1c9.9-12,10.5-17.9,10.5-17.9s1.2,3,1.2,9.3c0,6.4-1.5,9.9-1.5,9.9
	s4.9-3.4,16.5-20.4c11.6-17,13.8-27.5,13.8-27.5s0.9,2.4,2.6,10.8c1.6,8.4,0.8,14.2,0.8,14.2s8.1-9.2,14.3-34.9
	c6.2-25.7,3.9-37.6,3.9-37.6s0.1,0,5,11.2c4.9,11.2,6.5,19.5,6.5,19.5s9.2-20.8,6-44.6c-3.2-23.8-10.3-30.3-10.3-30.3
	c7.2,2.6,14.7,7.3,19.7,15c0,0-3.8-13.9-10.5-28.4c-6.8-14.5-21.2-28.4-21.2-28.4c11,21.4,9.2,51.6,4.2,76.5
	c-0.2-1.7-2.2-9.7-4.7-13.4c0.6,8.7-3.5,18.6-8.6,26.8c0.8-4.5,0.7-8.7-0.7-12.5c-1.6,9.2-6.2,15.1-11.9,20c0,0,3.9-8.2,5.7-21.6
	c1.8-13.4-0.7-21-0.7-21s0,0,4.3,6c4.3,6,4.5,8.5,4.5,8.5s0-1.9-0.9-12.2c-0.9-10.3-3.7-18.8-3.7-18.8s0,0,5.1,4.1
	c5.1,4.1,5.5,6.2,5.5,6.2s-0.1-4.1-3.7-13c-3.5-8.9-8.7-12.6-8.7-12.6l8.7,1.1l-8-7.6c0,0-0.1,0.1-4.1,4.5
	c-3.9,4.3-7.4,11.5-7.4,11.5s-0.1-3.1,3.8-13.5c3.9-10.4,10.7-16.6,12.4-21.9c1.8-5.3-0.4-20-0.4-20s5.4,2,13.1,8.9
	c7.7,6.9,12.4,16.2,12.4,16.2s-1.1-6.2-7.2-17.3C363.8,254,355,251,355,251l10.4-3.1c0,0,0,0-3.5-3.9c-3.5-3.9-8.9-5.5-8.9-5.5
	s5.1-3.2,16.6,1.9c11.5,5.1,16,19.3,35.8,28.5c19.9,9.2,27.9,3.4,27.9,3.4c-20.8-5.1-31.6-15.6-45.1-34.3
	c-13.5-18.7-22.7-18-22.7-18l14.3-2.6c0,0-1.2-0.8-9.1-4.9c-7.8-4.1-11.5-4.2-11.5-4.2s0,9.6-6.8,18.4c-24.1,31.1-62.2,19.3-52.5-31
	c-2.6-0.2-12.5,6.2-13.5,6.8c-0.9-0.6-10.8-7-13.5-6.8c-2.8,0.2-6,3.7-6,3.7c17.7,28.8-8.9,40.1-0.1,50.7
	c12.4,15,12.5,35.1,19.9,35.1c4.4,0,9.6-2.3,15.6-7.9c-1.4,9.9,0.5,19.7,5.5,29.2c3.1,3.8,6.3,7.6,9.4,11.5c-4.5-2.3-9-4.6-13.4-6.9
	c-8.7-10.5-19.9-17.2-27.7,2.1c-0.4,11.2-0.7,22.3-1.1,33.5c1.3,7.5,5.7,12.2,11.3,16l0.1,0v0l0.1,0l0.1,0v0
	c1.4-0.3,12.5-2.8,16.2-8.6c3.9-6.2,8.2-7.6,8.2-7.6s-3.7-4.5-5-12.7c-1.4-8.2-1.1-11.8-1.1-11.8s0.4,2.8,6.1,11.1
	c5.7,8.2,9.1,13.4,9.1,13.4s0.3,9.6-6.5,20.8c-6.8,11.2-16,15.4-16,15.4s4.1,1.4,12.4-2.3c8.4-3.7,19.1-16.2,19.1-16.2
	s-0.4-9.5,0.8-18.7c1.2-9.2,4.5-16.2,4.5-16.2s0,0,0.1,4.7c0.1,4.7,3.2,17.9,2.2,27.3c-1.1,9.5-6.4,11.5-6.4,11.5s-0.5,7-4.3,15.3
	c-3.8,8.2-12,13.3-12,13.3c-8.7,23.1-11.8,31.5-27.5,51.5c8.3-4.2,11.7-7,18.6-14C302.2,453.4,295.5,465.6,286.8,477.2"/>
<path class="st3" d="M350.5,229c-43.6,39.5-56.3-11.7-50.5-33.3c-2.6-0.2-12.5,6.2-13.5,6.8c-0.9-0.6-10.8-7-13.5-6.8
	c-2.8,0.2-6,3.7-6,3.7c17.7,28.8-8.9,40.1-0.1,50.7c1.6,1.9,2.9,3.9,4.2,5.9c0-4.2,1.2-8.2,3.6-12.1
	C297.2,207.9,302.8,292.4,350.5,229"/>
<path class="st3" d="M347.2,296.7c0,0-0.1,0.1-4.1,4.5c-3.9,4.3-7.4,11.5-7.4,11.5s-0.1-3.1,3.8-13.5c1-2.5,2.1-4.8,3.3-6.9
	c-15,9.5-9,61.4-22.7,54.3c0,0,0.3,9.6-6.5,20.8c-6.8,11.2-16,15.4-16,15.4s4.1,1.4,12.4-2.3c8.4-3.7,19.1-16.2,19.1-16.2
	s-0.4-9.5,0.8-18.7c1.2-9.2,4.5-16.2,4.5-16.2s0,0,0.1,4.7c0.1,2.4,0.9,7.1,1.6,12.4l0,0.2l0,0.2l0,0l0,0.2l0,0.2l0,0l0,0.2l0,0.2
	l0,0l0,0.2l0,0.2l0,0l0,0.2l0,0.2l0,0l0,0.2l0,0.2l0,0.1l0,0.2l0,0.2l0,0.1l0,0.2l0,0.2l0,0.1l0,0.2l0,0.2l0,0.1l0,0.1l0,0.2l0,0.1
	l0,0.1l0,0.2l0,0.1l0,0.1l0,0.2l0,0.2l0,0.1l0,0.2l0,0.2l0,0.1l0,0.4l0,0l0,0l0,0l0,0.4l0,0l0,0.2l0,0.2l0,0l0,0.2l0,0.2v0l0,0.5
	l0,0v0l0,0.5l0,0l0,0.4l0,0.1l0,0.2c0,0.3,0,0.5,0,0.8v0l0,0.1l0,0.2l0,0.1l0,0.1l0,0.2l0,0.1l0,0.1l0,0.2l0,0.1l0,0.1l0,0.2l0,0.1
	l0,0.1l0,0.4l0,0l0,0.1l0,0.3l0,0.1l0,0l0,0l0,0.4l0,0l0,0l0,0.4l0,0l0,0v0l0,0.4c-1.1,9.5-6.4,11.5-6.4,11.5s-0.5,7-4.3,15.3
	c-3.8,8.2-12,13.3-12,13.3c-8.7,23.1-11.8,31.5-27.5,51.5c8.3-4.2,11.7-7,18.6-14c-2.9,14.4-9.6,26.6-18.3,38.2
	c1.5-1.2,7.9-6.5,16.5-17.1c9.9-12,10.5-17.9,10.5-17.9s1.2,3,1.2,9.3c0,6.4-1.5,9.9-1.5,9.9c12.7-19.6,24.6-40.1,30.2-68.2
	c4.2,6.9,6.5,14.5,7.5,22.6c7.2-16.8,11-36.2,10.4-58.9c7.8,6.5,12.3,15,16.2,23.8c1.5-18.7,0.1-38.2-5.3-58.9
	c7.2,2.6,14.7,7.3,19.7,15c-9-19.3-19.3-38.3-31.8-56.8c11,21.4,9.2,51.6,4.2,76.5c-0.2-1.7-2.2-9.7-4.7-13.4
	c0.6,8.7-3.5,18.6-8.6,26.8c0.8-4.5,0.7-8.7-0.7-12.5c-1.6,9.2-6.2,15.1-11.9,20l-0.4-11.3c3.7-27.2-3.2-35.5,3.4-57.7
	c-0.2,5.7,1.1,9.2,2.6,12.5C344.2,313.1,344.4,305.1,347.2,296.7"/>
<path class="st3" d="M303.2,293.9c1,4.3,2.6,8.5,4.8,12.7c3.1,3.8,6.3,7.6,9.4,11.5c-4.5-2.3-9-4.6-13.4-6.9c-0.3-0.4-0.7-0.8-1-1.2
	l2,12.2l1.2,3.1c0.9,1.8,2.3,4.4,4.9,8c5.7,8.2,9.1,13.4,9.1,13.4c-4.4-7.4-7.9-15.6-9.4-26c3.8,5.5,8.3,9.6,13.6,11.7
	c-4.6-11.6-6.2-18.1-6.1-28c15.9-9.2,30.7-15.9,25.4-38.5c-1.2,0.2-2.4,0.5-3.6,0.7L303.2,293.9z"/>
<path class="st3" d="M285.5,301.5c-3.4,1.3-6.5,4.9-9.3,11.7c-0.4,11.2-0.7,22.3-1.1,33.5c1.3,7.5,5.7,12.2,11.3,16l0.1,0v0l0.1,0
	l0.1,0v0c1.4-0.3,12.5-2.8,16.2-8.6c-5.6,2.8-11.2,6-17.3,2.1V301.5z M302.4,277.5c-0.8,5.7-0.5,11.4,0.9,16.9l4.4,2.2l-3.9-0.5
	c0.4,1.4,0.9,2.8,1.4,4.2l0.9,0.1c2.8-4,5.5-8,8.3-12c4.7-1.4,9.4-2.9,14.1-4.3c3.9-5.9,7.7-11.8,11.6-17.7
	c-4.8-3.2-9.6-6.5-14.4-9.7c3.1,1.7,6.1,3.4,9.2,5.1c-0.8,0.5-1.6,0.9-2.4,1.4c-11.7-1-19.1,7.2-24.6,15.2c-1.5,1.7-2.9,1.2-5-2.5
	C302.7,276.5,302.5,277,302.4,277.5z"/>
<path class="st3" d="M212.4,280.2c0,0-14.5,13.9-21.2,28.4c-6.8,14.5-10.5,28.4-10.5,28.4c4.9-6.9,12.7-11.8,19.7-15
	c0,0-7,6.5-10.3,30.3c-3.2,23.8,6,44.6,6,44.6s1.6-8.2,6.5-19.5c4.9-11.2,5-11.2,5-11.2s-2.3,11.9,3.9,37.6
	c6.2,25.7,14.3,34.9,14.3,34.9s-0.8-5.8,0.8-14.2c1.6-8.4,2.6-10.8,2.6-10.8s2.2,10.4,13.8,27.5c11.6,17,16.5,20.4,16.5,20.4
	s-0.3-0.6-0.5-1.7v0c-11.9-20-23.7-40.3-32-69c-2.6,7.9-4,15.8-4.1,23.8c-10.1-19.1-15.7-39-15.4-59.8c-4.8,8.4-8.1,17-10.2,25.6
	c-2.6-21.3,0-40.4,7-61.7c-4.5,0.6-8.3,1.6-12.9,4.8C195.4,308.8,202.6,294.4,212.4,280.2"/>
<path class="st3" d="M221.5,317.8c0.7-4.7,4.3-11.5,7-16c-1.9-0.3-4.8-0.1-6.7,0.5c0.3-2,2-3.7,4.1-5.6c-3.8,2-6.5,4.5-8,7.6
	c2.9-0.9,5.8-1.2,8.7-1.1c-6.7,8.5-10.1,17-12.3,25.6c3-3.8,6.1-7.4,10.7-10.3c-4.6,10.4-5.5,20.7-4.6,31c1.1-11.1,4-25.1,9.2-35.7
	C227,314.3,224.3,315.9,221.5,317.8"/>
<path class="st4" d="M318.2,384.2c0,0-8.5,8.8-16.6,11.2c-8.2,2.4-9.7-1.9-12.4-2.3l-2.6-0.4v0l-0.1,0l0,0v0l-2.6,0.4
	c-2.7,0.4-4.2,4.7-12.4,2.3c0.2,11.5,18.6,11.5,29.8,7.5C306.5,399.9,312.5,394.4,318.2,384.2"/>
<path class="st1" d="M317.1,257c0,0,6.8-2.4,15-0.5c8.2,1.9,11.5,9.3,11.5,9.3c-2.1,13.6-14.1,25.8-28.1,24.9
	c3.8,2.3,11,2.5,14.6,0.4c-2.1,4.7-8.7,8-15.7,7c0,0-1.1,2.6,0.2,10.5c1.4,8,2.7,9.5,2.7,9.5s-8.2-4.3-14.7-16.8
	c-6.5-12.4,0.1-25.3,0.1-25.3s-1.2,2.4,0.7,7.2c1.9,4.7,3.7,6.6,3.7,6.6s1-7.2,7.5-15.2c6.5-8,17.7-11.3,17.7-11.3
	S327.5,256.5,317.1,257"/>
<path class="st0" d="M332.7,268.9c0,0-6.1,0.5-10.5,5.5c-4.5,5-5.4,10.8-5.4,10.8S329.7,282.6,332.7,268.9"/>
<path class="st4" d="M240.7,263.3c13.4,0.3,24,12.5,25.2,26.5C272.8,267.8,254.1,248.3,240.7,263.3"/>
<path class="st3" d="M240.7,263.3c13.4,0.3,24,12.5,25.2,26.5c0.9-2.9,1.4-5.8,1.5-8.6c-4.9-17.7-23.3-20.8-14.9-23
	C248.5,257.6,244.4,259.1,240.7,263.3"/>
<path class="st0" d="M240.3,268.9c0,0,6.1,0.5,10.5,5.5c4.5,5,5.4,10.8,5.4,10.8S243.4,282.6,240.3,268.9"/>
<path class="st5" d="M515.9,138.3c12.5,3.2,15.7-0.5,13.1-13.3c-1.3-6.4-2.6-12.7-3.9-19c-1.3-6.3-2.6-12.7-3.9-19.1
	c-1.8-8.6-6-12.2-12.4-13c-4.2-0.5-8.3-1-12.5-1.4c-2.1-0.2-3.2-0.9-3.6-3.2c-1.2-6.6-2.4-13.2-3.6-19.8c-0.3-1.6,0.3-2.3,1.9-2.3
	c7.3,0.4,14.6,0.8,21.8,1.2c-2.6-7.2-5.1-14.4-7.7-21.5c-8.6,0-17.3,0-25.9,0c-8.7,0-11.7,5.3-10.4,13.5c1,5.9,2,11.8,3,17.7
	c1,5.9,2,11.8,2.9,17.7c1.7,10.4,7.3,12.5,13.4,13.3c3.4,0.4,7,0.9,10.5,1.4c2.8,0.4,3.8,0.7,4.4,3.8c1.3,6.7,2.5,13.4,3.8,20.1
	c0.3,1.7-0.1,2.1-2,1.7c-7.6-1.5-15.1-2.8-22.6-4.1c2.4,6.7,4.7,13.5,7.1,20.3C498.1,134,506.9,136,515.9,138.3 M437.5,122.9
	c13,2,26,4.3,39.1,6.7c0.1-6.1,0.3-12.3,0.5-18.5c-6.9-1.2-13.9-2.2-20.8-3.2c-2-13.5-4-27-5.9-40.5c-1.9-13.5-3.9-27-5.9-40.5
	c-6.4,0-12.9,0-19.3,0c2.1,16,4.1,32,6.2,48C433.4,90.9,435.5,106.9,437.5,122.9z M408.2,118.9c6.9,0.8,13.7,1.7,20.7,2.7
	c-1.9-15.8-3.8-31.6-5.7-47.4c-1.9-15.8-3.8-31.6-5.8-47.4c-6.2,0-12.5,0-18.8,0c1.6,15.3,3.3,30.7,4.8,46
	C405,88.3,406.7,103.6,408.2,118.9z M373.8,38.1c-0.5,7.7-1.1,15.4-1.6,23.1c-0.5,7.7-1,15.3-1.6,22.9c-1.7-7.7-3.4-15.4-5-23
	c-1.6-7.6-3.2-15.3-4.8-22.9c-0.8-3.8-1.7-7.5-2.5-11.3c-6.3,0-12.7,0-19,0c3.7,14.5,7.3,29,11.1,43.6c3.8,14.7,7.8,29.4,11.9,44.2
	c7.1,0.5,14.2,1.1,21.3,1.6c1.9-14.6,3.7-29.3,5.4-44.2c1.7-14.9,3.1-30,4.6-45.2c-6.3,0-12.7,0-19,0
	C374.3,30.6,374,34.4,373.8,38.1z M296,112c12.8,0.2,25.7,0.5,38.5,1.1c0.9-5.3,1.8-10.6,2.8-15.9c-7-0.3-13.9-0.5-20.9-0.7
	c-0.1-6.2-0.3-12.4-0.4-18.6c5.4,0.1,10.8,0.3,16.2,0.4c-0.2-4.9-0.4-9.9-0.6-14.9c-5.3-0.1-10.7-0.2-16-0.3
	c-0.1-6.7-0.3-13.5-0.5-20.3c6.9,0,13.8,0.1,20.7,0.2c-1.3-5.4-2.6-10.7-4-16.1c-12.2,0-24.3,0-36.5,0c0.1,14.2,0.2,28.4,0.3,42.6
	C295.8,83.6,296,97.8,296,112z M287.7,37.2c0-6.2-3.8-10.3-11.1-10.3c-12.3,0-24.5,0-36.7,0c-0.7,14.4-1.3,28.8-2,43.2
	c-0.6,14.4-1.3,28.8-2,43.1c12-0.5,24-0.9,35.9-1.1c11.6-0.2,15.8-4,15.8-13.3c0-10.3,0-20.5,0-30.8
	C287.6,57.7,287.7,47.5,287.7,37.2z M267.1,41.8c1.2,0,1.7,0.6,1.7,1.6c-0.1,8.7-0.3,17.3-0.5,26c-0.1,8.7-0.4,17.3-0.5,26
	c0,1.3-0.2,1.8-2,1.8c-3.1,0-6.3,0.1-9.4,0.1c0.2-9.3,0.5-18.5,0.8-27.8c0.2-9.2,0.5-18.5,0.7-27.8C261,41.9,264,41.8,267.1,41.8z
	 M215.1,37.6c0.4-6.4-3-10.7-10.4-10.7c-12.2,0-24.4,0-36.7,0c-1.7,15.5-3.4,31-5.2,46.5c-1.8,15.5-3.4,31-5.2,46.4
	c12.1-1.4,24.3-2.8,36.4-3.9c11.7-1,16.2-5.1,16.9-14.8c0.7-10.6,1.4-21.2,2.1-31.8C213.7,58.8,214.4,48.2,215.1,37.6z M194.2,42.6
	c1.3,0,1.7,0.6,1.6,1.7c-0.7,9.1-1.6,18.2-2.3,27.3c-0.7,9.1-1.5,18.2-2.3,27.3c-0.1,1.4-0.4,1.9-2.1,2c-3.1,0.3-6.3,0.6-9.5,0.9
	c0.9-9.8,1.9-19.6,2.8-29.4c0.9-9.8,1.8-19.6,2.7-29.5C188.2,42.7,191.2,42.6,194.2,42.6z M106.3,127.8c13.4-2.3,26.6-4.5,39.8-6.4
	c1.9-6,3.7-12,5.6-18c-7.1,0.8-14.2,1.7-21.4,2.5c1-7.1,1.9-14.1,2.9-21.2c5.4-0.5,11-1,16.5-1.5c0.6-5.4,1.3-10.9,1.9-16.3
	c-5.4,0.3-10.8,0.7-16.2,1c1.1-7.7,2.2-15.4,3.2-23c6.9-0.2,13.8-0.4,20.8-0.6c-0.3-5.8-0.7-11.6-1.1-17.5c-12.2,0-24.3,0-36.5,0
	c-2.7,16.8-5.2,33.7-7.8,50.5C111.5,94.2,108.9,111,106.3,127.8z M111.7,40.2c1.3-8.1-1.7-13.3-10.5-13.3c-11.9,0-23.7,0-35.5,0
	c-4,19.3-8,38.6-12,57.8c-4,19.3-8,38.6-12,57.8c7.3-1.9,14.5-3.7,21.8-5.6c1.1-5.8,2.2-11.7,3.3-17.5c1.1-5.8,2.2-11.7,3.3-17.5
	c0.9-0.2,1.8-0.3,2.7-0.5c0.5,5.5,1.2,10.9,1.8,16.4c0.6,5.4,1.3,10.8,2,16.1c7.4-1.6,14.8-3.2,22.1-4.7c-1-5.1-1.9-10.1-2.8-15.3
	c-0.9-5.2-1.9-10.4-2.7-15.7c6-0.9,9.9-5.9,10.7-10.4c1.3-7.9,2.6-15.8,3.9-23.8C109.2,56.1,110.4,48.1,111.7,40.2z M90.2,45.7
	c1.3-0.1,1.7,0.8,1.5,2.1c-1,5.4-2,10.8-3,16.3c-1,5.4-2,10.8-2.9,16.2c-0.3,1.6-0.8,2.3-2.4,2.5c-3.3,0.4-6.6,0.8-9.9,1.3
	c1.1-6.3,2.4-12.7,3.6-19c1.2-6.3,2.5-12.7,3.6-19C83.9,46,87,45.9,90.2,45.7z"/>
<path class="st6" d="M240.5,71.3c4.6-0.1,9.3-0.2,13.9-0.2c-0.2,8.7-0.5,17.5-0.7,26.2l-0.1,2.9l2.9,0c3.1,0,6.2-0.1,9.4-0.1
	c3,0,4.6-1.5,4.7-4.5c0.1-8.2,0.3-16.4,0.5-24.6c4.6,0,9.2-0.1,13.9-0.1c0,9.3,0,18.6,0,27.9c0,2.4-0.3,5.4-1.9,7.4
	c-2.4,2.8-7.8,3.2-11.2,3.2c-11,0.2-22,0.5-33,1C239.4,97.3,240,84.3,240.5,71.3 M165.5,74.3c4.6-0.3,9.3-0.5,14.1-0.8
	c-0.9,9.3-1.8,18.6-2.7,27.9l-0.3,3.3l3.3-0.3c3.2-0.3,6.3-0.6,9.5-0.9c2.8-0.3,4.4-1.7,4.6-4.5c0.7-8.8,1.5-17.5,2.2-26.3
	c4.6-0.2,9.3-0.4,13.9-0.5c-0.6,9.6-1.3,19.2-1.9,28.8c-0.6,9.4-5.5,11.4-14.4,12.2c-11,1-22,2.2-33,3.5
	C162.4,102.6,163.9,88.4,165.5,74.3z M116.8,77.9c10.1-0.9,20.5-1.7,31.2-2.4l-0.6,5.3c-4.8,0.4-9.6,0.8-14.3,1.3l-2.2,0.2l-0.3,2.2
	c-1,7.1-1.9,14.1-2.9,21.2l-0.5,3.5l3.5-0.4c5.7-0.7,11.4-1.3,17.1-2c-1.3,4.1-2.6,8.2-3.9,12.3c-11.5,1.6-23,3.5-34.4,5.5
	C112,108.9,114.4,93.4,116.8,77.9z M478.7,80c13.6,1.4,26.6,3,39,4.6c0.3,0.9,0.5,1.8,0.7,2.8c1.3,6.4,2.6,12.7,3.9,19.1
	c1.3,6.3,2.6,12.7,3.9,19c0.4,2.2,1.6,8.4-0.2,10.2c-1.8,1.7-7.5,0.4-9.5-0.1c-8.4-2.1-16.8-4-25.3-5.8c-1.7-4.8-3.4-9.6-5.1-14.4
	c6,1.1,12,2.1,18,3.3c3.6,0.7,6-1.2,5.2-5c-1.3-6.7-2.5-13.4-3.8-20.1c-0.8-4.2-2.7-5.4-6.7-6c-3.5-0.5-7-1-10.5-1.4
	C483.2,85.6,480.3,83.8,478.7,80z M434.3,76.1c5,0.4,9.9,0.8,14.8,1.2c1.5,10.3,3,20.7,4.5,31l0.3,2l2,0.3
	c6.1,0.9,12.3,1.8,18.4,2.8c-0.1,4.3-0.2,8.6-0.3,12.9c-11.3-2-22.6-4-34-5.8C438.1,105.7,436.1,90.9,434.3,76.1z M406.4,74.2
	c4.8,0.3,9.5,0.6,14.2,0.9c1.7,14.5,3.5,28.9,5.2,43.4c-5-0.7-10-1.4-15-2C409.3,102.4,407.8,88.3,406.4,74.2z M353.7,71.9
	c3.9,0.1,7.7,0.3,11.5,0.4c0.9,4.1,1.8,8.3,2.7,12.4l4,18.3l1.4-18.7c0.3-3.9,0.6-7.8,0.9-11.7c4,0.2,8,0.3,11.9,0.5
	c-1.5,13.4-3.2,26.8-4.9,40.2c-5.6-0.4-11.2-0.9-16.8-1.3C360.8,98.7,357.2,85.3,353.7,71.9z M298.5,70.9
	c10.4,0.1,20.6,0.2,30.7,0.4l0.2,4.1c-4.4-0.1-8.9-0.2-13.3-0.3l-2.9-0.1l0.1,2.9c0.1,6.2,0.3,12.4,0.4,18.6l0.1,2.6l2.6,0.1
	c5.9,0.2,11.8,0.4,17.7,0.6c-0.6,3.5-1.2,7-1.8,10.5c-11.2-0.5-22.3-0.7-33.5-0.9C298.7,96.5,298.6,83.7,298.5,70.9z M79,130.6
	c5.5-1.2,11-2.4,16.6-3.6c-0.8-4.2-1.6-8.4-2.3-12.7c-0.9-5.2-1.9-10.5-2.7-15.7l-0.4-2.7l2.7-0.4c4.1-0.6,7.7-4.1,8.4-8.2
	c0.4-2.7,0.9-5.4,1.3-8.1c-4.8,0.5-9.4,0.9-14,1.4l0,0.2c-0.5,2.7-1.9,4.4-4.7,4.7c-3.3,0.4-6.5,0.8-9.8,1.3l-3.8,0.5l0.7-3.7l0.2-1
	c-4.9,0.6-9.7,1.2-14.5,1.9l-0.2,0.8c-3.7,17.8-7.4,35.7-11.1,53.5c5.3-1.3,10.6-2.7,15.8-4.1c1-5.3,2-10.5,3-15.8
	c1.1-5.8,2.2-11.7,3.3-17.5l0.4-1.9l1.9-0.3c0.9-0.2,1.8-0.3,2.7-0.5l2.9-0.5l0.3,3c0.5,5.4,1.2,10.9,1.8,16.3
	C77.9,121.8,78.4,126.2,79,130.6z"/>
</svg>
