<?xml version="1.0" encoding="utf-8"?>
<!-- Generator: Adobe Illustrator 19.0.0, SVG Export Plug-In . SVG Version: 6.00 Build 0)  -->
<svg version="1.1" id="Layer_1" xmlns="http://www.w3.org/2000/svg" xmlns:xlink="http://www.w3.org/1999/xlink" x="0px" y="0px"
	 viewBox="0 0 607.5 577.4" style="enable-background:new 0 0 607.5 577.4;" xml:space="preserve">
<style type="text/css">
	.st0{fill-rule:evenodd;clip-rule:evenodd;fill:#D10027;}
	.st1{fill-rule:evenodd;clip-rule:evenodd;}
	.st2{fill-rule:evenodd;clip-rule:evenodd;fill:#990000;}
	.st3{fill-rule:evenodd;clip-rule:evenodd;fill:#EAA114;}
	.st4{fill-rule:evenodd;clip-rule:evenodd;fill:#F8E300;}
	.st5{fill-rule:evenodd;clip-rule:evenodd;fill:#914700;}
	.st6{fill-rule:evenodd;clip-rule:evenodd;fill:#A5ADBA;}
	.st7{fill-rule:evenodd;clip-rule:evenodd;fill:#FFFFFF;}
	.st8{fill-rule:evenodd;clip-rule:evenodd;fill:#7C828B;}
	.st9{fill:#FFFFFF;}
</style>
<path class="st0" d="M302.8,577.4l-96.2-166.7c-53.1,7.1-105.6,19-157.6,32.5l-13,3.4v-45.7c0-8.8,0-17.5,0-26.3v-28.9l9.3-1.9
	c0-3.3,0-6.6,0-9.9c0-0.5,0-1,0-1.5l-9.3,0.5v-37.2c0-8.8,0-17.5,0-26.3V234h10.4h58.2L0,53h605.5L501,234h13
	c29.3,0,55.6,22.3,55.6,52.5c0,6.1,0,12.3,0,18.4v31.4l-1,0.1c0.7,3.3,1,6.6,1,10c0,6.2,0,12.5,0,18.7c0,6.2,0,12.4,0,18.7
	c0,13.1-4.9,25.3-14.5,34.4c-13.1,12.3-32.3,16.1-49.6,11.8c-35.4-8.8-70.6-15.7-105.9-20.2L302.8,577.4z"/>
<polygon class="st1" points="302.8,556.6 445.1,310 587.5,63.4 302.8,63.4 18,63.4 160.4,310 "/>
<polygon class="st0" points="302.8,498.4 537.1,92.5 68.5,92.5 "/>
<polygon class="st2" points="302.8,477.5 86.5,102.9 519.1,102.9 "/>
<polygon class="st1" points="302.8,456.7 501,113.3 104.5,113.3 "/>
<path class="st0" d="M404.2,71.3c5.9,3.5,11.8,6.8,17.8,10.1c5.3,2.9,10.7,5.9,16.3,8.3c19,8.2,36.8,23.5,35.6,46.1
	c-1.2,23.9-32.2,35.8-58.1,36.3l18-17.1l-42-24.9l-107-2.1L226.6,195c-24-24-31-35.9-38.2-66.9c-1.9-15.9-0.6-31.8,4.6-47
	c6.3-18.7,17.9-34.4,32.7-47.3c18.5-16.1,40.6-27.8,65.1-31C312,0.1,333.2,4,352,14.3c19.6,10.8,34.9,27.8,44.3,48
	C399.7,64.6,402.4,67.6,404.2,71.3"/>
<path class="st1" d="M380.5,304.2c-5.6,6.6-15,13.1-22.3,17.2c-20.3,11.2-43.4,14.7-66.3,12.2l-14-1.5l10.5-9.4c2-1.8,4-3.9,5.9-6.2
	c-6.5-0.6-12.9-1.6-19.2-3c-22.3-5.1-42.9-15.5-58.9-32c-15.4-15.8-24.6-35.5-27.2-57.4c-1-8.8-1.2-20.4,0.8-29.1l2-9l7.6,5.3
	c5.6,3.8,18.1,10.1,25,7.6c0.5-0.2,2.5-1,2.7-1.6c0.3-0.9-1-3.7-1.4-4.5c-2-3.7-5-7.4-7.7-10.6c-4.6-5.4-8.8-13.7-11.6-20.2
	c-4.8-11-8.2-23-9.6-34.9c-1.7-14.6-0.5-29.4,4.2-43.4c5.9-17.3,16.6-31.7,30.3-43.7c17.3-15,37.8-26,60.7-29
	c19.5-2.5,38.9,1,56.1,10.5c18.8,10.4,33.3,26.9,41.9,46.5c3.7,1.8,6.6,4.9,7.7,8.8c6.8,4,13.6,7.9,20.5,11.7c5.5,3,11.2,6.1,17,8.6
	c15.7,6.8,31.6,19.2,30.6,38c-1,19.7-20.6,27.9-36.9,32.9l-12.9,3.9l5.3-12.2c1-3-1.2-6.9-3.2-9.3c-4.3-2-8.9-3.7-13.3-5.3
	c-10.2-3.7-20.9-6.8-31.6-8.6c-8.7-1.4-19-2.7-27.8-1.8c-1.8,0.2-7.6,1-8.9,2.8c0.4,3.2,7.8,12.2,9.6,14.3
	c8.5,10.2,17.7,19.9,26.3,30c9.6,11.2,18.8,23,25.5,36.2C414.5,250.8,409.9,280.5,380.5,304.2"/>
<path class="st3" d="M436.1,150.1c0,0,9.5-4.9,13.1-12.1c3.6-7.2-1.4-15.9-14.9-23.3c-13.6-7.4-49.4-26.3-49.4-26.3
	s-1.2-4.2-3.2-6.7c-2-2.5-11.5-3.1-11.5-3.1s-8.6-7.2-13.1-12.5c-4.6-5.3-7.7-9.8-16.5-9.6c-8.9,0.1-13.7,10.9-13.7,10.9
	s1,0.4,2.3,1.7c1.3,1.2,1.4,1.5,1.4,1.5s-17.8-1.8-27.5,3.9c-9.7,5.7-6.1,15.1-3,17.7c3.1,2.6,6,3.3,6,3.3s-2.7,0.4-6.5-0.5
	c-3.8-0.9-5.2-2.7-5.2-2.7s0.6,13.4,16.5,18.5c16,5,39,1.9,72.4,9.7c33.4,7.8,46.5,22.8,46.5,22.8s-4.2-14-33.1-25.9
	c-28.9-11.9-63.1-13.5-63.1-13.5s39.4,1.3,63.1,9.9C420.3,122.4,438.4,133.8,436.1,150.1"/>
<path class="st4" d="M436.1,150.1c0,0,9.5-4.9,13.1-12.1c3.6-7.2-1.4-15.9-14.9-23.3c-13.6-7.4-49.4-26.3-49.4-26.3
	s-1.2-4.2-3.2-6.7c-2-2.5-11.5-3.1-11.5-3.1c-0.3,0.2-0.5,0.5-0.7,0.8c-0.4,2.3-0.7,7.5,3.2,10.3c5.1,3.7,9.7,2.5,9.7,2.5
	s30.7,15.6,39,20C437.5,120.8,452.5,133.2,436.1,150.1"/>
<path class="st5" d="M333.5,103.8c0,0,7.7,0.2,18.4,1.3C345.9,104.3,339.7,103.9,333.5,103.8 M305.8,95.5c-0.5,0.1-3,0.3-6.4-0.5
	c-3.8-0.9-5.2-2.7-5.2-2.7s0.6,13.4,16.5,18.5c16,5,39,1.9,72.4,9.7c33.4,7.8,46.5,22.8,46.5,22.8s-4.2-14-33.1-25.9
	c-28.9-11.9-63.1-13.5-63.1-13.5s-12.9,0.9-20.2-0.3c-7.3-1.2-9-4-9-4s4.7,1.7,11.1,1.2c6.4-0.5,9-1.8,9-1.8S313.9,98.7,305.8,95.5z
	 M297.8,89.4c0.6,1.2,1.4,2.2,2.1,2.8c2.5,2,4.8,2.9,5.7,3.2C302.3,94,299.4,92.1,297.8,89.4z M361.5,70.8c-1.6-1.6-3.2-3.2-4.5-4.7
	c-4.6-5.3-7.7-9.8-16.5-9.6c-8.9,0.1-13.7,10.9-13.7,10.9s1,0.4,2.3,1.7c1.3,1.2,1.4,1.5,1.4,1.5s-17.8-1.8-27.5,3.9
	c-4.8,2.8-6.4,6.6-6.3,10c0.4-14,26.5-10.3,32.7-8.6c6.1,1.7,7.3,1.5,7.3,1.5s3.2,3.4,8.5,4c5.2,0.6,10.3-1.9,10.3-1.9
	s3.4,0.7,9,1.2C369.9,81.2,365.3,76,361.5,70.8z"/>
<path class="st6" d="M340.2,169.5c0,0,6.3,15.8,1.9,33.1c-4.4,17.3-30.2,22.8-30.2,22.8s13.1-21,4.4-42c-8.7-20.9-30.5-40-30.5-40
	s-1.5-8.4-0.9-15.6c0.6-7.2,2.7-9.4,2.7-9.4s-6.8,4.1-11.4,11c-4.6,7-5.1,10.2-5.1,10.2s-2.9-10.2-1.9-20.5
	c1-10.4,8.1-17.9,8.1-17.9s-2.9-6.2-2.3-13.9c0.6-7.7,7.9-13.5,7.9-13.5s-1,2.5-1.2,5.8c-0.2,3.2-0.2,5.5-0.2,5.5s4.3-9.1,14.6-14.2
	c10.3-5.1,16.4-5.1,16.4-5.1s9.6-14.3,22.2-16.6c12.6-2.3,23.7,9.5,29.3,16c5.6,6.5,7.9,8.8,9,7.5c1-1.3-10.8-34.7-46.6-43.6
	c-35.8-8.9-77.8,6.6-99.4,42c-21.6,35.4-15.5,66.6,1.3,93.9c16.8,27.3,23.2,29.9,22.3,42.1c-0.9,12.2-17.4,10.2-17.4,10.2
	s1,2.5,7.1,6.3c6.1,3.7,8.2,2.9,8.2,2.9s-6.8,4.5-22,0.7c-15.2-3.7-22.1-12.2-22.1-12.2c1.6,54.8,85.8,109.8,121.1,67.4
	c0,0,0.7,6.3-1,16c-1.8,9.7-3.8,13.6-3.8,13.6s61.8-7.4,52.8-59.9c0,0,3.1,2.5,6.7,8.8c3.6,6.3,4,11.3,4,11.3
	S415.1,251.1,340.2,169.5"/>
<path class="st7" d="M247.8,226.9c-2.2,1-9,3.3-21.2,0.3c-15.2-3.7-22.1-12.2-22.1-12.2c1.6,54.8,85.8,109.8,121.1,67.4
	c0,0-31.3,20.4-65.9-0.4c-34.5-20.8-41-45.3-41-45.3s5.9,0.1,15.8-3.3C244.5,230,247.8,226.9,247.8,226.9"/>
<path class="st7" d="M344.7,49.9c8.4,2.9,15.4,10.4,19.4,15.2c5.6,6.5,7.9,8.8,9,7.5c1-1.3-10.8-34.7-46.6-43.6
	c-35.8-8.9-77.8,6.6-99.4,42c-21.6,35.4-15.5,66.6,1.3,93.9c1.9,3.1,3.7,5.9,5.4,8.5c-1.2-2.3-2.7-5.2-4.5-8.9
	c-8.7-17.9-5.1-29.7-5.1-29.7s0.6,3.4,8.9,9c8.2,5.6,11.6,6.2,11.6,6.2s-28.1-41.9-6.1-77c21.9-35.1,49.9-37.9,49.9-37.9
	s0,0-3.6,3.4c-3.6,3.4-4.7,6.9-4.7,6.9s5.2-2.4,12.6-4.1c7.4-1.7,28.6-4.4,51.4,8.2C344.4,49.7,344.5,49.8,344.7,49.9"/>
<path class="st7" d="M242,228.4c-0.5,0.1-1.1,0.1-1.7,0.2C240.9,228.6,241.5,228.6,242,228.4L242,228.4z M223.2,155.7
	c1.6,3.2,3.3,6.3,5.2,9.4c16.8,27.3,23.2,29.9,22.3,42.1c-0.9,12.2-17.4,10.2-17.4,10.2s1,2.5,7.1,6.3c6.1,3.7,8.2,2.9,8.2,2.9
	s-0.5,0.4-1.7,0.8c8.1-2.4,10.1-5.6,10.1-5.6s0,1.5-1.6,7c-1.6,5.4-4.8,8.9-4.8,8.9s16-5.1,15-20.7
	C264.6,201.3,236.4,177.4,223.2,155.7z"/>
<path class="st8" d="M283.1,73.8c0,0-1,2.5-1.2,5.8c-0.2,3.2-0.2,5.5-0.2,5.5s4.3-9.1,14.6-14.2c10.3-5.1,16.4-5.1,16.4-5.1
	s9.6-14.3,22.2-16.6c12.2-2.3,23,8.7,28.7,15.4c-6.2-7.8-13.2-14.6-30.5-17.9c-17.3-3.2-36.5,3.6-36.5,3.6s3.5,0.3,8.4,1.9
	c4.8,1.6,6.3,2.6,6.3,2.6S289.6,67.2,283.1,73.8 M285.8,143.5c0,0-1.5-8.4-0.9-15.6c0.6-7.2,2.7-9.4,2.7-9.4s-6.8,4.1-11.4,11
	c-4.6,7-5.1,10.2-5.1,10.2c1.9,20.3,27.4,38.5,27.4,38.5S286.7,159,285.8,143.5z"/>
<path class="st8" d="M340.2,169.5c0,0,6.3,15.8,1.9,33.1c-4.4,17.3-30.2,22.8-30.2,22.8c0-0.1,0.1-0.1,0.1-0.2
	c-0.1,0.1-0.1,0.2-0.1,0.2c-11,18-34.8,19.3-34.8,19.3c29.8,15.3,57.2,7.8,69.9-10.1c0,0,10.4,25.7-0.5,48.9
	c-11,23.2-25.7,28.5-25.7,28.5s61.8-7.4,52.8-59.9c0,0,3.1,2.5,6.7,8.8c3.6,6.3,4,11.3,4,11.3S415.1,251.1,340.2,169.5"/>
<path class="st1" d="M357.4,73.9c0,0,0.7,1,2.9,2.5c2.1,1.5,3,1.9,3,1.9s-3.2,0.5-6.5-0.2c-3.3-0.7-3.6-1-3.6-1s-5.2,1.9-10,0
	c-4.8-1.8-6.8-8.1-6.8-8.1s-0.7-0.1-1.9-0.7c-1.3-0.5-1.3-0.5-1.3-0.5s5.1-8,14.2-7C356.3,61.9,357.5,72.7,357.4,73.9"/>
<path class="st3" d="M346.4,63.9c-3.2-0.1-5.7,2.4-5.7,5.5c0,3.2,2.6,5.8,5.7,5.9c3.2,0.1,5.7-2.4,5.7-5.5
	C352.1,66.6,349.6,64,346.4,63.9"/>
<path class="st1" d="M345.3,63.9c-2.5-0.1-4.6,1.9-4.6,4.4c0,2.4,2,4.5,4.4,4.6c2.5,0.1,4.6-1.9,4.6-4.4
	C349.8,66,347.8,64,345.3,63.9"/>
<path class="st7" d="M345.3,66.5c-1,0-1.9,0.8-1.9,1.8c0,1,0.8,1.9,1.9,1.9s1.9-0.8,1.9-1.8C347.1,67.4,346.3,66.6,345.3,66.5"/>
<path class="st5" d="M331.6,73.9c0,0,0,0.1,0,0.2c0.1,0.6,0.7,2.7,3.4,5.3c3.2,3.2,4.4,3.2,4.4,3.2s-4.7-0.4-9.5-2.7
	c-4.8-2.3-6.8-5.8-6.8-5.8l-4.2-0.3c0,0,0.6,1.6,2,3.4c1.4,1.9,2.8,2.1,2.8,2.1s-3.4-0.2-6.8-1.9c-3.4-1.7-4.6-5-4.6-5L331.6,73.9z"
	/>
<path class="st1" d="M514.1,244.4c23.6,0,45.2,17.6,45.2,42.1c0,6.1,0,12.3,0,18.4v22.2l-4.7,0.6c3,5.7,4.7,12.1,4.7,18.8
	c0,6.2,0,12.5,0,18.7c0,6.2,0,12.4,0,18.7c0,27.4-26,42.3-51.2,36.1C335.8,377,215.8,389.2,46.3,433.1v-32.3c0-8.8,0-17.5,0-26.3
	v-20.4l9.3-1.9c0-6.1,0-12.2,0-18.3c0-4.2,0-8.3,0-12.5l-9.3,0.5v-26.3c0-8.8,0-17.5,0-26.3v-25
	C202.5,244.4,359.7,244.4,514.1,244.4"/>
<path class="st9" d="M461.3,384c17.6,3.4,35.2,7.3,52.8,11.6c11.1,2.8,20.2-2.5,20.2-11.9c0-6.2,0-12.5,0-18.7c0-6.2,0-12.5,0-18.7
	c0-6.8-4.9-13.6-12.5-17.1c-15.5-7.2-31-13.8-46.5-20c0-5.5,0-11,0-16.4c8.2,0.4,16.5,0.7,24.8,1.1c0,4.9,0,9.8,0,14.7
	c11.4-1.2,22.8-2.4,34.2-3.8c0-6.1,0-12.3,0-18.4c0-9.4-9.1-17.1-20.2-17.1c-17.6,0-35.2,0-52.8,0c-11.1,0-20.2,6.5-20.2,14.5
	c0,4.7,0,9.4,0,14.1c0,4.7,0,9.4,0,14.1c0,5.7,4.9,11.2,12.4,14.2c15.5,6.3,31,13.2,46.6,20.5c0,7,0,13.9,0,20.9
	c-8.3-1.5-16.6-3-24.8-4.4c0-4.7,0-9.4,0-14.1c-11.4,0.4-22.8,0.8-34.2,1.3c0,5.2,0,10.4,0,15.5C441.1,373.9,450.2,381.9,461.3,384
	 M358.2,350.4c0-10.1,0-20.3,0-30.4c0-10.1,0-20.3,0-30.4c10.3,0.2,20.6,0.3,31,0.5c0,10.4,0,20.8,0,31.2c0,10.4,0,20.8,0,31.2
	C378.8,351.8,368.5,351.1,358.2,350.4z M403.2,375c11.1,1.2,20.2-3.7,20.2-11.4c0-13.3,0-26.7,0-40c0-13.3,0-26.7,0-40
	c0-7.7-9.1-14.1-20.2-14.1c-29.5,0-59,0-88.5,0c0,6.7,0,13.3,0,20c3.1,0,6.2,0,9.3,0c0,10,0,20,0,29.9s0,20,0,29.9
	c-3.1,0-6.2-0.1-9.3-0.1c0,6.6,0,13.3,0,19.9C344.2,370,373.7,371.8,403.2,375z M297,368.9c0-8,0-15.9,0-23.9
	c-11.4,0.1-22.8,0.3-34.2,0.7c0,1.3,0,2.7,0,4c-6.2,0.2-12.4,0.5-18.6,0.8c0-6.8,0-13.5,0-20.3c9.4-0.3,18.8-0.6,28.1-0.9
	c2.4-6.7,4.7-13.4,7.1-20.1c-11.8,0.2-23.5,0.4-35.3,0.7c0-6.8,0-13.5,0-20.3c6.2-0.1,12.4-0.1,18.6-0.2c0,1.3,0,2.7,0,4
	c11.4-0.1,22.8-0.2,34.2-0.2c0-8,0-15.9,0-23.9c-32.1,0-64.2,0-96.3,0c0,7.1,0,14.1,0,21.2c3.1-0.1,6.2-0.2,9.4-0.2
	c0,10.5,0,20.9,0,31.4c0,10.5,0,20.9,0,31.4c-3.1,0.3-6.2,0.6-9.4,0.9c0,7.1,0,14.1,0,21.2C232.8,371.9,264.9,369.8,297,368.9z
	 M114.7,332.2c0-6.4,0-12.9,0-19.3c0-6.4,0-12.9,0-19.3c10.8-0.5,21.7-0.9,32.6-1.3c0,6.1,0,12.2,0,18.2c0,6.1,0,12.2,0,18.2
	C136.4,329.7,125.5,330.9,114.7,332.2z M71.3,400.9c17.5-4.5,35.1-8.9,52.7-12.9c0-7.9,0-15.8,0-23.7c-3.1,0.6-6.2,1.1-9.3,1.7
	c0-3.2,0-6.4,0-9.6c6.8-1.1,13.6-2.2,20.4-3.2c1.9,5.2,3.7,10.3,5.6,15.4c1.8,5.1,3.8,10.1,5.7,15c12.2-2.3,24.4-4.2,36.6-6.1
	c0-7.2,0-14.4,0-21.6c-3.2,0.4-6.4,0.8-9.5,1.2c-1.2-3.2-2.4-6.5-3.5-9.8c7.1-3,11.5-8.4,11.5-13.8c0-8.3,0-16.7,0-25
	c0-8.3,0-16.6,0-25c0-7.7-9.1-14.1-20.2-14.1c-30,0-60,0-90,0c0,8.8,0,17.5,0,26.3c3.1-0.2,6.2-0.3,9.3-0.5c0,12.9,0,25.8,0,38.7
	c0,12.9,0,25.8,0,38.7c-3.1,0.6-6.2,1.3-9.3,1.9C71.3,383.3,71.3,392.1,71.3,400.9z"/>
<path class="st6" d="M214.2,320.6c18.6-0.9,37.8-1.6,57.5-1.9c-0.8,2.2-1.6,4.4-2.4,6.7c-8.4,0.3-16.9,0.5-25.3,0.8l-4,0.1v4
	c0,6.8,0,13.5,0,20.3v4.4l4.3-0.2c6.2-0.3,12.4-0.5,18.6-0.8l4-0.2v-4c0,0,0,0,0,0c8.6-0.3,17.2-0.4,25.8-0.5c0,5.2,0,10.4,0,15.6
	c-29.4,0.9-58.7,2.8-87.9,5.7c0-4.3,0-8.5,0-12.8c1.9-0.2,3.7-0.4,5.6-0.5l3.8-0.3v-3.8c0-10.5,0-20.9,0-31.4V320.6z M463.7,326
	c19.7,2,38.4,4.3,56,6.9l0.4,0.2c5.1,2.3,10,7.4,10,13.3c0,6.2,0,12.5,0,18.7c0,6.2,0,12.4,0,18.7c0,1.8-0.5,3.5-1.6,4.9
	c-3,3.9-9.1,4-13.4,2.9c-17.6-4.4-35.2-8.3-53-11.7c-4.4-0.9-8.9-2.9-12.3-5.9c-2.2-2-4.5-5-4.5-8.1c0-3.8,0-7.7,0-11.5
	c8.6-0.3,17.2-0.6,25.8-0.9c0,3.2,0,6.5,0,9.7v3.5l3.4,0.6c8.3,1.5,16.5,3,24.8,4.4l4.9,0.9v-5c0-7,0-13.9,0-20.9v-2.7l-2.4-1.1
	C489.2,337.1,476.5,331.4,463.7,326z M328.2,318.6c8.7,0.1,17.3,0.3,25.8,0.6v0.9c0,10.1,0,20.3,0,30.4v3.9l3.9,0.2
	c10.3,0.7,20.7,1.4,31,2.1l4.5,0.3v-4.5c0-10.4,0-20.8,0-31.2v-0.7c8.7,0.5,17.4,1,25.8,1.6v1.2c0,13.3,0,26.7,0,40
	c0,0.7-0.1,1.4-0.4,2c-0.9,2-2.9,3.3-4.9,4.1c-3.2,1.3-6.9,1.5-10.3,1.2c-28.2-3-56.4-4.9-84.8-5.8c0-3.9,0-7.8,0-11.7
	c1.7,0,3.4,0,5.1,0.1l4.2,0.1v-4.2c0-10,0-20,0-29.9V318.6z M119.9,384.7c0-5.1,0-10.3,0-15.4c-1.5,0.3-2.9,0.5-4.4,0.8l-4.9,0.9v-5
	c0-3.2,0-6.4,0-9.6v-3.5l3.5-0.6c6.8-1.1,13.7-2.2,20.5-3.2l3.4-0.5l1.1,3.2c1.8,5.1,3.7,10.2,5.6,15.3c1.4,3.9,2.9,7.8,4.4,11.7
	c9.9-1.8,19.8-3.4,29.8-4.9c0-4.4,0-8.9,0-13.3c-1.6,0.2-3.2,0.4-4.9,0.6l-3.3,0.4l-1.1-3.1c-1.2-3.3-2.4-6.6-3.5-9.8l-1.3-3.7
	l3.6-1.5c3.8-1.6,9-5.3,9-10v-10.6c-8.8,0.7-17.4,1.4-25.8,2.2v3.6v3.8l-3.8,0.4c-10.8,1.1-21.7,2.2-32.5,3.5l-4.6,0.5v-4.7v-2.7
	c-8.9,1.1-17.5,2.3-25.8,3.6v0.9c0,12.9,0,25.8,0,38.7v3.4l-3.3,0.7c-2,0.4-4,0.8-6,1.2c0,5.8,0,11.7,0,17.5
	C90.2,391.7,105,388.1,119.9,384.7z"/>
</svg>
