<?xml version="1.0" encoding="utf-8"?>
<!-- Generator: Adobe Illustrator 19.0.0, SVG Export Plug-In . SVG Version: 6.00 Build 0)  -->
<svg version="1.1" id="Layer_1" xmlns="http://www.w3.org/2000/svg" xmlns:xlink="http://www.w3.org/1999/xlink" x="0px" y="0px"
	 viewBox="0 0 531 574.6" style="enable-background:new 0 0 531 574.6;" xml:space="preserve">
<style type="text/css">
	.st0{fill-rule:evenodd;clip-rule:evenodd;fill:#C2C2C2;}
	.st1{fill-rule:evenodd;clip-rule:evenodd;fill:#B3B3B3;}
	.st2{fill-rule:evenodd;clip-rule:evenodd;fill:#001044;}
	.st3{fill-rule:evenodd;clip-rule:evenodd;fill:#FFFFFF;}
	.st4{fill-rule:evenodd;clip-rule:evenodd;fill:#0551A5;}
	.st5{fill-rule:evenodd;clip-rule:evenodd;fill:#15A5E2;}
	.st6{fill-rule:evenodd;clip-rule:evenodd;fill:#808080;}
	.st7{fill:#FFFFFF;}
</style>
<path class="st0" d="M371.6,115.4C371.6,115.4,371.6,115.4,371.6,115.4c8.2,5.5,15,12.9,20.1,21.2c6,9.9,8.7,21.4,8.6,33
	c-0.1,8.3-1.7,17.5-5,25.2l-5,11.6l-6.9-10.6c-3.3-5.1-8.2-10.7-13.1-14.6c-2.2,0.1-4.5,0.6-6.5,1.2c-3.3,1.1-6.2,2.7-8.4,5.3
	c9.6,8.1,18.9,17,27.2,26.3c5,5.6,9.8,11.6,13.8,18c5.5,9,9.4,19.5,8.2,30.1c-0.8,8-4.5,15.2-10.5,20.3c2.6,6,4.2,13.2,4.7,19.5
	c1.8,21.8-7.6,41.5-21.8,57.6l-8.5,9.7l-2.6-10c-0.8,1.7-1.7,3.5-2.6,5.1c-9.9,18.4-25.5,31.6-45.1,38.9l-8.6,3.2l-0.7-13
	c-2.2,1.6-4.6,3.1-6.9,4.4c-18.7,10.6-41.4,14.3-62.6,14.5l-9.7,0.1l3.3-9.2c1.9-5.3,2.1-13.3,1.3-18.8
	c-2.3-15.5-12.4-26.6-25.6-34.3c-28-16.3-61.6-38.2-77.1-68.4l0.3,11.5L119.4,278c-7.3-8.9-13-22.3-15-33.5
	c-4.4-24.2,5.1-45,22.1-61.3l-14.9-5.6l12.2-7.2c16.6-9.8,33.3-19.5,49.8-29.6c-1.5-1.1-3.1-2.1-4.6-3.3l-12.7-9.3l15.5-2.8
	c5-0.9,10.2-2.6,15-4.7c-10.2-8.3-13.8-18.6-17.6-31l-1.1-3.6l3.8,0.4c9.8,0.9,16.1,0.9,24.9-2.3c-8.5-22-5.7-39.8,11-57.7l2.4-2.5
	l1.7,3c2.9,5.2,4.4,8.3,8.8,11.1c4.9-18.6,14.5-27.8,33.2-34.8l3.4-1.3v3.7c0,7-0.1,12.7,2.9,18.6c11.3-15,27.3-21.2,46.1-22
	l3.4-0.1L309,5.4c-2.5,9.4-3.5,15.7-1.7,24.6c16.5-9.2,36.5-7.4,52.7,2.1l3.1,1.8l-2.8,2.3c-5.6,4.6-10.8,7.7-14.1,13.5
	c7-2.3,12.9-7.1,18.7-11.5l2.6-2.1l1.3,3.1c5.4,13.3,8.3,26.9,5.2,40.6c1.1-0.9,2.2-1.8,3.3-2.6l3.1-2.4l0.9,3.8
	c1.9,7.6,3.2,12.3,0.9,20.1C380.3,105.4,376.5,110.9,371.6,115.4"/>
<path class="st1" d="M451.3,448.3C399,502.2,338,541.2,268,573l-3.5,1.6L261,573c-70-31.8-131-70.8-183.3-124.6
	c-10.7,1.5-21.3,3.1-32,4.9C20.2,457.3,0,436.7,0,411.8c0-6.8,0-13.6,0-20.4v-18.2l10-3.4c-6.5-8-10-18.3-10-28.8
	c0-6.2,0-12.3,0-18.5c0-6.2,0-12.4,0-18.5c0-24,18.8-44.2,43.1-42c6.5-47.9,19.7-95,37.5-141.9l1.2-3.1l3-1.5
	c56.7-27.6,116.1-45.3,178.5-53.8l1.1-0.2l1.1,0.2c62.4,8.5,121.8,26.2,178.5,53.8l3,1.5l1.2,3.1c17.8,46.9,31,94,37.5,141.9
	c24.3-2.3,43.1,18,43.1,42c0,6.8,0,13.6,0,20.4v18.5l-7.4,2.4c4.8,7.4,7.4,16.2,7.4,25.2c0,6.9,0,13.8,0,20.7c0,6.9,0,13.8,0,20.7
	c0,24.9-20.3,45.5-45.8,41.3C472.6,451.4,462,449.8,451.3,448.3"/>
<path class="st2" d="M474.1,410c19.2-101.3,1-195.6-33.6-287c-56.1-27.3-114.1-44.6-175.9-53c-61.8,8.4-119.9,25.7-175.9,53
	c-34.6,91.3-52.8,185.7-33.6,287c57.7,70.7,127.1,117.8,209.6,155.2C346.9,527.8,416.4,480.7,474.1,410"/>
<path class="st3" d="M453.9,398.9c15.8-89.1,0.6-173.5-30.6-257.4c-50.6-23.1-103.4-38.2-158.8-45.9
	c-55.4,7.7-108.2,22.8-158.8,45.9c-31.2,83.8-46.4,168.3-30.6,257.4c52.8,61.7,115.8,104.3,189.4,138.3
	C338.2,503.2,401.2,460.6,453.9,398.9"/>
<path class="st1" d="M115.7,146.4c47.1-20.8,96.6-34.6,147.6-41.9l1.2-0.2l1.2,0.2c51,7.3,100.4,21.2,147.6,41.9l3.3,1.5l1.2,3.4
	c28.3,78.4,42.3,158.6,28.6,241.6l-0.4,2.4l-1.6,1.8c-49.5,56.7-108.7,97.1-176.3,129.2l-3.6,1.7l-3.6-1.7
	C193.2,494.1,134,453.6,84.6,397l-1.6-1.8l-0.4-2.4c-13.7-83,0.2-163.2,28.6-241.6l1.2-3.4L115.7,146.4z"/>
<path class="st2" d="M264.5,112.8c-50.3,7.2-98.9,20.8-145.4,41.3C91.2,231.3,77.5,309.6,91,391.4c48.8,55.9,106.9,95.5,173.5,127.1
	c66.7-31.6,124.7-71.2,173.5-127.1c13.5-81.8-0.3-160.1-28.2-237.3C363.4,133.6,314.8,120,264.5,112.8"/>
<path class="st2" d="M358.5,116.3c0,0,15.7,4.7,27.3,23.8c11.7,19.1,7.5,41.8,3.2,52c0,0-7.5-11.3-16.5-17.6c0,0-19.5-1-25.8,15
	c0,0,30.6,24.6,44,46.3c13.3,21.6,7,38.3-5.3,44.6c0,0,22.3,34.3-13.3,74.9c0,0-1.5-5.8-6.2-17.7c0,0-5.5,43.1-49.8,59.4l-1-18.3
	c0,0-18,26.3-75.6,27c0,0,13.3-37.6-27.3-61.3c-40.6-23.6-76.3-50.6-81.6-87.6c0,0-2.5,3.2-4.2,8.7c-1.7,5.5-1.7,8.2-1.7,8.2
	s-41-49.9,15-92.8l-12.3-4.7c0,0,40.3-23.6,60.3-36c0,0-2.7,0.5-14.5-8.2c0,0,14.5-2.7,28.3-11.2c0,0-16.5-3.3-23.8-27.1
	c0,0,13.8,1.3,28.1-6.2c0,0-16.7-31.3,3-52.3c0,0,5.2,9.3,17,12.2c0,0,2-25.8,24.8-35.5c0,0,0,15.5,10.5,24c0,0,8.7-22.5,39.8-26.3
	c0,0-4,15.3,2.7,31.5c0,0,16.7-18.3,48-6.3c0,0-13,7.2-14.8,22.8c0,0,11.3,2.3,28-10.7c0,0,9.7,23.6-1.8,43.3c0,0,6.2,2,13.5-3.7
	C376.3,86.7,380.6,104.1,358.5,116.3"/>
<path class="st4" d="M365.4,99.6c0,0-7.8,18.8-37.5,9.7c0,0,2.5,8.8,0.5,11.2c-2,2.3-11.5-11.5-25.5-11.2
	c-14,0.3-18.3,14.5-18.3,14.5s2.5-3.3,6.4-4.4c3.9-1.1,5.5-1,5.5-1s-1.6,6,2.9,11c4.5,5,7.4,5.2,7.4,5.2s-10.2,5.2-14.6,14.2
	c-4.4,9,0.7,15.5,0.7,15.5s0.3-2.9,1.5-6.2c1.2-3.2,1.2-3.2,1.2-3.2s0.7,7.5,6.6,14.9c5.9,7.4,13.8,12.2,13.8,12.2s-5-1.3-11.4-4.6
	c-6.4-3.2-7.1-5-7.1-5s12.7,16.1,34.4,28.6c21.6,12.5,54.1,39,54.8,56.9c0.7,18-49.3,35.6-81.3,20c-32-15.7-31.6-36.6-36.6-58.9
	c-5-22.3-5.3-28.6-5.3-28.6s-7,18.1-10.2,30.6c-3.2,12.5-3,19.6-9.3,17c-6.3-2.7-26.8-24.1-25.1-45.8c1.7-21.6,16.3-31,16.3-31
	s-4.8-0.2-7.8-6.6c-3-6.3-2.7-13.5-2.7-13.5s0.8,1.6,5.9,4.5c5.1,2.9,10.3,3.4,10.3,3.4s-5.4-3.5-6.8-10.5c-1.4-7,1.2-13.7,1.2-13.7
	s1.5,2.9,4.5,7c3,4.1,3,4.1,3,4.1s-0.9-8,3.9-17.8c4.8-9.8,7.7-12.6,7.7-12.6s-0.2,5,0.4,10.2c0.6,5.2,0.9,6,0.9,6
	s7.6-13.6,17.7-19.6c10.1-6.1,15.9-6.7,25.1-4.7c9.2,2,13.7,5.9,13.7,5.9s-4.6-6.3-11.7-10.1c-7.2-3.7-7.7-4-7.7-4
	s-4.9-4.9-7.3-11.4c-2.4-6.5-1.5-10.7-1.5-10.7s-5.1,3.3-7.7,8.2c-2.7,4.9-2.3,9.4-2.3,9.4s-6.7-1.2-13.5-6.5
	c-6.7-5.3-7.2-9.2-7.2-9.2s-2.2,6.2-1.7,12.3c0.5,6.1,0.7,6.1,0.7,6.1s-4.1,1.6-13.2-2.1c-9.2-3.7-9.3-5.7-9.3-5.7s-1.9,5.8,1,11.2
	c2.9,5.3,6.2,6.4,6.2,6.4s-12.7,13.4-22.6,15.7c-9.8,2.3-18.6-3.9-21.6-7.2c-2.9-3.2-3.7-4.9-3.7-4.9s10.3,1.9,20.4-3.1
	c10.1-5,11-10.1,11-10.1s-8.2-7.2-11.4-19.5c-3.2-12.3-1.2-20.6-1.2-20.6s4.5,6,15.8,10.3c11.3,4.3,14.5,4.3,14.5,4.3
	s-4.7-10.7-1-23c3.7-12.3,8.3-17.5,8.3-17.5s0.8,7.7,6.8,15.2c6,7.5,14.7,13.2,14.7,13.2s2.8-12.2,10.2-19.1
	c7.3-7,13.8-9.8,13.8-9.8s-1.7,16.3,3.8,26.1c5.5,9.8,8.3,12.5,8.3,12.5s3.3-9,16.5-14.5c13.2-5.5,14.3-5.5,14.3-5.5s-7,8.2-7.3,19
	c-0.3,10.8-0.2,11.7-0.2,11.7s16.8,4.5,32.8-8c0,0,2.7,18.6-15.7,34C343.6,96.4,352.8,102.6,365.4,99.6"/>
<path class="st5" d="M291.9,162.3c0.6,1.3,1.1,2,1.1,2s0.3-2.9,1.5-6.2c1.2-3.2,1.2-3.2,1.2-3.2s0.7,7.5,6.6,14.9
	c5.9,7.4,13.8,12.2,13.8,12.2s-5-1.3-11.4-4.6c-6.4-3.2-7.1-5-7.1-5s12.7,16.1,34.4,28.6c14.2,8.2,33.1,22.4,44.6,36.4
	c-1.5-1.2-3.2-2.4-5.1-3.6c-16.4-10.9-38.1-11.5-66.2-25.2c-28.1-13.7-32.1-32.8-32.1-32.8s3.7,5.7,20.8,12.7
	c17.2,7,23.5,8.5,23.5,8.5s-19.5-13.6-24.2-28.1C292.5,166.3,292,164.2,291.9,162.3"/>
<path class="st5" d="M329.2,116.2c0.1,1.8,0,3.4-0.7,4.2c-2,2.3-11.5-11.5-25.5-11.2c-12.4,0.3-17.2,11.4-18.1,14
	c-0.1-1-0.3-4.8-0.1-9.1c0.2-5.1,4.8-7.8,4.8-7.8s-6.8-2.7-19.5,9.6c-12.7,12.3-11.5,25-11.5,25s-4.4-4.2-6.2-9.8
	c-1.7-5.7-1.7-7.7-1.7-7.7s-3.2,4.7-1.7,14c1.4,9.2,4.3,11.3,4.3,11.3s-5.3-2.8-8.5-4.9c-3.2-2.1-3.3-2.7-3.3-2.7s2.3,5.7,5.8,8.7
	c3.5,3,6.7,3.6,6.7,3.6s-3.7,2.4-9.4,3c-5.7,0.6-6.7,0.5-6.7,0.5s3.9,2,8.4,1.9c4.5-0.1,7.1-0.7,7.1-0.7s-16.1,5.9-22.2,20.6
	c-6.2,14.7,2.8,45,10,49c7.2,4,6.8-7.2,13.7-21.6c6.8-14.5,9-17.3,9-17.3c-0.1,0.4-0.2,1.1-0.3,1.9c-0.9,2.2-7.1,18.8-10.1,30.4
	c-3.2,12.5-3,19.6-9.3,17c-6.3-2.7-26.8-24.1-25.1-45.8c1.7-21.6,16.3-31,16.3-31s-4.8-0.2-7.8-6.6c-3-6.3-2.7-13.5-2.7-13.5
	s0.8,1.6,5.9,4.5c5.1,2.9,10.3,3.4,10.3,3.4s-5.4-3.5-6.8-10.5c-1.4-7,1.2-13.7,1.2-13.7s1.5,2.9,4.5,7c3,4.1,3,4.1,3,4.1
	s-0.9-8,3.9-17.8c4.8-9.8,7.7-12.6,7.7-12.6s-0.2,5,0.4,10.2c0.6,5.2,0.9,6,0.9,6s7.6-13.6,17.7-19.6c10.1-6.1,15.9-6.7,25.1-4.7
	c9.2,2,13.7,5.9,13.7,5.9s-1.2-1.7-3.4-3.9C316.4,103.3,326.1,111.7,329.2,116.2"/>
<path class="st5" d="M217.2,84.2c-2.7-3.3-6.3-8.7-8.1-16c-3.2-12.3-1.2-20.6-1.2-20.6s4.5,6,15.8,10.3c11.3,4.3,14.5,4.3,14.5,4.3
	s-4.7-10.7-1-23c3.7-12.3,8.3-17.5,8.3-17.5s0.8,7.7,6.8,15.2c6,7.5,14.7,13.2,14.7,13.2s2.8-12.2,10.2-19.1
	c7.3-7,13.8-9.8,13.8-9.8s-1.7,16.3,3.8,26.1c5.5,9.8,8.3,12.5,8.3,12.5s3.3-9,16.5-14.5c13.2-5.5,14.3-5.5,14.3-5.5s-7,8.2-7.3,19
	c-0.3,10.8-0.2,11.7-0.2,11.7s16.8,4.5,32.8-8c0,0,2.7,18.6-15.7,34c0,0,9.2,6.2,21.8,3.2c0,0-5.3,3.7-16,4.2
	c-10.7,0.5-18.3-4.3-18.3-4.3s3.4-0.4,9.7-9.1c6.3-8.7,8-12.8,8-12.8s-8.8,4.8-19.3,3.3c-10.5-1.5-13.8-3-13.8-3s1.7-4.8,0.8-12.3
	c-0.8-7.5,1.3-10.3,1.3-10.3s-7.1,5.2-9.1,11.2c-2,6-1.2,7.7-1.2,7.7s-6.8-5.7-14.6-16.4c-7.8-10.8-9.5-21.8-9.5-21.8
	s-5,3.2-8.3,13.7c-3.3,10.5-3.2,14.8-3.2,14.8s-11.8-8.8-18.5-16.7c-6.7-7.8-8.2-13.8-8.2-13.8s-4.2,8-3.8,18.1
	c0.3,10.2,2.8,16.7,2.8,16.7s-9.7-0.6-20.2-4.4c-10.5-3.8-12.2-7.2-12.2-7.2s-0.3,8.9,1.7,18.3C214.5,79.4,215.9,82.3,217.2,84.2"/>
<path class="st4" d="M306.2,99.7c2.6,1.1,4.3,2.2,5.3,2.9C309.6,101.6,307.9,100.6,306.2,99.7 M332,200.9
	c21.6,12.5,54.1,39,54.8,56.9c0.7,18-49.3,35.6-81.3,20c-32-15.7-31.6-36.6-36.6-58.9c-5-22.3-5.3-28.6-5.3-28.6s8,53,27.6,70
	c19.6,17,50.3,15.3,51.3,7.7c1-7.7-34.3-43.6-34.3-43.6s28.3,24.3,44.3,32.6c16,8.3,28.5,4,28-5.7
	C379.9,241.6,366.9,223.3,332,200.9z M287.5,118.1c-2,3-2.8,5.6-2.8,5.6s2.5-3.3,6.4-4.4c3.9-1.1,5.5-1,5.5-1s-1.6,6,2.9,11
	c4.5,5,7.4,5.2,7.4,5.2s-10.2,5.2-14.6,14.2c-4.4,9,0.7,15.5,0.7,15.5s0.3-2.9,1.5-6.2c1.2-3.2,1.2-3.2,1.2-3.2s0.7,7.5,6.6,14.9
	c5.9,7.4,13.8,12.2,13.8,12.2s-5-1.3-11.4-4.6c-6.4-3.2-7.1-5-7.1-5s6.7,8.4,18.5,17.8c-20.3-14.8-22.9-21.4-22.9-21.4l1.5,7.8
	c0,0-8.8-5.8-12.8-16.5c-4-10.7,15.6-23,15.6-23s-3.6-2.7-4.8-6.9c-1.2-4.2-0.4-6.8-0.4-6.8s-5.1,2.7-7.2,5
	c-2.1,2.3-2.1,3.4-2.1,3.4S283.4,122.7,287.5,118.1L287.5,118.1z M365.4,99.6c0,0-7.8,18.8-37.5,9.7c0,0,1.8,6.3,1.1,9.6
	c-2.3-4.8-7.4-10.4-17.1-16c-0.9-1.2-5.2-6.5-11.5-9.8c-7.2-3.7-7.7-4-7.7-4s-4.9-4.9-7.3-11.4c-2.4-6.5-1.5-10.7-1.5-10.7
	s-5.1,3.3-7.7,8.2c-2.7,4.9-2.3,9.4-2.3,9.4s-6.7-1.2-13.5-6.5c-6.7-5.3-7.2-9.2-7.2-9.2s-2.2,6.2-1.7,12.3c0.5,6.1,0.7,6.1,0.7,6.1
	s-4.1,1.6-13.2-2.1c-9.2-3.7-9.3-5.7-9.3-5.7s-1.9,5.8,1,11.2c2.9,5.3,6.2,6.4,6.2,6.4s-12.7,13.4-22.6,15.7
	c-9.8,2.3-18.6-3.9-21.6-7.2c-2.9-3.2-3.7-4.9-3.7-4.9s12.1,5.5,23.8,3.1c11.7-2.3,16.3-8.8,16.3-8.8s-4.3-1-9.2-9.3
	c-4.8-8.3-2.7-21.1-2.7-21.1s12,8.2,20.1,12.5c8.2,4.3,8.2,4.3,8.2,4.3s-1-8.7,0.7-16.7c1.7-8,4.3-12.3,4.3-12.3s3.5,9.3,11.2,16.2
	c7.7,6.8,7.7,6.8,7.7,6.8s0.2-5.7,6.9-10.9c6.7-5.2,16.5-7,16.5-7s-2.9,12.9,6.6,25.1C309,94.9,344.6,122.7,365.4,99.6z"/>
<path class="st1" d="M384.1,169.7c0,0,1.8-15.2-10.7-29.8c-12.5-14.7-36.5-17.8-36.5-17.8l-2.1,2.4c0,0,4.8,1.5,8.3,5.9
	c3.5,4.4,4.2,4.4,4.2,4.4s-6.3,0.6-12.2-1c-5.8-1.6-7.3-2.9-7.3-2.9s-6.5,8.2-16,12.5c-9.5,4.3-8.1,10.9-4.9,14.3
	c3.2,3.4,11.3,3,26.8-1C349.3,152.7,375.1,156.5,384.1,169.7"/>
<path class="st3" d="M347.1,134.8c-0.8,0.1-3.2,0.2-6.1-0.1C343.4,135.3,345.4,135.2,347.1,134.8 M384.1,169.7
	c0,0,1.8-15.2-10.7-29.8c-12.5-14.7-36.5-17.8-36.5-17.8l-2.1,2.4c0,0,4.8,1.5,8.3,5.9c2.8,3.6,3.8,4.3,4.1,4.4
	c4.3-1.1,5.7-4.5,5.7-4.5s13.2,4.6,21.2,15.1C382.2,155.8,384.1,169.7,384.1,169.7z"/>
<path class="st6" d="M347.4,134.8c0,0-6.3,0.6-12.2-1c-5.8-1.6-7.3-2.9-7.3-2.9s-6.5,8.2-16,12.5c-9.5,4.3-8.1,10.9-4.9,14.3
	c3.2,3.4,11.3,3,26.8-1c13.4-3.5,34.7-1,45.9,8.3c-5-4.8-14.3-11.9-26.6-14.4c-19.3-3.8-36.3,8-41.2,7.6c-4.9-0.5-7.3-5.8-4.9-10.5
	c2.4-4.7,9.8-4.4,18.1-5.3c8.2-0.9,12.2-5.9,12.2-5.9L347.4,134.8z M345.9,133.6c1.1,1.2,1.4,1.2,1.4,1.2S346.9,134.3,345.9,133.6z"
	/>
<path class="st1" d="M355.3,163.6c0,0-6.5-2.4-17.9-0.8c-11.4,1.6-14.6,3.2-20.4,3.7c-5.8,0.5-6.7-0.1-6.7-0.1s7.3,7.3,12.8,10.3
	c5.5,3,11.1,2.7,11.1,2.7S339.9,170.3,355.3,163.6"/>
<path class="st6" d="M310.5,166.4c-0.2,0-0.2-0.1-0.2-0.1l0.1,0.1L310.5,166.4z M355.3,163.6c0,0-6.5-2.4-17.9-0.8
	c-6.9,1-10.8,1.9-14.1,2.6c8.8-0.3,18.6-0.1,19.1,1.3c0.6,1.5-2.5,5.7-5.1,8.9C340.5,172.3,346.2,167.6,355.3,163.6z"/>
<path class="st1" d="M273.9,92.1c0,0-6.5,2.5-9.7,5c-3.2,2.6-3.6,4.2-3.6,4.2s-2.5-5-4.5-4.4c-2.1,0.7-11.7,9.8-15.3,15.2
	c-3.7,5.3-3.7,6.1-3.7,6.1s0.1-7.5-1.2-7.1c-1.2,0.4-5.7,6.1-8,12.9c-2.3,6.8-0.8,11.6-0.8,11.6s-2.6-1.9-4.4-3.5
	c-1.8-1.6-2.1-2.9-2.1-2.9s-4.9,7.8-4.3,17.8c0.6,10,3.8,12.7,3.8,12.7s-20.8,18.6-25.1,44.3c-4.3,25.6,9.7,42.6,9.7,42.6
	s-2.7-3.3-0.8-14.8c1.8-11.5,3.5-13.8,3.5-13.8s1.8,21.5,28,37.8c26.1,16.3,44.8,26.5,50.1,46.5c5.3,20-4,32-4,32s18-4.5,26.3-15.5
	c8.3-11,8.2-21.1,8.2-21.1s4.8,7,5.5,13c0.7,6-1.8,7.8-1.8,7.8s10.8-3.8,15-11.8c4.2-8,1.2-12.2,1.2-12.2s8.2,0.8,18.6-2.2
	c10.5-3.1,17.2-5.7,17.2-5.7s4.6,3.7,7.6,17.2c3,13.5-5.7,28.5-5.7,28.5s-1-6-8.2-12.8c-7.2-6.8-9.2-7.8-9.2-7.8s3.5,13.7-4.8,37
	c-8.3,23.3-25.6,32.6-25.6,32.6s-0.8-8.7-3.2-16c-2.4-7.2-6.6-12.9-6.6-12.9s-6.4,15.7-24.6,28.1c-18.1,12.3-39,15-39,15
	s4.3-29-23-53c-27.3-24-59.6-39-75.3-61.9c-15.7-23-17-60.6-17-60.6s-1.6,2.3-6.6,9.1c-5,6.7-8.1,14.8-8.1,14.8s-3.2-25.6,9.1-41.4
	c12.3-15.8,42.8-29.3,42.8-29.3l-18.5-1c0,0,23.5-12.3,35-20c11.5-7.7,19-14.8,19-14.8l-16.3-4.5c0,0,14.3-2.2,28.5-13.7
	S250.7,92.6,273.9,92.1"/>
<path class="st3" d="M273.9,92.1c0,0-6.5,2.5-9.7,5c-3.2,2.6-3.6,4.2-3.6,4.2s-2.5-5-4.5-4.4c-2.1,0.7-11.7,9.8-15.3,15.2
	c-3.7,5.3-3.7,6.1-3.7,6.1s0.1-7.5-1.2-7.1c-1.2,0.4-5.7,6.1-8,12.9c-2.3,6.8-0.8,11.6-0.8,11.6s-2.6-1.9-4.4-3.5
	c-1.5-1.3-2-2.5-2.1-2.8l0-0.1l0,0c0,0-0.9,1.5-1.9,4c-2.3,4.4-6.8,11.9-13.2,18.5c-10,10.3-21.3,15.7-21.3,15.7l18.5,1.3
	c0,0-29.5,15.7-42.8,26c-13.3,10.3-15.7,18-15.7,18s1-0.5,7.8-3.5c6.8-3,13.5-1.3,13.5-1.3s-22.1,49-6,75.3
	c3.2,5.2,6.6,9.9,9.9,13.9c-6-5.2-11.2-10.7-15.3-16.6c-15.7-23-17-60.6-17-60.6s-1.6,2.3-6.6,9.1c-5,6.7-8.1,14.8-8.1,14.8
	s-3.2-25.6,9.1-41.4c12.3-15.8,42.8-29.3,42.8-29.3l-18.5-1c0,0,23.5-12.3,35-20c11.5-7.7,19-14.8,19-14.8l-16.3-4.5
	c0,0,14.3-2.2,28.5-13.7S250.7,92.6,273.9,92.1"/>
<path class="st6" d="M220.1,159.8c0,0-20.8,18.6-25.1,44.3c-4.3,25.6,9.7,42.6,9.7,42.6s-2.7-3.3-0.8-14.8
	c1.8-11.5,3.5-13.8,3.5-13.8s1.8,21.5,28,37.8c26.1,16.3,44.8,26.5,50.1,46.5c5.3,20-4,32-4,32s18-4.5,26.3-15.5
	c8.3-11,8.2-21.1,8.2-21.1s4.8,7,5.5,13c0.7,6-1.8,7.8-1.8,7.8s10.8-3.8,15-11.8c4.2-8,1.2-12.2,1.2-12.2s8.2,0.8,18.6-2.2
	c10.5-3.1,17.2-5.7,17.2-5.7c3.3,14.4-2.6,26.4-2.6,26.4s0-3.5-7.2-10.2c-7.2-6.7-21.4-8.2-21.4-8.2s7.1,18.5,1.8,43.9
	c-5.3,25.3-16.5,42.7-16.5,42.7s-0.8-8.7-3.2-16c-2.4-7.2-6.6-12.9-6.6-12.9s-6.4,15.7-24.6,28.1c-18.1,12.3-39,15-39,15
	c33.1-93-21-85.9-41.4-135.5c0,0,0,7,0,21.3c0,14.3,5.7,31.6,5.7,31.6s-39.3-52.6-30-94.2C195.9,176.9,220.1,159.8,220.1,159.8"/>
<path class="st3" d="M317.7,123.4c0,0-2.5-3.2-6.6-5.5c-4.1-2.3-8-2.7-8-2.7s-1.4,6.2,1.6,9.9C307.7,128.7,315.6,127.6,317.7,123.4"
	/>
<path class="st1" d="M317.7,123.4c0,0-2.5-3.2-6.6-5.5c-4.1-2.3-8-2.7-8-2.7s-0.6,2.5-0.2,5.3c0.1-0.8,0.3-1.5,0.8-2
	c1.7-1.9,6.2,0.3,8.9,3.1c2.7,2.8,2.7,2.8,2.7,2.8s-1.8,3.2-7.3,2.7C311.6,127.9,316.2,126.4,317.7,123.4"/>
<path class="st4" d="M283.1,142.6c0,0-6.1,4.4-6.9,10.1c-0.8,5.7,1.9,10.1,1.9,10.1S259.8,146,283.1,142.6"/>
<path class="st4" d="M270.1,145.2c0,0-3.7,3.2-3.2,7.5c0.4,4.2,3.4,6.8,3.4,6.8S253.5,151.3,270.1,145.2"/>
<path class="st2" d="M484.8,270.6c20.2-3,35.7,13.7,35.7,33.3c0,6.8,0,13.6,0,20.4v12.3l-11.7,3.8c-0.8,0.3-1.6,0.5-2.4,0.8
	c9,6.7,14.1,17.8,14.1,29.2c0,6.9,0,13.8,0,20.7c0,6.9,0,13.8,0,20.7c0,19.7-15.7,36.3-35.9,33c-152.1-25-284.5-25.3-440.2,0
	c-20.3,3.3-35.9-13.3-35.9-33c0-6.8,0-13.6,0-20.4v-12.2l11.5-3.9c2.4-0.8,4.7-1.6,7.1-2.4c-11.8-6.1-18.6-18.9-18.6-32
	c0-6.2,0-12.3,0-18.5c0-6.2,0-12.4,0-18.5c0-19.6,15.4-36.3,35.6-33.3c14,2.1,28,4,42.1,5.7C219.9,292.4,351.3,290.5,484.8,270.6"/>
<path class="st7" d="M444.8,421.7c14.2,1.9,28.3,4,42.5,6.4c8.9,1.5,16.3-5.8,16.3-16.3c0-6.9,0-13.8,0-20.7c0-6.9,0-13.8,0-20.7
	c0-7.5-4-14.4-10-17.3c-12.5-5.9-25-11.4-37.4-16.6c0-6.1,0-12.3,0-18.4c6.6-0.5,13.3-1,20-1.5c0,5.5,0,11,0,16.5
	c9.1-2.8,18.3-5.6,27.5-8.6c0-6.8,0-13.6,0-20.4c0-10.4-7.4-17.9-16.3-16.6c-14.2,2.1-28.3,4-42.5,5.8c-8.9,1.1-16.2,9.1-16.2,18
	c0,5.3,0,10.6,0,15.9c0,5.3,0,10.6,0,15.9c0,6.4,4,12.2,10,14.9c12.5,5.5,25,11.5,37.5,17.7c0,7.8,0,15.6,0,23.3
	c-6.7-0.6-13.3-1.2-20-1.8c0-5.3,0-10.5,0-15.8c-9.2,1.6-18.4,3.3-27.5,4.8c0,5.8,0,11.7,0,17.5
	C428.6,412.4,435.9,420.5,444.8,421.7 M359.3,359.3c0-6,0-12,0-18c0-6,0-12,0-18c8.7-0.4,17.5-0.7,26.2-1.1c0,6.2,0,12.4,0,18.6
	c0,6.2,0,12.4,0,18.6C376.8,359.4,368.1,359.3,359.3,359.3z M324.4,411.1c14.2,0.8,28.3,1.5,42.5,2.6c0-7.5,0-15.1,0-22.6
	c-2.5-0.1-5-0.2-7.5-0.3c0-3,0-6,0-9c5.5,0.2,10.9,0.4,16.4,0.6c1.5,5.4,3,10.9,4.5,16.3c1.5,5.5,3.1,11,4.6,16.5
	c9.8,1,19.6,1.9,29.5,2.9c0-8.1,0-16.2,0-24.3c-2.6-0.2-5.1-0.3-7.7-0.5c-1-3.8-1.9-7.5-2.9-11.3c5.7-2.2,9.3-7.6,9.3-13.6
	c0-9.3,0-18.7,0-28c0-9.3,0-18.7,0-28c0-8.7-7.3-15.1-16.3-14.3c-24.1,2-48.3,3.5-72.4,4.7c0,7.2,0,14.5,0,21.7
	c2.5-0.1,5-0.1,7.5-0.2c0,10.9,0,21.8,0,32.8c0,10.9,0,21.8,0,32.8c-2.5-0.1-5-0.2-7.5-0.3C324.4,396.7,324.4,403.9,324.4,411.1z
	 M240.1,410.1c15.4-0.2,30.8-0.2,46.2-0.1c8.9,0.1,16.2-5.9,16.2-13.5c0-11.9,0-23.9,0-35.9c0-11.9,0-23.9,0-35.9
	c2.5,0,5-0.1,7.5-0.1c0-7.2,0-14.3,0-21.5c-14.2,0.4-28.3,0.6-42.5,0.7c0,7.1,0,14.1,0,21.2c2.5,0,5,0,7.5,0c0,10.6,0,21.2,0,31.8
	c0,10.6,0,21.2,0,31.8c-7.9-0.1-15.9,0-23.8,0c0-10.6,0-21.2,0-31.9c0-10.6,0-21.2,0-31.9c2.5,0,5,0,7.5,0.1c0-7.1,0-14.1,0-21.2
	c-14.2-0.1-28.3-0.4-42.5-0.8c0,7.2,0,14.4,0,21.6c2.5,0,5,0.1,7.5,0.1c0,12,0,24,0,35.9c0,12,0,24,0,35.9
	C223.8,404.2,231.2,410.2,240.1,410.1z M149.6,361.7c0-6.5,0-13.1,0-19.6c0-6.5,0-13.1,0-19.6c8.3,0.3,16.6,0.7,25,1
	c0,6.3,0,12.7,0,19c0,6.3,0,12.6,0,19C166.2,361.5,157.9,361.6,149.6,361.7z M114.6,418.1c14.2-1.4,28.3-2.8,42.5-3.9
	c0-7.6,0-15.2,0-22.8c-2.5,0.1-5,0.2-7.5,0.4c0-2.3,0-4.6,0-6.9c12-0.5,24.1-1,36.2-1.3c8.9-0.2,16.3-6.8,16.3-14.6
	c0-8.7,0-17.4,0-26.1c0-8.7,0-17.4,0-26.1c0-7.8-7.3-14.5-16.3-15c-23.8-1.4-47.5-3.2-71.2-5.3c0,8.1,0,16.2,0,24.4
	c2.5,0.1,5,0.3,7.5,0.4c0,12,0,24.1,0,36.1c0,12,0,24.1,0,36.1c-2.5,0.1-5,0.3-7.5,0.5C114.6,401.9,114.6,410,114.6,418.1z
	 M41.6,428.1c14.2-2.3,28.3-4.4,42.5-6.3c8.9-1.2,16.2-9.3,16.2-18.2c0-5.9,0-11.8,0-17.8c0-5.9,0-11.8,0-17.8c0-6.4-4-12.2-10-14.8
	c-12.6-5.5-25-11.4-37.5-17.5c0-6.4,0-12.8,0-19.2c6.6,0.5,13.3,1,20,1.5c0,5.3,0,10.5,0,15.8c9.1-1.8,18.3-3.5,27.5-5.2
	c0-5.8,0-11.7,0-17.5c0-8.9-7.3-17-16.2-18c-14.2-1.7-28.4-3.6-42.5-5.7c-8.9-1.3-16.2,6.1-16.2,16.6c0,6.2,0,12.4,0,18.5
	c0,6.2,0,12.4,0,18.5c0,7.5,3.9,14.4,10,17.2c12.5,5.8,25,11.3,37.4,16.4c0,7.5,0,14.9,0,22.4c-6.7,0.6-13.3,1.2-20,1.8
	c0-5.5,0-11,0-16.5c-9.2,2.9-18.3,5.9-27.4,9c0,6.8,0,13.6,0,20.4C25.4,422.2,32.7,429.6,41.6,428.1z"/>
<path class="st1" d="M455.6,360.9c7.5,3.5,14.9,7.2,22.3,10.8l2.4,1.2v2.6c0,7.8,0,15.6,0,23.3v4.7l-4.6-0.4
	c-6.6-0.6-13.3-1.2-20-1.8l-3.9-0.3V397c0-3.6,0-7.2,0-10.8c-6.3,1.1-12.7,2.2-19,3.3c0,4.6,0,9.3,0,13.9c0,6.9,5.8,13.1,12.5,14
	c14.2,1.9,28.4,4.1,42.6,6.4c7.2,1.2,11.3-5.6,11.3-12.1c0-6.9,0-13.8,0-20.7c0-6.9,0-13.8,0-20.7c0-3.3-1-6.8-3-9.5H455.6z
	 M388.1,411.2c7.3,0.7,14.6,1.4,21.9,2.2c0-5.2,0-10.4,0-15.6c-1.2-0.1-2.5-0.1-3.7-0.2l-3.1-0.2l-0.8-3c-1-3.8-1.9-7.5-2.9-11.3
	l-0.9-3.7l3.5-1.3c4-1.5,6.5-5.4,6.5-9.7v-7.5h-19v2.9l-4.3,0c-8.7-0.1-17.5-0.1-26.2-0.2l-4.2,0v-2.6h-19v28.8v4.4l-4.4-0.2
	c-1,0-2.1-0.1-3.1-0.1c0,4.4,0,8.8,0,13.3c11.3,0.6,22.7,1.3,34,2.1c0-4.7,0-9.4,0-14c-1.2-0.1-2.3-0.1-3.5-0.2l-4-0.2v-4
	c0-3,0-6,0-9v-4.4l4.4,0.2c5.5,0.2,11,0.4,16.4,0.6l3.1,0.1l0.8,3c1.5,5.4,3,10.9,4.5,16.3C385.6,402.1,386.9,406.6,388.1,411.2z
	 M279.3,360.9v27.8v4.3l-4.3,0c-7.9-0.1-15.8,0-23.7,0l-4.3,0v-4.3v-27.9h-19v35.7c0,6.1,6.6,9.3,12,9.3c15.4-0.2,30.9-0.2,46.3-0.1
	c5.4,0.1,11.9-3.3,11.9-9.3v-35.6H279.3z M118.9,413.4c11.3-1.1,22.6-2.2,34-3.2c0-4.8,0-9.6,0-14.5c-1,0.1-2,0.1-3.1,0.1l-4.4,0.2
	v-4.4c0-2.3,0-4.6,0-6.9v-4.1l4.1-0.2c12.1-0.5,24.2-1,36.3-1.3c5.6-0.2,12.1-4.1,12.1-10.3v-8h-19v0.6v4.2l-4.2,0
	c-8.3,0.1-16.7,0.1-25,0.2l-4.3,0v-4.3v-0.8h-19v32.4v4l-4,0.2c-1.2,0.1-2.3,0.1-3.5,0.2C118.9,403,118.9,408.2,118.9,413.4z
	 M51.5,360.9c7.6,3.4,15.3,6.7,23,9.9l2.6,1.1v2.8c0,7.5,0,14.9,0,22.4v3.9l-3.9,0.3c-6.7,0.6-13.3,1.2-20,1.8l-4.6,0.4v-4.7
	c0-3.6,0-7.1,0-10.7c-6.3,2-12.7,4.1-19,6.3c0,5.8,0,11.6,0,17.4c0,6.5,4.1,13.3,11.3,12.1c14.2-2.3,28.4-4.4,42.6-6.4
	c6.7-0.9,12.5-7.1,12.5-14c0-5.9,0-11.8,0-17.8c0-5.9,0-11.8,0-17.8c0-2.7-0.9-5.2-2.5-7.2H51.5z"/>
</svg>
