<?xml version="1.0" encoding="utf-8"?>
<!-- Generator: Adobe Illustrator 19.0.0, SVG Export Plug-In . SVG Version: 6.00 Build 0)  -->
<svg version="1.1" id="Layer_1" xmlns="http://www.w3.org/2000/svg" xmlns:xlink="http://www.w3.org/1999/xlink" x="0px" y="0px"
	 viewBox="0 0 559.9 541.8" style="enable-background:new 0 0 559.9 541.8;" xml:space="preserve">
<style type="text/css">
	.st0{fill-rule:evenodd;clip-rule:evenodd;fill:#BBB9B6;}
	.st1{fill-rule:evenodd;clip-rule:evenodd;fill:#030303;}
	.st2{fill-rule:evenodd;clip-rule:evenodd;fill:#FFCC00;}
	.st3{fill-rule:evenodd;clip-rule:evenodd;fill:#917400;}
	.st4{fill-rule:evenodd;clip-rule:evenodd;fill:#FFFFFF;}
	.st5{fill-rule:evenodd;clip-rule:evenodd;fill:#4C4C4C;}
	.st6{fill:#FFCC00;}
	.st7{fill:#FFFFFF;}
	.st8{fill-rule:evenodd;clip-rule:evenodd;}
	.st9{fill-rule:evenodd;clip-rule:evenodd;fill:#7A5710;}
	.st10{fill-rule:evenodd;clip-rule:evenodd;fill:#CC9933;}
	.st11{fill-rule:evenodd;clip-rule:evenodd;fill:#FFC599;}
	.st12{fill-rule:evenodd;clip-rule:evenodd;fill:#BA7D4E;}
</style>
<path class="st0" d="M225.3,211.6c0.4-1.4,0.9-2.7,1.6-3.9c-4.3-3.7-7.5-8.2-9.6-13.5c-4.1-1.8-7.1-5-9.8-8.8
	c-7.1-2.5-12.1-7.7-15.3-14.6c-6.7-4-12.3-9.5-16.5-16.2c-8-12.9-9.8-28.8-6.8-43.4c2.8-13.4,9.7-25.8,20.1-34.8
	c-1-8.3-1.4-16.6,0.2-24.8c4-19.7,18.9-30.8,36.7-37.6c24.8-9.5,57-15.9,83.1-9.2c9.5,2.4,18.7,8.6,25.8,15.1
	c9,8.2,19.2,21.3,19.8,33.9c0.2,3.5,0.2,7,0.3,10.4c16.1,12.8,28.9,30.5,26.6,52.1c-1.7,15.4-11,29.2-23.5,38
	c-2.1,6.3-5.9,11.5-11.2,15.5c-1.5,3.7-3.7,6.8-6.6,9.5c-3.1,9.3-7.8,18-14.8,24.8c1.1,1.9,2,3.9,2.6,6c24.6,15.6,45,36.3,61.9,60.1
	l8.7,12.2l-15-1.1c-34.2-2.4-68.5-3.6-102.8-3.6c-33.8,0-67.5,1.1-101.2,3.5l-11.4,0.8l4.3-10.5
	C182.3,248.1,205.3,227.4,225.3,211.6"/>
<path class="st0" d="M557.9,455.3l-66.3,32.9c-18.6-2.8-37.3-5.3-56-7.4c-41.2,37.9-96.2,61-156.6,61c-60.4,0-115.4-23.1-156.6-61
	c-18.7,2.1-37.4,4.6-56,7.4L0,455.3l22.4-143.3l5-0.9c6.7-1.2,13.4-2.3,20.1-3.4C48.8,181,151.9,78.7,279,78.7
	c127,0,230.1,102.3,231.5,229c6.7,1.1,13.4,2.2,20.1,3.4l5,0.9L557.9,455.3z"/>
<path class="st1" d="M550.1,451.2l-59.6,29.6c-71.6-10.8-139.1-16.1-211.5-16.1c-72.5,0-139.9,5.3-211.5,16.1L7.8,451.2L279,322.5
	L550.1,451.2z"/>
<path class="st1" d="M279,85.8c124,0,224.4,100.5,224.4,224.4S402.9,534.7,279,534.7c-124,0-224.4-100.5-224.4-224.4
	S155,85.8,279,85.8"/>
<path class="st2" d="M428.2,437.4c-36,42.2-89.5,68.9-149.3,68.9c-59.8,0-113.3-26.8-149.3-68.9c49.6-5.1,99.4-7.6,149.3-7.6
	C328.8,429.8,378.7,432.3,428.2,437.4 M279,114.2C387.3,114.2,475,202,475,310.3c0,1.1,0,2.2,0,3.3c-64.9-8.8-130.5-13.2-196-13.2
	c-65.6,0-131.1,4.3-196,13.2c0-1.1,0-2.2,0-3.3C82.9,202,170.7,114.2,279,114.2z"/>
<path class="st3" d="M418.1,448.4c-46.2-4.4-92.7-6.6-139.1-6.6c-46.5,0-92.9,2.2-139.1,6.6c-3.5-3.5-6.9-7.2-10.1-11
	c49.6-5.1,99.4-7.6,149.3-7.6c49.9,0,99.7,2.5,149.3,7.6C425,441.2,421.6,444.9,418.1,448.4"/>
<path class="st1" d="M279,128.4c100.5,0,181.9,81.4,181.9,181.9c0,100.5-81.4,181.9-181.9,181.9c-100.5,0-181.9-81.4-181.9-181.9
	C97.1,209.8,178.5,128.4,279,128.4"/>
<path class="st4" d="M164.8,274.6c-8.5,0.7-16.9,1.4-25.4,2.2v-59.6c7.3-10.9,15.8-20.9,25.4-29.8V274.6z M215.5,271.5
	c-8.5,0.4-16.9,0.8-25.4,1.3V168c8-5,16.5-9.4,25.4-13V271.5z M266.3,270.2c-8.5,0.1-16.9,0.2-25.4,0.4V146.9
	c8.2-1.9,16.7-3.2,25.4-3.9V270.2z M393.1,187.4c9.6,8.9,18.1,18.9,25.4,29.8v59.6c-8.4-0.8-16.9-1.5-25.4-2.2V187.4z M342.4,155
	c8.9,3.6,17.3,8,25.4,13v104.9c-8.5-0.5-16.9-0.9-25.4-1.3V155z M291.6,143c8.7,0.6,17.1,1.9,25.4,3.9v123.7
	c-8.5-0.2-16.9-0.4-25.4-0.4V143z"/>
<path class="st5" d="M325.8,359.8c0.7-0.5,2.7-2.1,3.5-2.8c2.4-2.1,4.8-2.7,7.5-4.2c5.2-2.8,17.6,0.5,23.4,0.7
	c8.1,0.3,16-2.4,24-2.4c11.1,0.1,22.1,2.4,33.3,2.5c5.8,0.1,18.3-2.7,23.7,1.3c4,2.9,4.9,10.8,5.6,15.1c0.1,0.4-0.4,0.1-0.5,0
	c-3.6-2.2-7.2-5.3-11.4-5.9c-5.3-0.8-10.7-0.1-15.9-1c-4.4-0.7-8.5-2.8-12.8-3.8c-8.8-2.1-19.7,0.1-28.7,0.3
	c-9.7,0.2-19.3-0.9-28.9-1.3c-3.7-0.1-8.1,1.4-11.7,0.6L325.8,359.8C325.5,360,325.4,360,325.8,359.8L325.8,359.8z M125.2,359.1
	c-0.2,0.4,0.1-0.9,0.2-1.4c0.3-1.3,0.4-0.4,0.9-1.6c1.4-3.5,3.8-4.4,7.4-4.9c3.7-0.5,7,0.4,10.7,0.3c8-0.3,15.5-1.7,23.7-1.5
	c15.5,0.2,30.7,0.1,46.2,0.4c4.9,0.1,13.9-1.6,18.5,0.6c4.1,1.9,9.5,12.2,13.2,15.8c0.9,0.9,17.1,9.1,18.9,9.7
	c2.7,0.8,5.7,0.4,8.4,0.8c7.9,1.3,11.6,3.2,19.6,0.3c3.1-1.1,6.2-2.5,9.1-4c0.3-0.2,4.9-2.5,5-2.4c0,0.3-8.2,5.9-9.8,6.8
	c-11.6,7.4-23.1,3.1-36.6,2.6c-2.8-0.1-22-10.9-25.9-13.3c-2.6-1.6-5.6-7.6-8.6-8.6c-5.6-1.9-16.1,2.4-21.8,1.4
	c-3.5-0.6-6.5-2.6-10-3.1c-14.6-1.8-51.2-1.4-65.9,4.4L125.2,359.1z"/>
<path class="st1" d="M550.1,451.2L550.1,451.2L550.1,451.2L550.1,451.2z M28.6,318c82.5-14.5,166.5-21.7,250.4-21.6
	c83.9,0,167.8,7.1,250.4,21.6l20.8,133.2c-89.2-17-180.2-25.5-271.2-25.4c-91,0-181.9,8.4-271.2,25.4L28.6,318z M7.8,451.2
	L7.8,451.2L7.8,451.2L7.8,451.2z"/>
<polygon class="st4" points="78,447.8 36.9,426.1 44.4,425.5 "/>
<polygon class="st4" points="493.1,447.6 528.1,429.1 524,427 "/>
<path class="st6" d="M389.3,310.7c1.4,0.1,2.8,0.2,4.3,0.4c-0.5-1.3-1.1-2.7-1.6-4c-0.5-1.3-1-2.7-1.5-4c-0.2,1.3-0.4,2.6-0.6,3.8
	C389.7,308.1,389.5,309.4,389.3,310.7 M395.2,324.8c-0.2-1.9-0.4-3.8-0.7-5.7c0.7,0.1,1.4,0.1,2.2,0.2c-0.4-0.8-0.7-1.7-1-2.5
	c-2.5-0.2-4.9-0.4-7.4-0.6c-0.2,0.8-0.3,1.6-0.4,2.4c0.7,0.1,1.5,0.1,2.2,0.2c0.2,1.9,0.4,3.8,0.7,5.6c-4.1-0.3-8.2-0.6-12.2-0.9
	c-0.2-1.9-0.4-3.8-0.6-5.6c0.7,0.1,1.4,0.1,2.1,0.2c0.7-4.1,1.4-8.1,2.1-12.2c0.7-4.1,1.4-8.1,2-12.2c3.5,0.3,7,0.5,10.5,0.8
	c1.6,4.3,3.2,8.5,4.9,12.8c1.6,4.3,3.3,8.5,5,12.8c0.7,0.1,1.4,0.1,2.1,0.2c0.3,1.9,0.5,3.8,0.7,5.7
	C403.3,325.5,399.3,325.2,395.2,324.8z M351.1,321.8c-0.1-1.9-0.3-3.7-0.4-5.6c0.7,0,1.5,0.1,2.2,0.1c-0.2-3.2-0.4-6.4-0.7-9.6
	c-0.2-3.2-0.5-6.4-0.7-9.6c-0.7,0-1.4-0.1-2.1-0.1c-0.2-1.9-0.3-3.7-0.4-5.6c3.9,0.2,7.8,0.4,11.7,0.6c0.2,1.9,0.3,3.8,0.5,5.6
	c-0.7,0-1.4-0.1-2.1-0.1c0.2,3.2,0.5,6.4,0.8,9.6c0.3,3.2,0.5,6.4,0.8,9.6c0.7,0,1.4,0.1,2.2,0.1c0.2,1.9,0.3,3.7,0.5,5.6
	C359.2,322.2,355.2,322,351.1,321.8z M323.8,320.6c-0.1-1.9-0.1-3.7-0.2-5.6c0.7,0,1.4,0,2.2,0.1c-0.1-2.2-0.2-4.5-0.3-6.7
	c-2.9-0.1-5.7-0.2-8.6-0.2c0.1,2.2,0.2,4.5,0.2,6.7c0.7,0,1.5,0,2.2,0.1c0.1,1.9,0.1,3.7,0.2,5.6c-4-0.1-8.1-0.2-12.1-0.3
	c0-1.9-0.1-3.7-0.1-5.6c0.7,0,1.4,0,2.2,0c-0.1-3.2-0.1-6.4-0.2-9.5c-0.1-3.2-0.1-6.4-0.2-9.5c-0.7,0-1.4,0-2.1,0
	c-0.1-1.9-0.1-3.7-0.1-5.6c3.9,0.1,7.7,0.2,11.6,0.3c0.1,1.9,0.1,3.7,0.2,5.6c-0.7,0-1.4,0-2.1-0.1c0.1,2.2,0.1,4.5,0.2,6.7
	c2.8,0.1,5.6,0.2,8.5,0.2c-0.1-2.2-0.2-4.5-0.3-6.7c-0.7,0-1.4,0-2.1-0.1c-0.1-1.9-0.1-3.7-0.2-5.6c3.9,0.1,7.8,0.3,11.7,0.4
	c0.1,1.9,0.2,3.7,0.3,5.6c-0.7,0-1.5-0.1-2.2-0.1c0.2,3.2,0.3,6.4,0.5,9.6c0.2,3.2,0.3,6.4,0.4,9.6c0.7,0,1.5,0.1,2.2,0.1
	c0.1,1.9,0.2,3.7,0.3,5.6C331.9,320.9,327.8,320.8,323.8,320.6z M292.3,316.8c-1.7,1-3.4,2.1-5,3.1c-4.6,0-9.1,0-13.6,0
	c-1.6-1-3.2-2.1-4.8-3.1c0.1-4,0.2-8,0.3-11.9c0.1-4,0.2-8,0.3-11.9c1.6-1.1,3.2-2.1,4.8-3.2c2.8,0,5.6,0,8.4,0
	c0.7,0.5,1.5,1.1,2.2,1.6c0-0.5,0-1.1,0-1.6c2.4,0,4.9,0,7.4,0c0,1.3,0,2.7,0,4c0,1.3,0,2.7,0,4c-2.5,0-5,0-7.5,0c0-0.8,0-1.6,0-2.4
	c-2.7,0-5.3,0-8,0c0,3.2-0.1,6.4-0.1,9.5c-0.1,3.2-0.1,6.3-0.2,9.5c2.7,0,5.5,0,8.2,0c0-0.8,0-1.6,0-2.4c2.5,0,5,0,7.6,0
	C292.2,313.6,292.2,315.2,292.3,316.8z M253.6,316.9c-1.7,1.1-3.4,2.2-5.1,3.2c-4.6,0.1-9.1,0.2-13.7,0.3c-1.6-1-3.2-2-4.7-3
	c0.3-4,0.5-8,0.8-12c0.3-4,0.5-8,0.8-12c1.6-1.1,3.3-2.2,4.9-3.3c2.8-0.1,5.6-0.2,8.4-0.2c0.7,0.5,1.5,1,2.2,1.5
	c0-0.5,0.1-1.1,0.1-1.6c2.5,0,4.9-0.1,7.4-0.1c0,1.3-0.1,2.7-0.1,4c-0.1,1.3-0.1,2.7-0.2,4c-2.5,0-5,0.1-7.5,0.1
	c0-0.8,0.1-1.6,0.1-2.4c-2.7,0.1-5.3,0.1-8,0.2c-0.2,3.2-0.4,6.4-0.5,9.5c-0.2,3.2-0.4,6.4-0.5,9.5c2.7-0.1,5.5-0.2,8.2-0.2
	c0-0.8,0.1-1.6,0.1-2.4c2.5,0,5.1-0.1,7.6-0.1C253.8,313.7,253.7,315.3,253.6,316.9z M190.3,322.5c0.2-1.9,0.4-3.7,0.6-5.6
	c0.7,0,1.5-0.1,2.2-0.1c0.3-3.2,0.7-6.4,1-9.6c0.4-3.2,0.7-6.4,1-9.6c-0.7,0-1.4,0.1-2.1,0.1c0.2-1.9,0.4-3.7,0.6-5.6
	c7.9-0.4,15.7-0.8,23.5-1.2c-0.1,1.3-0.2,2.7-0.3,4c-0.1,1.3-0.2,2.7-0.3,4c-2.5,0.1-5,0.2-7.5,0.3c0.1-0.8,0.2-1.6,0.2-2.5
	c-2.2,0.1-4.4,0.2-6.6,0.3c-0.2,2.3-0.4,4.5-0.7,6.8c3.4-0.2,6.9-0.3,10.3-0.5c-0.2,1.9-0.3,3.8-0.5,5.6c-3.5,0.2-6.9,0.4-10.4,0.5
	c-0.2,2.3-0.4,4.5-0.7,6.8c2.2-0.1,4.5-0.2,6.7-0.3c0.1-0.8,0.2-1.6,0.2-2.5c2.5-0.1,5.1-0.3,7.6-0.4c-0.1,1.3-0.2,2.7-0.3,4
	c-0.1,1.3-0.2,2.7-0.3,4C206.6,321.7,198.4,322.1,190.3,322.5z M162.6,311.7c1-2.4,2-4.6,2.9-6.8c0.9-2.1,1.7-4,2.3-5.5
	c-0.6,0-1.1,0.1-1.6,0.1c0.2-1.9,0.5-3.8,0.8-5.7c3.9-0.3,7.9-0.6,11.8-0.8c-0.2,1.9-0.5,3.8-0.7,5.6c-0.8,0.1-1.7,0.1-2.5,0.2
	c-1.7,4.2-3.5,8.5-5.3,12.7c-1.8,4.3-3.7,8.5-5.5,12.7c-2.7,0.2-5.3,0.4-8,0.7c-0.7-4-1.3-8.1-2-12.2c-0.6-4.1-1.3-8.1-1.9-12.2
	c-0.8,0.1-1.6,0.1-2.5,0.2c0.3-1.9,0.6-3.8,0.9-5.7c3.9-0.3,7.9-0.6,11.8-1c-0.3,1.9-0.6,3.8-0.8,5.7c-0.6,0-1.1,0.1-1.7,0.1
	c0.3,1.5,0.6,3.3,0.9,5.2C161.8,307.1,162.3,309.3,162.6,311.7z"/>
<path class="st7" d="M387,379.7c-0.5-7.2-1-14.5-1.4-21.7c5.8,0.4,11.8,0.8,17.6,1.3c0.6,7.3,1.2,14.5,1.7,21.8
	C398.9,380.6,392.9,380.1,387,379.7 M364.8,410.6c9.8,0.6,19.7,1.3,29.6,2.1c-0.3-4.5-0.6-9-0.9-13.6c-1.7-0.1-3.5-0.3-5.2-0.4
	c-0.1-1.8-0.3-3.6-0.3-5.4c3.8,0.3,7.6,0.6,11.3,0.8c2.5,6.5,5.1,13,7.7,19.6c6.9,0.7,13.8,1.3,20.7,2c-0.4-4.5-0.8-9.1-1.2-13.6
	c-1.8-0.2-3.5-0.3-5.3-0.5c-0.8-2.2-1.6-4.3-2.5-6.5c3.8-1,6.1-3.9,5.7-7.3c-0.5-5.2-1-10.5-1.4-15.7c-0.5-5.2-0.9-10.5-1.4-15.7
	c-0.4-4.9-5.7-9.3-11.7-9.8c-16.3-1.4-32.4-2.5-48.5-3.5c0.3,4.5,0.5,9,0.7,13.5c1.6,0.1,3.3,0.2,5.1,0.3c0.4,6.8,0.7,13.6,1.1,20.3
	c0.4,6.8,0.8,13.5,1.1,20.3c-1.7-0.1-3.5-0.2-5.2-0.3C364.3,401.6,364.5,406.1,364.8,410.6z M317.3,395.1
	c-0.1-6.7-0.3-13.5-0.5-20.2c-0.2-6.7-0.3-13.5-0.5-20.2c5.9,0.2,11.8,0.4,17.7,0.5c0.2,6.7,0.5,13.5,0.7,20.3
	c0.2,6.7,0.4,13.5,0.7,20.3C329.3,395.5,323.3,395.3,317.3,395.1z M309.8,408.3c11.3,0.3,22.5,0.7,33.8,1.2
	c6.2,0.3,11.1-3.4,10.8-8.2c-0.4-8.3-0.8-16.7-1.1-25c-0.4-8.3-0.8-16.7-1.2-25c-0.2-4.8-5.3-9.1-11.2-9.3
	c-10.8-0.5-21.6-0.8-32.4-1c-5.9-0.1-10.7,3.8-10.6,8.6c0.1,8.3,0.2,16.6,0.3,25c0.1,8.3,0.2,16.6,0.3,24.9
	C298.5,404.2,303.6,408.1,309.8,408.3z M262.7,408.1c6.9-0.1,13.8-0.1,20.8-0.1c0-9-0.1-18-0.1-26.9c0-9,0-18-0.1-27
	c1.7,0,3.3,0,5,0c0-4.5,0-9-0.1-13.5c-9.4-0.1-18.8,0-28.3,0c-0.1,4.5-0.1,9-0.1,13.5c1.6,0,3.3,0,5-0.1c0,4.2-0.1,8.3-0.1,12.5
	c0,4.1-0.1,8.3-0.1,12.5c-3.4-6.4-6.7-12.7-10-19.1c-3.2-6.4-6.4-12.8-9.7-19.1c-8.3,0.3-16.6,0.5-24.9,0.7c-0.1,4.5-0.3,9-0.5,13.5
	c1.7-0.1,3.3-0.1,5-0.1c-0.2,6.7-0.4,13.5-0.6,20.3c-0.2,6.7-0.4,13.5-0.7,20.3c-1.7,0.1-3.4,0.1-5.1,0.2c-0.1,4.5-0.3,9-0.5,13.5
	c9.8-0.3,19.7-0.6,29.5-0.9c0.1-4.5,0.2-9,0.2-13.5c-1.7,0-3.4,0.1-5.2,0.1c0.1-4.1,0.2-8.3,0.3-12.5c0.1-4.2,0.2-8.3,0.3-12.5
	c3.2,6.3,6.5,12.7,9.8,19.1C255.8,395.4,259.3,401.7,262.7,408.1z M164.2,412.4c10.7-0.8,21.5-1.6,32.2-2.1
	c6.2-0.3,11.5-4.5,11.7-9.4c0.2-5.3,0.4-10.6,0.6-15.9c0.2-5.3,0.4-10.6,0.7-15.9c-8,0.4-16,0.8-24,1.2c-1.5,4.6-3.1,9.2-4.7,13.8
	c3.1-0.2,6.1-0.4,9.3-0.6c-0.2,4.5-0.5,9-0.7,13.5c-5.5,0.3-10.9,0.7-16.4,1.1c0.4-6.8,0.9-13.6,1.3-20.3c0.4-6.8,0.8-13.6,1.2-20.4
	c5.3-0.4,10.7-0.8,16-1c-0.2,2.7-0.2,5.4-0.4,8.1c6.2-1.4,12.5-2.9,18.7-4.3c0.2-3.1,0.4-6.3,0.4-9.5c0.2-4.8-4.5-8.6-10.5-8.3
	c-10.3,0.5-20.6,1.2-30.9,1.9c-5.9,0.4-11.2,4.7-11.5,9.6c-0.6,8.4-1.3,16.8-1.9,25.1c-0.6,8.4-1.3,16.8-1.9,25.1
	C153.2,409.2,158,412.8,164.2,412.4z M113.1,417.2c10-1.1,19.9-2.1,29.9-3.1c0.3-4.5,0.7-9.1,1.1-13.6c-1.8,0.2-3.5,0.3-5.2,0.5
	c0.6-6.8,1.2-13.6,1.8-20.4c0.5-6.8,1.1-13.6,1.7-20.4c1.6-0.2,3.3-0.3,5.1-0.5c0.4-4.5,0.8-9.1,1.1-13.6c-9.5,0.9-19,1.7-28.6,2.7
	c-0.4,4.6-0.9,9.1-1.4,13.7c1.7-0.2,3.4-0.4,5.1-0.6c-0.6,6.8-1.3,13.7-1.9,20.5c-0.6,6.8-1.3,13.7-2,20.5c-1.7,0.2-3.5,0.4-5.2,0.6
	C113.9,408.1,113.5,412.7,113.1,417.2z M467.5,383.5c0.7-6,1.5-12,2.2-18.1c0.7-6,1.4-12,2.1-18.1c0.3,0,0.7,0.1,1.1,0.2
	c2.1,6.4,4.3,12.8,6.4,19.2c2.1,6.4,4.3,12.8,6.5,19.2C479.7,385.1,473.6,384.3,467.5,383.5z M463,419.6c0.8-6,1.5-12,2.3-18
	c8.9,1.2,18,2.4,27,3.6c2.2,6.4,4.5,12.9,6.7,19.3c9.7,1.5,19.4,3,29.1,4.6c-0.9-6.3-1.8-12.6-2.8-18.8c-2.4-0.4-4.7-0.7-7.1-1.1
	c-3.8-9.8-7.5-19.6-11.2-29.3c-3.7-9.8-7.4-19.5-11.1-29.2c2.3,0.3,4.6,0.7,6.9,1c-0.8-6.3-1.8-12.5-2.6-18.8
	c-20.1-2.8-40.2-5.3-60.1-7.5c0.6,6.2,1.3,12.4,1.9,18.6c2.1,0.2,4.4,0.5,6.7,0.7c-1.4,9-2.9,18-4.4,27c-1.5,9-3.1,18-4.7,26.9
	c-2.4-0.3-4.7-0.5-7.1-0.8c0.6,6.2,1.1,12.3,1.7,18.5C443.9,417.4,453.4,418.5,463,419.6z M44.7,426.6c13.7-2.2,27.3-4.2,40.9-6.1
	c8.5-1.2,16.2-7.4,16.9-14c0.5-4.4,0.9-8.8,1.4-13.2c0.5-4.4,1-8.8,1.4-13.2c0.5-4.8-2.7-8.8-8.1-10c-11.2-2.4-22.3-4.8-33.4-7.2
	c0.6-4.4,1.2-8.7,1.7-13.1c6.1-0.9,12.2-1.7,18.4-2.5c-0.4,3.7-0.9,7.5-1.3,11.2c8.6-2.7,17.2-5.3,25.8-7.7c0.4-4.3,0.9-8.7,1.3-13
	c0.7-6.6-5.3-11.4-13.3-10.4c-12.9,1.6-25.7,3.3-38.6,5.2c-8.2,1.2-15.7,7.7-16.7,14.4c-0.6,4-1.1,8-1.7,12c-0.6,4-1.2,8-1.8,12
	c-0.7,4.9,2.2,8.7,7.7,9.7c11.1,2.1,22.5,4.4,33.7,6.8c-0.6,5.3-1.3,10.6-2,15.8c-6.3,0.9-12.7,1.7-19,2.7c0.4-3.7,1-7.5,1.4-11.2
	c-8.9,2.9-17.8,5.9-26.8,8.8c-0.6,4.4-1.3,8.8-2,13.2C29.8,423.6,36,428,44.7,426.6z"/>
<path class="st0" d="M390.4,402.2c-0.8-0.1-1.6-0.1-2.3-0.2l-2.8-0.2L385,399c-0.2-1.9-0.3-3.7-0.4-5.6l-0.1-3.7l3.7,0.3
	c3.8,0.3,7.6,0.5,11.3,0.8l2.1,0.2l0.8,1.9c2.3,5.9,4.6,11.8,7,17.7c4.9,0.5,9.8,0.9,14.7,1.4c-0.2-2.3-0.4-4.6-0.6-6.9
	c-0.9-0.1-1.7-0.2-2.6-0.2l-2-0.2l-0.7-1.9c-0.8-2.2-1.6-4.3-2.5-6.5l-1.4-3.5l3.6-0.9c1.8-0.5,3.5-1.7,3.3-3.8
	c-0.4-4.2-0.8-8.3-1.2-12.5c-4-0.4-8.1-0.8-12.1-1.1c0.2,2.2,0.3,4.3,0.5,6.5l0.3,3.9l-3.9-0.4c-5.9-0.5-11.9-1-17.9-1.4l-2.9-0.2
	l-0.2-2.9c-0.2-2.5-0.3-5-0.5-7.5c-4-0.3-8-0.6-12-0.8c0.1,1.7,0.2,3.5,0.3,5.2c0.4,6.8,0.8,13.6,1.1,20.3l0.2,3.7l-3.7-0.2
	c-0.5,0-1-0.1-1.6-0.1c0.1,2.3,0.3,4.6,0.4,6.9c7.6,0.5,15.3,1,22.9,1.6C390.7,406.8,390.5,404.5,390.4,402.2 M309.9,405
	c11.3,0.3,22.6,0.7,33.9,1.2c2.8,0.1,7.6-1.1,7.4-4.7c-0.4-8.3-0.8-16.7-1.1-25c-0.1-2-0.2-4-0.3-6c-4-0.2-8-0.4-12-0.5l0.2,5.3
	c0.2,6.8,0.4,13.5,0.7,20.3l0.1,3.5l-3.5-0.1c-6-0.2-12.1-0.4-18.1-0.6l-3.1-0.1l-0.1-3.1c-0.1-6.7-0.3-13.5-0.5-20.2
	c0-1.9-0.1-3.8-0.1-5.8c-4-0.1-8-0.2-11.9-0.2l0.1,5.5c0.1,8.3,0.2,16.6,0.3,24.9C301.8,403.1,306.8,404.9,309.9,405z M227.5,369.6
	l-0.2,5.7c-0.2,6.8-0.4,13.5-0.7,20.3l-0.1,3.1l-3.1,0.1c-0.7,0-1.4,0-2.1,0.1c-0.1,2.3-0.2,4.6-0.3,6.9c7.6-0.2,15.2-0.5,22.8-0.7
	c0-2.3,0.1-4.6,0.1-6.9c-0.6,0-1.2,0-1.8,0l-3.5,0.1l0.1-3.5c0.1-4.2,0.2-8.3,0.3-12.5c0.1-4.2,0.2-8.3,0.3-12.5l0-0.6
	C235.5,369.4,231.5,369.5,227.5,369.6z M268,368.8c0,3.4-0.1,6.9-0.1,10.3v13.1l-6.2-11.5c-2.1-3.9-4.2-7.8-6.2-11.7
	c-3.2,0-6.3,0.1-9.5,0.2c3.1,6.1,6.3,12.2,9.4,18.4c3,5.8,6.1,11.5,9.2,17.3c5.2-0.1,10.3-0.1,15.5-0.1c0-7.9-0.1-15.7-0.1-23.6
	c0-4.1,0-8.2,0-12.3l-1.1,0C275.3,368.8,271.7,368.8,268,368.8z M187.9,373.5c-0.8,2.3-1.6,4.7-2.4,7c1.5-0.1,2.9-0.2,4.4-0.2
	l3.7-0.2l-0.2,3.7c-0.2,4.5-0.5,9-0.7,13.5l-0.2,3l-3,0.2c-5.5,0.3-10.9,0.7-16.4,1.1l-3.8,0.3l0.3-3.8c0.4-6.8,0.9-13.5,1.3-20.3
	l0.3-5c-4,0.3-8.1,0.6-12.1,0.9c-0.1,2-0.3,3.9-0.4,5.9c-0.6,8.4-1.3,16.8-1.9,25.1c-0.3,3.6,4.4,4.6,7.1,4.4
	c10.7-0.8,21.5-1.6,32.3-2.1c3.2-0.2,8.4-2.4,8.5-6.2c0.2-5.3,0.4-10.6,0.6-15.9c0.2-4.1,0.3-8.2,0.5-12.3
	C199.9,372.9,193.9,373.2,187.9,373.5z M139.8,411.1c0.2-2.3,0.4-4.6,0.6-6.9c-0.4,0-0.9,0.1-1.3,0.1l-4,0.4l0.4-4
	c0.6-6.8,1.2-13.6,1.8-20.4l0.4-4.8c-4,0.4-8.1,0.8-12.1,1.2c-0.2,2-0.4,4-0.6,6c-0.6,6.8-1.3,13.7-2,20.5l-0.3,2.7l-2.7,0.3
	c-0.9,0.1-1.7,0.2-2.6,0.3c-0.2,2.3-0.5,4.6-0.7,6.9C124.4,412.6,132.1,411.9,139.8,411.1z M446.6,378.4c-1.2,6.9-2.5,13.9-3.7,20.8
	l-0.5,3.1l-3.1-0.3c-1-0.1-2-0.2-3-0.3c0.4,3.9,0.7,7.8,1.1,11.8c7.6,0.9,15.2,1.7,22.8,2.6c0.6-4.9,1.3-9.9,1.9-14.8l0.4-3.3
	l3.3,0.4c9,1.2,18,2.4,27,3.6l2,0.3l0.7,1.9c2,5.8,4.1,11.6,6.1,17.5c7.6,1.2,15.1,2.4,22.7,3.6c-0.6-4-1.2-8-1.8-12
	c-1.6-0.2-3.1-0.5-4.7-0.7l-1.9-0.3l-0.7-1.8c-3.1-7.9-6.1-15.9-9.1-23.9c-5.8-0.9-11.6-1.8-17.5-2.7l0.4,1.1l1.7,5l-5.3-0.7
	c-6.1-0.8-12.2-1.6-18.3-2.4l-3.3-0.4l0.4-3.3l0.3-2.6C458.6,379.8,452.6,379,446.6,378.4z M35.8,406.2c-0.6,3.7-1.1,7.5-1.7,11.2
	c-0.8,5.7,6,6.7,10.1,6c13.6-2.2,27.3-4.2,41-6.1c3.5-0.5,7-2,9.7-4.2c2-1.7,4-4.1,4.3-6.8c0.5-4.4,0.9-8.8,1.4-13.2
	c0.5-4.4,1-8.8,1.4-13.2c0-0.1,0-0.2,0-0.4c-9.3,1.1-18.6,2.4-27.9,3.7c1.9,0.4,3.7,0.8,5.6,1.2l3,0.6l-0.4,3
	c-0.6,5.3-1.3,10.6-2,15.8l-0.3,2.5l-2.5,0.3c-6.3,0.9-12.7,1.7-19,2.7l-4.3,0.6l0.5-4.3c0.2-2,0.5-4,0.8-6.1
	C49,401.8,42.4,404,35.8,406.2z"/>
<path class="st8" d="M341,165.4c-1.3,4.2-3.5,7.2-6.9,10c-3.1,9.9-8,19.2-15.9,25.9c0,1.6,0.1,3.3,0.1,4.9c1.9,2.6,3,5.5,3.7,8.6
	c24.9,15.3,45.4,35.9,62.3,59.6c-34.4-2.4-68.9-3.6-103.3-3.6c-33.9,0-67.9,1.1-101.7,3.5c9.4-22.9,33.2-43.6,52.3-58.6
	c0.6-2.7,1.6-5.2,3.2-7.6c-0.2-1.3-0.4-2.6-0.7-4c-5.8-3.8-9.4-9.2-11.3-15.8c-5.1-0.8-8.1-4.8-10.8-9.1
	c-7.2-1.7-11.6-6.7-14.3-13.5c-6.6-3.5-12-8.5-16-14.9c-7-11.3-8.5-25.4-5.9-38.3c2.7-13.1,9.9-25.2,20.7-33.2
	c-1.1-8.7-2.1-17.8-0.3-26.5c3.5-17.2,16.8-26.4,32.3-32.4c23.2-8.9,54.2-15.2,78.9-8.9c8.3,2.1,16.5,7.8,22.8,13.5
	c7.4,6.8,17,18.5,17.5,29.1c0.2,4.6,0.2,9.1,0.4,13.7c15.3,11.3,28.7,27.6,26.5,47.8c-1.6,14.1-10.7,26.8-22.5,34.4
	C350.4,156.6,346.7,161.7,341,165.4"/>
<path class="st0" d="M329.4,147c-10.6-9.9-25.9-12.6-38.2-3.4c-2.4,1.8-5.6,4.8-1.9,7c6.3,3.8,14,6.1,21.3,5.7
	C318.2,155.9,324.6,152.7,329.4,147"/>
<path class="st4" d="M310.1,138.1c-1.9-0.2-3.8-0.1-5.7,0.1l-8.7,15.6c1.6,0.6,3.1,1.1,4.8,1.5L310.1,138.1z M318.8,140.2
	c-1.6-0.6-3.1-1.1-4.8-1.5l-9.6,17.3c1.8,0.2,3.6,0.4,5.4,0.3L318.8,140.2z"/>
<path class="st0" d="M217.5,152.1c8.9,12.2,30.1,8.5,41.3,1.8c1.2-0.7,2.1-1.9,2.2-3.3c0.1-2.1-1.8-4-3.4-5.1
	C243.3,135.2,228.1,139.3,217.5,152.1"/>
<path class="st4" d="M230.4,159.7c1.7,0.3,3.5,0.5,5.3,0.5l11-19.8c-1.8-0.4-3.5-0.6-5.2-0.7L230.4,159.7z M222.2,156.5
	c1.4,0.9,2.8,1.6,4.4,2.1L237,140c-2.3,0.4-4.5,1-6.7,2L222.2,156.5z"/>
<path class="st3" d="M200.9,156c3.2,3.1,6.8,5.1,11.2,5.2c2.3,3.1,3.3,6.2,3.2,8.7c-2.6-0.9-4.6-3.1-6.3-5.7c0.8,3,3,5.4,5.9,7.7
	c-4-0.7-7.2-3.6-9.9-7.5c1.7,3.7,3.6,7.3,8.5,9.3C205.9,174.6,199.6,160.8,200.9,156 M198.4,125.9c2.3,6.8,7.2,13,13.2,16.1
	c-2.5,0.2-5.5-0.2-8.6-1.1c2.5,1.7,5.2,3,8,3.6c-0.6,1.1-7.1,0.2-8.7-0.3c2.3,1.6,4.8,2.5,7.7,2.6c-3.4,5.8-10.6,3.8-13.9-3.1
	C193.2,137.3,193.1,130.2,198.4,125.9z M206.5,103.6c-1.3,6.2-1.4,12.1,0.3,17.4c-0.1-3.1-0.2-6.3,1.3-9.7
	c-0.3,6.1,4.1,18.1,13.5,21.4c-3.6,1.4-7.2-0.1-10.9-2.3c2,2.2,4.3,3.9,7.3,4.3c-4.6,1.7-9.8,0.4-13.5-5.5
	C198.9,120.7,200.8,111.5,206.5,103.6z M252.6,70.3c-11,7.9-7.5,26.2,2.3,32c-3.6,2.5-8,0.9-10.6-2c1.1,3.3,3.8,5.2,8.2,5.7
	c-4.9,4.4-11.7,1.4-15.7-2.7c1.1,2.8,3.8,5,7.1,6.3c-5.1,0.8-10.8,0-14.7-2.7c1.7,3.5,3.5,5.1,6.6,7.5c-2.6,1.7-5.3,0.6-7.9-1
	c1.8,2.4,4.4,3.6,7.4,3.6c-1.6,4.6-6.2,3.9-10.2,2.6c1.8,1.5,4.4,2.2,7.1,2.2c-2.2,2.2-5,1.5-7.8,0.5c1.2,1,2.7,1.7,4.5,2
	c-4,2.2-8.8,2.1-11.9-2.3c-3.6-5.2-4.9-14-3.2-24.9c-2,5.3-2.3,10.5-1.7,15.6c-4.4-10.9-0.8-19.9,10.4-27.1
	c-4.2,8.8-3.4,15.7,1.9,21.1c-2.8-5.1-3.1-10.6,1.3-16.5c-0.2,6.5,1.5,11.3,5,14.5c-3.2-6.6-3.4-13.4-2.3-20.3
	c0.8,4.8,1.9,9,3.8,11.6c-3.8-16.2,3.2-25.4,14.2-28.2c-4.6,4.3-6.6,10.4-6.5,17.2C240.9,76.4,244.8,71,252.6,70.3z M285.2,70.2
	c1.8,11.7,8.9,15.2,21.2,10.8c-0.8,8.3-4.6,13.9-9.5,18.4c6-3.3,10.4-7.7,14.2-14.4c-3.7,10.6-15.2,25.7-29.5,16.8
	c1.7,2.9,5.4,4.7,9.5,6.2c-10.3-0.8-17.6-4.6-16.8-15c0.5-5.9,2-11.7,3.8-17.4c-0.4,5.8,0.3,11.3,1.9,16.4
	c-0.4-6.9-0.4-13.8,1.3-20.7c0.6,4.8,1.6,9.1,4.2,11.8C284.7,78.9,284.7,74.6,285.2,70.2z M267.6,67.5c8.3-0.7,7.9,11.4,3.7,16.7
	c-3.9,4.8-9.1,4.9-13.3-0.1c1.5,4.5,6.9,6.1,11.4,5.7c2.1,9.1-5.6,9.7-11.4,5.6c-5.6-3.9-7.7-11.5-5.1-19.6c0.2,4.4,0.8,8.4,2.7,12
	c-1.7-6.1-1.2-11.8,1.4-17.2c-0.5,3.3-0.7,6.4,1,8.6C256.1,69.9,262.1,67.9,267.6,67.5z M318.3,96.3c-1.4,8,1.1,15.8,8.4,23.1
	c-4.8-0.2-8.2-4.8-10.2-9.8c-1.1,2.8-0.5,5.6,0.6,8.4C312,112,312.3,102.6,318.3,96.3z"/>
<path class="st2" d="M267.9,67.4c6.3,7.7-1.7,21.4-9.8,16.6c0.2,3.8,2.7,6,6.1,7.5c-1.7,2.5-4.4,3.1-7.3,2.9
	c-4.7-4.1-6.3-11.2-3.9-18.6c0.2,4.4,0.8,8.4,2.7,12c-1.7-6.1-1.2-11.8,1.4-17.2c-0.5,3.3-0.7,6.4,1,8.6c-1.9-9.3,4-11.2,9.5-11.7
	C267.7,67.5,267.8,67.4,267.9,67.4 M200.9,156c2.2,4.4,5.6,6.8,10,6.9c0.8,1.8,1.2,3.5,1.2,5.1c-1.2-1-2.2-2.4-3.2-3.9
	c0.5,1.9,1.6,3.6,3.1,5.2c-0.1,0.5-0.2,1-0.3,1.4c-2.6-1.3-4.8-3.6-6.8-6.4c1.4,3,2.9,6,6.1,8c-0.2,0.3-0.4,0.6-0.6,0.9
	C204.3,171,199.8,160.1,200.9,156z M205.2,137.1L205.2,137.1c0.2,1.1,0.2,2.7-0.2,4.2c-0.7-0.1-1.3-0.3-2-0.5
	c0.6,0.4,1.2,0.8,1.8,1.1c-0.3,0.9-0.6,1.7-1.1,2.4c-0.6-0.1-1-0.2-1.3-0.3c0.3,0.2,0.7,0.5,1,0.7c-1.4,1.8-3.8,2.2-7.1-0.9
	l-0.2-0.3c-3-6.3-3.1-13.5,2.2-17.8C199.8,130,202.2,134,205.2,137.1z M208,111.3c-0.4,7.6,1.8,13.5,5.5,18.6
	c-0.3,0.6-0.7,1.1-1.2,1.5c-0.6-0.3-1.1-0.6-1.7-0.9c0.4,0.4,0.8,0.9,1.2,1.3c-1.2,0.7-3,0.8-5.3,0.3c-0.8-0.8-1.5-1.7-2.2-2.8
	c-5.4-8.6-3.5-17.8,2.2-25.7c-1.3,6.2-1.4,12.1,0.3,17.4C206.6,117.9,206.6,114.7,208,111.3z M225.5,90.5
	c-2.7,8.6-0.3,15.2,2.8,21.5c0,0.6-0.1,1.2-0.2,1.7l-0.3-0.2c0.1,0.1,0.2,0.2,0.3,0.3c-1.3,7.2-8.8,10-12.2,6.7
	c-2.9-5.3-3.7-13.4-2.3-23.2c-2,5.3-2.3,10.5-1.7,15.6c-4.4-10.9-0.8-19.9,10.4-27.1c-4.2,8.8-3.4,15.7,1.9,21.1
	C221.5,101.9,221.1,96.5,225.5,90.5z M252.6,70.3c-10.3,3-12.7,16.8-8.2,28.1c-0.6,3.3-2.8,5.7-5.7,6.7c-0.7-0.5-1.4-1.1-2-1.7
	c0.3,0.7,0.7,1.4,1.1,2c-2.2,0.6-4.8,0.5-7.4-0.4c-3.2-6.6-3.4-13.4-2.3-20.3c0.8,4.8,1.9,9,3.8,11.6c-3.8-16.2,3.2-25.4,14.2-28.2
	c-4.6,4.3-6.6,10.4-6.5,17.2C240.9,76.4,244.8,71,252.6,70.3z M285.2,70.2c-0.1,9.7,4,15.8,14.6,16.6c-2.9,12.7-12.3,16.1-24.2,13.7
	c-1-2-1.4-4.4-1.2-7.4c0.5-5.9,2-11.7,3.8-17.4c-0.4,5.8,0.3,11.3,1.9,16.4c-0.4-6.9-0.4-13.8,1.3-20.7c0.6,4.8,1.6,9.1,4.2,11.8
	C284.7,78.9,284.7,74.6,285.2,70.2z"/>
<path class="st9" d="M204.1,65.2C225,49,256.2,41,297.5,41.1c-0.3-8.6-0.5-14.6-0.8-23.1c-0.4,0-0.8-0.1-1.3-0.1v19.4l-1.4-19.5
	c-0.4,0-0.8,0-1.2-0.1V37l-1.3-19.3c-0.5,0-1,0-1.5-0.1v15.1l-1-15.1C244.3,16.6,201.4,32.7,204.1,65.2 M192.6,154.4
	c-34-54.8,30.2-107.1,105.5-101.7c20.7,6.1,7.6,24.1-6.9,19.8c-3.7-2.2-3.6-6.8-7-8.9c-2,0.1-3.9,3.2-4.9,4.7
	c-1.6-3.1-9.9-9.2-18.1-3.6c-11.8-2.9-28.1,0.7-37.3,17.1c-8.1,3.3-15.2,7.4-17.5,15.5c-6,3.8-9.7,11.8-9,19.1
	C187.1,124.9,188.9,142.5,192.6,154.4z"/>
<path class="st10" d="M269.5,18.3v24.2c-0.8,0.1-1.5,0.2-2.3,0.3l-1.6-19.8L264.6,43c-0.8,0.1-1.7,0.2-2.5,0.3l-1.5-18.9l-1,19.3
	c-0.9,0.1-1.8,0.3-2.8,0.4l-1.2-14.9l-0.8,15.2c-20.8,3.8-37.7,10.7-50.6,20.7C201.8,37.5,232.6,21.7,269.5,18.3 M183.7,130.5
	c-5.9-45.1,50.2-82.4,114.4-77.8c-17.3,1.6-32.8,5.3-46.3,11.1c-9.5,0.5-19.8,5.2-26.7,16.1c-1.1,0.9-2.2,1.8-3.2,2.7
	c-7.2,3.2-13.3,7.3-15.4,14.6c-5.2,3.3-8.7,9.8-9,16.2c-1.2,2.2-2.4,4.5-3.5,6.8c-1.3,2-2.3,4.2-3,6.6l0,0
	C188.7,129.8,186.3,130.6,183.7,130.5z"/>
<path class="st11" d="M260.1,185.8c7,4.6,15.9,5.6,26.6,2.7c-5,4.2-13,3.7-19,2.5c3.2,2.7,13.2,4.5,19.5,0.3
	c7.5-5.1,11.4-1.3,13.4,5.9c2.4,8.6,0.3,15.4-7.4,18.1c-11.5,3.9-23.2,3.8-34.7-3.6c-1.6-2.2-2.7-5.6-3.2-10.7
	c-0.3,3,0.1,5.6,0.5,8.1C252.9,200.6,252.5,192.5,260.1,185.8 M295.8,159.8c9.4,4.4,15.5,3.2,23,4.3c3.6,0.5,0.7,19.6-13.2,12.7
	c-4.3-2.1-7.2-5.5-9.5-9.5c2.1,2.2,4.2,4.2,7,4.8C298.4,168.2,295.1,164.6,295.8,159.8z M266.9,151.6c1.9-2.9,6.2-4.9,11.8-3.7
	c0.7,3,1.7,9.3-0.9,9c-4.4-0.5-9.5-0.2-12.1,3.8c6.6-2.7,12.4-2.8,15.8,2.7c3.2,5.3-3.1,10.5-6.8,10.8c-3.4,0.3-5.5,0.2-9.3-2.5
	c-2.8-1.4-4.2,2.5,0.1,2.1c4.5,5.4,15,9.3,28.1,5.7c-6.3,11.3-26.8,9.5-33.5,3.9c-0.4-1.7-0.4-3.8,1-8.1c-1.3,1.8-1.8,3.8-2.1,5.8
	c-0.3-2.6-0.1-5.8,1.4-7.9c0.9,0.1,1.5,0,1.2-1c-0.8-4.6-0.5-6.2,2-9.9c-6.3,5.7-11.9,9-19.3,9.7c4.8,1.1,10.6,0.1,13.6-2.9
	c-1.8,17.2-12.3,19.6-12.4,30.3c1.2-3.8,3.3-8.7,8.6-13c-2.3,4.8-3.4,9.5-3.8,14.1c-0.5,5.6-6.9,3.2-11.1,0.4
	c-12.6-8.7-11.4-20-12.5-35.4C247.7,169.1,265.2,161,266.9,151.6z M271.1,103.3c4,7.6,12.1,10.8,21.5,12.6
	c-14.6,2.7-26.5-3.9-38.5,1.8c16.3-2.7,23.2,2.8,36.6,0.3c-6.2,4.2-13.8,8.2-20.5,6.8c-8.6-1.8-9.3-3.7-18.4-2.4
	c18.2,1.2,15.7,9.4,34,2.4c3.7-1.4,6.5,0.6,9,2.4c-3.1,0.3-5.4,1.1-6.6,2.8c-1.3,1.9-0.7,3.7,1.4,3.3c3.2-0.6,6.1-2.5,9.2-3.7
	c4-0.4,6.3,1,8.8,3c-8.9-0.4-18.6,1.9-25.9,14.1c-4.7-3.6-11.5-2.7-15.6,0.6c-0.7-1.2-1.8-2.6-2.4-3.6c1-0.9,1.4-3.1,0.9-4.7
	c-6.3-8.9-12.2-12.9-24-9.9c2.7-3.6,3.6-5.4,4.5-9.9c6.8-1.5,14.6-6.8,17.7-14.7C265.4,104,268.2,103.7,271.1,103.3z M233.7,135.7
	c7.3-7.4,14.3-5.7,21.2-1.2c1.7,1.1,3.1,1,4.1-0.3c1.7,2.3,1.4,4.1,0.4,5.7C252.7,135.3,242.8,133.7,233.7,135.7z M242.7,208
	c2.9,1.5,6.2,2.7,9.8,3.8c3.1,7.7,8.6,13.1,14.7,17.7c-4.7-4.8-8.5-9.7-11.5-14.6c13.2,11.9,27,16.1,41,18.4
	c-15.2,3.2-34.7,2.7-50.6-13.4C245,216,243.9,212,242.7,208z"/>
<path class="st12" d="M253.9,171.4c-1.6,11.4-9.1,18.3-10.4,28c-2.3,0.1-4.9-0.5-7.5-1.5c1,0.9,2.1,1.8,3.4,2.7
	c4.1,2.9,10.6,5.2,11.1-0.4c0.4-4.6,1.5-9.3,3.8-14.1c-5.4,4.3-7.4,9.3-8.6,13c0.1-10.6,10.6-13.1,12.4-30.3
	C256.9,170.1,255.5,170.9,253.9,171.4"/>
<path class="st12" d="M260.1,185.8c8.4,9.7,19.6,11.6,32.5,8.9c2.7,12.2,0.2,19.9-8,22.6c2.9-0.4,5.7-1.2,8.6-2.1
	c7.7-2.6,9.8-9.5,7.4-18.1c-2-7.2-5.9-11-13.4-5.9c-6.2,4.2-16.3,2.5-19.5-0.3c6,1.3,14,1.7,19-2.5
	C275.9,191.4,267.1,190.5,260.1,185.8 M277.8,180.3L277.8,180.3c3.1,1.3,6.2,2.1,9.4,2.5c-2,2.5-4.9,3.9-8.1,4.8
	c6-0.6,11.7-3,14.5-8.1C287.7,181,282.4,181.1,277.8,180.3z M277.4,159.6c4.4,7.8,1.4,12.3-6.7,14.5c1.3,0.2,2.5,0.2,4,0.1
	c3.7-0.3,10-5.5,6.8-10.8C280.4,161.5,279,160.3,277.4,159.6z M279.5,154.5c-8.9,0.8-12.7,3.1-13.8,6.2c2.6-4,7.7-4.3,12.1-3.8
	C279,157,279.4,155.9,279.5,154.5z M262.1,158.9L262.1,158.9c-10,8.8-21.9,11.6-35,10.3c-0.1-1.3-0.2-2.6-0.2-3.9
	C241.9,168.1,255.2,164.6,262.1,158.9z M252.5,211.9c3.1,7.7,8.6,13.1,14.7,17.7c-4.7-4.8-8.5-9.7-11.5-14.6
	c13.2,11.9,27,16.1,41,18.4c-9.5,2-20.5,2.6-31.4-1.2C258.3,226.3,253.6,219.6,252.5,211.9z"/>
<path class="st12" d="M313.6,163.6c0.8,9.4-3,12.9-11,11.4c0.9,0.7,1.9,1.3,3,1.8c13.9,6.9,16.8-12.2,13.2-12.7
	C317,163.8,315.3,163.7,313.6,163.6 M285.2,124.9c1.4,0.9,2.8,1.7,4.3,2.3c-4.7,2.7-6.8,5-9.9,10.6c2.3-2.1,5.1-3.7,8.1-5
	c-0.6-0.6-0.5-1.8,0.3-2.9c1.2-1.7,3.5-2.5,6.6-2.8c-2.5-1.7-5.3-3.8-9-2.4L285.2,124.9z M277.9,118.3c1.3,1.6,2.8,3.1,4.4,4.5
	c2.9-1.3,5.7-3,8.3-4.8C285.8,118.9,281.8,118.8,277.9,118.3z M271.1,103.3c0.9,4.7,2.7,9,5.2,12.8c5.1,0.5,10.5,0.9,16.3-0.2
	C283.1,114.1,275.1,110.9,271.1,103.3z"/>
<path class="st2" d="M303.5,235.6c2.2,5.8,2.9,10.5,2.2,16.5c-6.8,3.7-13.6,3.5-21.1-1.7c-2-1.4-3.1-10.2-0.1-10.1
	C291.3,241.2,297.1,239.8,303.5,235.6"/>
<path class="st2" d="M240.3,216.9c5.7,13,14.3,23.1,33.6,22.9c-2.3,10.8-6.2,15-10.4,14C247.3,250,237.5,239,240.3,216.9"/>
<path class="st2" d="M232.4,224.7c-1.1,20.8,10.4,36.3,35.3,46.2c-2.6,0-5.2,0.1-7.8,0.1c-12-3.7-23-10.1-31-16.7
	c5.4,6.8,11.9,12.5,19.8,16.9c-21,0.5-42,1.4-62.9,2.7C197.2,255.3,213.2,239.1,232.4,224.7"/>
<path class="st3" d="M232.4,224.7c-1.1,20.8,10.4,36.3,35.3,46.2c-2.6,0-5.2,0.1-7.8,0.1c-12-3.7-23-10.1-31-16.7
	c5.4,6.8,11.9,12.5,19.8,16.9c-8.2,0.2-16.4,0.4-24.6,0.7c-2-9.6-0.4-20,4.9-31.4c0.7,6,2.3,10.4,6.1,13.6
	C230.6,247,229.7,235.3,232.4,224.7 M260.4,237.9c3.8,1.3,8.2,2,13.4,1.9c-2.3,10.8-6.2,15-10.4,14c-6.7-1.6-12.3-4.4-16.4-8.8
	c4.3,2.1,8.6,3.8,13,4.2C259.1,245.8,259,242.1,260.4,237.9L260.4,237.9z M303.5,235.6c2.2,5.8,2.9,10.5,2.2,16.5
	c-5.9,3.2-11.8,3.5-18.2,0.1c-0.9-2.1-1.4-4.9-1.2-9.1c3.9,0,6.2-1.7,8.4-3.4v0C297.6,238.9,300.5,237.6,303.5,235.6z"/>
</svg>
